<svg width="23" height="20" viewBox="0 0 23 20" fill="none" xmlns="http://www.w3.org/2000/svg">
<path fill-rule="evenodd" clip-rule="evenodd" d="M6.17577 0.0551616C5.79054 0.143645 5.33218 0.330944 5.01573 0.529222C4.64744 0.759929 4.12915 1.27582 3.88462 1.65514C3.77447 1.826 3.45281 2.51612 3.16983 3.18869L2.65531 4.41158L1.53228 4.43474C0.486711 4.45633 0.400546 4.46453 0.282574 4.55385C0.0786614 4.70825 -0.00880659 4.92692 0.0103313 5.23448C0.0422726 5.74819 0.278081 5.91701 0.963764 5.9171L1.41225 5.91719L1.18061 6.12613C0.685052 6.57318 0.25818 7.32589 0.0906114 8.04822C0.00660252 8.41049 -0.000675253 8.59019 4.35394e-05 10.2951C0.000537709 11.3759 0.0197654 12.2328 0.0462709 12.3513C0.114331 12.6558 0.311325 13.0394 0.526065 13.2857L0.717443 13.5052V14.3354C0.717443 15.2269 0.753922 15.4483 0.974771 15.8981C1.12104 16.196 1.5366 16.6219 1.83099 16.7758C2.26321 17.0016 2.4934 17.0356 3.59261 17.0356C4.93653 17.0356 5.26219 16.9476 5.80258 16.4382C6.26715 16.0004 6.46778 15.4441 6.46778 14.5937V14.0707H8.26009H10.0524L10.0828 13.6885C10.0995 13.4783 10.1318 13.1812 10.1545 13.0283C10.1772 12.8755 10.196 12.7139 10.1962 12.6693C10.1965 12.5933 10.0683 12.5882 8.12999 12.5882C6.9934 12.5882 6.06346 12.5807 6.06346 12.5715C6.06346 12.5254 6.99241 10.7319 7.10198 10.5664C7.26559 10.3195 7.56596 10.0479 7.85438 9.88599C8.25816 9.65936 8.55151 9.62513 10.1067 9.62304L11.5218 9.62115L11.6566 9.4325C11.9131 9.07343 12.7816 8.25261 13.2325 7.9431C14.3012 7.20943 15.3934 6.81755 16.6979 6.6997C17.5829 6.61978 18.6124 6.74093 19.4173 7.01977C19.5593 7.06897 19.6756 7.10014 19.6756 7.08907C19.6756 7.02408 19.3413 6.58749 19.0542 6.27766L18.7203 5.91719L19.1642 5.9171C19.8782 5.91701 20.1024 5.73985 20.1024 5.17597C20.1024 4.81175 20.0197 4.65123 19.7622 4.51591C19.628 4.4453 19.4665 4.43488 18.5044 4.43483L17.4007 4.43474L16.9321 3.2221C16.4013 1.84847 16.2197 1.52191 15.7082 1.02079C15.2966 0.617706 14.888 0.363604 14.3296 0.163473L13.9028 0.0105491L10.1741 0.00188622C7.20194 -0.00501644 6.39065 0.00577738 6.17577 0.0551616ZM6.43943 1.539C6.12303 1.60993 5.9494 1.69369 5.64467 1.92231C5.27176 2.20217 5.10315 2.49366 4.51451 3.8766L3.96144 5.17597H10.0614H16.1615L15.6272 3.9188C15.3334 3.22738 15.052 2.59312 15.0017 2.50931C14.8517 2.25906 14.3933 1.85439 14.0935 1.70763C13.9392 1.63207 13.693 1.54767 13.5464 1.52006C13.13 1.44162 6.79834 1.45849 6.43943 1.539ZM16.2838 8.21458C13.5254 8.71648 11.4993 11.1963 11.4993 14.0707C11.4993 16.7768 13.2857 19.1418 15.8441 19.8226C16.5469 20.0096 17.4542 20.0529 18.1515 19.9327C20.9501 19.4501 23 16.9717 23 14.0707C23 13.1161 22.8117 12.2996 22.3921 11.4353C21.5537 9.70824 20.0308 8.54405 18.176 8.21226C17.6854 8.12447 16.7727 8.12563 16.2838 8.21458ZM2.62009 8.93139C2.14537 9.07764 2.01392 9.82155 2.40085 10.1719C2.60894 10.3603 2.73312 10.3736 4.11729 10.3562C5.22288 10.3423 5.30082 10.3356 5.41731 10.2459C5.65289 10.0643 5.72504 9.91842 5.72504 9.62332C5.72504 9.32822 5.65289 9.18229 5.41731 9.00079C5.29965 8.91012 5.2289 8.9048 4.02744 8.89655C3.3312 8.89173 2.69785 8.90739 2.62009 8.93139ZM17.0072 11.1515C16.8224 11.2119 16.6276 11.4201 16.5758 11.6127C16.5514 11.7033 16.5313 12.1251 16.5311 12.5499L16.5309 13.3222L15.6804 13.3374C14.7507 13.3541 14.7116 13.365 14.4903 13.6706C14.3615 13.8485 14.3615 14.2929 14.4903 14.4708C14.7114 14.7762 14.7511 14.7874 15.677 14.8039L16.524 14.819L16.5386 15.6924C16.5547 16.6472 16.5655 16.6881 16.8617 16.9162C17.0342 17.049 17.4651 17.049 17.6377 16.9162C17.9338 16.6881 17.9446 16.6472 17.9607 15.6924L17.9754 14.819L18.8223 14.8039C19.7482 14.7874 19.7879 14.7762 20.009 14.4708C20.1379 14.2929 20.1379 13.8485 20.009 13.6706C19.7879 13.3652 19.7482 13.354 18.8223 13.3375L17.9754 13.3223L17.9607 12.449C17.9447 11.5011 17.9319 11.4507 17.6512 11.2363C17.5202 11.1362 17.188 11.0924 17.0072 11.1515Z" fill="#00C868"/>
</svg>
