<svg width="22" height="22" viewBox="0 0 22 22" fill="none" xmlns="http://www.w3.org/2000/svg">
<path d="M9.06119 21.1925C8.81582 21.3341 8.56222 21.3699 8.3004 21.2997C8.03858 21.2296 7.83683 21.0718 7.69516 20.8264C7.5535 20.5811 7.51774 20.3275 7.5879 20.0656C7.65805 19.8038 7.81582 19.6021 8.06119 19.4604L8.92722 18.9604L5.42722 12.8982C4.73555 11.7002 4.48181 10.4274 4.666 9.07976C4.85019 7.73212 5.4363 6.58062 6.42433 5.62528L6.07433 5.01906C5.866 4.65822 5.81521 4.27859 5.92197 3.88016C6.02872 3.48174 6.26252 3.17836 6.62337 2.97003C6.98421 2.76169 7.36385 2.7109 7.76227 2.81766C8.16069 2.92442 8.46407 3.15822 8.67241 3.51906L9.02241 4.12528C10.3438 3.74729 11.6341 3.81545 12.8932 4.32976C14.1524 4.84407 15.1279 5.70023 15.8195 6.89823L19.3195 12.9604L20.1855 12.4604C20.4309 12.3187 20.6845 12.283 20.9463 12.3531C21.2082 12.4233 21.4099 12.5811 21.5516 12.8264C21.6932 13.0718 21.729 13.3254 21.6588 13.5872C21.5887 13.849 21.4309 14.0508 21.1855 14.1925L9.06119 21.1925ZM16.6234 20.2905C16.1471 20.5655 15.6414 20.6314 15.1064 20.488C14.5713 20.3446 14.1663 20.0348 13.8913 19.5585L17.3554 17.5585C17.6304 18.0348 17.6962 18.5405 17.5529 19.0755C17.4095 19.6105 17.0997 20.0155 16.6234 20.2905ZM2.82914 14.3982C2.58377 14.5399 2.32392 14.5648 2.0496 14.473C1.77527 14.3812 1.58171 14.2043 1.46892 13.9423C0.959385 12.7931 0.681244 11.6113 0.634492 10.397C0.587739 9.18268 0.746858 8.00828 1.11185 6.87379C1.20782 6.60669 1.37905 6.4116 1.62554 6.28854C1.87203 6.16547 2.12578 6.16331 2.38678 6.28205C2.64779 6.40078 2.83052 6.58396 2.93499 6.83156C3.03945 7.07917 3.04787 7.34374 2.96023 7.62528C2.70564 8.48433 2.6021 9.37165 2.64959 10.2872C2.69708 11.2028 2.90059 12.1053 3.26012 12.9947C3.37292 13.2567 3.39063 13.5208 3.31326 13.7867C3.23589 14.0527 3.07451 14.2566 2.82914 14.3982ZM18.4176 5.39823C18.1722 5.5399 17.915 5.57773 17.646 5.51175C17.3769 5.44576 17.1572 5.29841 16.9866 5.0697C16.3962 4.31365 15.7163 3.68616 14.9471 3.18724C14.178 2.68832 13.3578 2.33433 12.4865 2.12528C12.1989 2.06041 11.974 1.92084 11.8117 1.70656C11.6495 1.49229 11.5823 1.24245 11.61 0.957045C11.6376 0.671639 11.7664 0.452969 11.9962 0.301035C12.226 0.149101 12.4806 0.098354 12.7599 0.148792C13.9249 0.399945 15.0215 0.849344 16.0497 1.49699C17.078 2.14463 17.9624 2.97639 18.7028 3.99225C18.8734 4.22096 18.9298 4.47705 18.8721 4.76052C18.8145 5.04399 18.663 5.25656 18.4176 5.39823Z" fill="#004D73"/>
</svg>
