<svg width="12" height="11" viewBox="0 0 12 11" fill="none" xmlns="http://www.w3.org/2000/svg">
<path d="M5.11933 6.14121L4.16806 5.19169C4.08727 5.11275 3.99146 5.07235 3.88063 5.0705C3.76969 5.06866 3.67238 5.10959 3.58867 5.1933C3.50408 5.27778 3.46179 5.37481 3.46179 5.48438C3.46179 5.59395 3.50408 5.69005 3.58867 5.77269L4.76933 6.95336C4.86986 7.05583 4.98653 7.10707 5.11933 7.10707C5.25204 7.10707 5.36963 7.05583 5.4721 6.95336L7.85429 4.57132C7.93615 4.48936 7.97728 4.39369 7.97767 4.28432C7.97806 4.17494 7.93693 4.07748 7.85429 3.99192C7.76864 3.90811 7.67132 3.86548 7.56233 3.86403C7.45335 3.86247 7.35603 3.90452 7.27038 3.99017L5.11933 6.14121ZM3.68448 10.7395L2.88969 9.40219L1.37594 9.07917C1.25285 9.05379 1.15422 8.98939 1.08004 8.88594C1.00576 8.78259 0.9765 8.66695 0.99225 8.539L1.14144 6.99317L0.122792 5.82257C0.0409306 5.73176 0 5.62297 0 5.49619C0 5.36941 0.0409306 5.25965 0.122792 5.1669L1.14144 3.99921L0.99225 2.45338C0.9765 2.32543 1.00576 2.20979 1.08004 2.10644C1.15422 2.003 1.25285 1.93766 1.37594 1.91044L2.88969 1.59019L3.68448 0.25013C3.75185 0.142796 3.8429 0.0686643 3.95763 0.0277338C4.07244 -0.0131968 4.18838 -0.00882234 4.30544 0.0408582L5.72002 0.648983L7.1346 0.0408582C7.25166 -0.00882234 7.3676 -0.0131968 7.48242 0.0277338C7.59714 0.0686643 7.68819 0.142796 7.75556 0.25013L8.55035 1.59019L10.0641 1.91044C10.1872 1.93766 10.2858 2.003 10.36 2.10644C10.4343 2.20979 10.4635 2.32543 10.4478 2.45338L10.2986 3.99921L11.32 5.1669C11.4 5.25965 11.44 5.36941 11.44 5.49619C11.44 5.62297 11.4 5.73176 11.32 5.82257L10.2986 6.99317L10.4478 8.539C10.4635 8.66695 10.4343 8.78259 10.36 8.88594C10.2858 8.98939 10.1872 9.05379 10.0641 9.07917L8.55035 9.40219L7.75556 10.7395C7.68819 10.8487 7.59714 10.9237 7.48242 10.9647C7.3676 11.0056 7.25166 11.0012 7.1346 10.9515L5.72002 10.3434L4.30544 10.9515C4.18838 11.0012 4.07244 11.0056 3.95763 10.9647C3.8429 10.9237 3.75185 10.8487 3.68448 10.7395Z" fill="#00C868"/>
</svg>
