<svg width="34" height="34" viewBox="0 0 34 34" fill="none" xmlns="http://www.w3.org/2000/svg">
<path d="M13.7099 7.89079L13.7099 7.89079L13.7099 7.89117L14.4321 11.7797C14.4689 12.0748 14.4596 12.323 14.4046 12.5245C14.3496 12.7261 14.2489 12.9001 14.1023 13.0467L14.1022 13.0468L11.4078 15.769L11.4013 15.7756L11.4057 15.7837C11.7764 16.4696 12.2166 17.1322 12.7263 17.7717C13.2359 18.411 13.7965 19.0271 14.4079 19.62C14.9823 20.1944 15.5845 20.7272 16.2145 21.2182C16.8446 21.7093 17.5118 22.1587 18.216 22.5664L18.2243 22.5712L18.2311 22.5644L20.8422 19.9533C21.0072 19.7883 21.2229 19.6642 21.4898 19.5814C21.7566 19.4986 22.0185 19.4756 22.2757 19.5123C22.2758 19.5123 22.2759 19.5124 22.276 19.5124L26.1081 20.2899C26.365 20.3634 26.5756 20.4963 26.7405 20.6887C26.9054 20.881 26.9875 21.0958 26.9875 21.3333V25.8333C26.9875 26.1636 26.8776 26.4381 26.6578 26.6578C26.4381 26.8776 26.1636 26.9875 25.8333 26.9875C23.5204 26.9875 21.2351 26.4833 18.9773 25.4747C16.7195 24.4661 14.6652 23.0364 12.8144 21.1856C10.9636 19.3348 9.5339 17.2805 8.5253 15.0227C7.51671 12.7649 7.0125 10.4796 7.0125 8.16667C7.0125 7.83643 7.12245 7.5619 7.34217 7.34217C7.5619 7.12245 7.83643 7.0125 8.16667 7.0125H12.6667C12.9228 7.0125 13.1514 7.0993 13.3529 7.27335C13.5546 7.44755 13.6733 7.6533 13.7099 7.89079Z" fill="#AAAAAA" stroke="#AAAAAA" stroke-width="0.025"/>
<circle cx="17" cy="17" r="16.5" stroke="#AAAAAA"/>
</svg>
