<svg width="68" height="26" viewBox="0 0 68 26" fill="none" xmlns="http://www.w3.org/2000/svg">
<path fill-rule="evenodd" clip-rule="evenodd" d="M22.7355 0.0959167C20.0567 0.222564 17.9679 0.402624 13.1362 0.923528C8.58523 1.41428 6.31707 1.69607 6.22746 1.78184C6.19041 1.81749 6.38974 1.98268 6.67064 2.14897L7.18117 2.45141L5.63694 3.59178C4.78778 4.2191 3.63632 5.13825 3.0784 5.63452C2.19147 6.42331 2.03465 6.63778 1.83188 7.33915C1.36342 8.95872 1.11699 10.7764 1.09071 12.8084C1.06544 14.7542 1.04863 14.8653 0.762851 14.9666C0.328147 15.1208 0 15.6349 0 16.1618C0 17.2151 1.01761 18.2953 2.41579 18.7262C3.29238 18.9963 4.87021 19.281 4.96844 19.1867C5.01081 19.1461 5.13517 18.7021 5.24474 18.2001C5.72296 16.0091 7.32349 14.3211 9.62841 13.5768C10.4308 13.3177 10.8013 13.2845 12.4291 13.3254C14.2609 13.3714 14.3303 13.3845 15.3868 13.8853C17.7152 14.9888 18.9397 16.7647 19.1711 19.3734L19.2639 20.4186L24.1006 20.5091C26.7607 20.5588 33.3802 20.6405 38.8103 20.6906L48.6835 20.7819V19.7561C48.6835 17.0784 50.0179 14.9743 52.4173 13.8688L53.4944 13.3725H55.6485H57.8026L58.9199 13.8839C61.389 15.014 62.7571 17.1484 62.7571 19.8696V20.7779L63.9729 20.6883C66.0293 20.5369 67.4253 20.1467 67.9084 19.5888C68.0543 19.4202 68.0335 19.368 67.7911 19.2942C67.4345 19.1857 67.4277 19.0255 67.7332 17.9351C68.0823 16.6887 68.0748 14.7421 67.7185 14.1296C67.5103 13.7717 67.4491 13.4423 67.4809 12.8484C67.5163 12.1838 67.4629 11.9612 67.1638 11.5279C66.5264 10.6047 64.5969 9.58521 62.2007 8.90545C60.0405 8.29259 55.9043 7.64352 52.8481 7.43758L51.4838 7.34576L49.1143 6.1345C44.8646 3.9625 39.7791 1.9016 36.7534 1.12534C32.8941 0.135289 28.5885 -0.180917 22.7355 0.0959167ZM24.7726 1.69456C21.8177 1.92941 19.068 2.34982 16.4432 2.96791C14.1323 3.51208 10.0617 4.85357 9.70352 5.18905C9.50649 5.37351 11.545 6.23375 12.9509 6.55931C13.8689 6.772 15.7569 6.93003 21.1048 7.24183C24.9324 7.46511 28.0776 7.63471 28.0942 7.61874C28.1109 7.60277 28.0015 6.28909 27.851 4.69939C27.7006 3.1097 27.5765 1.76256 27.5752 1.70585C27.5731 1.60646 25.9625 1.59999 24.7726 1.69456ZM29.5833 1.68809C29.5832 1.99507 30.7855 7.60319 30.8716 7.69748C30.9536 7.7871 46.3107 8.76889 47.391 8.75361C47.7224 8.74893 47.6953 8.70157 47.0363 8.13565C43.6513 5.22842 38.1006 2.67993 33.6045 1.96878C31.842 1.68988 29.5835 1.53226 29.5833 1.68809ZM10.4869 14.7633C8.2749 15.3331 6.59639 17.1277 6.16198 19.3875C5.69841 21.7995 7.12631 24.3531 9.5859 25.5109C10.3466 25.8688 10.5418 25.8995 12.0632 25.8995C13.5982 25.8995 13.7754 25.871 14.5763 25.4958C15.671 24.9829 16.9931 23.7279 17.4438 22.7741C19.5591 18.297 15.3929 13.4996 10.4869 14.7633ZM54.1766 14.7553C53.0456 15.0473 52.3051 15.4582 51.4734 16.2555C48.8035 18.8147 49.2117 23.0171 52.3241 25.0138C54.3882 26.3381 56.966 26.3281 59.0776 24.9873C61.6189 23.3737 62.3884 19.7746 60.7271 17.272C59.3141 15.1435 56.6451 14.1181 54.1766 14.7553ZM10.7506 16.548C9.89509 16.8005 8.74651 17.7879 8.32128 18.6365C7.87494 19.5271 7.85455 20.9639 8.27576 21.8456C9.00414 23.37 10.3423 24.203 12.0632 24.203C14.4043 24.203 16.1392 22.5507 16.1355 20.3243C16.131 17.5969 13.4847 15.7411 10.7506 16.548ZM54.3422 16.5753C53.34 16.9189 52.5516 17.5527 52.069 18.4026C50.5771 21.0302 52.5412 24.196 55.6634 24.196C58.5256 24.196 60.4549 21.555 59.5182 18.9195C58.8319 16.989 56.3776 15.8774 54.3422 16.5753Z" fill="#CDD9D7"/>
</svg>
