<svg width="171" height="170" viewBox="0 0 171 170" fill="none" xmlns="http://www.w3.org/2000/svg">
<circle cx="85.4459" cy="85.1517" r="60" transform="rotate(45.576 85.4459 85.1517)" fill="#00C868" fill-opacity="0.3"/>
<g filter="url(#filter0_d_1_1077)">
<path d="M69.5869 107.099C69.638 107.1 69.6891 107.1 69.7417 107.101C69.742 107.296 69.7422 107.49 69.7424 107.691C69.7795 110.542 70.3334 113.017 72.2974 115.196C75.8934 118.69 81.3217 118.623 86.0165 118.594C89.96 118.564 89.96 118.564 93.7842 117.714C93.9201 117.673 94.056 117.632 94.196 117.59C96.6853 116.756 98.454 114.929 99.6307 112.647C100.236 111.41 100.41 110.248 100.471 108.88C100.483 108.667 100.483 108.667 100.494 108.45C100.512 108.104 100.529 107.757 100.544 107.41C100.595 107.411 100.646 107.411 100.699 107.412C101.211 109.952 101.214 112.344 99.8429 114.621C97.9485 117.326 95.0827 118.918 91.8717 119.487C91.0577 119.604 90.2407 119.655 89.4201 119.702C89.23 119.713 89.0399 119.724 88.844 119.736C76.5627 120.386 76.5627 120.386 72.1234 116.568C72.0136 116.475 71.9037 116.382 71.7906 116.287C70.2903 114.898 69.3094 112.874 69.2028 110.839C69.1804 109.568 69.3104 108.341 69.5869 107.099Z" fill="black"/>
<path d="M98.6393 50.695C98.8161 50.8566 98.8161 50.8566 98.9964 51.0215C100.497 52.4663 101.428 54.1877 101.573 56.2919C101.592 57.3859 101.482 58.4361 101.262 59.5082C101.088 60.5414 101.054 61.5934 100.996 62.6385C101.093 62.6416 101.191 62.6448 101.291 62.6481C102.291 62.7139 103.017 62.9165 103.773 63.5952C104.19 64.235 104.131 65.0231 104.061 65.7653C104.009 65.867 103.956 65.9686 103.903 66.0733C103.113 66.123 102.617 65.9418 101.915 65.589C101.737 65.501 101.56 65.413 101.377 65.3223C101.243 65.2539 101.109 65.1855 100.971 65.1151C100.931 70.3485 100.893 75.582 100.857 80.8155C100.852 81.4339 100.848 82.0524 100.844 82.6708C100.843 82.7939 100.842 82.917 100.841 83.0438C100.827 85.035 100.812 87.0262 100.797 89.0173C100.781 91.0617 100.767 93.1062 100.753 95.1506C100.745 96.4112 100.736 97.6719 100.725 98.9325C100.718 99.798 100.712 100.663 100.707 101.529C100.704 102.028 100.701 102.526 100.696 103.025C100.691 103.567 100.688 104.11 100.685 104.652C100.683 104.885 100.683 104.885 100.68 105.123C100.678 106.069 100.77 106.965 100.934 107.898C101.299 110.111 100.855 112.226 99.5654 114.066C97.5227 116.634 94.6752 118.119 91.4552 118.581C90.7815 118.651 90.1076 118.696 89.4315 118.735C89.2414 118.746 89.0513 118.757 88.8554 118.768C76.5741 119.419 76.5741 119.419 72.1348 115.6C71.9701 115.461 71.9701 115.461 71.802 115.319C70.3017 113.931 69.3208 111.906 69.2143 109.872C69.1997 108.929 69.2512 108.053 69.4341 107.129C69.6021 106.195 69.6495 105.294 69.6536 104.346C69.6565 104.091 69.6565 104.091 69.6595 103.832C69.6657 103.268 69.6697 102.705 69.6736 102.142C69.6776 101.736 69.6817 101.33 69.686 100.924C69.6949 100.053 69.7027 99.1819 69.7097 98.3107C69.7199 97.0513 69.7317 95.7918 69.744 94.5324C69.7639 92.4886 69.7824 90.4447 69.8 88.4009C69.8171 86.4166 69.8348 84.4322 69.8535 82.4479C69.8546 82.3254 69.8558 82.2029 69.8569 82.0767C69.8627 81.4621 69.8685 80.8475 69.8743 80.2329C69.9223 75.1415 69.968 70.0501 70.0123 64.9586C69.8996 65.0134 69.7869 65.0681 69.6708 65.1245C69.4452 65.23 69.4452 65.23 69.2151 65.3376C68.9931 65.4432 68.9931 65.4432 68.7667 65.5508C68.2658 65.7282 67.8997 65.7542 67.3731 65.7061C67.1221 65.45 67.1973 65.1625 67.1983 64.8143C67.2303 63.6914 67.2303 63.6914 67.5528 63.2311C68.3657 62.5475 69.1461 62.345 70.1935 62.3288C70.14 60.534 70.14 60.534 69.9101 58.7558C69.491 56.2772 69.8634 54.085 71.2207 51.9444C72.9586 49.5649 75.7076 48.1189 78.5862 47.6435C84.7551 46.867 93.6831 46.0887 98.6393 50.695Z" fill="#00C868"/>
<path d="M74.8303 94.1076C75.0969 94.167 75.3607 94.2391 75.6228 94.3157C81.9841 96.1124 88.4573 96.6955 94.7948 94.398C95.1074 94.3115 95.1074 94.3115 95.7265 94.3177C95.7972 94.7472 95.8669 95.1768 95.9361 95.6066C95.9558 95.7254 95.9754 95.8442 95.9957 95.9667C96.2695 97.6801 96.3197 99.3624 96.297 101.096C96.2956 101.293 96.2942 101.491 96.2928 101.694C96.2896 101.981 96.2896 101.981 96.2863 102.274C96.2844 102.445 96.2825 102.617 96.2806 102.794C96.2536 103.339 96.2092 103.85 96.0898 104.383C95.6979 104.659 95.394 104.83 94.9611 105.011C94.8478 105.061 94.7345 105.112 94.6177 105.164C94.2805 105.313 93.9411 105.456 93.6007 105.597C93.4358 105.669 93.2708 105.741 93.1009 105.815C87.9656 107.907 82.2673 107.667 77.1918 105.587C74.6833 104.48 74.6833 104.48 74.1147 103.698C74.0281 103.212 74.0414 102.733 74.0526 102.24C74.0538 102.096 74.055 101.952 74.0563 101.803C74.0596 101.497 74.0645 101.191 74.0708 100.885C74.0798 100.427 74.0832 99.9678 74.0858 99.5088C74.139 94.7852 74.139 94.7852 74.8303 94.1076Z" fill="black"/>
<path d="M95.4199 64.4466C95.5496 64.4845 95.6793 64.5225 95.8129 64.5616C98.2222 65.2925 98.2222 65.2925 98.6386 65.7173C98.9478 68.9308 97.6563 72.1924 96.7595 75.2304C96.4359 76.3272 96.1179 77.4193 95.8781 78.5382C95.3986 78.4535 94.946 78.3277 94.4855 78.1729C90.0729 76.6905 85.3349 76.2251 80.723 76.9926C80.6001 77.013 80.4772 77.0334 80.3505 77.0543C78.8329 77.311 77.3491 77.6241 75.8746 78.0686C75.4478 78.178 75.4478 78.178 74.8286 78.1718C74.7919 78.0266 74.7552 77.8814 74.7174 77.7317C74.5779 77.1799 74.4382 76.628 74.2984 76.0762C74.2363 75.8309 74.1742 75.5856 74.1122 75.3403C73.8018 74.1125 73.4911 72.8857 73.1494 71.6662C72.595 69.6822 72.2049 67.6751 72.3233 65.6076C73.382 65.0526 74.4282 64.6401 75.5775 64.3148C75.7326 64.2703 75.8877 64.2259 76.0476 64.1801C77.4839 63.7771 78.9236 63.4454 80.3971 63.2119C80.5045 63.1949 80.6118 63.1778 80.7224 63.1602C85.6358 62.4278 90.6848 63.0591 95.4199 64.4466Z" fill="black"/>
<path d="M95.4198 64.4466C95.5495 64.4845 95.6792 64.5225 95.8129 64.5616C98.2222 65.2925 98.2222 65.2925 98.6386 65.7173C98.6469 66.0043 98.6458 66.2915 98.6396 66.5784C98.6366 66.7351 98.6336 66.8917 98.6306 67.053C98.6261 67.2347 98.6261 67.2347 98.6214 67.42C98.4861 67.3811 98.3508 67.3422 98.2114 67.3022C97.6549 67.1491 97.0974 67.0061 96.5365 66.8699C96.2872 66.8091 96.0382 66.7467 95.7898 66.6822C93.426 66.0864 91.0652 66.0473 88.6411 66.0232C88.4796 66.0213 88.3182 66.0194 88.1519 66.0174C85.5334 65.9916 83.0993 66.1803 80.5448 66.8029C80.3584 66.8477 80.172 66.8926 79.98 66.9388C78.4513 67.3187 76.9953 67.8129 75.5458 68.4264C75.4578 69.988 75.6563 71.3993 75.965 72.9199C76.0143 73.1784 76.0635 73.4368 76.112 73.6954C75.7863 73.7005 75.4605 73.7032 75.1347 73.7049C74.9533 73.7067 74.7719 73.7085 74.585 73.7103C74.0998 73.6752 74.0998 73.6752 73.6385 73.3609C73.5108 73.0703 73.5108 73.0703 73.4128 72.7153C73.3761 72.5835 73.3393 72.4517 73.3014 72.3159C73.2643 72.174 73.2272 72.032 73.189 71.8858C73.1501 71.7401 73.1112 71.5943 73.0712 71.4442C72.5731 69.5193 72.2087 67.6024 72.3233 65.6076C73.3819 65.0526 74.4281 64.6401 75.5774 64.3148C75.7326 64.2703 75.8877 64.2259 76.0475 64.1801C77.4839 63.7771 78.9236 63.4454 80.3971 63.2119C80.5044 63.1949 80.6118 63.1778 80.7224 63.1602C85.6357 62.4278 90.6848 63.0591 95.4198 64.4466Z" fill="black"/>
<path d="M98.6352 50.6963C98.812 50.8579 98.812 50.8579 98.9923 51.0228C100.493 52.4676 101.424 54.189 101.569 56.2932C101.591 57.5541 101.447 58.7787 101.173 60.0099C101.122 60.0094 101.071 60.0089 101.018 60.0084C101.015 59.7919 101.015 59.7919 101.011 59.5711C100.913 56.739 100.035 54.4135 97.9989 52.3927C94.626 49.2848 89.813 49.4988 85.538 49.4423C85.3916 49.44 85.2453 49.4377 85.0946 49.4353C83.4986 49.4124 81.9157 49.4345 80.3243 49.564C80.1935 49.5744 80.0628 49.5848 79.9282 49.5954C77.0366 49.8603 74.2062 51.0879 72.2721 53.2921C70.7843 55.2756 70.3595 57.2869 70.2158 59.6987C70.1648 59.6982 70.1137 59.6977 70.0611 59.6972C69.4944 56.8868 69.6503 54.4158 71.2166 51.9457C72.9545 49.5662 75.7035 48.1202 78.5821 47.6448C84.751 46.8683 93.679 46.09 98.6352 50.6963Z" fill="black"/>
<path d="M71.0859 66.3667C71.4324 66.898 71.5124 67.3651 71.614 67.9769C71.6339 68.0915 71.6539 68.2061 71.6745 68.3242C71.7174 68.5711 71.7598 68.8181 71.8019 69.0652C71.9128 69.7163 72.0273 70.3667 72.1416 71.0172C72.1645 71.1483 72.1875 71.2795 72.2111 71.4146C72.4277 72.6467 72.6619 73.875 72.9041 75.1023C72.9398 75.2839 72.9754 75.4655 73.0121 75.6527C73.2092 76.6486 73.2092 76.6486 73.4598 77.632C73.6613 78.4699 73.626 79.3031 73.6092 80.1598C73.607 80.3333 73.6048 80.5067 73.6025 80.6854C73.5953 81.2358 73.5859 81.7861 73.5764 82.3364C73.5711 82.711 73.5659 83.0857 73.5609 83.4604C73.5483 84.3756 73.5337 85.2907 73.5181 86.2059C72.7004 86.2487 71.8826 86.2916 71.04 86.3357C71.0385 86.489 71.0369 86.6422 71.0353 86.8001C71.8526 86.8083 72.6699 86.8165 73.5119 86.825C73.7523 91.5804 73.3355 95.4606 71.4478 99.8543C71.24 100.348 71.0564 100.841 70.8891 101.35C70.838 101.35 70.7869 101.349 70.7343 101.349C70.8503 89.8045 70.9664 78.2605 71.0859 66.3667Z" fill="black"/>
<path d="M99.8303 67.0049C99.4845 67.5245 99.3978 67.9859 99.2875 68.5901C99.2659 68.7033 99.2444 68.8164 99.2221 68.933C99.1757 69.1769 99.1298 69.4209 99.0842 69.6649C98.964 70.3079 98.8404 70.9501 98.717 71.5925C98.6922 71.722 98.6674 71.8515 98.6418 71.985C98.4079 73.2017 98.1571 74.4142 97.8984 75.6256C97.8604 75.8049 97.8223 75.9842 97.7831 76.1689C97.5727 77.1519 97.5727 77.1519 97.3107 78.1215C97.0993 78.9479 97.117 79.7742 97.1164 80.6235C97.1151 80.7954 97.1138 80.9674 97.1125 81.1445C97.1087 81.69 97.1069 82.2355 97.1053 82.781C97.1031 83.1524 97.1007 83.5238 97.0982 83.8951C97.0924 84.8023 97.0884 85.7095 97.0855 86.6166C97.8762 86.6752 98.6669 86.7338 99.4815 86.7942C99.48 86.9461 99.4785 87.0979 99.4769 87.2544C98.6857 87.2465 97.8945 87.2385 97.0793 87.2303C96.7529 91.938 97.08 95.7912 98.8206 100.182C99.012 100.676 99.18 101.168 99.3319 101.676C99.3814 101.676 99.4308 101.677 99.4818 101.677C99.5968 90.2353 99.7118 78.7934 99.8303 67.0049Z" fill="black"/>
<path d="M97.5753 51.9124C98.259 52.3478 98.7724 52.888 99.1402 53.6092C99.2601 54.3464 99.2364 55.0712 99.2051 55.8158C98.7576 55.9453 98.5184 56.0028 98.0864 55.8081C97.9039 55.68 97.9039 55.68 97.7178 55.5493C97.5735 55.4488 97.4292 55.3484 97.2806 55.2449C97.1976 55.1858 97.1146 55.1267 97.029 55.0658C96.6844 54.8248 96.3341 54.5932 95.9833 54.3611C95.7158 54.1812 95.4483 54.0012 95.1809 53.8209C95.0495 53.7345 94.9182 53.648 94.7828 53.559C94.6601 53.4748 94.5373 53.3907 94.4109 53.304C94.3 53.2296 94.1892 53.1551 94.075 53.0784C93.7468 52.7501 93.7163 52.4989 93.6701 52.0449C94.7684 51.3078 96.392 51.3665 97.5753 51.9124Z" fill="white"/>
<path d="M73.6743 51.6246C72.984 52.054 72.4612 52.5938 72.08 53.3207C71.9455 54.069 71.9545 54.8075 71.9706 55.5664C72.414 55.7073 72.6514 55.7707 73.0859 55.5813C73.2704 55.4545 73.2704 55.4545 73.4586 55.3251C73.6045 55.2258 73.7503 55.1264 73.9006 55.0241C73.9845 54.9656 74.0685 54.9071 74.155 54.8468C74.5034 54.6083 74.8573 54.3796 75.2116 54.1504C75.482 53.9726 75.7523 53.7946 76.0225 53.6165C76.1552 53.5312 76.2879 53.4458 76.4246 53.3578C76.5486 53.2747 76.6727 53.1915 76.8005 53.1058C76.9125 53.0322 77.0245 52.9586 77.1399 52.8828C77.4737 52.5551 77.5092 52.2999 77.5645 51.8386C76.4845 51.0658 74.865 51.0927 73.6743 51.6246Z" fill="white"/>
<path d="M96.7828 111.823C97.363 112.095 97.6018 112.314 97.8554 112.918C97.8387 113.377 97.8387 113.377 97.6912 113.845C96.3669 114.816 94.7946 115.121 93.19 115.038C93.192 114.834 93.1941 114.629 93.1962 114.419C93.4972 114.143 93.7811 113.916 94.1131 113.683C94.2043 113.617 94.2955 113.551 94.3894 113.483C94.6659 113.283 94.9444 113.087 95.224 112.891C95.383 112.78 95.5419 112.669 95.7057 112.555C96.063 112.308 96.4217 112.064 96.7828 111.823Z" fill="#FF0000"/>
<path d="M73.1067 111.587C73.8892 111.843 74.468 112.324 75.1066 112.826C75.2139 112.909 75.3213 112.992 75.4318 113.078C75.9954 113.515 76.5528 113.959 77.1031 114.413C77.0505 114.566 76.9979 114.719 76.9436 114.876C75.4001 114.965 73.6991 114.564 72.4673 113.593C72.2782 113.155 72.2782 113.155 72.3218 112.662C72.545 112.268 72.8094 111.927 73.1067 111.587Z" fill="#FF0000"/>
<g opacity="0.1" filter="url(#filter1_f_1_1077)">
<path d="M81.6677 65.0098L83.0362 70.3303L84.4046 75.6508" stroke="white" stroke-width="5" stroke-linecap="round"/>
</g>
</g>
<defs>
<filter id="filter0_d_1_1077" x="63.187" y="47.0532" width="44.9236" height="81.0073" filterUnits="userSpaceOnUse" color-interpolation-filters="sRGB">
<feFlood flood-opacity="0" result="BackgroundImageFix"/>
<feColorMatrix in="SourceAlpha" type="matrix" values="0 0 0 0 0 0 0 0 0 0 0 0 0 0 0 0 0 0 127 0" result="hardAlpha"/>
<feOffset dy="4"/>
<feGaussianBlur stdDeviation="2"/>
<feComposite in2="hardAlpha" operator="out"/>
<feColorMatrix type="matrix" values="0 0 0 0 0 0 0 0 0 0 0 0 0 0 0 0 0 0 0.5 0"/>
<feBlend mode="normal" in2="BackgroundImageFix" result="effect1_dropShadow_1_1077"/>
<feBlend mode="normal" in="SourceGraphic" in2="effect1_dropShadow_1_1077" result="shape"/>
</filter>
<filter id="filter1_f_1_1077" x="78.1672" y="61.5093" width="9.73804" height="17.6421" filterUnits="userSpaceOnUse" color-interpolation-filters="sRGB">
<feFlood flood-opacity="0" result="BackgroundImageFix"/>
<feBlend mode="normal" in="SourceGraphic" in2="BackgroundImageFix" result="shape"/>
<feGaussianBlur stdDeviation="0.5" result="effect1_foregroundBlur_1_1077"/>
</filter>
</defs>
</svg>
