<svg width="20" height="20" viewBox="0 0 20 20" fill="none" xmlns="http://www.w3.org/2000/svg">
<path d="M1.09964 17.8007H12.096C12.4076 17.8007 12.6688 17.9061 12.8795 18.1169C13.0903 18.3276 13.1957 18.5888 13.1957 18.9004C13.1957 19.2119 13.0903 19.4731 12.8795 19.6839C12.6688 19.8946 12.4076 20 12.096 20H1.09964C0.788076 20 0.526911 19.8946 0.316147 19.6839C0.105382 19.4731 0 19.2119 0 18.9004C0 18.5888 0.105382 18.3276 0.316147 18.1169C0.526911 17.9061 0.788076 17.8007 1.09964 17.8007ZM4.64598 13.0998L1.5395 9.99327C1.11797 9.57174 0.902621 9.054 0.893458 8.44003C0.884294 7.82607 1.09048 7.30832 1.51201 6.88679L2.30924 6.08955L8.5772 12.3025L7.77996 13.0998C7.35843 13.5213 6.8361 13.7321 6.21297 13.7321C5.58984 13.7321 5.06751 13.5213 4.64598 13.0998ZM13.1957 7.68403L6.98272 1.41608L7.77996 0.61884C8.20148 0.197311 8.71923 -0.00887121 9.3332 0.000292458C9.94716 0.00945613 10.4649 0.224802 10.8864 0.646331L13.9929 3.75281C14.4145 4.17434 14.6252 4.69667 14.6252 5.3198C14.6252 5.94293 14.4145 6.46526 13.9929 6.88679L13.1957 7.68403ZM17.4843 18.1306L3.90372 4.55005L5.44322 3.01056L19.0238 16.5911C19.2254 16.7927 19.3262 17.0493 19.3262 17.3609C19.3262 17.6724 19.2254 17.929 19.0238 18.1306C18.8222 18.3322 18.5656 18.433 18.254 18.433C17.9425 18.433 17.6859 18.3322 17.4843 18.1306Z" fill="#00C868"/>
</svg>
