<svg width="16" height="20" viewBox="0 0 16 20" fill="none" xmlns="http://www.w3.org/2000/svg">
<path d="M10.7727 12.5C10.6515 12.4545 10.5455 12.4053 10.4545 12.3523C10.3636 12.2992 10.2727 12.2273 10.1818 12.1364L9.5 12.4318C9.39394 12.4773 9.28788 12.4811 9.18182 12.4432C9.07576 12.4053 8.99242 12.3333 8.93182 12.2273L8.43182 11.3409C8.37121 11.2348 8.35227 11.1288 8.375 11.0227C8.39773 10.9167 8.45455 10.8258 8.54545 10.75L9.13636 10.3182C9.10606 10.197 9.09091 10.0833 9.09091 9.97727C9.09091 9.87121 9.10606 9.75758 9.13636 9.63636L8.56818 9.20455C8.47727 9.12879 8.42045 9.03409 8.39773 8.92045C8.375 8.80682 8.39394 8.69697 8.45455 8.59091L8.97727 7.72727C9.03788 7.63636 9.12121 7.57197 9.22727 7.53409C9.33333 7.49621 9.43939 7.5 9.54545 7.54545L10.1818 7.81818C10.2727 7.74242 10.3636 7.68182 10.4545 7.63636C10.5455 7.59091 10.6515 7.54545 10.7727 7.5L10.8636 6.77273C10.8788 6.65152 10.928 6.55303 11.0114 6.47727C11.0947 6.40152 11.197 6.36364 11.3182 6.36364H12.3182C12.4394 6.36364 12.5417 6.40152 12.625 6.47727C12.7083 6.55303 12.7576 6.65152 12.7727 6.77273L12.8636 7.5C12.9848 7.54545 13.0909 7.59091 13.1818 7.63636C13.2727 7.68182 13.3636 7.74242 13.4545 7.81818L14.0909 7.54545C14.197 7.5 14.303 7.49621 14.4091 7.53409C14.5152 7.57197 14.5985 7.63636 14.6591 7.72727L15.1818 8.59091C15.2424 8.69697 15.2614 8.80682 15.2386 8.92045C15.2159 9.03409 15.1591 9.12879 15.0682 9.20455L14.5 9.63636C14.5303 9.75758 14.5455 9.87121 14.5455 9.97727C14.5455 10.0833 14.5303 10.197 14.5 10.3182L15.0909 10.75C15.1818 10.8258 15.2386 10.9167 15.2614 11.0227C15.2841 11.1288 15.2652 11.2348 15.2045 11.3409L14.7045 12.2273C14.6439 12.3333 14.5606 12.4053 14.4545 12.4432C14.3485 12.4811 14.2424 12.4773 14.1364 12.4318L13.4545 12.1364C13.3636 12.2273 13.2727 12.2992 13.1818 12.3523C13.0909 12.4053 12.9848 12.4545 12.8636 12.5L12.7727 13.2273C12.7576 13.3485 12.7083 13.447 12.625 13.5227C12.5417 13.5985 12.4394 13.6364 12.3182 13.6364H11.3182C11.197 13.6364 11.0947 13.5985 11.0114 13.5227C10.928 13.447 10.8788 13.3485 10.8636 13.2273L10.7727 12.5ZM11.8182 11.3636C12.2121 11.3636 12.5379 11.2348 12.7955 10.9773C13.053 10.7197 13.1818 10.3939 13.1818 10C13.1818 9.60606 13.053 9.2803 12.7955 9.02273C12.5379 8.76515 12.2121 8.63636 11.8182 8.63636C11.4242 8.63636 11.0985 8.76515 10.8409 9.02273C10.5833 9.2803 10.4545 9.60606 10.4545 10C10.4545 10.3939 10.5833 10.7197 10.8409 10.9773C11.0985 11.2348 11.4242 11.3636 11.8182 11.3636ZM1.81818 20C1.31818 20 0.890152 19.822 0.534091 19.4659C0.17803 19.1098 0 18.6818 0 18.1818V1.81818C0 1.31818 0.17803 0.890152 0.534091 0.534091C0.890152 0.17803 1.31818 0 1.81818 0H10.9091C11.4091 0 11.8371 0.17803 12.1932 0.534091C12.5492 0.890152 12.7273 1.31818 12.7273 1.81818V4.54545C12.7273 4.80303 12.6402 5.01894 12.4659 5.19318C12.2917 5.36742 12.0758 5.45455 11.8182 5.45455C11.5606 5.45455 11.3447 5.36742 11.1705 5.19318C10.9962 5.01894 10.9091 4.80303 10.9091 4.54545H1.81818V15.4545H10.9091C10.9091 15.197 10.9962 14.9811 11.1705 14.8068C11.3447 14.6326 11.5606 14.5455 11.8182 14.5455C12.0758 14.5455 12.2917 14.6326 12.4659 14.8068C12.6402 14.9811 12.7273 15.197 12.7273 15.4545V18.1818C12.7273 18.6818 12.5492 19.1098 12.1932 19.4659C11.8371 19.822 11.4091 20 10.9091 20H1.81818Z" fill="#00C868"/>
</svg>
