<svg width="34" height="34" viewBox="0 0 34 34" fill="none" xmlns="http://www.w3.org/2000/svg">
<path d="M25.8333 27C23.5185 27 21.2315 26.4954 18.9722 25.4861C16.713 24.4769 14.6574 23.0463 12.8056 21.1944C10.9537 19.3426 9.52315 17.287 8.51389 15.0278C7.50463 12.7685 7 10.4815 7 8.16667C7 7.83333 7.11111 7.55556 7.33333 7.33333C7.55556 7.11111 7.83333 7 8.16667 7H12.6667C12.9259 7 13.1574 7.08796 13.3611 7.26389C13.5648 7.43981 13.6852 7.64815 13.7222 7.88889L14.4444 11.7778C14.4815 12.0741 14.4722 12.3241 14.4167 12.5278C14.3611 12.7315 14.2593 12.9074 14.1111 13.0556L11.4167 15.7778C11.787 16.463 12.2269 17.125 12.7361 17.7639C13.2454 18.4028 13.8056 19.0185 14.4167 19.6111C14.9907 20.1852 15.5926 20.7176 16.2222 21.2083C16.8519 21.6991 17.5185 22.1481 18.2222 22.5556L20.8333 19.9444C21 19.7778 21.2176 19.6528 21.4861 19.5694C21.7546 19.4861 22.0185 19.463 22.2778 19.5L26.1111 20.2778C26.3704 20.3519 26.5833 20.4861 26.75 20.6806C26.9167 20.875 27 21.0926 27 21.3333V25.8333C27 26.1667 26.8889 26.4444 26.6667 26.6667C26.4444 26.8889 26.1667 27 25.8333 27Z" fill="#3BD101"/>
<circle cx="17" cy="17" r="16.5" stroke="#3BD101"/>
</svg>
