<svg width="24" height="18" viewBox="0 0 24 18" fill="none" xmlns="http://www.w3.org/2000/svg">
    <path
        d="M2.18182 17.8286C1.58182 17.8286 1.06818 17.6104 0.640909 17.1739C0.213636 16.7375 0 16.2129 0 15.6V4.45714C0 4.14143 0.104545 3.87679 0.313636 3.66321C0.522727 3.44964 0.781818 3.34286 1.09091 3.34286C1.4 3.34286 1.65909 3.44964 1.86818 3.66321C2.07727 3.87679 2.18182 4.14143 2.18182 4.45714V15.6H19.6364C19.9455 15.6 20.2045 15.7068 20.4136 15.9204C20.6227 16.1339 20.7273 16.3986 20.7273 16.7143C20.7273 17.03 20.6227 17.2946 20.4136 17.5082C20.2045 17.7218 19.9455 17.8286 19.6364 17.8286H2.18182ZM6.54545 13.3714C5.94545 13.3714 5.43182 13.1532 5.00455 12.7168C4.57727 12.2804 4.36364 11.7557 4.36364 11.1429V2.22857C4.36364 1.61571 4.57727 1.09107 5.00455 0.654643C5.43182 0.218214 5.94545 0 6.54545 0H21.8182C22.4182 0 22.9318 0.218214 23.3591 0.654643C23.7864 1.09107 24 1.61571 24 2.22857V11.1429C24 11.7557 23.7864 12.2804 23.3591 12.7168C22.9318 13.1532 22.4182 13.3714 21.8182 13.3714H6.54545ZM8.72727 11.1429C8.72727 10.53 8.51364 10.0054 8.08636 9.56893C7.65909 9.1325 7.14545 8.91429 6.54545 8.91429V11.1429H8.72727ZM19.6364 11.1429H21.8182V8.91429C21.2182 8.91429 20.7045 9.1325 20.2773 9.56893C19.85 10.0054 19.6364 10.53 19.6364 11.1429ZM14.1818 10.0286C15.0909 10.0286 15.8636 9.70357 16.5 9.05357C17.1364 8.40357 17.4545 7.61429 17.4545 6.68571C17.4545 5.75714 17.1364 4.96786 16.5 4.31786C15.8636 3.66786 15.0909 3.34286 14.1818 3.34286C13.2727 3.34286 12.5 3.66786 11.8636 4.31786C11.2273 4.96786 10.9091 5.75714 10.9091 6.68571C10.9091 7.61429 11.2273 8.40357 11.8636 9.05357C12.5 9.70357 13.2727 10.0286 14.1818 10.0286ZM6.54545 4.45714C7.14545 4.45714 7.65909 4.23893 8.08636 3.8025C8.51364 3.36607 8.72727 2.84143 8.72727 2.22857H6.54545V4.45714ZM21.8182 4.45714V2.22857H19.6364C19.6364 2.84143 19.85 3.36607 20.2773 3.8025C20.7045 4.23893 21.2182 4.45714 21.8182 4.45714Z"
        fill="#00C868" />
</svg>
