<svg width="105" height="105" viewBox="0 0 105 105" fill="none" xmlns="http://www.w3.org/2000/svg">
<path fill-rule="evenodd" clip-rule="evenodd" d="M44.6816 0.350318C43.4413 1.02262 43.6727 2.86531 45.0429 3.23096C45.4013 3.32667 48.4251 3.47862 51.7622 3.5686L57.8301 3.73249V8.49277C57.8301 12.6866 57.7823 13.3116 57.4281 13.744C57.0913 14.1551 56.5597 14.2912 54.1545 14.5827C50.0625 15.0783 46.7346 15.8757 43.6366 17.1028C40.4913 18.3487 36.1243 20.5671 33.783 22.1084C29.6694 24.8165 24.4909 30.1664 21.0469 35.2657L19.9123 36.9459H15.1295C9.75778 36.9459 9.02199 37.0813 8.81662 38.1071C8.63354 39.022 8.98133 39.8369 9.62868 40.0102C10.6895 40.2939 21.3857 40.1697 21.9851 39.8665C22.2963 39.7093 22.9683 38.8446 23.4782 37.9451C26.5009 32.6158 32.3939 26.8237 38.3606 23.3181C43.1025 20.5322 47.9875 18.8615 53.9248 17.9954C57.5363 17.4684 64.012 17.633 67.5653 18.342C82.3646 21.2952 94.602 31.9529 99.2995 45.9801C103.55 58.6712 101.805 72.0397 94.4722 82.9673C88.3922 92.0283 79.8742 97.9138 68.8566 100.667C66.2511 101.318 66.1234 101.327 59.553 101.329C52.2656 101.33 51.5994 101.249 47.1433 99.8265C40.9415 97.8461 35.1018 94.4228 30.5215 90.0828C28.4315 88.1024 25.6018 84.6179 23.6639 81.6378C22.745 80.2248 21.9874 79.3085 21.6235 79.1704C21.3053 79.0494 18.5142 78.9505 15.4208 78.9505H9.79661L9.24068 79.5817C8.52672 80.3922 8.52649 81.031 9.23977 81.7005C10.0135 82.4267 11.2631 82.5932 16.064 82.6092L20.1271 82.623L21.4372 84.6314C22.1578 85.7362 23.3409 87.3629 24.0661 88.2466C25.684 90.218 29.8923 94.3179 31.7569 95.7394C38.356 100.771 46.6069 104.078 54.6076 104.898C57.3697 105.181 65.4818 104.839 68.512 104.311C71.0888 103.862 75.847 102.29 78.7924 100.915C89.5291 95.9017 98.0723 86.6419 102.233 75.5075C104.2 70.2452 105 65.6662 105 59.6697C105 53.6729 104.2 49.0933 102.233 43.8319C101.475 41.8024 99.1653 37.0194 97.9981 35.0596L97.4898 34.2062L99.6011 32.0256C102.05 29.4964 102.327 28.9777 101.793 27.9239C101.257 26.8667 91.7845 17.4909 91.0719 17.3121C90.1385 17.0782 89.5261 17.3982 87.8085 19.018C86.924 19.8519 85.8876 20.8155 85.5053 21.1591L84.8102 21.7841L83.7824 21.0886C82.2139 20.0275 78.4655 18.1834 75.6055 17.0658C71.831 15.5913 68.8738 14.9319 62.2522 14.0888L61.2759 13.9644V8.84924V3.73386L67.6028 3.60418C74.4369 3.46393 74.8479 3.3875 75.1461 2.20081C75.3501 1.38804 74.9373 0.479774 74.2442 0.2165C73.878 0.0774028 68.2226 -0.00545848 59.4806 0.000279849C47.395 0.00808397 45.2178 0.0597288 44.6816 0.350318ZM52.6333 21.6705C44.4092 23.2554 37.5743 27.0103 31.628 33.211C20.4262 44.8914 17.7908 61.6799 24.8625 76.3108C29.4411 85.7837 37.3223 92.7812 47.0916 96.0477C56.9222 99.3344 67.6124 98.6398 76.6076 94.1295C80.6846 92.085 83.3489 90.1409 86.7435 86.7328C95.1071 78.3358 98.8038 68.1525 97.8128 56.2405C97.2486 49.458 95.0839 43.4585 91.0581 37.5197C88.9642 34.4309 84.3225 29.8875 81.0315 27.7051C76.8885 24.9581 72.1035 22.9139 67.4783 21.9154C65.0589 21.393 54.9397 21.2261 52.6333 21.6705ZM89.0871 22.6102L88.125 23.6532L89.2713 24.9629C89.9017 25.6832 91.5031 27.348 92.8297 28.6623C95.5344 31.3421 95.3061 31.2893 97.0682 29.6426C97.7259 29.0282 97.7932 28.8668 97.5676 28.4459C97.0891 27.5527 90.9214 21.5672 90.4794 21.5672C90.2428 21.5672 89.6164 22.0366 89.0871 22.6102ZM61.2759 27.5211C61.2759 30.213 61.229 30.5658 60.8164 30.9781C60.2947 31.4993 59.2608 31.5792 58.6653 31.144C58.1432 30.7625 57.8432 29.4214 57.8324 27.4203C57.8193 24.9638 57.7304 24.7807 56.5514 24.7807C56.004 24.7807 54.4603 24.9921 53.121 25.2503C42.154 27.365 33.1092 34.1759 28.2027 44.0144C26.276 47.8779 25.0139 52.1679 24.6356 56.1409L24.4798 57.7767L27.3143 57.8754C28.9221 57.9314 30.3714 58.0956 30.663 58.2546C31.2848 58.5941 31.554 59.5184 31.268 60.333C30.9687 61.1858 29.8893 61.4777 26.9787 61.4931L24.498 61.506L24.6466 62.9405C25.2308 68.582 27.3391 74.4147 30.5256 79.2048C32.4704 82.1281 37.266 86.9467 39.9776 88.7015C44.9867 91.9434 51.7432 94.312 56.016 94.3241L57.7625 94.3292L57.8902 91.5585C58.0343 88.4318 58.2753 87.9023 59.553 87.9023C60.8968 87.9023 61.15 88.4777 61.243 91.7444L61.3248 94.6207L63.0808 94.4742C68.0781 94.0579 74.5309 91.6292 79.6913 88.2222C82.111 86.6249 86.6034 82.0641 88.372 79.4095C91.8371 74.2085 93.7299 69.0232 94.457 62.7413L94.593 61.5668L90.934 61.4614C86.6275 61.3372 86.0833 61.1419 86.089 59.7218C86.0911 59.2512 86.1818 58.7256 86.2909 58.5537C86.5939 58.0756 88.2024 57.8543 91.4583 57.8435L94.4186 57.8334L94.2585 55.8624C93.8326 50.6171 91.1982 43.7631 87.7536 38.938C87.0258 37.9184 85.4444 36.0976 84.2395 34.8918C78.4961 29.1443 71.5439 25.8948 62.367 24.6689L61.2759 24.5229V27.5211ZM72.8108 50.9943C68.9303 54.8075 63.5588 60.1001 60.8738 62.7558L55.9925 67.5844L51.4553 63.0913C46.3298 58.0154 44.8413 56.6858 44.2844 56.6858C43.7131 56.6858 42.8983 57.6599 42.8983 58.3428C42.8983 59.0881 45.3983 61.9191 50.1595 66.5658C54.5885 70.8881 55.8765 71.913 56.4759 71.5926C57.7487 70.9118 78.0167 50.8148 80.8385 47.4351C81.4503 46.7027 81.9506 45.8975 81.9506 45.6459C81.9506 45.0459 80.9527 44.0614 80.3447 44.0614C80.0263 44.0614 77.5067 46.38 72.8108 50.9943ZM4.11472 47.8703C3.68905 48.168 3.60474 48.4125 3.66148 49.1846C3.77359 50.7126 3.88799 50.734 11.5641 50.664C19.1191 50.5951 19.0782 50.6043 18.9615 49.0217C18.8522 47.5423 18.695 47.5118 11.1908 47.5079C5.56218 47.5049 4.56359 47.5561 4.11472 47.8703ZM1.67786 58.0501C-0.0381504 58.3995 -0.570181 59.9635 0.705222 60.9094C1.33305 61.3751 1.59929 61.3912 8.67121 61.3912C15.7436 61.3912 16.0094 61.3751 16.636 60.9094C17.5345 60.2419 17.6091 59.2579 16.8178 58.5149L16.2143 57.9482L9.3985 57.9071C5.64971 57.8846 2.17543 57.9489 1.67786 58.0501ZM4.6502 68.6366C3.26453 69.0496 3.03182 70.0538 4.0566 71.2001L4.72669 71.9497L9.95259 72.0298C16.0863 72.1237 17.9452 71.9782 18.5684 71.3554C19.143 70.7814 19.1267 69.7531 18.5312 68.9968L18.0553 68.3919L11.6971 68.4117C8.20028 68.4225 5.02923 68.5237 4.6502 68.6366Z" fill="#00C868"/>
</svg>
