<svg width="33" height="24" viewBox="0 0 33 24" fill="none" xmlns="http://www.w3.org/2000/svg">
<path d="M8.25 24C5.975 24 4.03125 23.2125 2.41875 21.6375C0.80625 20.0625 0 18.1375 0 15.8625C0 13.9125 0.5875 12.175 1.7625 10.65C2.9375 9.125 4.475 8.15 6.375 7.725C7 5.425 8.25 3.5625 10.125 2.1375C12 0.7125 14.125 0 16.5 0C19.425 0 21.9062 1.01875 23.9438 3.05625C25.9813 5.09375 27 7.575 27 10.5C28.725 10.7 30.1563 11.4438 31.2938 12.7313C32.4313 14.0188 33 15.525 33 17.25C33 19.125 32.3438 20.7188 31.0313 22.0312C29.7188 23.3438 28.125 24 26.25 24H18V13.275L19.35 14.5875C19.625 14.8625 19.9688 15 20.3813 15C20.7938 15 21.15 14.85 21.45 14.55C21.725 14.275 21.8625 13.925 21.8625 13.5C21.8625 13.075 21.725 12.725 21.45 12.45L17.55 8.55C17.25 8.25 16.9 8.1 16.5 8.1C16.1 8.1 15.75 8.25 15.45 8.55L11.55 12.45C11.275 12.725 11.1313 13.0688 11.1188 13.4813C11.1063 13.8938 11.25 14.25 11.55 14.55C11.825 14.825 12.1688 14.9688 12.5813 14.9813C12.9938 14.9938 13.35 14.8625 13.65 14.5875L15 13.275V24H8.25Z" fill="white"/>
</svg>
