<svg width="30" height="31" viewBox="0 0 30 31" fill="none" xmlns="http://www.w3.org/2000/svg">
    <path
        d="M15 13.6234C13.0694 13.6234 11.4416 12.9667 10.1168 11.6533C8.79161 10.3396 8.12903 8.72571 8.12903 6.81171C8.12903 4.89804 8.79161 3.28433 10.1168 1.9706C11.4416 0.656867 13.0694 0 15 0C16.9306 0 18.5584 0.656867 19.8832 1.9706C21.2084 3.28433 21.871 4.89804 21.871 6.81171C21.871 8.72571 21.2084 10.3396 19.8832 11.6533C18.5584 12.9667 16.9306 13.6234 15 13.6234ZM0 27.7601V26.3541C0 25.3381 0.264839 24.4131 0.794516 23.5791C1.32452 22.7454 2.04726 22.1058 2.96274 21.6603C4.91823 20.6961 6.9071 19.9729 8.92935 19.4906C10.9516 19.0087 12.9752 18.7677 15 18.7677C17.0248 18.7677 19.0484 19.0087 21.0706 19.4906C23.0929 19.9729 25.0818 20.6961 27.0373 21.6603C27.9527 22.1058 28.6755 22.7454 29.2055 23.5791C29.7352 24.4131 30 25.3381 30 26.3541V27.7601C30 28.707 29.6942 29.4837 29.0826 30.09C28.471 30.6967 27.6874 31 26.7319 31H3.26806C2.31258 31 1.52903 30.6967 0.91742 30.09C0.305807 29.4837 0 28.707 0 27.7601Z"
        fill="#00C868" />
</svg>
