<svg width="20" height="20" viewBox="0 0 20 20" fill="none" xmlns="http://www.w3.org/2000/svg">
<path d="M12.2222 6.66667C11.9074 6.66667 11.6435 6.56019 11.4306 6.34722C11.2176 6.13426 11.1111 5.87037 11.1111 5.55556V1.11111C11.1111 0.796296 11.2176 0.532407 11.4306 0.319444C11.6435 0.106481 11.9074 0 12.2222 0H18.8889C19.2037 0 19.4676 0.106481 19.6806 0.319444C19.8935 0.532407 20 0.796296 20 1.11111V5.55556C20 5.87037 19.8935 6.13426 19.6806 6.34722C19.4676 6.56019 19.2037 6.66667 18.8889 6.66667H12.2222ZM1.11111 11.1111C0.796296 11.1111 0.532407 11.0046 0.319444 10.7917C0.106481 10.5787 0 10.3148 0 10V1.11111C0 0.796296 0.106481 0.532407 0.319444 0.319444C0.532407 0.106481 0.796296 0 1.11111 0H7.77778C8.09259 0 8.35648 0.106481 8.56944 0.319444C8.78241 0.532407 8.88889 0.796296 8.88889 1.11111V10C8.88889 10.3148 8.78241 10.5787 8.56944 10.7917C8.35648 11.0046 8.09259 11.1111 7.77778 11.1111H1.11111ZM12.2222 20C11.9074 20 11.6435 19.8935 11.4306 19.6806C11.2176 19.4676 11.1111 19.2037 11.1111 18.8889V10C11.1111 9.68519 11.2176 9.4213 11.4306 9.20833C11.6435 8.99537 11.9074 8.88889 12.2222 8.88889H18.8889C19.2037 8.88889 19.4676 8.99537 19.6806 9.20833C19.8935 9.4213 20 9.68519 20 10V18.8889C20 19.2037 19.8935 19.4676 19.6806 19.6806C19.4676 19.8935 19.2037 20 18.8889 20H12.2222ZM1.11111 20C0.796296 20 0.532407 19.8935 0.319444 19.6806C0.106481 19.4676 0 19.2037 0 18.8889V14.4444C0 14.1296 0.106481 13.8657 0.319444 13.6528C0.532407 13.4398 0.796296 13.3333 1.11111 13.3333H7.77778C8.09259 13.3333 8.35648 13.4398 8.56944 13.6528C8.78241 13.8657 8.88889 14.1296 8.88889 14.4444V18.8889C8.88889 19.2037 8.78241 19.4676 8.56944 19.6806C8.35648 19.8935 8.09259 20 7.77778 20H1.11111Z" fill="#00C868"/>
</svg>
