<svg width="512" height="512" viewBox="0 0 512 512" fill="none" xmlns="http://www.w3.org/2000/svg">
<rect width="512" height="512" fill="white"/>
<path d="M407 135H104V378H407V135Z" fill="#D9D9D9"/>
<path d="M385.569 157.762L125.852 157.891L125.949 355.763L385.666 355.635L385.569 157.762Z" fill="#E5E5E5"/>
<path opacity="0.3" d="M385.691 348.392L385.689 355.624L250.784 355.705L286.73 321.438L323.539 286.314L385.691 348.392Z" fill="black"/>
<path opacity="0.3" d="M327.28 355.652L125.986 355.752L125.966 339.84L213.703 259.837L286.728 321.436L327.28 355.652Z" fill="black"/>
<path opacity="0.1" d="M316.945 223.777C319.49 206.991 307.946 191.321 291.16 188.776C274.375 186.231 258.704 197.775 256.159 214.56C253.614 231.346 265.158 247.016 281.944 249.561C298.729 252.106 314.4 240.562 316.945 223.777Z" fill="#4B4B4B"/>
</svg>
