<svg width="15" height="15" viewBox="0 0 15 15" fill="none" xmlns="http://www.w3.org/2000/svg">
<path d="M5.25 9H12.75L10.1625 5.625L8.4375 7.875L7.275 6.375L5.25 9ZM4.5 12C4.0875 12 3.73438 11.8531 3.44063 11.5594C3.14688 11.2656 3 10.9125 3 10.5V1.5C3 1.0875 3.14688 0.734375 3.44063 0.440625C3.73438 0.146875 4.0875 0 4.5 0H13.5C13.9125 0 14.2656 0.146875 14.5594 0.440625C14.8531 0.734375 15 1.0875 15 1.5V10.5C15 10.9125 14.8531 11.2656 14.5594 11.5594C14.2656 11.8531 13.9125 12 13.5 12H4.5ZM4.5 10.5H13.5V1.5H4.5V10.5ZM1.5 15C1.0875 15 0.734375 14.8531 0.440625 14.5594C0.146875 14.2656 0 13.9125 0 13.5V3H1.5V13.5H12V15H1.5ZM4.5 1.5H13.5V10.5H4.5V1.5Z" fill="#303030"/>
</svg>
