<svg width="18" height="14" viewBox="0 0 18 14" fill="none" xmlns="http://www.w3.org/2000/svg">
<path d="M6.1556 10.2147L16.0211 0.349221C16.2539 0.116407 16.5255 0 16.8359 0C17.1463 0 17.418 0.116407 17.6508 0.349221C17.8836 0.582035 18 0.858501 18 1.17862C18 1.49874 17.8836 1.77521 17.6508 2.00802L6.97045 12.7175C6.73763 12.9503 6.46602 13.0667 6.1556 13.0667C5.84518 13.0667 5.57356 12.9503 5.34075 12.7175L0.335252 7.71196C0.102438 7.47914 -0.00911854 7.20268 0.000582035 6.88256C0.0102826 6.56244 0.13154 6.28597 0.364354 6.05316C0.597167 5.82034 0.873634 5.70394 1.19375 5.70394C1.51387 5.70394 1.79034 5.82034 2.02315 6.05316L6.1556 10.2147Z" fill="#303030"/>
</svg>
