<svg width="20" height="20" viewBox="0 0 20 20" fill="none" xmlns="http://www.w3.org/2000/svg">
<path d="M10 20C7.66667 20 5.60185 19.2917 3.80556 17.875C2.00926 16.4583 0.842593 14.6481 0.305556 12.4444C0.231481 12.1667 0.287037 11.912 0.472222 11.6806C0.657407 11.4491 0.907407 11.3148 1.22222 11.2778C1.51852 11.2407 1.78704 11.2963 2.02778 11.4444C2.26852 11.5926 2.43519 11.8148 2.52778 12.1111C2.97222 13.7778 3.88889 15.1389 5.27778 16.1944C6.66667 17.25 8.24074 17.7778 10 17.7778C12.1667 17.7778 14.0046 17.0231 15.5139 15.5139C17.0231 14.0046 17.7778 12.1667 17.7778 10C17.7778 7.83333 17.0231 5.99537 15.5139 4.48611C14.0046 2.97685 12.1667 2.22222 10 2.22222C8.72222 2.22222 7.52778 2.51852 6.41667 3.11111C5.30556 3.7037 4.37037 4.51852 3.61111 5.55556H5.55556C5.87037 5.55556 6.13426 5.66204 6.34722 5.875C6.56019 6.08796 6.66667 6.35185 6.66667 6.66667C6.66667 6.98148 6.56019 7.24537 6.34722 7.45833C6.13426 7.6713 5.87037 7.77778 5.55556 7.77778H1.11111C0.796296 7.77778 0.532407 7.6713 0.319444 7.45833C0.106481 7.24537 0 6.98148 0 6.66667V2.22222C0 1.90741 0.106481 1.64352 0.319444 1.43056C0.532407 1.21759 0.796296 1.11111 1.11111 1.11111C1.42593 1.11111 1.68981 1.21759 1.90278 1.43056C2.11574 1.64352 2.22222 1.90741 2.22222 2.22222V3.72222C3.16667 2.53704 4.31944 1.62037 5.68056 0.972222C7.04167 0.324074 8.48148 0 10 0C11.3889 0 12.6898 0.263889 13.9028 0.791667C15.1157 1.31944 16.1713 2.03241 17.0694 2.93056C17.9676 3.8287 18.6806 4.88426 19.2083 6.09722C19.7361 7.31019 20 8.61111 20 10C20 11.3889 19.7361 12.6898 19.2083 13.9028C18.6806 15.1157 17.9676 16.1713 17.0694 17.0694C16.1713 17.9676 15.1157 18.6806 13.9028 19.2083C12.6898 19.7361 11.3889 20 10 20ZM11.1111 9.55556L13.8889 12.3333C14.0926 12.537 14.1944 12.7963 14.1944 13.1111C14.1944 13.4259 14.0926 13.6852 13.8889 13.8889C13.6852 14.0926 13.4259 14.1944 13.1111 14.1944C12.7963 14.1944 12.537 14.0926 12.3333 13.8889L9.22222 10.7778C9.11111 10.6667 9.02778 10.5417 8.97222 10.4028C8.91667 10.2639 8.88889 10.1204 8.88889 9.97222V5.55556C8.88889 5.24074 8.99537 4.97685 9.20833 4.76389C9.4213 4.55093 9.68519 4.44444 10 4.44444C10.3148 4.44444 10.5787 4.55093 10.7917 4.76389C11.0046 4.97685 11.1111 5.24074 11.1111 5.55556V9.55556Z" fill="#00C868"/>
</svg>
