<svg width="201" height="194" viewBox="0 0 201 194" fill="none" xmlns="http://www.w3.org/2000/svg">
<path d="M100.324 194.002C130.108 194.002 154.253 190.499 154.253 186.179C154.253 181.858 130.108 178.355 100.324 178.355C70.5395 178.355 46.3945 181.858 46.3945 186.179C46.3945 190.499 70.5395 194.002 100.324 194.002Z" fill="#EBEBEB"/>
<path d="M0 159.979L25.081 159.867L50.162 159.825L100.324 159.746L150.486 159.825L175.567 159.867L200.648 159.979L175.567 160.095L150.486 160.133L100.324 160.212L50.162 160.133L25.081 160.095L0 159.979Z" fill="#263238"/>
<path d="M29.9155 122.792C29.4286 124.573 29.1059 126.395 28.9515 128.235C29.0028 128.329 28.9934 128.664 28.9515 128.571C28.9515 128.869 28.4859 128.817 28.4859 128.519C28.4859 128.329 28.4859 128.138 28.4859 127.951C27.4241 126.629 25.8781 125.791 24.6255 124.64C23.6208 123.739 22.8884 122.574 22.5113 121.278C21.4775 117.707 22.4461 113.921 21.2028 110.358C20.1271 107.29 18.1992 104.617 16.5694 101.837C14.8464 98.8935 13.5797 95.7828 13.4494 92.3555C13.3516 89.7151 13.6636 86.1993 15.6753 84.2202C17.8034 82.1247 20.4437 83.6987 22.0782 85.566C26.8141 90.9818 29.0028 97.8597 29.8875 104.873C30.3532 108.756 30.8794 112.663 30.763 116.58C30.689 118.673 30.4051 120.755 29.9155 122.792Z" fill="#00C868"/>
<path d="M28.9746 129.664C29.2316 126 29.188 122.321 28.8442 118.664C28.8442 118.664 28.8442 118.664 28.8442 118.627C28.9048 115.652 29.1376 112.69 29.0212 109.714C28.8769 106.496 28.4389 103.297 27.7126 100.159C27.7126 100.121 27.6474 100.131 27.6568 100.159C28.2359 103.244 28.5815 106.368 28.6905 109.505C28.7526 111.187 28.7387 112.867 28.6486 114.543C28.6207 115.088 28.5695 115.638 28.5369 116.192C27.3017 107.844 24.2841 99.8602 19.6891 92.7825C19.6286 92.6847 19.4563 92.7825 19.5168 92.8896C22.8076 98.2691 25.2471 104.125 26.7487 110.25C24.4716 106.035 21.0396 102.571 18.4877 98.5195C18.4877 98.4962 18.4411 98.5195 18.4505 98.5428C20.7415 103.05 24.5042 106.608 26.935 111.046C27.3541 112.858 27.694 114.688 27.9501 116.522C28.289 119.045 28.4725 121.586 28.4996 124.131C27.1026 121.542 25.673 119.065 24.5414 116.327C24.5135 116.252 24.4064 116.303 24.4297 116.373C25.3936 119.219 26.6928 122.283 28.5043 124.709C28.5043 126.511 28.4624 128.313 28.3553 130.111C28.0759 134.912 27.2516 139.652 26.8744 144.435C26.8753 144.461 26.8856 144.486 26.9035 144.506C26.9214 144.526 26.9456 144.538 26.972 144.542C26.9983 144.545 27.025 144.539 27.0472 144.524C27.0694 144.51 27.0858 144.488 27.0933 144.463C28.0525 139.577 28.681 134.633 28.9746 129.664Z" fill="#263238"/>
<path d="M23.8735 92.6356C23.8735 92.603 23.8083 92.6356 23.8223 92.6356C24.6977 95.0617 25.1913 97.5205 25.8247 100.007C25.8316 100.029 25.8461 100.047 25.8654 100.058C25.8847 100.07 25.9075 100.074 25.9297 100.07C25.9518 100.066 25.9718 100.054 25.9858 100.037C25.9999 100.019 26.0072 99.997 26.0063 99.9745C25.7502 97.5018 24.8514 94.9593 23.8735 92.6356Z" fill="#263238"/>
<path d="M46.144 102.8C45.5606 104.222 44.8872 105.607 44.1277 106.944C42.5491 109.813 40.9006 112.439 40.6026 115.792C40.4722 117.282 40.4256 118.781 39.9692 120.216C39.5559 121.452 38.9611 122.619 38.2044 123.68C36.4953 126.176 34.3533 128.337 32.77 130.912C31.1195 133.609 29.9003 136.547 29.1564 139.62C29.1145 139.788 28.8537 139.746 28.8909 139.578C28.893 139.566 28.893 139.553 28.8909 139.541C28.8876 139.529 28.8876 139.516 28.8909 139.504C28.6395 132.342 29.2123 125.128 31.3963 118.269C32.3601 115.248 33.519 112.293 34.8655 109.421C36.0343 106.935 37.4919 104.541 39.5222 102.683C40.854 101.482 43.7458 99.2092 45.6411 100.411C46.5725 100.993 46.5026 101.905 46.144 102.8Z" fill="#00C868"/>
<path d="M38.95 119.035C37.6876 121.113 36.2973 123.11 34.7869 125.014C34.0977 125.922 33.3899 126.817 32.7007 127.725C32.3747 128.153 32.0069 128.577 31.7088 129.038C31.8951 128.283 32.0814 127.534 32.2723 126.779C33.2036 123.161 34.0837 119.51 35.4621 116.032C36.873 112.663 38.5339 109.405 40.4308 106.285C40.4821 106.206 40.347 106.145 40.2958 106.225C38.787 108.711 37.2503 111.198 35.979 113.82C35.2767 115.284 34.664 116.789 34.1443 118.327C34.727 115.057 35.5424 111.833 36.5844 108.679C36.5844 108.651 36.5518 108.632 36.5425 108.679C35.1772 111.864 34.3223 115.244 34.0092 118.695C33.6972 119.627 33.4132 120.558 33.1478 121.489C32.0208 125.494 31.029 129.541 30.1116 133.597C30.0942 130.927 30.325 128.261 30.8008 125.634C30.8008 125.573 30.7216 125.559 30.7076 125.634C30.0095 128.369 29.775 131.203 30.0138 134.016C29.6692 135.568 29.3308 137.12 28.9986 138.672C28.2955 141.974 27.434 145.332 27.0195 148.684C27.0199 148.701 27.0259 148.716 27.0365 148.728C27.0471 148.741 27.0616 148.749 27.0775 148.752C27.0934 148.754 27.1098 148.751 27.1239 148.743C27.1379 148.735 27.1488 148.723 27.1546 148.708C27.6435 146.901 27.9416 145.024 28.342 143.199C28.7425 141.373 29.1616 139.529 29.5854 137.704C30.2094 135.036 30.8613 132.381 31.5226 129.727C31.9882 128.754 32.8264 127.888 33.4691 127.073C34.1722 126.179 34.8661 125.28 35.5646 124.372C36.8514 122.688 38.0036 120.905 39.0105 119.04C39.0338 119.021 38.9733 118.998 38.95 119.035Z" fill="#263238"/>
<path d="M39.2543 115.97C37.6767 117.981 36.3112 120.15 35.1797 122.442C35.1797 122.47 35.2123 122.498 35.2309 122.47C36.6 120.324 37.9458 118.158 39.3148 116.011C39.3195 115.974 39.2776 115.937 39.2543 115.97Z" fill="#263238"/>
<path d="M8.77319 109.608C9.70453 111.205 10.7616 113.124 10.3611 115.042C10.1097 116.257 9.22023 117.245 9.0619 118.483C8.69868 121.217 11.4275 123.024 13.3973 124.318C18.3148 127.545 25.0391 130.419 25.9704 137.008C26.003 137.241 26.4081 137.18 26.3802 136.952C26.3824 136.938 26.3824 136.924 26.3802 136.91C26.3802 136.91 26.3802 136.91 26.3802 136.873C27.0257 133.54 26.9925 130.111 26.2824 126.791C25.5513 123.396 24.0658 120.346 22.3195 117.361C19.3579 112.313 16.2239 107.144 11.7535 103.279C10.5148 102.208 7.97689 100.285 6.98967 102.697C6.00245 105.109 7.65558 107.638 8.77319 109.608Z" fill="#00C868"/>
<path d="M13.2697 120.29C16.5294 123.82 21.7123 125.799 24.5203 129.752C22.9538 123.734 19.9912 118.169 15.8728 113.51C15.8591 113.486 15.8533 113.459 15.8562 113.433C15.859 113.406 15.8704 113.381 15.8887 113.361C15.907 113.341 15.9311 113.328 15.9576 113.323C15.9841 113.317 16.0115 113.321 16.0357 113.333C19.039 116.252 21.4392 119.733 23.1 123.578C22.3254 120.897 21.3075 118.292 20.0591 115.796C20.0504 115.777 20.049 115.756 20.0553 115.736C20.0615 115.716 20.075 115.699 20.0931 115.688C20.1112 115.678 20.1325 115.675 20.1529 115.679C20.1734 115.683 20.1914 115.695 20.2035 115.712C21.7433 118.438 22.8434 121.389 23.4632 124.458C27.1606 133.408 27.5052 143.904 26.7229 153.329C26.7229 153.358 26.7116 153.385 26.6915 153.405C26.6714 153.425 26.6442 153.436 26.6158 153.436C26.5874 153.436 26.5601 153.425 26.54 153.405C26.52 153.385 26.5087 153.358 26.5087 153.329C26.7229 145.878 26.6018 138.33 24.8229 131.07C24.7857 130.921 24.7438 130.772 24.7065 130.604C21.6517 126.348 16.4921 124.378 13.1719 120.336C13.1812 120.318 13.2417 120.253 13.2697 120.29Z" fill="#263238"/>
<path d="M12.5156 117.259C14.2292 118.829 15.9103 120.435 17.6379 122.005C17.6379 122.005 17.6379 122.051 17.6379 122.037C15.7 120.735 13.9538 119.167 12.4504 117.381C12.3572 117.292 12.4457 117.194 12.5156 117.259Z" fill="#263238"/>
<path d="M12.248 110.458C13.7624 112.941 15.4755 115.297 17.3704 117.504C17.3704 117.532 17.3704 117.573 17.3238 117.546C15.2008 115.524 13.451 113.144 12.1549 110.514C12.1511 110.502 12.1515 110.489 12.156 110.477C12.1605 110.466 12.1687 110.456 12.1795 110.449C12.1902 110.443 12.2028 110.44 12.2152 110.442C12.2277 110.443 12.2392 110.449 12.248 110.458Z" fill="#263238"/>
<path d="M19.9531 159.98H34.9384L32.922 139.816H22.2582L19.9531 159.98Z" fill="#455A64"/>
<path d="M21.8867 143.09H33.2537L32.9231 139.816H22.2593L21.8867 143.09Z" fill="#263238"/>
<path d="M20.4234 140.801H34.4727V137.583H20.4234V140.801Z" fill="#455A64"/>
<path d="M92.7524 138.477L106.005 155.981C108.557 159.315 110.732 162.282 111.715 163.921C111.715 163.921 111.715 163.921 111.715 163.949C111.987 164.307 112.173 164.723 112.259 165.164C112.259 165.164 112.259 165.192 112.259 165.201C111.794 166.631 85.7488 187.786 84.5892 188.219C83.4297 188.653 82.1119 185.393 82.4658 183.763C82.8197 182.133 89.1714 169.574 89.1714 169.574L76.1094 151.944L92.7524 138.477Z" fill="#EB9481"/>
<path d="M103.289 152.375L106.008 155.965C108.56 159.3 110.735 162.266 111.717 163.905C111.717 163.905 111.717 163.905 111.717 163.933C111.944 164.316 112.127 164.724 112.262 165.148C112.262 165.148 112.262 165.176 112.262 165.186C111.797 166.615 85.7517 187.771 84.5922 188.204C83.4327 188.637 82.1148 185.377 82.4687 183.747C82.8226 182.117 89.1744 169.558 89.1744 169.558L86.3571 165.954L103.289 152.375Z" fill="#EBEBEB"/>
<path d="M84.5984 188.203C85.7579 187.775 111.789 166.619 112.269 165.185C112.459 164.64 109.6 160.668 106.005 155.969L105.889 155.82L88.9431 169.283L89.1806 169.562C89.1806 169.562 82.8382 182.135 82.475 183.751C82.1117 185.367 83.4436 188.641 84.5984 188.203Z" fill="#00C868"/>
<path d="M84.0744 186.954C88.3772 183.28 106.068 168.873 110.618 165.566C110.655 165.538 110.678 165.566 110.641 165.594C106.45 169.32 88.6473 183.597 84.1535 187.015C84.0278 187.099 83.9859 187.034 84.0744 186.954Z" fill="#263238"/>
<path d="M87.8129 170.756C89.2751 169.028 91.6035 167.58 93.9225 167.738C94.0156 167.738 94.0017 167.869 93.9225 167.897C91.8395 168.707 89.849 169.737 87.9852 170.97C87.9567 170.981 87.9254 170.983 87.8958 170.975C87.8663 170.967 87.8401 170.95 87.8209 170.926C87.8018 170.902 87.7907 170.873 87.7892 170.842C87.7878 170.812 87.7961 170.782 87.8129 170.756Z" fill="#263238"/>
<path d="M87.1754 172.522C88.6423 170.794 90.9706 169.346 93.2896 169.504C93.3781 169.504 93.3688 169.634 93.2896 169.662C91.2067 170.471 89.2163 171.499 87.3524 172.731C87.324 172.747 87.2911 172.752 87.2592 172.747C87.2273 172.741 87.1984 172.724 87.1775 172.699C87.1566 172.675 87.1449 172.643 87.1445 172.611C87.1442 172.578 87.1551 172.547 87.1754 172.522Z" fill="#263238"/>
<path d="M86.5434 174.288C88.0056 172.56 90.3339 171.107 92.653 171.266C92.7414 171.266 92.7321 171.401 92.653 171.429C90.5709 172.239 88.5807 173.268 86.7157 174.497C86.6875 174.511 86.6556 174.515 86.6251 174.508C86.5946 174.501 86.5673 174.484 86.5474 174.46C86.5276 174.436 86.5164 174.406 86.5157 174.375C86.5149 174.344 86.5247 174.313 86.5434 174.288Z" fill="#263238"/>
<path d="M105.024 153.671L86.8861 168.871C86.8861 168.871 66.0148 142.202 61.3069 128.758C57.9587 119.179 73.4143 71.2427 73.4143 71.2427L93.1913 69.9062C93.1913 69.9062 80.39 116.073 81.8103 120.557C83.5613 126.02 105.024 153.671 105.024 153.671Z" fill="#37474F"/>
<path d="M84.8682 164.509C87.6855 162.181 86.8426 162.8 89.6925 160.495C91.0895 159.363 100.24 151.95 101.725 151.121C101.758 151.121 101.795 151.154 101.772 151.182C100.631 152.439 91.3456 159.694 89.9346 160.798C87.0428 163.052 87.8484 162.372 84.9333 164.593C84.9278 164.597 84.9216 164.6 84.9148 164.602C84.9081 164.604 84.9011 164.605 84.8942 164.604C84.8872 164.603 84.8806 164.601 84.8745 164.597C84.8684 164.594 84.8631 164.589 84.8588 164.584C84.8546 164.578 84.8514 164.572 84.8496 164.565C84.8477 164.558 84.8472 164.551 84.8481 164.544C84.8489 164.538 84.8511 164.531 84.8546 164.525C84.858 164.519 84.8626 164.513 84.8682 164.509Z" fill="#263238"/>
<path d="M99.0023 150.381C95.6215 146.171 92.337 141.878 89.1487 137.5C85.9821 133.16 82.8575 128.755 80.0169 124.196C79.3325 123.172 78.7831 122.064 78.3824 120.899C78.0126 119.572 77.9647 118.175 78.2427 116.825C78.6851 114.129 79.2485 111.446 79.812 108.773C80.9482 103.409 82.2397 98.0784 83.6864 92.7822C85.1299 87.4922 86.7458 82.2487 88.4548 77.0379C88.6644 76.3999 88.8786 75.7573 89.0928 75.1146C89.1254 75.0215 88.9764 74.9843 88.9438 75.0774C87.0252 80.2991 85.3022 85.586 83.7748 90.9381C82.2474 96.2902 80.8861 101.653 79.6909 107.027C79.0948 109.737 78.5407 112.46 78.0285 115.195C77.7112 116.525 77.5549 117.888 77.5628 119.256C77.6557 120.447 77.9867 121.608 78.536 122.669C79.1244 123.809 79.7919 124.906 80.5338 125.952C81.285 127.082 82.0456 128.209 82.8155 129.333C84.3678 131.596 85.9511 133.836 87.5654 136.052C90.7785 140.448 94.0848 144.802 97.6378 148.933C98.0709 149.44 98.5086 149.943 98.9417 150.446C98.9557 150.493 99.0395 150.428 99.0023 150.381Z" fill="#263238"/>
<path d="M93.2088 69.9062C93.2088 69.9062 89.4835 83.3734 86.261 96.4495C82.6614 88.9987 76.5239 76.1649 74.4609 71.1542L93.2088 69.9062Z" fill="#263238"/>
<path d="M136.297 77.0977H136.33C137.829 77.2839 163.762 98.5651 164.414 99.6128C165.066 100.661 162.137 102.607 160.475 102.584C158.812 102.561 145.229 98.8584 145.229 98.8584L142.965 101.974C138.691 98.5138 130.895 92.1947 126.164 88.2225C127.482 86.3598 128.548 85.0932 128.553 85.0886C131.305 81.922 133.773 79.1978 135.184 77.9126L135.212 77.8893C135.743 77.3817 136.12 77.1023 136.297 77.0977Z" fill="#EBEBEB"/>
<path d="M164.416 99.6055C163.764 98.5578 137.831 77.2766 136.331 77.095C135.763 77.0159 132.443 80.6108 128.555 85.072L128.434 85.2163L145.03 99.1306L145.258 98.8418C145.258 98.8418 158.828 102.567 160.5 102.567C162.171 102.567 165.077 100.649 164.416 99.6055Z" fill="#00C868"/>
<path d="M163.296 100.368C158.84 96.8893 141.182 82.4303 137.037 78.6537C137.005 78.6211 137.037 78.5978 137.06 78.6257C141.554 81.9786 159.096 96.5773 163.357 100.298C163.445 100.373 163.389 100.442 163.296 100.368Z" fill="#263238"/>
<path d="M146.683 99.9432C144.699 98.8535 142.809 96.8604 142.492 94.5554C142.492 94.4669 142.609 94.4529 142.651 94.5135C143.859 96.3926 145.264 98.1378 146.842 99.7196C146.864 99.7431 146.877 99.7735 146.879 99.8057C146.882 99.8379 146.873 99.8699 146.854 99.8962C146.835 99.9226 146.808 99.9416 146.777 99.9502C146.746 99.9587 146.713 99.9563 146.683 99.9432Z" fill="#263238"/>
<path d="M148.535 100.212C146.551 99.1221 144.665 97.129 144.344 94.824C144.344 94.7355 144.456 94.7215 144.497 94.7867C145.706 96.6645 147.111 98.4081 148.688 99.9882C148.706 100.012 148.715 100.041 148.715 100.071C148.715 100.1 148.707 100.129 148.69 100.154C148.673 100.178 148.649 100.197 148.621 100.207C148.594 100.218 148.563 100.219 148.535 100.212Z" fill="#263238"/>
<path d="M150.39 100.485C148.411 99.3952 146.521 97.4021 146.199 95.1017C146.199 95.0086 146.316 94.9946 146.358 95.0598C147.565 96.9383 148.97 98.6821 150.549 100.261C150.567 100.286 150.576 100.315 150.577 100.346C150.577 100.376 150.568 100.405 150.55 100.43C150.532 100.455 150.508 100.473 150.479 100.483C150.45 100.493 150.419 100.494 150.39 100.485Z" fill="#263238"/>
<path d="M73.7812 71.2018V71.2251C73.8977 71.6255 75.7138 77.9447 77.5066 83.3604C78.8198 87.314 80.133 90.7786 80.7663 91.1045C81.4881 91.4678 84.9853 92.7437 86.1588 93.1395C86.1588 93.1395 93.684 119.175 99.9519 127.646C102.099 130.551 111.878 133.457 116.66 130.319C127.883 122.961 144.503 103.827 144.503 103.827L125.14 87.9939L111.431 106.155C108.036 99.8545 106.192 87.137 106.192 87.137C106.192 87.137 105.424 74.5639 100.813 69.3438L73.7812 71.2018Z" fill="#37474F"/>
<path d="M139.838 106.138C136.923 103.922 137.729 104.597 134.837 102.348C133.44 101.244 124.127 94.003 122.99 92.741C122.986 92.7346 122.984 92.7271 122.984 92.7195C122.985 92.7119 122.987 92.7046 122.992 92.6985C122.996 92.6924 123.003 92.6879 123.01 92.6855C123.017 92.6831 123.025 92.683 123.032 92.6851C124.518 93.5094 133.682 100.914 135.079 102.04C137.924 104.346 137.081 103.717 139.903 106.055C139.909 106.059 139.914 106.064 139.917 106.07C139.92 106.076 139.923 106.083 139.924 106.09C139.924 106.097 139.924 106.104 139.922 106.111C139.92 106.117 139.917 106.124 139.913 106.129C139.908 106.135 139.903 106.139 139.897 106.143C139.891 106.146 139.884 106.148 139.877 106.149C139.871 106.15 139.864 106.149 139.857 106.148C139.85 106.146 139.844 106.143 139.838 106.138Z" fill="#263238"/>
<path d="M100.252 84.0535C99.6283 83.9371 98.9717 83.9324 98.343 83.8765C97.8308 83.8299 97.3232 83.7741 96.8156 83.6996C95.8482 83.5953 94.9161 83.2772 94.0868 82.7682C93.1787 82.1582 92.6898 81.1663 92.1869 80.2117C91.8982 79.6482 91.6048 79.0848 91.3068 78.526L90.8644 77.7157C90.6662 77.4016 90.4859 77.0767 90.3242 76.7424C90.3242 76.6959 90.2264 76.7424 90.2497 76.7704C90.3526 77.0007 90.4413 77.237 90.5151 77.4782C90.6176 77.7529 90.7153 78.0324 90.8224 78.3071C91.0087 78.7728 91.195 79.285 91.3952 79.774C91.7071 80.6723 92.1245 81.5305 92.6386 82.3305C93.6584 83.7275 95.3488 84.2165 97.0112 84.3142C97.4769 84.3375 97.9658 84.3422 98.4408 84.3375C99.0437 84.354 99.6468 84.3166 100.243 84.2258C100.266 84.227 100.288 84.2191 100.305 84.2038C100.322 84.1885 100.333 84.1671 100.334 84.1443C100.335 84.1214 100.327 84.099 100.312 84.082C100.297 84.065 100.275 84.0547 100.252 84.0535Z" fill="#263238"/>
<path d="M78.9033 90.3257C81.3874 91.0454 83.8041 91.9803 86.1258 93.1198C86.1356 93.1234 86.1446 93.129 86.1522 93.1361C86.1599 93.1433 86.166 93.1518 86.1704 93.1613C86.1747 93.1708 86.1771 93.1811 86.1774 93.1916C86.1778 93.202 86.1761 93.2124 86.1724 93.2222C86.1687 93.232 86.1632 93.241 86.1561 93.2486C86.1489 93.2562 86.1403 93.2624 86.1308 93.2667C86.1213 93.271 86.1111 93.2734 86.1006 93.2738C86.0902 93.2741 86.0798 93.2724 86.07 93.2688C83.6438 92.4166 81.1758 91.611 78.7962 90.6238C78.7567 90.6096 78.7244 90.5802 78.7065 90.5423C78.6886 90.5043 78.6865 90.4607 78.7007 90.4212C78.7149 90.3817 78.7443 90.3494 78.7822 90.3315C78.8202 90.3136 78.8638 90.3115 78.9033 90.3257Z" fill="#263238"/>
<path d="M77.1163 74.2136C77.1163 74.1298 77.2606 74.1018 77.2653 74.1903C77.4376 76.9843 77.7822 79.4431 78.1966 82.0415C78.3922 83.2523 79.8218 89.8974 81.8941 89.2641C82.2433 89.157 82.397 88.7984 82.4203 88.2629C82.3629 87.5687 82.2222 86.8839 82.0012 86.2232C81.6705 84.8262 81.3865 83.4292 81.1723 82.0322C80.7428 79.4058 80.5867 76.7419 80.7066 74.0832C80.7106 74.0683 80.7193 74.0552 80.7315 74.0458C80.7437 74.0364 80.7587 74.0312 80.7741 74.0312C80.7895 74.0312 80.8045 74.0364 80.8167 74.0458C80.8289 74.0552 80.8377 74.0683 80.8417 74.0832C81.0293 77.7534 81.4963 81.404 82.2387 85.0032C82.6205 86.7308 83.6776 89.3013 81.8708 89.6925C80.064 90.0837 78.5273 85.7715 78.2199 84.5701C77.4065 81.1801 77.0356 77.6989 77.1163 74.2136Z" fill="#263238"/>
<path d="M81.8483 89.4596C82.0662 89.9004 82.2559 90.3546 82.4164 90.8194C82.5758 91.1752 82.6689 91.5571 82.6912 91.9463C82.6884 91.9617 82.6814 91.976 82.671 91.9877C82.6605 91.9993 82.647 92.0078 82.632 92.0121C82.617 92.0165 82.601 92.0166 82.586 92.0123C82.5709 92.0081 82.5574 91.9998 82.5468 91.9882C82.3037 91.6598 82.1136 91.2952 81.9833 90.9079C81.7924 90.4888 81.5922 90.0743 81.4152 89.6506C81.3959 89.5943 81.3984 89.5328 81.4223 89.4782C81.4461 89.4237 81.4896 89.3801 81.544 89.3561C81.5985 89.3321 81.66 89.3294 81.7163 89.3486C81.7727 89.3678 81.8198 89.4074 81.8483 89.4596Z" fill="#263238"/>
<path d="M123.095 94.8084C120.121 99.0863 116.965 103.243 113.628 107.279C112.724 108.359 111.805 109.427 110.871 110.483C107.839 106.292 106.363 101.281 105.185 96.2892C104.882 95.0086 104.598 93.7234 104.305 92.4381C103.942 91.0724 103.648 89.6891 103.425 88.2936C103.243 86.8454 103.322 85.3692 103.192 83.9117C103.058 82.5021 102.836 81.1023 102.526 79.7207C101.819 76.5899 100.75 73.5519 99.3409 70.668C99.3409 70.6308 99.2571 70.668 99.2711 70.696C100.414 73.3528 101.348 76.0946 102.065 78.8964C102.411 80.3213 102.669 81.766 102.838 83.2225C103.006 84.6894 102.987 86.1562 103.085 87.6277C103.236 89.0231 103.497 90.4043 103.867 91.7582C104.161 93.0388 104.445 94.3241 104.738 95.6047C105.29 98.135 105.98 100.633 106.806 103.088C107.715 105.829 109.042 108.413 110.741 110.748C110.754 110.766 110.77 110.78 110.79 110.789C110.809 110.799 110.831 110.804 110.852 110.804C110.874 110.804 110.895 110.799 110.915 110.789C110.934 110.78 110.951 110.766 110.964 110.748C114.382 106.823 117.646 102.757 120.669 98.5011C121.532 97.2904 122.378 96.0672 123.207 94.8316C123.248 94.8037 123.141 94.7432 123.095 94.8084Z" fill="#263238"/>
<path d="M111.574 106.052C111.459 106.235 111.353 106.423 111.258 106.616L111.16 106.69C111.096 106.737 111.036 106.79 110.983 106.849C110.879 106.969 110.789 107.1 110.713 107.24C110.574 107.531 110.504 107.849 110.508 108.171C110.552 107.868 110.656 107.576 110.815 107.314C110.886 107.186 110.969 107.064 111.062 106.951C111.089 106.922 111.114 106.891 111.137 106.858C111.137 106.895 111.099 106.928 111.085 106.97C110.967 107.316 110.882 107.673 110.834 108.036C110.787 108.379 110.787 108.727 110.834 109.07C110.869 109.409 110.936 109.745 111.034 110.071H111.057C111.057 109.727 111.016 109.387 111.057 109.037C111.099 108.688 111.165 108.367 111.211 108.032C111.256 107.704 111.32 107.379 111.402 107.058C111.481 106.732 111.546 106.392 111.644 106.066C111.654 106.038 111.598 106.02 111.574 106.052Z" fill="#263238"/>
<path d="M90.2516 39.6086C86.5961 42.2443 69.5153 49.1874 63.2893 46.0488C56.9469 42.845 50.665 25.6385 49.417 24.1623C45.9943 20.0737 60.7142 14.2807 62.0599 17.1167C64.3091 21.8525 69.0869 34.5002 71.2802 34.7749C75.895 35.3523 80.128 34.7516 87.3458 34.6631C92.4077 34.5933 94.2704 36.6981 90.2516 39.6086Z" fill="#EB9481"/>
<path d="M63.6086 20.2383C63.6086 20.2383 69.5971 33.7427 70.9475 34.1153C73.1967 34.7579 85.3833 34.3341 89.7606 34.4086C94.1379 34.4831 98.3522 38.3575 87.9864 42.2272C77.6206 46.097 68.8939 48.1133 63.2547 46.8467C59.7528 46.055 50.1367 30.8742 50.1367 30.8742L63.6086 20.2383Z" fill="#00C868"/>
<path opacity="0.1" d="M63.6086 20.2383C63.6086 20.2383 69.5971 33.7427 70.9475 34.1153C73.1967 34.7579 85.3833 34.3341 89.7606 34.4086C94.1379 34.4831 98.3522 38.3575 87.9864 42.2272C77.6206 46.097 68.8939 48.1133 63.2547 46.8467C59.7528 46.055 50.1367 30.8742 50.1367 30.8742L63.6086 20.2383Z" fill="#303030"/>
<path d="M52.7418 33.3491C57.5429 28.8228 63.252 24.8367 64.1973 24.0683C64.2439 24.0311 64.2951 24.1102 64.2485 24.1475C63.2799 24.8506 57.2355 30.1546 52.793 33.4609C52.7418 33.4749 52.6953 33.391 52.7418 33.3491Z" fill="#263238"/>
<path opacity="0.1" d="M94.4236 37.4961C94.2374 38.8652 92.4911 40.5462 87.9834 42.2273C77.6223 46.1017 68.8909 48.1134 63.2563 46.8468C62.5578 46.6884 61.6125 45.9573 60.5508 44.8816C68.537 43.1586 87.7925 39.0142 94.4236 37.4961Z" fill="#303030"/>
<path d="M50.3654 25.6967C51.809 26.7724 62.0072 20.7699 62.24 18.9398C62.2623 18.3139 62.2028 17.6877 62.063 17.0771C62.063 17.0771 62.7802 13.0258 64.5777 9.86389C66.0818 7.20957 68.6197 3.43764 67.2227 2.57615C65.1877 1.30952 61.4064 5.69614 59.3854 8.34115C58.6683 6.6787 57.8999 5.31895 57.1549 4.68563C54.6915 2.6134 43.9811 12.4204 44.5957 15.6429C45.1965 18.7535 48.9218 24.6256 50.3654 25.6967Z" fill="#EB9481"/>
<path d="M60.3058 8.68635C59.7284 10.2603 58.201 8.68635 58.201 8.68635C58.201 8.68635 59.8495 11.4804 58.6247 12.8774C57.4 14.2744 55.6677 12.2441 55.5374 12.1044C55.6212 12.2534 57.0694 14.8705 55.6957 16.1464C54.322 17.4223 52.8225 15.1778 52.7294 15.0288C52.7666 15.1964 53.2183 17.4037 51.9517 18.1348C49.777 19.3875 48.4731 13.7715 46.7082 12.7703C46.7082 12.7703 44.6686 15.5643 44.5894 15.6435C44.5894 15.6435 43.239 10.3255 44.7245 8.01578C44.9345 7.67567 45.2547 7.41768 45.6316 7.28468C46.0086 7.15168 46.4197 7.15168 46.7967 7.28468C46.7967 7.28468 46.1727 5.61758 47.2205 4.58379C47.7607 4.05293 49.0832 4.44409 49.0832 4.44409C49.0832 4.44409 48.6175 3.08899 49.628 2.22284C50.4196 1.529 51.6304 2.03192 51.6304 2.03192C51.6304 2.03192 51.8073 0.53246 52.8458 0.090073C54.9413 -0.813327 61.5398 5.29627 60.3058 8.68635Z" fill="#EB9481"/>
<path d="M51.8438 2.08322C51.8438 2.08322 51.8438 2.02733 51.867 2.0413C54.64 3.57463 56.8813 5.91492 58.2933 8.75162C58.3352 8.84475 58.2048 8.95186 58.1396 8.86338C56.3805 6.31031 54.2597 4.02639 51.8438 2.08322Z" fill="#263238"/>
<path d="M49.0739 4.39757C49.0459 4.39757 49.0739 4.33238 49.1111 4.351C51.8492 5.89703 54.5548 8.7283 55.6677 12.1091C55.705 12.2255 55.6212 12.3652 55.57 12.2348C54.6572 10.0462 51.3649 6.1904 49.0739 4.39757Z" fill="#263238"/>
<path d="M52.7232 15.2889C51.5311 12.0897 49.4355 9.59375 46.9116 7.33991C46.879 7.31197 46.9116 7.27005 46.9582 7.28402C48.4902 8.05238 49.9524 9.65429 50.9816 11.0094C51.9603 12.2413 52.6022 13.7063 52.8442 15.261C52.8256 15.3122 52.7511 15.3588 52.7232 15.2889Z" fill="#263238"/>
<path d="M58.2557 8.6875C58.3069 8.79926 58.0927 8.7527 58.1392 8.86446C58.3395 9.33013 59.2941 12.2452 58.4047 12.8785C57.6875 13.3861 56.5094 12.7761 56.1508 12.3616L55.2428 11.3511L55.7364 12.641C55.9589 13.2109 56.0863 13.8134 56.1136 14.4246C56.1434 14.7067 56.1131 14.992 56.0248 15.2617C55.9366 15.5313 55.7922 15.7793 55.6013 15.9892C55.4214 16.1819 55.1808 16.3069 54.9197 16.3434C54.6586 16.3798 54.3929 16.3255 54.1671 16.1895C53.6662 15.8767 53.2541 15.4406 52.9703 14.9228L52.1321 13.5258L52.4627 15.1138C52.5544 15.5561 52.5903 16.0082 52.5698 16.4595C52.5645 16.8883 52.4333 17.3061 52.1926 17.661C52.0776 17.8158 51.9216 17.9353 51.7422 18.0061C51.5628 18.0768 51.3672 18.096 51.1775 18.0614C50.7646 17.9197 50.4 17.6647 50.1251 17.3257C49.5243 16.5925 48.981 15.814 48.4999 14.9973C48.2391 14.5969 47.983 14.1917 47.7036 13.8006C47.4471 13.3928 47.1075 13.0438 46.707 12.7761C47.07 13.082 47.3704 13.4552 47.5918 13.8751C47.8386 14.2802 48.0575 14.6993 48.2903 15.1231C48.7255 15.985 49.2416 16.8036 49.8317 17.5678C50.1431 17.9923 50.5721 18.3161 51.0657 18.4992C51.3434 18.567 51.6349 18.5525 51.9045 18.4574C52.1741 18.3623 52.4101 18.1907 52.5838 17.9637C52.9 17.5298 53.0771 17.0102 53.0914 16.4735C53.124 15.97 53.0911 15.4644 52.9936 14.9694L52.4907 15.1603C52.8151 15.7777 53.2971 16.2982 53.8877 16.6691C54.2202 16.8691 54.6128 16.945 54.996 16.8833C55.3685 16.8122 55.7109 16.6304 55.9785 16.3617C56.2221 16.0975 56.4063 15.7841 56.5187 15.4428C56.6311 15.1014 56.6693 14.7399 56.6305 14.3827C56.5867 13.7091 56.4292 13.0478 56.1648 12.4268L55.7503 12.6783C56.216 13.1859 57.4687 14.0101 58.6748 13.3675C60.1509 12.2825 58.5816 9.22768 58.2557 8.6875Z" fill="#263238"/>
<path d="M58.1992 8.67869C58.4844 8.87994 58.7984 9.03694 59.1306 9.14436C59.2618 9.18982 59.4028 9.19911 59.5388 9.17125C59.6748 9.14339 59.8008 9.07941 59.9036 8.98603C60.1011 8.75226 60.2258 8.46569 60.2621 8.16179C60.318 7.82651 60.3646 7.4726 60.3925 7.10938C60.5475 7.45001 60.6269 7.82016 60.6254 8.19439C60.6375 8.39981 60.6088 8.6056 60.5409 8.79985C60.4729 8.99409 60.3671 9.17291 60.2295 9.32597C60.0611 9.47972 59.8501 9.57877 59.6242 9.61003C59.4091 9.62596 59.1937 9.58416 59.0002 9.48895C58.6536 9.31123 58.3729 9.02731 58.1992 8.67869Z" fill="#263238"/>
<path d="M103.277 76.5423C103.18 76.6168 73.1393 73.2826 72.8925 72.8961C72.5479 72.328 81.4981 41.1886 88.3714 34.795C90.0897 33.1977 94.8442 33.9102 96.7534 35.9731C106.234 46.2132 103.617 76.2769 103.277 76.5423Z" fill="#EBEBEB"/>
<path d="M88.1105 34.8047L76.5758 76.8547L70.6758 72.6218C70.6758 72.6218 80.3012 45.3801 83.0952 41.0447C85.8892 36.7093 88.1105 34.8047 88.1105 34.8047Z" fill="#00C868"/>
<path opacity="0.1" d="M88.1105 34.8047L76.5758 76.8547L70.6758 72.6218C70.6758 72.6218 80.3012 45.3801 83.0952 41.0447C85.8892 36.7093 88.1105 34.8047 88.1105 34.8047Z" fill="#303030"/>
<path d="M94.9044 34.5078C94.9044 34.5078 94.4387 50.6852 94.4387 54.4851C94.4387 58.2849 93.5586 79.0352 93.5586 79.0352L107.226 76.5439C107.226 76.5439 104.73 56.4223 103.864 51.7749C102.998 47.1275 99.3376 35.8769 94.9044 34.5078Z" fill="#00C868"/>
<path opacity="0.1" d="M94.9044 34.5078C94.9044 34.5078 94.4387 50.6852 94.4387 54.4851C94.4387 58.2849 93.5586 79.0352 93.5586 79.0352L107.226 76.5439C107.226 76.5439 104.73 56.4223 103.864 51.7749C102.998 47.1275 99.3376 35.8769 94.9044 34.5078Z" fill="#303030"/>
<path d="M98.1448 43.6035C106.089 51.7388 116.618 60.4422 122.471 59.1988C127.766 58.0719 135.375 51.8645 143.678 45.1729C145.326 43.8457 134.323 31.5613 132.707 33.1539C129.526 36.2879 122.998 44.2881 120.562 45.1729C119.519 45.55 107.84 39.7152 100.184 36.7908C90.8896 33.2377 94.9782 40.3625 98.1448 43.6035Z" fill="#EB9481"/>
<path d="M150.973 39.5136C148.794 42.1353 141.231 47.0528 139.332 47.3183C137.432 47.5837 130.884 36.6497 131.611 34.801C132.337 32.9523 140.351 24.6867 143.76 23.9835C147.169 23.2803 153.232 36.7941 150.973 39.5136Z" fill="#EB9481"/>
<path d="M138.715 26.1144C138.449 27.8979 140.708 27.1948 140.708 27.1948C140.708 27.1948 137.7 28.9923 138.137 30.9201C138.561 32.7828 141.257 31.8515 141.453 31.7816C141.295 31.8794 138.575 33.6071 139.218 35.507C139.884 37.4954 142.426 36.0798 142.594 35.9727C142.473 36.1124 140.908 37.9657 141.723 39.3069C143.12 41.6352 147.26 36.9785 149.448 36.9506C149.448 36.9506 150.776 39.563 150.813 39.6654C150.813 39.6654 153.984 36.4337 153.774 33.486C153.756 33.0552 153.588 32.6443 153.3 32.3233C153.012 32.0023 152.622 31.7911 152.196 31.7257C152.196 31.7257 153.649 30.4731 153.192 28.9317C152.955 28.1494 151.497 27.8327 151.497 27.8327C151.497 27.8327 152.615 26.7803 152.126 25.4532C151.739 24.3914 150.338 24.2378 150.338 24.2378C150.338 24.2378 150.943 22.729 150.193 21.7744C148.689 19.9163 139.292 22.2866 138.715 26.1144Z" fill="#EB9481"/>
<path d="M150.12 24.2543C150.125 24.2522 150.13 24.2486 150.133 24.244C150.136 24.2395 150.137 24.2342 150.137 24.2287C150.137 24.2233 150.136 24.218 150.133 24.2134C150.13 24.2089 150.125 24.2053 150.12 24.2031C146.71 24.2177 143.385 25.2702 140.588 27.2207C140.5 27.2859 140.565 27.4535 140.677 27.4023C143.655 25.9 146.836 24.8396 150.12 24.2543Z" fill="#263238"/>
<path d="M151.548 27.8738C151.586 27.8738 151.576 27.8086 151.548 27.8086C148.168 27.8552 144.149 29.1311 141.35 31.7482C141.257 31.8366 141.262 32.0136 141.378 31.9205C143.348 30.3186 148.447 28.3814 151.548 27.8738Z" fill="#263238"/>
<path d="M142.458 36.2742C145.252 33.8666 148.512 32.5954 152.056 31.7711C152.102 31.7711 152.084 31.6966 152.056 31.692C150.193 31.6221 148.004 32.3858 146.337 33.1216C144.776 33.7763 143.414 34.8298 142.388 36.1764C142.333 36.2276 142.398 36.3254 142.458 36.2742Z" fill="#263238"/>
<path d="M140.707 27.1836C140.16 27.5788 139.653 28.0264 139.193 28.5201C138.724 28.9773 138.385 29.551 138.211 30.1825C138.148 30.4765 138.196 30.7833 138.346 31.044C138.499 31.3063 138.717 31.5245 138.979 31.6773C139.253 31.8068 139.551 31.8778 139.854 31.8859C140.158 31.8939 140.459 31.8387 140.74 31.7239L142.137 31.2116L141.01 32.1756C140.504 32.5971 140.071 33.099 139.729 33.6611C139.556 33.9133 139.438 34.1991 139.382 34.5C139.327 34.8009 139.336 35.11 139.408 35.4073C139.479 35.6815 139.641 35.9232 139.868 36.0926C140.095 36.2619 140.373 36.3488 140.656 36.3387C141.289 36.3002 141.903 36.1015 142.439 35.7612L143.953 34.8718L142.821 36.199C142.505 36.5701 142.237 36.9801 142.025 37.419C141.809 37.8262 141.717 38.2874 141.759 38.7462C141.788 38.9515 141.874 39.1447 142.006 39.3043C142.138 39.4638 142.313 39.5834 142.509 39.6496C142.972 39.732 143.448 39.6803 143.883 39.5006C144.827 39.1254 145.741 38.677 146.616 38.1594C147.082 37.9126 147.52 37.6658 147.985 37.4377C148.437 37.1796 148.939 37.0209 149.457 36.972C148.958 37.073 148.484 37.2691 148.06 37.5494C147.594 37.8102 147.189 38.0896 146.756 38.369C145.899 38.9585 144.989 39.4653 144.036 39.8824C143.525 40.1192 142.955 40.2002 142.397 40.1153C142.099 40.0364 141.831 39.8723 141.625 39.6432C141.419 39.4141 141.285 39.1299 141.238 38.8254C141.168 38.2569 141.266 37.6803 141.522 37.1676C141.752 36.6767 142.043 36.2168 142.388 35.7985L142.77 36.2409C142.141 36.6543 141.416 36.8967 140.665 36.944C140.249 36.9567 139.841 36.8251 139.51 36.5715C139.193 36.3128 138.962 35.9635 138.849 35.5703C138.758 35.1946 138.746 34.8038 138.816 34.4235C138.886 34.0432 139.035 33.6818 139.254 33.363C139.642 32.7504 140.126 32.2047 140.688 31.7472L140.954 32.2128C140.601 32.3444 140.223 32.3971 139.847 32.3674C139.472 32.3376 139.107 32.2261 138.779 32.0405C138.464 31.8362 138.207 31.5539 138.034 31.221C137.861 30.8784 137.818 30.4846 137.913 30.1127C138.135 29.4421 138.539 28.8469 139.082 28.3943C139.576 27.9309 140.121 27.5248 140.707 27.1836Z" fill="#263238"/>
<path d="M132.707 33.152C132.707 33.152 136.819 19.2797 141.452 23.5452C142.849 24.8118 146.971 31.6572 145.615 32.5187C143.86 33.627 141.597 31.0891 140.428 29.259C140.428 29.259 139.692 34.1718 136.12 34.684C135.466 34.7671 134.801 34.6681 134.198 34.3978C133.596 34.1275 133.08 33.6964 132.707 33.152Z" fill="#EB9481"/>
<path d="M141.048 23.2148C141.646 23.6476 142.178 24.1653 142.627 24.7516C143.091 25.3274 143.516 25.9341 143.898 26.5677C144.686 27.8226 145.362 29.1439 145.919 30.5166C146.065 30.8819 146.16 31.2659 146.199 31.6574C146.219 31.8829 146.19 32.1099 146.115 32.3234C146.072 32.4411 146.011 32.5512 145.933 32.6493C145.854 32.7436 145.762 32.8252 145.658 32.8915C145.279 33.122 144.83 33.2096 144.392 33.1383C143.992 33.0643 143.608 32.9225 143.256 32.7192C142.6 32.3219 142.017 31.8146 141.533 31.2197C141.049 30.6513 140.608 30.0473 140.215 29.4129L140.68 29.3058C140.576 29.8639 140.42 30.4111 140.215 30.9403C140.015 31.4655 139.761 31.9682 139.456 32.4398C139.148 32.9112 138.773 33.3348 138.343 33.6971C137.916 34.0572 137.425 34.3323 136.895 34.5074C137.385 34.2716 137.833 33.957 138.222 33.576C138.598 33.1892 138.92 32.7538 139.181 32.2814C139.442 31.8113 139.658 31.3169 139.824 30.8053C139.988 30.2986 140.107 29.778 140.178 29.2499L140.257 28.598L140.643 29.1428C141.047 29.7369 141.489 30.3046 141.966 30.8425C142.422 31.3755 142.959 31.8329 143.558 32.1976C144.131 32.5189 144.848 32.6912 145.323 32.3839C145.766 32.1511 145.593 31.3641 145.37 30.7168C145.126 30.0381 144.846 29.3728 144.532 28.7237C144.229 28.0625 143.912 27.4059 143.568 26.7679C142.85 25.5013 142.129 24.2067 141.048 23.2148Z" fill="#263238"/>
<path d="M131.091 34.7227C131.091 34.7227 121.461 44.5436 120.055 44.4552C117.726 44.3062 103.575 37.5958 99.4256 36.1988C95.2765 34.8018 90.8293 35.6261 97.3859 43.3748C104.785 52.1154 113.07 59.9015 121.633 59.9108C126.248 59.9108 140.619 49.8802 140.619 49.8802L131.091 34.7227Z" fill="#00C868"/>
<path opacity="0.1" d="M131.091 34.7227C131.091 34.7227 121.461 44.5436 120.055 44.4552C117.726 44.3062 103.575 37.5958 99.4256 36.1988C95.2765 34.8018 90.8293 35.6261 97.3859 43.3748C104.785 52.1154 113.07 59.9015 121.633 59.9108C126.248 59.9108 140.619 49.8802 140.619 49.8802L131.091 34.7227Z" fill="#303030"/>
<path d="M136.942 50.7114C133.934 44.8346 129.892 39.1721 129.254 38.1383C129.226 38.0871 129.151 38.1383 129.184 38.1942C129.859 39.1814 133.78 46.2037 136.863 50.7673C136.9 50.8278 136.975 50.7673 136.942 50.7114Z" fill="#263238"/>
<path d="M103.531 50.0303C103.312 49.8001 103.107 49.5576 102.916 49.3039C102.688 49.0571 102.45 48.8103 102.231 48.5635C101.766 48.0978 101.342 47.6321 100.9 47.1339C100.019 46.1792 99.0835 45.2712 98.1707 44.3398C99.0043 45.3457 99.8239 46.3562 100.727 47.3015L100.788 47.3667L100.257 47.0081C99.8891 46.7613 99.5212 46.5145 99.158 46.2631C99.158 46.2631 99.1114 46.2863 99.13 46.3003C99.47 46.5797 99.8192 46.8452 100.187 47.092C100.373 47.2177 100.56 47.3388 100.755 47.4552L101.025 47.6135L102.045 48.6706C102.278 48.9081 102.511 49.1363 102.753 49.3784C102.995 49.6205 103.284 49.7975 103.498 50.0536C103.507 50.1188 103.586 50.0629 103.531 50.0303Z" fill="#263238"/>
<path d="M89.1111 40.5064C90.536 40.851 94.0472 38.7462 95.6584 36.7112C95.7655 36.5715 95.8028 34.9091 95.9471 32.8927C96.0356 31.668 96.166 30.3082 96.3755 29.0742L88.3287 29.647C88.5082 31.2622 88.4894 32.8933 88.2729 34.5039C88.243 34.6743 88.1962 34.8412 88.1332 35.0022C88.1332 35.0255 88.1332 35.0534 88.1332 35.086C87.7886 36.0313 86.8805 39.9663 89.1111 40.5064Z" fill="#EB9481"/>
<path d="M88.1373 35.0033C88.1238 35.0296 88.1144 35.0579 88.1094 35.0871C88.3664 35.1675 88.6296 35.2267 88.8964 35.264C93.3109 35.9067 95.29 30.7284 95.7929 29.1172L88.3422 29.6434C88.5246 31.2613 88.5089 32.8955 88.2956 34.5097C88.2563 34.6782 88.2034 34.8433 88.1373 35.0033Z" fill="#263238"/>
<path d="M99.9484 19.8208C100.065 22.722 96.6049 30.1215 94.2393 31.3508C90.8073 33.1344 86.2018 32.1844 84.9259 28.2914C83.7059 24.5148 88.3812 14.9546 90.9331 13.9441C94.705 12.4493 99.7761 15.5413 99.9484 19.8208Z" fill="#EB9481"/>
<path d="M93.4566 21.401C93.2692 21.2463 93.0904 21.0816 92.921 20.9074C92.7022 20.7637 92.5381 20.5504 92.4554 20.302C92.4463 20.2191 92.4647 20.1356 92.5075 20.0641C92.5504 19.9927 92.6155 19.9372 92.6929 19.9062C92.8544 19.8693 93.0228 19.8762 93.1808 19.9261C93.3388 19.976 93.4806 20.0672 93.5916 20.1902C93.8555 20.4031 94.0299 20.7072 94.0806 21.0424C94.0856 21.1172 94.0695 21.192 94.0341 21.2581C93.9988 21.3243 93.9456 21.3792 93.8805 21.4165C93.8155 21.4539 93.7413 21.4722 93.6663 21.4695C93.5914 21.4667 93.5187 21.443 93.4566 21.401Z" fill="#303030"/>
<path d="M88.4841 19.2676C88.7263 19.3281 88.9498 19.3421 89.2059 19.3793C89.4538 19.452 89.7185 19.4422 89.9603 19.3514C90.0302 19.3072 90.0839 19.2416 90.1132 19.1644C90.1426 19.0871 90.1462 19.0024 90.1233 18.923C90.0511 18.7729 89.9401 18.645 89.8017 18.5524C89.6633 18.4599 89.5026 18.4061 89.3363 18.3968C89.0047 18.3213 88.6569 18.3745 88.3631 18.5458C88.2985 18.5885 88.2477 18.6491 88.2168 18.7201C88.1859 18.7912 88.1763 18.8696 88.1891 18.946C88.2019 19.0224 88.2366 19.0934 88.289 19.1505C88.3413 19.2076 88.4091 19.2482 88.4841 19.2676Z" fill="#303030"/>
<path d="M90.5757 27.1172C90.411 27.2213 90.2143 27.2627 90.0215 27.2336C89.8355 27.1492 89.669 27.0271 89.5326 26.875H89.5C89.5307 27.0052 89.5957 27.1248 89.6882 27.2215C89.7808 27.3181 89.8975 27.3882 90.0262 27.4245C90.1403 27.4433 90.2574 27.4271 90.3622 27.378C90.4669 27.329 90.5543 27.2494 90.613 27.1497C90.6362 27.1358 90.599 27.1078 90.5757 27.1172Z" fill="#263238"/>
<path d="M90.6976 25.382C90.4831 25.5275 90.2407 25.6268 89.9857 25.6733C89.7307 25.7198 89.4688 25.7125 89.2168 25.6521C88.9973 25.6021 88.7858 25.5222 88.5881 25.4146C88.5487 25.3966 88.5113 25.3748 88.4763 25.3494C88.4395 25.3322 88.405 25.3103 88.3739 25.2842C88.3491 25.2682 88.3301 25.2445 88.32 25.2168C88.31 25.189 88.3092 25.1587 88.318 25.1305C88.3238 25.1126 88.3316 25.0954 88.3413 25.0793V25.0374C88.4996 24.6416 88.807 24.0688 88.807 24.0688C88.6347 24.0688 87.7732 24.0688 87.8756 23.8918C88.6742 22.158 89.6479 20.5103 90.7814 18.9743C90.814 18.9231 90.8978 18.9743 90.8652 19.0256C90.1388 20.6321 89.1329 22.1036 88.3739 23.7056C88.6877 23.6933 89.0016 23.7279 89.3052 23.808C89.3518 23.8453 88.7185 24.907 88.6626 25.0933C88.9682 25.2619 89.3046 25.3674 89.6518 25.4034C89.999 25.4394 90.3499 25.4052 90.6836 25.3028C90.7162 25.3214 90.7442 25.354 90.6976 25.382Z" fill="#263238"/>
<path d="M88.8984 25.3203C88.9919 25.6895 89.1796 26.0281 89.4433 26.3029C89.5919 26.4489 89.7823 26.545 89.9881 26.5776C90.4538 26.6475 90.6074 26.2796 90.668 25.9303C90.6989 25.7442 90.7083 25.5551 90.6959 25.3669C90.107 25.5428 89.4774 25.5264 88.8984 25.3203Z" fill="#263238"/>
<path d="M89.4414 26.2978C89.59 26.4439 89.7805 26.5399 89.9862 26.5726C90.4519 26.6424 90.6056 26.2746 90.6661 25.9253C90.4497 25.8417 90.2115 25.8329 89.9895 25.9004C89.7676 25.9679 89.5746 26.1079 89.4414 26.2978Z" fill="#FF9BBC"/>
<path d="M92.876 22.6318C92.9042 22.4855 92.8929 22.3345 92.8434 22.194C92.8109 22.1187 92.7637 22.0507 92.7045 21.9939C92.6453 21.9371 92.5754 21.8927 92.4988 21.8634C92.4208 21.8398 92.3386 21.8338 92.2581 21.8459C92.1775 21.858 92.1007 21.8878 92.0331 21.9333C91.9147 22.0168 91.8174 22.1268 91.749 22.2546C91.7101 22.3332 91.6759 22.4141 91.6466 22.4967C91.5836 22.6661 91.5613 22.848 91.5814 23.0276C91.6185 22.9017 91.6684 22.78 91.7304 22.6644C91.7875 22.561 91.8513 22.4614 91.9213 22.3663C92.0657 22.1754 92.2566 22.0404 92.4289 22.1149C92.5199 22.1589 92.5941 22.2313 92.6403 22.3212C92.6865 22.4111 92.7022 22.5135 92.685 22.6131C92.6732 22.8643 92.6374 23.1138 92.5779 23.3582C92.731 23.1417 92.8329 22.8934 92.876 22.6318Z" fill="#263238"/>
<path d="M87.9658 20.3842C88.054 20.2652 88.171 20.1706 88.3058 20.1095C88.3795 20.0785 88.4587 20.0625 88.5386 20.0625C88.6186 20.0625 88.6977 20.0785 88.7715 20.1095C88.8457 20.1484 88.91 20.204 88.9592 20.2718C89.0085 20.3397 89.0415 20.418 89.0555 20.5006C89.0752 20.6447 89.0608 20.7915 89.0136 20.929C88.9879 21.0124 88.9552 21.0934 88.9158 21.1712C88.8358 21.3336 88.7195 21.4754 88.5759 21.5856C88.643 21.473 88.6961 21.3526 88.7342 21.2271C88.7709 21.1145 88.7989 20.9993 88.818 20.8825C88.8553 20.645 88.818 20.4168 88.6504 20.3423C88.5554 20.3061 88.4512 20.302 88.3537 20.3306C88.2561 20.3592 88.1706 20.4189 88.1102 20.5006C87.9355 20.6833 87.7795 20.883 87.6445 21.0967C87.6933 20.837 87.8035 20.5927 87.9658 20.3842Z" fill="#263238"/>
<path d="M88.631 15.9555C90.6799 18.796 95.4065 17.3152 95.4065 17.3152C95.4255 17.9917 95.6624 18.644 96.0819 19.1751C96.5014 19.7062 97.0811 20.0877 97.7348 20.2629C97.7348 20.2629 96.6172 25.05 97.8326 25.4738C99.6953 26.1304 102.489 20.072 102.368 18.6284C102.247 17.1848 100.776 16.3001 100.776 16.3001C100.872 15.4923 100.657 14.6782 100.175 14.0229C99.2436 12.6259 94.4379 12.3372 94.4379 12.3372C94.3973 11.6665 94.2012 11.0144 93.8651 10.4326C93.7852 10.2892 93.677 10.1635 93.5471 10.0631C93.4171 9.96281 93.2682 9.88996 93.1092 9.84902C92.9502 9.80807 92.7845 9.79989 92.6223 9.82497C92.46 9.85004 92.3046 9.90785 92.1654 9.99487C92.2754 10.4166 92.2866 10.858 92.198 11.2848C91.9326 12.7097 90.8336 12.3093 91.2666 11.0939C91.4169 10.6329 91.7297 10.2423 92.1468 9.99487C91.8906 9.003 91.099 8.42091 90.4052 8.6584C89.1478 9.09148 86.9266 13.5992 88.631 15.9555Z" fill="#303030"/>
<path d="M91.1507 24.9089C90.6524 24.5897 90.301 24.086 90.1736 23.5081C90.0461 22.9302 90.153 22.3254 90.4709 21.8262C90.6956 21.4745 91.0145 21.193 91.3913 21.0136C91.7681 20.8341 92.1877 20.764 92.6024 20.8112C93.017 20.8583 93.4102 21.0209 93.7371 21.2803C94.0639 21.5398 94.3115 21.8858 94.4515 22.2789C94.5916 22.672 94.6185 23.0966 94.5293 23.5043C94.4401 23.912 94.2383 24.2865 93.9468 24.5852C93.6554 24.8839 93.286 25.0948 92.8806 25.1941C92.4752 25.2933 92.0501 25.2768 91.6537 25.1464C91.4761 25.0903 91.3069 25.0104 91.1507 24.9089ZM90.7223 21.9845C90.5163 22.3065 90.4103 22.6824 90.4179 23.0646C90.4255 23.4468 90.5462 23.8181 90.7649 24.1317C90.9836 24.4453 91.2903 24.6869 91.6464 24.8261C92.0024 24.9653 92.3917 24.9958 92.7651 24.9137C93.1384 24.8316 93.4791 24.6406 93.7439 24.3649C94.0087 24.0892 94.1857 23.7411 94.2527 23.3647C94.3197 22.9884 94.2735 22.6006 94.12 22.2505C93.9666 21.9004 93.7127 21.6036 93.3906 21.3978C93.2558 21.3108 93.1102 21.2419 92.9575 21.1929C92.5499 21.0586 92.1092 21.0635 91.7047 21.2067C91.3001 21.35 90.9546 21.6236 90.7223 21.9845Z" fill="#303030"/>
<path d="M86.8849 22.9081C86.056 22.5216 85.7999 21.2969 86.3214 20.1839C86.5478 19.6758 86.9271 19.2509 87.4064 18.9685C87.6056 18.8374 87.8351 18.7594 88.073 18.742C88.3109 18.7246 88.5492 18.7684 88.7654 18.8693C88.9815 18.9701 89.1683 19.1246 89.3078 19.3181C89.4473 19.5115 89.535 19.7375 89.5625 19.9744C89.6579 20.5221 89.5781 21.086 89.3343 21.5856C88.8407 22.6427 87.8302 23.2294 87.0059 22.9826L86.8849 22.9081ZM87.5508 19.2293C87.1258 19.4801 86.7902 19.858 86.5915 20.3097C86.1258 21.2736 86.3307 22.3214 87.0106 22.638C87.6905 22.9547 88.6125 22.4285 89.0642 21.4599C89.2796 21.0163 89.3512 20.5165 89.2691 20.0303C89.2439 19.8411 89.1737 19.6607 89.0643 19.5043C88.9549 19.3479 88.8095 19.2201 88.6404 19.1315L88.538 19.0896C88.3728 19.043 88.1996 19.0313 88.0297 19.0553C87.8597 19.0794 87.6966 19.1386 87.5508 19.2293Z" fill="#303030"/>
<path d="M90.4287 22.0943L90.6988 21.9686C90.5126 21.5681 89.9631 20.8929 89.2227 21.1909L89.3344 21.4657C90.0003 21.1956 90.4101 22.0617 90.4287 22.0943Z" fill="#303030"/>
<path d="M99.1996 26.8112H99.4977C99.4977 26.6761 99.4278 25.4468 98.869 25.0649C98.3102 24.6831 94.5616 23.3652 94.4032 23.3047L94.3008 23.5887C95.3858 23.9753 98.2962 25.037 98.7014 25.3117C99.1065 25.5865 99.1857 26.4759 99.1996 26.8112Z" fill="#303030"/>
<path d="M96.6266 25.7169C96.6266 25.7169 99.0807 23.7145 100.04 24.6598C100.999 25.6051 98.643 28.8508 97.1808 28.9719C96.9929 29.0013 96.8009 28.9921 96.6167 28.9448C96.4325 28.8974 96.2599 28.8129 96.1095 28.6965C95.9591 28.5801 95.834 28.4342 95.742 28.2678C95.6499 28.1013 95.5928 27.9179 95.5742 27.7286L96.6266 25.7169Z" fill="#EB9481"/>
<path d="M99.344 25.5726C99.3673 25.5726 99.344 25.6099 99.344 25.6099C98.3009 25.7216 97.5651 26.4481 96.9644 27.249C97.0452 27.1707 97.142 27.1108 97.2481 27.0735C97.3543 27.0362 97.4673 27.0224 97.5793 27.0331C97.6913 27.0437 97.7996 27.0785 97.8969 27.1351C97.9941 27.1916 98.078 27.2687 98.1426 27.3608C98.1455 27.3664 98.1467 27.3727 98.1461 27.379C98.1455 27.3853 98.143 27.3913 98.1391 27.3962C98.1352 27.4011 98.1298 27.4048 98.1238 27.4068C98.1178 27.4088 98.1114 27.409 98.1053 27.4073C97.9561 27.3077 97.7796 27.2569 97.6003 27.2619C97.4209 27.2669 97.2475 27.3275 97.1041 27.4353C96.8674 27.6169 96.6504 27.8229 96.4568 28.05C96.387 28.1245 96.2473 28.05 96.3078 27.9475C96.6384 26.7181 98.0354 25.3211 99.344 25.5726Z" fill="#263238"/>
<path d="M88.0678 34.8538L89.7908 39.6735L95.919 33.8945L97.5163 35.8876C97.5163 35.8876 91.3787 45.201 91.3601 44.7726L89.5626 40.5816L86.6289 43.3197L87.1318 36.181L88.0678 34.8538Z" fill="#EBEBEB"/>
<path d="M86.6759 39.799C86.8016 38.6255 86.8901 37.438 87.0671 36.2692C87.0671 36.2273 87.1416 36.2087 87.1509 36.2692C87.3418 37.4147 86.8482 41.9085 86.8109 42.9888C86.932 42.8678 89.5258 40.586 89.5491 40.6232C89.9449 41.2891 91.2674 44.3486 91.3559 44.6C92.3245 43.1192 96.0126 37.7454 97.1721 36.353C97.1749 36.3487 97.1784 36.345 97.1826 36.3421C97.1868 36.3392 97.1915 36.3372 97.1965 36.3361C97.2014 36.335 97.2066 36.3349 97.2116 36.3358C97.2166 36.3367 97.2214 36.3386 97.2257 36.3414C97.2299 36.3441 97.2336 36.3477 97.2365 36.3519C97.2394 36.3561 97.2415 36.3608 97.2426 36.3657C97.2437 36.3707 97.2437 36.3759 97.2428 36.3809C97.2419 36.3859 97.2401 36.3907 97.2373 36.3949C96.3712 37.9642 91.4583 45.2054 91.3885 45.1821C90.6905 43.7475 90.0687 42.2771 89.5258 40.7769C89.0601 41.2798 86.457 43.8689 86.457 43.6966C86.4617 42.3945 86.5348 41.0935 86.6759 39.799Z" fill="#263238"/>
</svg>
