<svg width="20" height="20" viewBox="0 0 20 20" fill="none" xmlns="http://www.w3.org/2000/svg">
<path d="M13.1227 16.5249C13.8032 16.5249 14.3783 16.29 14.8481 15.8202C15.3179 15.3503 15.5529 14.7752 15.5529 14.0948C15.5529 13.4143 15.3179 12.8392 14.8481 12.3694C14.3783 11.8996 13.8032 11.6646 13.1227 11.6646C12.4423 11.6646 11.8672 11.8996 11.3973 12.3694C10.9275 12.8392 10.6926 13.4143 10.6926 14.0948C10.6926 14.7752 10.9275 15.3503 11.3973 15.8202C11.8672 16.29 12.4423 16.5249 13.1227 16.5249ZM18.7606 19.7327C18.5824 19.9109 18.3556 20 18.0802 20C17.8048 20 17.578 19.9109 17.3998 19.7327L15.4557 17.7886C15.1154 18.0154 14.7469 18.1855 14.3499 18.2989C13.953 18.4123 13.5439 18.469 13.1227 18.469C11.9077 18.469 10.8748 18.0437 10.0243 17.1932C9.17375 16.3426 8.74848 15.3098 8.74848 14.0948C8.74848 12.8797 9.17375 11.8469 10.0243 10.9964C10.8748 10.1458 11.9077 9.72054 13.1227 9.72054C14.3378 9.72054 15.3706 10.1458 16.2211 10.9964C17.0717 11.8469 17.497 12.8797 17.497 14.0948C17.497 14.516 17.4403 14.9251 17.3269 15.322C17.2134 15.7189 17.0433 16.0875 16.8165 16.4277L18.7606 18.3718C18.9388 18.55 19.0279 18.7768 19.0279 19.0522C19.0279 19.3277 18.9388 19.5545 18.7606 19.7327ZM1.94411 19.4411C1.40948 19.4411 0.951802 19.2507 0.571081 18.87C0.19036 18.4893 0 18.0316 0 17.497V1.94411C0 1.40948 0.19036 0.951802 0.571081 0.571081C0.951802 0.19036 1.40948 0 1.94411 0H8.91859C9.1778 0 9.42487 0.0486027 9.65978 0.145808C9.89469 0.243013 10.1013 0.380721 10.2795 0.558931L14.9939 5.27339C15.1721 5.4516 15.3098 5.65816 15.407 5.89307C15.5043 6.12799 15.5529 6.37505 15.5529 6.63426V7.07169C15.5529 7.36331 15.4354 7.59822 15.2005 7.77643C14.9656 7.95464 14.7023 8.00324 14.4107 7.92224C14.2001 7.87363 13.9895 7.83718 13.7789 7.81288C13.5682 7.78858 13.3495 7.77643 13.1227 7.77643C12.2155 7.77643 11.369 7.94654 10.5832 8.28676C9.79749 8.62698 9.1211 9.1049 8.55407 9.72054H4.86027C4.58485 9.72054 4.35399 9.81369 4.16768 10C3.98137 10.1863 3.88821 10.4172 3.88821 10.6926C3.88821 10.968 3.98137 11.1989 4.16768 11.3852C4.35399 11.5715 4.58485 11.6646 4.86027 11.6646H7.2904C7.16079 11.9725 7.05954 12.2884 6.98663 12.6124C6.91373 12.9364 6.86108 13.2685 6.82868 13.6087H4.86027C4.58485 13.6087 4.35399 13.7019 4.16768 13.8882C3.98137 14.0745 3.88821 14.3054 3.88821 14.5808C3.88821 14.8562 3.98137 15.0871 4.16768 15.2734C4.35399 15.4597 4.58485 15.5529 4.86027 15.5529H6.97448C7.08789 16.0551 7.258 16.529 7.48481 16.9745C7.71162 17.42 7.98704 17.8291 8.31106 18.2017C8.53787 18.4447 8.59052 18.712 8.46902 19.0036C8.34751 19.2953 8.14095 19.4411 7.84933 19.4411H1.94411ZM8.74848 1.94411V5.83232C8.74848 6.10774 8.84164 6.3386 9.02795 6.52491C9.21426 6.71122 9.44512 6.80437 9.72054 6.80437H13.6087L8.74848 1.94411Z" fill="#00C868"/>
</svg>
