<svg width="12" height="12" viewBox="0 0 12 12" fill="none" xmlns="http://www.w3.org/2000/svg">
<ellipse cx="6" cy="5.98304" rx="6" ry="5.65345" fill="#FCFDFF"/>
<path d="M5.3 6.8312L4.225 5.81829C4.13333 5.73192 4.01667 5.68873 3.875 5.68873C3.73333 5.68873 3.61667 5.73192 3.525 5.81829C3.43333 5.90466 3.3875 6.01459 3.3875 6.14807C3.3875 6.28156 3.43333 6.39148 3.525 6.47786L4.95 7.82055C5.05 7.91477 5.16667 7.96189 5.3 7.96189C5.43333 7.96189 5.55 7.91477 5.65 7.82055L8.475 5.15872C8.56667 5.07235 8.6125 4.96242 8.6125 4.82893C8.6125 4.69545 8.56667 4.58552 8.475 4.49915C8.38333 4.41278 8.26667 4.36959 8.125 4.36959C7.98333 4.36959 7.86667 4.41278 7.775 4.49915L5.3 6.8312ZM6 10.6944C5.30833 10.6944 4.65833 10.5707 4.05 10.3234C3.44167 10.076 2.9125 9.74037 2.4625 9.31636C2.0125 8.89235 1.65625 8.39375 1.39375 7.82055C1.13125 7.24735 1 6.6349 1 5.98318C1 5.33146 1.13125 4.71901 1.39375 4.14581C1.65625 3.57261 2.0125 3.07401 2.4625 2.65C2.9125 2.22599 3.44167 1.89032 4.05 1.64298C4.65833 1.39564 5.30833 1.27197 6 1.27197C6.69167 1.27197 7.34167 1.39564 7.95 1.64298C8.55833 1.89032 9.0875 2.22599 9.5375 2.65C9.9875 3.07401 10.3438 3.57261 10.6062 4.14581C10.8688 4.71901 11 5.33146 11 5.98318C11 6.6349 10.8688 7.24735 10.6062 7.82055C10.3438 8.39375 9.9875 8.89235 9.5375 9.31636C9.0875 9.74037 8.55833 10.076 7.95 10.3234C7.34167 10.5707 6.69167 10.6944 6 10.6944Z" fill="#35CF08"/>
</svg>
