<svg width="11" height="20" viewBox="0 0 11 20" fill="none" xmlns="http://www.w3.org/2000/svg">
<path d="M2.87208 9.98268L10.6138 17.7148C10.8772 17.9778 11.0044 18.289 10.9957 18.6484C10.9869 19.0079 10.8508 19.3191 10.5875 19.5821C10.3242 19.8451 10.0126 19.9766 9.65271 19.9766C9.29283 19.9766 8.98123 19.8451 8.7179 19.5821L0.63381 11.4818C0.423149 11.2714 0.265154 11.0347 0.159823 10.7717C0.0544938 10.5087 0.00182809 10.2457 0.00182811 9.98268C0.00182814 9.71968 0.0544939 9.45669 0.159823 9.19369C0.265154 8.93069 0.423149 8.694 0.63381 8.4836L8.74424 0.383299C9.00756 0.120302 9.31478 -0.0068132 9.66588 0.00195301C10.017 0.0107192 10.3242 0.146601 10.5875 0.409597C10.8508 0.672594 10.9825 0.983809 10.9825 1.34324C10.9825 1.70267 10.8508 2.01388 10.5875 2.27688L2.87208 9.98268Z" fill="#303030"/>
</svg>
