<svg width="41" height="49" viewBox="0 0 41 49" fill="none" xmlns="http://www.w3.org/2000/svg">
<path d="M20.5 49C19.9021 49 19.3042 48.8943 18.7062 48.6831C18.1083 48.4718 17.5745 48.1548 17.1047 47.7322C14.3286 45.1966 11.8729 42.7244 9.7375 40.3157C7.60208 37.9069 5.81901 35.572 4.38828 33.3111C2.95755 31.0502 1.86849 28.8739 1.12109 26.782C0.373698 24.6902 0 22.6934 0 20.7917C0 14.4528 2.06068 9.40276 6.18203 5.64166C10.3034 1.88055 15.076 0 20.5 0C25.924 0 30.6966 1.88055 34.818 5.64166C38.9393 9.40276 41 14.4528 41 20.7917C41 22.6934 40.6263 24.6902 39.8789 26.782C39.1315 28.8739 38.0424 31.0502 36.6117 33.3111C35.181 35.572 33.3979 37.9069 31.2625 40.3157C29.1271 42.7244 26.6714 45.1966 23.8953 47.7322C23.4255 48.1548 22.8917 48.4718 22.2937 48.6831C21.6958 48.8943 21.0979 49 20.5 49ZM20.5 25.3558C21.9094 25.3558 23.1159 24.8592 24.1195 23.8661C25.1232 22.873 25.625 21.6792 25.625 20.2846C25.625 18.89 25.1232 17.6962 24.1195 16.7031C23.1159 15.71 21.9094 15.2135 20.5 15.2135C19.0906 15.2135 17.8841 15.71 16.8805 16.7031C15.8768 17.6962 15.375 18.89 15.375 20.2846C15.375 21.6792 15.8768 22.873 16.8805 23.8661C17.8841 24.8592 19.0906 25.3558 20.5 25.3558Z" fill="#303030"/>
</svg>
