<svg width="205" height="83" viewBox="0 0 205 83" fill="none" xmlns="http://www.w3.org/2000/svg">
<path d="M45.1839 42.7705C45.8112 43.3902 46.8731 43.2486 47.293 42.4797C50.0259 37.4749 51.7802 33.062 51.7802 28.6568C51.7802 27.8278 50.8018 27.4188 50.1452 27.9445L40.2514 35.8664C39.642 36.3543 39.5941 37.2481 40.1481 37.7954L45.1839 42.7705Z" fill="#00C868"/>
<path d="M38.2127 57.6689C38.5154 57.1576 38.4314 56.5123 38.0063 56.0923L28.561 46.7609C28.075 46.2808 27.2944 46.2409 26.7598 46.669L14.4928 56.4911C13.9811 56.9008 13.8527 57.6131 14.1886 58.1698C17.6879 63.9698 21.4342 70.6973 24.9278 78.7964C25.4031 79.8982 27.0424 79.8854 27.5008 78.7769C30.9174 70.5154 34.6852 63.628 38.2127 57.6689Z" fill="#00C868"/>
<path d="M9.07129 47.0589C8.44139 47.5632 7.49912 47.4057 7.08075 46.7233C2.88278 39.8757 0 34.3178 0 28.6568C0 15.802 11.4642 4 25.9173 4C34.8541 4 42.6274 8.51232 47.2592 14.9957C47.6458 15.5369 47.5215 16.272 46.999 16.6904L9.07129 47.0589Z" fill="#00C868"/>
<path d="M38.4472 57.3683C38.7531 56.85 38.6683 56.1959 38.2385 55.7702L28.69 46.3109C28.1988 45.8242 27.4097 45.7838 26.8692 46.2178L14.4683 56.1744C13.9509 56.5897 13.8212 57.3118 14.1607 57.8761C17.6982 63.7555 21.4854 70.5752 25.0172 78.7852C25.4977 79.902 27.1549 79.8891 27.6183 78.7654C31.0722 70.3908 34.8812 63.409 38.4472 57.3683Z" fill="#004D73"/>
<path d="M67.128 16.432V11.6H84.856V16.432H78.68V34H73.272V16.432H67.128ZM87.382 29.392C87.382 29.776 87.478 30.1067 87.67 30.384C87.862 30.64 88.118 30.8427 88.438 30.992C88.758 31.12 89.11 31.184 89.494 31.184C90.0487 31.184 90.5607 31.0667 91.03 30.832C91.4993 30.5973 91.8833 30.2453 92.182 29.776C92.4807 29.3067 92.63 28.7307 92.63 28.048L93.142 29.968C93.142 30.9067 92.886 31.7067 92.374 32.368C91.862 33.008 91.2007 33.4987 90.39 33.84C89.5793 34.16 88.7047 34.32 87.766 34.32C86.8273 34.32 85.9527 34.1493 85.142 33.808C84.3527 33.4453 83.7127 32.912 83.222 32.208C82.7527 31.504 82.518 30.6507 82.518 29.648C82.518 28.24 83.0193 27.1307 84.022 26.32C85.0247 25.488 86.4433 25.072 88.278 25.072C89.174 25.072 89.974 25.1573 90.678 25.328C91.4033 25.4987 92.022 25.712 92.534 25.968C93.046 26.224 93.43 26.4907 93.686 26.768V28.912C93.174 28.528 92.5767 28.24 91.894 28.048C91.2327 27.8347 90.5287 27.728 89.782 27.728C89.206 27.728 88.7473 27.792 88.406 27.92C88.0647 28.048 87.8087 28.24 87.638 28.496C87.4673 28.7307 87.382 29.0293 87.382 29.392ZM85.238 23.792L83.606 20.56C84.438 20.1547 85.4407 19.7707 86.614 19.408C87.7873 19.0453 89.0673 18.864 90.454 18.864C91.7553 18.864 92.918 19.056 93.942 19.44C94.966 19.8027 95.7767 20.336 96.374 21.04C96.9713 21.744 97.27 22.608 97.27 23.632V34H92.63V24.72C92.63 24.3573 92.566 24.048 92.438 23.792C92.3313 23.5147 92.1607 23.28 91.926 23.088C91.6913 22.896 91.3927 22.7573 91.03 22.672C90.6887 22.5867 90.294 22.544 89.846 22.544C89.1847 22.544 88.534 22.6187 87.894 22.768C87.2753 22.9173 86.7313 23.0987 86.262 23.312C85.7927 23.504 85.4513 23.664 85.238 23.792ZM110.328 19.28H115.704L110.072 26.448L116.024 34H110.648L107.576 29.712L104.568 34H99L105.048 26.448L99.32 19.28H104.888L107.576 23.152L110.328 19.28ZM117.631 13.744C117.631 12.976 117.909 12.3573 118.463 11.888C119.018 11.3973 119.679 11.152 120.447 11.152C121.237 11.152 121.898 11.3973 122.431 11.888C122.986 12.3573 123.263 12.976 123.263 13.744C123.263 14.512 122.986 15.1413 122.431 15.632C121.898 16.1227 121.237 16.368 120.447 16.368C119.679 16.368 119.018 16.1227 118.463 15.632C117.909 15.1413 117.631 14.512 117.631 13.744ZM118.111 19.28H122.783V34H118.111V19.28ZM130.763 29.68L131.147 25.552H142.251L142.603 29.68H130.763ZM136.619 19.824L133.483 27.056L133.739 28.24L130.955 34H124.843L136.619 10.192L148.427 34H142.283L139.595 28.464L139.787 27.088L136.619 19.824ZM155.094 41.04H150.262V19.28H155.094V41.04ZM167.126 26.64C167.126 28.3467 166.785 29.7867 166.102 30.96C165.441 32.1333 164.577 33.0187 163.51 33.616C162.465 34.2133 161.334 34.512 160.118 34.512C158.838 34.512 157.729 34.192 156.79 33.552C155.873 32.8907 155.169 31.9733 154.678 30.8C154.188 29.6053 153.942 28.2187 153.942 26.64C153.942 25.04 154.188 23.6533 154.678 22.48C155.169 21.3067 155.873 20.4 156.79 19.76C157.729 19.0987 158.838 18.768 160.118 18.768C161.334 18.768 162.465 19.0667 163.51 19.664C164.577 20.2613 165.441 21.1467 166.102 22.32C166.785 23.472 167.126 24.912 167.126 26.64ZM162.038 26.64C162.038 25.872 161.878 25.2213 161.558 24.688C161.238 24.1547 160.812 23.7493 160.278 23.472C159.745 23.1947 159.158 23.056 158.518 23.056C157.964 23.056 157.42 23.1947 156.886 23.472C156.374 23.728 155.948 24.1227 155.606 24.656C155.265 25.1893 155.094 25.8507 155.094 26.64C155.094 27.4293 155.265 28.0907 155.606 28.624C155.948 29.1573 156.374 29.5627 156.886 29.84C157.42 30.096 157.964 30.224 158.518 30.224C159.158 30.224 159.745 30.0853 160.278 29.808C160.812 29.5307 161.238 29.1253 161.558 28.592C161.878 28.0587 162.038 27.408 162.038 26.64ZM174.844 41.04H170.012V19.28H174.844V41.04ZM186.876 26.64C186.876 28.3467 186.535 29.7867 185.852 30.96C185.191 32.1333 184.327 33.0187 183.26 33.616C182.215 34.2133 181.084 34.512 179.868 34.512C178.588 34.512 177.479 34.192 176.54 33.552C175.623 32.8907 174.919 31.9733 174.428 30.8C173.938 29.6053 173.692 28.2187 173.692 26.64C173.692 25.04 173.938 23.6533 174.428 22.48C174.919 21.3067 175.623 20.4 176.54 19.76C177.479 19.0987 178.588 18.768 179.868 18.768C181.084 18.768 182.215 19.0667 183.26 19.664C184.327 20.2613 185.191 21.1467 185.852 22.32C186.535 23.472 186.876 24.912 186.876 26.64ZM181.788 26.64C181.788 25.872 181.628 25.2213 181.308 24.688C180.988 24.1547 180.562 23.7493 180.028 23.472C179.495 23.1947 178.908 23.056 178.268 23.056C177.714 23.056 177.17 23.1947 176.636 23.472C176.124 23.728 175.698 24.1227 175.356 24.656C175.015 25.1893 174.844 25.8507 174.844 26.64C174.844 27.4293 175.015 28.0907 175.356 28.624C175.698 29.1573 176.124 29.5627 176.636 29.84C177.17 30.096 177.714 30.224 178.268 30.224C178.908 30.224 179.495 30.0853 180.028 29.808C180.562 29.5307 180.988 29.1253 181.308 28.592C181.628 28.0587 181.788 27.408 181.788 26.64ZM195.63 23.664H189.262V19.28H203.662L196.302 29.616H202.638V34H187.918L195.63 23.664Z" fill="black"/>
<path d="M69.368 48.6H74.936V71H69.368V48.6ZM77.368 71H72.952V66.2H77.176C78.0293 66.2 78.8507 66.0933 79.64 65.88C80.4507 65.6667 81.1547 65.3147 81.752 64.824C82.3707 64.3333 82.8613 63.6827 83.224 62.872C83.5867 62.04 83.768 61.016 83.768 59.8C83.768 58.584 83.5867 57.5707 83.224 56.76C82.8613 55.928 82.3707 55.2667 81.752 54.776C81.1547 54.2853 80.4507 53.9333 79.64 53.72C78.8507 53.5067 78.0293 53.4 77.176 53.4H72.952V48.6H77.368C79.8213 48.6 81.944 49.0587 83.736 49.976C85.528 50.8933 86.9147 52.184 87.896 53.848C88.8773 55.512 89.368 57.496 89.368 59.8C89.368 62.0827 88.8773 64.0667 87.896 65.752C86.9147 67.416 85.528 68.7067 83.736 69.624C81.944 70.5413 79.8213 71 77.368 71ZM97.1248 56.28V71H92.3568V56.28H97.1248ZM101.381 61.272C101.125 61.016 100.847 60.8133 100.549 60.664C100.271 60.5147 99.9194 60.44 99.4928 60.44C99.0234 60.44 98.6074 60.568 98.2448 60.824C97.8821 61.08 97.6048 61.4533 97.4128 61.944C97.2208 62.4347 97.1248 63.032 97.1248 63.736L95.9728 62.04C95.9728 60.8667 96.1968 59.8213 96.6448 58.904C97.1141 57.9867 97.7221 57.2613 98.4688 56.728C99.2154 56.1947 99.9941 55.928 100.805 55.928C101.338 55.928 101.85 56.0347 102.341 56.248C102.831 56.4613 103.205 56.76 103.461 57.144L101.381 61.272ZM105.225 50.744C105.225 49.976 105.502 49.3573 106.057 48.888C106.612 48.3973 107.273 48.152 108.041 48.152C108.83 48.152 109.492 48.3973 110.025 48.888C110.58 49.3573 110.857 49.976 110.857 50.744C110.857 51.512 110.58 52.1413 110.025 52.632C109.492 53.1227 108.83 53.368 108.041 53.368C107.273 53.368 106.612 53.1227 106.057 52.632C105.502 52.1413 105.225 51.512 105.225 50.744ZM105.705 56.28H110.377V71H105.705V56.28ZM112.373 56.28H117.525L120.917 64.44L124.277 56.28H129.429L120.917 72.728L112.373 56.28ZM138.251 71.32C136.544 71.32 135.062 71.0107 133.803 70.392C132.566 69.752 131.606 68.856 130.923 67.704C130.24 66.552 129.899 65.1973 129.899 63.64C129.899 62.0613 130.23 60.696 130.891 59.544C131.552 58.392 132.502 57.5067 133.739 56.888C134.998 56.2693 136.48 55.96 138.187 55.96C139.894 55.96 141.334 56.2587 142.507 56.856C143.68 57.432 144.576 58.2747 145.195 59.384C145.814 60.4933 146.123 61.8373 146.123 63.416C146.123 63.6507 146.123 63.8853 146.123 64.12C146.123 64.3333 146.102 64.5147 146.059 64.664H132.619V61.976H141.707L140.555 63.448C140.662 63.2987 140.747 63.1173 140.811 62.904C140.896 62.6693 140.939 62.4773 140.939 62.328C140.939 61.688 140.822 61.1333 140.587 60.664C140.352 60.1947 140.022 59.832 139.595 59.576C139.168 59.32 138.667 59.192 138.091 59.192C137.366 59.192 136.758 59.352 136.267 59.672C135.776 59.992 135.403 60.4827 135.147 61.144C134.912 61.784 134.784 62.5947 134.763 63.576C134.763 64.472 134.891 65.24 135.147 65.88C135.403 66.52 135.787 67.0107 136.299 67.352C136.811 67.672 137.44 67.832 138.187 67.832C139.04 67.832 139.766 67.672 140.363 67.352C140.982 67.032 141.472 66.552 141.835 65.912L146.155 66.968C145.387 68.4187 144.342 69.5067 143.019 70.232C141.718 70.9573 140.128 71.32 138.251 71.32ZM153.875 56.28V71H149.107V56.28H153.875ZM158.131 61.272C157.875 61.016 157.597 60.8133 157.299 60.664C157.021 60.5147 156.669 60.44 156.243 60.44C155.773 60.44 155.357 60.568 154.995 60.824C154.632 61.08 154.355 61.4533 154.163 61.944C153.971 62.4347 153.875 63.032 153.875 63.736L152.723 62.04C152.723 60.8667 152.947 59.8213 153.395 58.904C153.864 57.9867 154.472 57.2613 155.219 56.728C155.965 56.1947 156.744 55.928 157.555 55.928C158.088 55.928 158.6 56.0347 159.091 56.248C159.581 56.4613 159.955 56.76 160.211 57.144L158.131 61.272Z" fill="black"/>
<path d="M174.11 54.5H176.645V65H174.11V54.5ZM175.7 56.585V54.5H177.755C178.645 54.5 179.39 54.64 179.99 54.92C180.6 55.19 181.06 55.58 181.37 56.09C181.68 56.6 181.835 57.215 181.835 57.935C181.835 58.635 181.68 59.245 181.37 59.765C181.06 60.275 180.6 60.67 179.99 60.95C179.39 61.22 178.645 61.355 177.755 61.355H175.7V59.27H177.755C178.265 59.27 178.665 59.155 178.955 58.925C179.245 58.695 179.39 58.365 179.39 57.935C179.39 57.495 179.245 57.16 178.955 56.93C178.665 56.7 178.265 56.585 177.755 56.585H175.7ZM186.081 60.245H188.706L191.991 65H189.021L186.081 60.245ZM183.456 54.5H185.991V65H183.456V54.5ZM185.046 56.645V54.5H187.281C188.181 54.5 188.931 54.645 189.531 54.935C190.131 55.225 190.586 55.63 190.896 56.15C191.206 56.66 191.361 57.255 191.361 57.935C191.361 58.605 191.206 59.2 190.896 59.72C190.586 60.23 190.131 60.63 189.531 60.92C188.931 61.21 188.181 61.355 187.281 61.355H185.046V59.39H187.101C187.441 59.39 187.731 59.34 187.971 59.24C188.221 59.13 188.411 58.975 188.541 58.775C188.671 58.565 188.736 58.315 188.736 58.025C188.736 57.735 188.671 57.49 188.541 57.29C188.411 57.08 188.221 56.92 187.971 56.81C187.731 56.7 187.441 56.645 187.101 56.645H185.046ZM195.253 59.75C195.253 60.37 195.373 60.92 195.613 61.4C195.863 61.87 196.208 62.24 196.648 62.51C197.098 62.78 197.623 62.915 198.223 62.915C198.813 62.915 199.328 62.78 199.768 62.51C200.218 62.24 200.563 61.87 200.803 61.4C201.053 60.92 201.178 60.37 201.178 59.75C201.178 59.13 201.058 58.585 200.818 58.115C200.578 57.635 200.238 57.26 199.798 56.99C199.358 56.72 198.833 56.585 198.223 56.585C197.623 56.585 197.098 56.72 196.648 56.99C196.208 57.26 195.863 57.635 195.613 58.115C195.373 58.585 195.253 59.13 195.253 59.75ZM192.568 59.75C192.568 58.94 192.708 58.2 192.988 57.53C193.278 56.86 193.678 56.28 194.188 55.79C194.698 55.3 195.298 54.925 195.988 54.665C196.678 54.395 197.423 54.26 198.223 54.26C199.033 54.26 199.778 54.395 200.458 54.665C201.148 54.925 201.748 55.3 202.258 55.79C202.768 56.28 203.163 56.86 203.443 57.53C203.723 58.2 203.863 58.94 203.863 59.75C203.863 60.56 203.723 61.305 203.443 61.985C203.173 62.665 202.783 63.255 202.273 63.755C201.773 64.255 201.178 64.645 200.488 64.925C199.798 65.195 199.043 65.33 198.223 65.33C197.393 65.33 196.633 65.195 195.943 64.925C195.253 64.645 194.653 64.255 194.143 63.755C193.643 63.255 193.253 62.665 192.973 61.985C192.703 61.305 192.568 60.56 192.568 59.75Z" fill="#004D73"/>
</svg>
