<svg width="138" height="83" viewBox="0 0 138 83" fill="none" xmlns="http://www.w3.org/2000/svg">
<path d="M0.128 16.432V11.6H17.856V16.432H11.68V34H6.272V16.432H0.128ZM20.382 29.392C20.382 29.776 20.478 30.1067 20.67 30.384C20.862 30.64 21.118 30.8427 21.438 30.992C21.758 31.12 22.11 31.184 22.494 31.184C23.0487 31.184 23.5607 31.0667 24.03 30.832C24.4993 30.5973 24.8833 30.2453 25.182 29.776C25.4807 29.3067 25.63 28.7307 25.63 28.048L26.142 29.968C26.142 30.9067 25.886 31.7067 25.374 32.368C24.862 33.008 24.2007 33.4987 23.39 33.84C22.5793 34.16 21.7047 34.32 20.766 34.32C19.8273 34.32 18.9527 34.1493 18.142 33.808C17.3527 33.4453 16.7127 32.912 16.222 32.208C15.7527 31.504 15.518 30.6507 15.518 29.648C15.518 28.24 16.0193 27.1307 17.022 26.32C18.0247 25.488 19.4433 25.072 21.278 25.072C22.174 25.072 22.974 25.1573 23.678 25.328C24.4033 25.4987 25.022 25.712 25.534 25.968C26.046 26.224 26.43 26.4907 26.686 26.768V28.912C26.174 28.528 25.5767 28.24 24.894 28.048C24.2327 27.8347 23.5287 27.728 22.782 27.728C22.206 27.728 21.7473 27.792 21.406 27.92C21.0647 28.048 20.8087 28.24 20.638 28.496C20.4673 28.7307 20.382 29.0293 20.382 29.392ZM18.238 23.792L16.606 20.56C17.438 20.1547 18.4407 19.7707 19.614 19.408C20.7873 19.0453 22.0673 18.864 23.454 18.864C24.7553 18.864 25.918 19.056 26.942 19.44C27.966 19.8027 28.7767 20.336 29.374 21.04C29.9713 21.744 30.27 22.608 30.27 23.632V34H25.63V24.72C25.63 24.3573 25.566 24.048 25.438 23.792C25.3313 23.5147 25.1607 23.28 24.926 23.088C24.6913 22.896 24.3927 22.7573 24.03 22.672C23.6887 22.5867 23.294 22.544 22.846 22.544C22.1847 22.544 21.534 22.6187 20.894 22.768C20.2753 22.9173 19.7313 23.0987 19.262 23.312C18.7927 23.504 18.4513 23.664 18.238 23.792ZM43.328 19.28H48.704L43.072 26.448L49.024 34H43.648L40.576 29.712L37.568 34H32L38.048 26.448L32.32 19.28H37.888L40.576 23.152L43.328 19.28ZM50.6313 13.744C50.6313 12.976 50.9086 12.3573 51.4633 11.888C52.0179 11.3973 52.6793 11.152 53.4473 11.152C54.2366 11.152 54.8979 11.3973 55.4313 11.888C55.9859 12.3573 56.2633 12.976 56.2633 13.744C56.2633 14.512 55.9859 15.1413 55.4313 15.632C54.8979 16.1227 54.2366 16.368 53.4473 16.368C52.6793 16.368 52.0179 16.1227 51.4633 15.632C50.9086 15.1413 50.6313 14.512 50.6313 13.744ZM51.1113 19.28H55.7833V34H51.1113V19.28ZM63.763 29.68L64.147 25.552H75.251L75.603 29.68H63.763ZM69.619 19.824L66.483 27.056L66.739 28.24L63.955 34H57.843L69.619 10.192L81.427 34H75.283L72.595 28.464L72.787 27.088L69.619 19.824ZM88.0943 41.04H83.2623V19.28H88.0943V41.04ZM100.126 26.64C100.126 28.3467 99.7849 29.7867 99.1023 30.96C98.4409 32.1333 97.5769 33.0187 96.5103 33.616C95.4649 34.2133 94.3343 34.512 93.1183 34.512C91.8383 34.512 90.7289 34.192 89.7903 33.552C88.8729 32.8907 88.1689 31.9733 87.6783 30.8C87.1876 29.6053 86.9423 28.2187 86.9423 26.64C86.9423 25.04 87.1876 23.6533 87.6783 22.48C88.1689 21.3067 88.8729 20.4 89.7903 19.76C90.7289 19.0987 91.8383 18.768 93.1183 18.768C94.3343 18.768 95.4649 19.0667 96.5103 19.664C97.5769 20.2613 98.4409 21.1467 99.1023 22.32C99.7849 23.472 100.126 24.912 100.126 26.64ZM95.0383 26.64C95.0383 25.872 94.8783 25.2213 94.5583 24.688C94.2383 24.1547 93.8116 23.7493 93.2783 23.472C92.7449 23.1947 92.1583 23.056 91.5183 23.056C90.9636 23.056 90.4196 23.1947 89.8863 23.472C89.3743 23.728 88.9476 24.1227 88.6063 24.656C88.2649 25.1893 88.0943 25.8507 88.0943 26.64C88.0943 27.4293 88.2649 28.0907 88.6063 28.624C88.9476 29.1573 89.3743 29.5627 89.8863 29.84C90.4196 30.096 90.9636 30.224 91.5183 30.224C92.1583 30.224 92.7449 30.0853 93.2783 29.808C93.8116 29.5307 94.2383 29.1253 94.5583 28.592C94.8783 28.0587 95.0383 27.408 95.0383 26.64ZM107.844 41.04H103.012V19.28H107.844V41.04ZM119.876 26.64C119.876 28.3467 119.535 29.7867 118.852 30.96C118.191 32.1333 117.327 33.0187 116.26 33.616C115.215 34.2133 114.084 34.512 112.868 34.512C111.588 34.512 110.479 34.192 109.54 33.552C108.623 32.8907 107.919 31.9733 107.428 30.8C106.938 29.6053 106.692 28.2187 106.692 26.64C106.692 25.04 106.938 23.6533 107.428 22.48C107.919 21.3067 108.623 20.4 109.54 19.76C110.479 19.0987 111.588 18.768 112.868 18.768C114.084 18.768 115.215 19.0667 116.26 19.664C117.327 20.2613 118.191 21.1467 118.852 22.32C119.535 23.472 119.876 24.912 119.876 26.64ZM114.788 26.64C114.788 25.872 114.628 25.2213 114.308 24.688C113.988 24.1547 113.562 23.7493 113.028 23.472C112.495 23.1947 111.908 23.056 111.268 23.056C110.714 23.056 110.17 23.1947 109.636 23.472C109.124 23.728 108.698 24.1227 108.356 24.656C108.015 25.1893 107.844 25.8507 107.844 26.64C107.844 27.4293 108.015 28.0907 108.356 28.624C108.698 29.1573 109.124 29.5627 109.636 29.84C110.17 30.096 110.714 30.224 111.268 30.224C111.908 30.224 112.495 30.0853 113.028 29.808C113.562 29.5307 113.988 29.1253 114.308 28.592C114.628 28.0587 114.788 27.408 114.788 26.64ZM128.63 23.664H122.262V19.28H136.662L129.302 29.616H135.638V34H120.918L128.63 23.664Z" fill="black"/>
<path d="M2.368 48.6H7.936V71H2.368V48.6ZM10.368 71H5.952V66.2H10.176C11.0293 66.2 11.8507 66.0933 12.64 65.88C13.4507 65.6667 14.1547 65.3147 14.752 64.824C15.3707 64.3333 15.8613 63.6827 16.224 62.872C16.5867 62.04 16.768 61.016 16.768 59.8C16.768 58.584 16.5867 57.5707 16.224 56.76C15.8613 55.928 15.3707 55.2667 14.752 54.776C14.1547 54.2853 13.4507 53.9333 12.64 53.72C11.8507 53.5067 11.0293 53.4 10.176 53.4H5.952V48.6H10.368C12.8213 48.6 14.944 49.0587 16.736 49.976C18.528 50.8933 19.9147 52.184 20.896 53.848C21.8773 55.512 22.368 57.496 22.368 59.8C22.368 62.0827 21.8773 64.0667 20.896 65.752C19.9147 67.416 18.528 68.7067 16.736 69.624C14.944 70.5413 12.8213 71 10.368 71ZM30.1248 56.28V71H25.3568V56.28H30.1248ZM34.3808 61.272C34.1248 61.016 33.8474 60.8133 33.5488 60.664C33.2714 60.5147 32.9194 60.44 32.4928 60.44C32.0234 60.44 31.6074 60.568 31.2448 60.824C30.8821 61.08 30.6048 61.4533 30.4128 61.944C30.2208 62.4347 30.1248 63.032 30.1248 63.736L28.9728 62.04C28.9728 60.8667 29.1968 59.8213 29.6448 58.904C30.1141 57.9867 30.7221 57.2613 31.4688 56.728C32.2154 56.1947 32.9941 55.928 33.8048 55.928C34.3381 55.928 34.8501 56.0347 35.3408 56.248C35.8314 56.4613 36.2048 56.76 36.4608 57.144L34.3808 61.272ZM38.225 50.744C38.225 49.976 38.5023 49.3573 39.057 48.888C39.6117 48.3973 40.273 48.152 41.041 48.152C41.8303 48.152 42.4917 48.3973 43.025 48.888C43.5797 49.3573 43.857 49.976 43.857 50.744C43.857 51.512 43.5797 52.1413 43.025 52.632C42.4917 53.1227 41.8303 53.368 41.041 53.368C40.273 53.368 39.6117 53.1227 39.057 52.632C38.5023 52.1413 38.225 51.512 38.225 50.744ZM38.705 56.28H43.377V71H38.705V56.28ZM45.3727 56.28H50.5248L53.9167 64.44L57.2768 56.28H62.4288L53.9167 72.728L45.3727 56.28ZM71.251 71.32C69.5443 71.32 68.0617 71.0107 66.803 70.392C65.5657 69.752 64.6057 68.856 63.923 67.704C63.2403 66.552 62.899 65.1973 62.899 63.64C62.899 62.0613 63.2297 60.696 63.891 59.544C64.5523 58.392 65.5017 57.5067 66.739 56.888C67.9977 56.2693 69.4803 55.96 71.187 55.96C72.8937 55.96 74.3337 56.2587 75.507 56.856C76.6803 57.432 77.5763 58.2747 78.195 59.384C78.8137 60.4933 79.123 61.8373 79.123 63.416C79.123 63.6507 79.123 63.8853 79.123 64.12C79.123 64.3333 79.1017 64.5147 79.059 64.664H65.619V61.976H74.707L73.555 63.448C73.6617 63.2987 73.747 63.1173 73.811 62.904C73.8963 62.6693 73.939 62.4773 73.939 62.328C73.939 61.688 73.8217 61.1333 73.587 60.664C73.3523 60.1947 73.0217 59.832 72.595 59.576C72.1683 59.32 71.667 59.192 71.091 59.192C70.3657 59.192 69.7577 59.352 69.267 59.672C68.7763 59.992 68.403 60.4827 68.147 61.144C67.9123 61.784 67.7843 62.5947 67.763 63.576C67.763 64.472 67.891 65.24 68.147 65.88C68.403 66.52 68.787 67.0107 69.299 67.352C69.811 67.672 70.4403 67.832 71.187 67.832C72.0403 67.832 72.7657 67.672 73.363 67.352C73.9817 67.032 74.4723 66.552 74.835 65.912L79.155 66.968C78.387 68.4187 77.3417 69.5067 76.019 70.232C74.7177 70.9573 73.1283 71.32 71.251 71.32ZM86.8748 56.28V71H82.1068V56.28H86.8748ZM91.1308 61.272C90.8748 61.016 90.5974 60.8133 90.2988 60.664C90.0214 60.5147 89.6694 60.44 89.2428 60.44C88.7734 60.44 88.3574 60.568 87.9948 60.824C87.6321 61.08 87.3548 61.4533 87.1628 61.944C86.9708 62.4347 86.8748 63.032 86.8748 63.736L85.7228 62.04C85.7228 60.8667 85.9468 59.8213 86.3948 58.904C86.8641 57.9867 87.4721 57.2613 88.2188 56.728C88.9654 56.1947 89.7441 55.928 90.5548 55.928C91.0881 55.928 91.6001 56.0347 92.0908 56.248C92.5814 56.4613 92.9548 56.76 93.2108 57.144L91.1308 61.272Z" fill="black"/>
<path d="M107.11 54.5H109.645V65H107.11V54.5ZM108.7 56.585V54.5H110.755C111.645 54.5 112.39 54.64 112.99 54.92C113.6 55.19 114.06 55.58 114.37 56.09C114.68 56.6 114.835 57.215 114.835 57.935C114.835 58.635 114.68 59.245 114.37 59.765C114.06 60.275 113.6 60.67 112.99 60.95C112.39 61.22 111.645 61.355 110.755 61.355H108.7V59.27H110.755C111.265 59.27 111.665 59.155 111.955 58.925C112.245 58.695 112.39 58.365 112.39 57.935C112.39 57.495 112.245 57.16 111.955 56.93C111.665 56.7 111.265 56.585 110.755 56.585H108.7ZM119.081 60.245H121.706L124.991 65H122.021L119.081 60.245ZM116.456 54.5H118.991V65H116.456V54.5ZM118.046 56.645V54.5H120.281C121.181 54.5 121.931 54.645 122.531 54.935C123.131 55.225 123.586 55.63 123.896 56.15C124.206 56.66 124.361 57.255 124.361 57.935C124.361 58.605 124.206 59.2 123.896 59.72C123.586 60.23 123.131 60.63 122.531 60.92C121.931 61.21 121.181 61.355 120.281 61.355H118.046V59.39H120.101C120.441 59.39 120.731 59.34 120.971 59.24C121.221 59.13 121.411 58.975 121.541 58.775C121.671 58.565 121.736 58.315 121.736 58.025C121.736 57.735 121.671 57.49 121.541 57.29C121.411 57.08 121.221 56.92 120.971 56.81C120.731 56.7 120.441 56.645 120.101 56.645H118.046ZM128.253 59.75C128.253 60.37 128.373 60.92 128.613 61.4C128.863 61.87 129.208 62.24 129.648 62.51C130.098 62.78 130.623 62.915 131.223 62.915C131.813 62.915 132.328 62.78 132.768 62.51C133.218 62.24 133.563 61.87 133.803 61.4C134.053 60.92 134.178 60.37 134.178 59.75C134.178 59.13 134.058 58.585 133.818 58.115C133.578 57.635 133.238 57.26 132.798 56.99C132.358 56.72 131.833 56.585 131.223 56.585C130.623 56.585 130.098 56.72 129.648 56.99C129.208 57.26 128.863 57.635 128.613 58.115C128.373 58.585 128.253 59.13 128.253 59.75ZM125.568 59.75C125.568 58.94 125.708 58.2 125.988 57.53C126.278 56.86 126.678 56.28 127.188 55.79C127.698 55.3 128.298 54.925 128.988 54.665C129.678 54.395 130.423 54.26 131.223 54.26C132.033 54.26 132.778 54.395 133.458 54.665C134.148 54.925 134.748 55.3 135.258 55.79C135.768 56.28 136.163 56.86 136.443 57.53C136.723 58.2 136.863 58.94 136.863 59.75C136.863 60.56 136.723 61.305 136.443 61.985C136.173 62.665 135.783 63.255 135.273 63.755C134.773 64.255 134.178 64.645 133.488 64.925C132.798 65.195 132.043 65.33 131.223 65.33C130.393 65.33 129.633 65.195 128.943 64.925C128.253 64.645 127.653 64.255 127.143 63.755C126.643 63.255 126.253 62.665 125.973 61.985C125.703 61.305 125.568 60.56 125.568 59.75Z" fill="#004D73"/>
</svg>
