<svg width="20" height="18" viewBox="0 0 20 18" fill="none" xmlns="http://www.w3.org/2000/svg">
<path d="M2.34875 15.5899V16.7985C2.34875 17.1324 2.23394 17.416 2.00433 17.6495C1.77491 17.8832 1.49621 18 1.16821 18C0.840221 18 0.56352 17.8832 0.338112 17.6495C0.112704 17.416 0 17.1324 0 16.7985V8.24798C0 8.13176 0.00811461 8.01565 0.024344 7.89963C0.0405734 7.78362 0.0676222 7.6671 0.105491 7.55006L2.24957 1.39521C2.38963 0.975233 2.63357 0.637753 2.9814 0.382774C3.32903 0.12759 3.72394 0 4.16614 0H15.8339C16.2761 0 16.671 0.12759 17.0186 0.382774C17.3664 0.637753 17.6124 0.975233 17.7564 1.39521L19.8945 7.54945C19.9324 7.66505 19.9594 7.78116 19.9757 7.89779C19.9919 8.01462 20 8.13135 20 8.24798V16.7985C20 17.1324 19.8852 17.416 19.6556 17.6495C19.426 17.8832 19.1473 18 18.8195 18C18.4915 18 18.2148 17.8832 17.9894 17.6495C17.764 17.416 17.6512 17.1324 17.6512 16.7985V15.5899H2.34875ZM2.36378 6.16899H17.6362L16.1876 1.96891C16.1569 1.89 16.1108 1.82892 16.049 1.78567C15.9873 1.74222 15.9141 1.72049 15.8294 1.72049H4.17065C4.0859 1.72049 4.01266 1.74222 3.95095 1.78567C3.88924 1.82892 3.84306 1.89 3.8124 1.96891L2.36378 6.16899ZM4.59231 12.4256C5.01548 12.4256 5.37523 12.2741 5.67157 11.9712C5.9679 11.6683 6.11607 11.3003 6.11607 10.8675C6.11607 10.4346 5.9679 10.0665 5.67157 9.7634C5.37543 9.46025 5.01578 9.30868 4.59261 9.30868C4.16945 9.30868 3.8097 9.46015 3.51336 9.76309C3.21722 10.0662 3.06916 10.4343 3.06916 10.8671C3.06916 11.3 3.21722 11.668 3.51336 11.9709C3.8095 12.274 4.16915 12.4256 4.59231 12.4256ZM15.4074 12.4256C15.8306 12.4256 16.1903 12.2741 16.4866 11.9712C16.7828 11.6683 16.9308 11.3003 16.9308 10.8675C16.9308 10.4346 16.7828 10.0665 16.4866 9.7634C16.1905 9.46025 15.8309 9.30868 15.4077 9.30868C14.9845 9.30868 14.6248 9.46015 14.3284 9.76309C14.0321 10.0662 13.8839 10.4343 13.8839 10.8671C13.8839 11.3 14.0321 11.668 14.3284 11.9709C14.6246 12.274 14.9842 12.4256 15.4074 12.4256Z" fill="#00C868"/>
</svg>
