<svg width="150" height="150" viewBox="0 0 150 150" fill="none" xmlns="http://www.w3.org/2000/svg">
<path d="M120.668 135.117L63.6947 77.9001C60.3112 78.663 57.0641 79.6983 53.9535 81.0061C50.8428 82.3139 47.9232 83.8942 45.1946 85.7469C42.9026 87.2727 40.3649 88.0628 37.5817 88.1173C34.7985 88.1718 32.4792 87.2182 30.6238 85.2565C28.6591 83.2948 27.7587 80.9244 27.9224 78.1453C28.0861 75.3662 29.2594 73.1593 31.4423 71.5245C33.9527 69.6718 36.5994 67.9825 39.3826 66.4567C42.1658 64.931 45.0309 63.5142 47.9778 62.2063L33.2432 47.4935C30.4055 49.0193 27.6496 50.6268 24.9755 52.316C22.3015 54.0053 19.7093 55.8308 17.1989 57.7925C15.016 59.5362 12.533 60.4081 9.7498 60.4081C6.9666 60.4081 4.64727 59.4273 2.79181 57.4655C0.827203 55.5038 -0.100528 53.1607 0.0086167 50.4361C0.117762 47.7115 1.26378 45.4773 3.44668 43.7335C5.84787 41.7718 8.30363 39.8918 10.814 38.0936C13.3243 36.2954 15.9983 34.6334 18.8361 33.1076L9.66794 23.9529C8.46734 22.7541 7.86705 21.2283 7.86705 19.3756C7.86705 17.5228 8.46734 15.9971 9.66794 14.7982C10.8685 13.5994 12.3966 13 14.252 13C16.1075 13 17.6355 13.5994 18.8361 14.7982L130 125.799C131.31 127.106 131.965 128.659 131.965 130.458C131.965 132.256 131.31 133.809 130 135.117C128.69 136.316 127.135 136.942 125.334 136.997C123.533 137.051 121.978 136.425 120.668 135.117ZM74.5 129.232C69.9159 129.232 66.0413 127.624 62.8761 124.409C59.7109 121.194 58.1283 117.352 58.1283 112.884C58.1283 108.307 59.7109 104.438 62.8761 101.277C66.0413 98.1166 69.9159 96.5364 74.5 96.5364C79.0841 96.5364 82.9587 98.1166 86.1239 101.277C89.2891 104.438 90.8717 108.307 90.8717 112.884C90.8717 117.352 89.2891 121.194 86.1239 124.409C82.9587 127.624 79.0841 129.232 74.5 129.232ZM119.195 84.2756C117.449 86.0194 115.402 86.864 113.055 86.8095C110.709 86.755 108.662 85.8559 106.916 84.1122L105.279 82.4774L103.642 80.8426L87.9248 65.1489C86.5059 63.7321 86.2331 62.2608 87.1062 60.7351C87.9794 59.2093 89.5074 58.7189 91.6903 59.2638C96.6018 60.4626 101.268 62.1519 105.688 64.3315C110.109 66.5112 114.229 69.0724 118.049 72.0149C120.013 73.5407 121.132 75.5297 121.405 77.9818C121.678 80.434 120.941 82.5319 119.195 84.2756ZM146.208 57.4655C144.353 59.4273 142.061 60.4354 139.332 60.4898C136.603 60.5443 134.148 59.6997 131.965 57.956C124.106 51.5259 115.293 46.5399 105.524 42.9979C95.756 39.4559 85.4145 37.6849 74.5 37.6849C72.208 37.6849 69.9978 37.7667 67.8694 37.9301C65.7411 38.0936 63.5855 38.3388 61.4026 38.6658C58.674 39.1017 56.2182 38.5295 54.0353 36.9493C51.8524 35.369 50.5427 33.2166 50.1061 30.492C49.6695 27.7674 50.2698 25.3152 51.907 23.1355C53.5442 20.9558 55.7271 19.648 58.4557 19.2121C61.0752 18.7762 63.7219 18.4765 66.396 18.313C69.07 18.1495 71.7714 18.0678 74.5 18.0678C88.1431 18.0678 100.995 20.3292 113.055 24.852C125.116 29.3749 135.949 35.6142 145.553 43.5701C147.736 45.4228 148.882 47.7115 148.991 50.4361C149.101 53.1607 148.173 55.5038 146.208 57.4655Z" fill="#DBDBDB"/>
</svg>
