<svg width="20" height="19" viewBox="0 0 20 19" fill="none" xmlns="http://www.w3.org/2000/svg">
<path d="M18.0952 6.11172C18.6032 6.11172 19.0476 6.3022 19.4286 6.68315C19.8095 7.0641 20 7.50855 20 8.01648V9.92125C20 10.0324 19.9881 10.1514 19.9643 10.2784C19.9405 10.4054 19.9048 10.5244 19.8571 10.6355L17 17.3498C16.8571 17.6673 16.619 17.9371 16.2857 18.1593C15.9524 18.3816 15.6032 18.4927 15.2381 18.4927H7.61905C7.09524 18.4927 6.64683 18.3062 6.27381 17.9332C5.90079 17.5601 5.71429 17.1117 5.71429 16.5879V6.89744C5.71429 6.64347 5.76587 6.40141 5.86905 6.17125C5.97222 5.94109 6.11111 5.73871 6.28571 5.5641L11.4524 0.421245C11.6905 0.199023 11.9722 0.0641026 12.2976 0.0164835C12.623 -0.0311355 12.9365 0.02442 13.2381 0.18315C13.5397 0.34188 13.7579 0.564103 13.8929 0.849817C14.0278 1.13553 14.0556 1.42918 13.9762 1.73077L12.9048 6.11172H18.0952ZM1.90476 18.4927C1.38095 18.4927 0.93254 18.3062 0.559524 17.9332C0.186508 17.5601 0 17.1117 0 16.5879V8.01648C0 7.49267 0.186508 7.04426 0.559524 6.67125C0.93254 6.29823 1.38095 6.11172 1.90476 6.11172C2.42857 6.11172 2.87698 6.29823 3.25 6.67125C3.62302 7.04426 3.80952 7.49267 3.80952 8.01648V16.5879C3.80952 17.1117 3.62302 17.5601 3.25 17.9332C2.87698 18.3062 2.42857 18.4927 1.90476 18.4927Z" fill="#00C868"/>
</svg>
