<svg width="14" height="14" viewBox="0 0 14 14" fill="none" xmlns="http://www.w3.org/2000/svg">
<path d="M4.96378 12.2433L4.16898 10.906L2.65523 10.583C2.53215 10.5576 2.43352 10.4932 2.35934 10.3897C2.28506 10.2864 2.2558 10.1707 2.27155 10.0428L2.42073 8.49695L1.40209 7.32635C1.32023 7.23555 1.2793 7.12675 1.2793 6.99998C1.2793 6.8732 1.32023 6.76343 1.40209 6.67068L2.42073 5.503L2.25084 3.7457C2.24705 3.70458 2.2573 3.6653 2.28161 3.62787C2.30591 3.59044 2.33863 3.56798 2.37976 3.5605L2.41913 3.55496L1.66751 2.80333C1.59157 2.7274 1.55269 2.63373 1.55084 2.52231C1.54889 2.41089 1.58778 2.31537 1.66751 2.23575C1.74713 2.15612 1.84173 2.11631 1.9513 2.11631C2.06087 2.11631 2.15546 2.15612 2.23509 2.23575L12.0002 12.0009C12.0762 12.0768 12.1151 12.1705 12.1169 12.2819C12.1188 12.3933 12.08 12.4889 12.0002 12.5686C11.9206 12.6482 11.826 12.6881 11.7164 12.6881C11.6069 12.6881 11.5123 12.6482 11.4327 12.5686L9.88171 11.0149L9.7528 11.0429L9.03486 12.2433C8.96748 12.3524 8.87644 12.4275 8.76171 12.4684C8.64689 12.5094 8.53096 12.505 8.4139 12.4553L6.99932 11.8472L5.58473 12.4553C5.46768 12.505 5.35174 12.5094 5.23692 12.4684C5.1222 12.4275 5.03115 12.3524 4.96378 12.2433ZM11.5779 8.49695L11.6705 9.48075C11.6843 9.59595 11.6394 9.68039 11.5359 9.73406C11.4323 9.78773 11.338 9.7712 11.2531 9.68448L8.38634 6.82221L9.13359 6.0751C9.21545 5.99314 9.25658 5.89748 9.25696 5.7881C9.25735 5.67873 9.21623 5.58126 9.13359 5.4957C9.04794 5.4119 8.95062 5.36927 8.84163 5.36781C8.73264 5.36625 8.63533 5.4083 8.54967 5.49395L7.80257 6.24106L4.62501 3.05912C4.54314 2.97726 4.49541 2.88145 4.4818 2.77168C4.46809 2.66192 4.49006 2.55673 4.54771 2.4561L4.96378 1.75391C5.03115 1.64658 5.1222 1.57245 5.23692 1.53152C5.35174 1.49059 5.46768 1.49496 5.58473 1.54464L6.99932 2.15277L8.4139 1.54464C8.53096 1.49496 8.64689 1.49059 8.76171 1.53152C8.87644 1.57245 8.96748 1.64658 9.03486 1.75391L9.82965 3.09398L11.3434 3.41423C11.4665 3.44145 11.5651 3.50678 11.6393 3.61023C11.7136 3.71357 11.7428 3.82922 11.7271 3.95716L11.5779 5.503L12.5993 6.67068C12.6793 6.76343 12.7193 6.8732 12.7193 6.99998C12.7193 7.12675 12.6793 7.23555 12.5993 7.32635L11.5779 8.49695ZM4.86796 7.27648L6.04863 8.45714C6.14916 8.55962 6.26583 8.61085 6.39863 8.61085C6.53134 8.61085 6.64893 8.55962 6.7514 8.45714L7.03636 8.17218L6.48555 7.6186L6.2948 7.80935L5.08001 6.59733C5.05006 6.59918 5.01516 6.60832 4.9753 6.62475C4.93553 6.64118 4.89976 6.66529 4.86796 6.69708C4.78231 6.78273 4.73948 6.87976 4.73948 6.98816C4.73948 7.09666 4.78231 7.19277 4.86796 7.27648Z" fill="#FF7E40"/>
</svg>
