<svg width="21" height="22" viewBox="0 0 21 22" fill="none" xmlns="http://www.w3.org/2000/svg">
<path d="M2 20C1.45 20 0.979167 19.8042 0.5875 19.4125C0.195833 19.0208 0 18.55 0 18V4C0 3.45 0.195833 2.97917 0.5875 2.5875C0.979167 2.19583 1.45 2 2 2H3V1C3 0.716667 3.09583 0.479167 3.2875 0.2875C3.47917 0.0958333 3.71667 0 4 0C4.28333 0 4.52083 0.0958333 4.7125 0.2875C4.90417 0.479167 5 0.716667 5 1V2H13V1C13 0.716667 13.0958 0.479167 13.2875 0.2875C13.4792 0.0958333 13.7167 0 14 0C14.2833 0 14.5208 0.0958333 14.7125 0.2875C14.9042 0.479167 15 0.716667 15 1V2H16C16.55 2 17.0208 2.19583 17.4125 2.5875C17.8042 2.97917 18 3.45 18 4V9C18 9.28333 17.9042 9.52083 17.7125 9.7125C17.5208 9.90417 17.2833 10 17 10C16.7167 10 16.4792 9.90417 16.2875 9.7125C16.0958 9.52083 16 9.28333 16 9V8H2V18H8C8.28333 18 8.52083 18.0958 8.7125 18.2875C8.90417 18.4792 9 18.7167 9 19C9 19.2833 8.90417 19.5208 8.7125 19.7125C8.52083 19.9042 8.28333 20 8 20H2ZM16 22C14.9333 22 13.9792 21.7042 13.1375 21.1125C12.2958 20.5208 11.6917 19.75 11.325 18.8C11.2417 18.6167 11.2625 18.4375 11.3875 18.2625C11.5125 18.0875 11.675 18 11.875 18C12.1083 18 12.3208 18.0708 12.5125 18.2125C12.7042 18.3542 12.8583 18.5333 12.975 18.75C13.275 19.2833 13.6917 19.7083 14.225 20.025C14.7583 20.3417 15.35 20.5 16 20.5C16.9667 20.5 17.7917 20.1583 18.475 19.475C19.1583 18.7917 19.5 17.9667 19.5 17C19.5 16.0333 19.1583 15.2083 18.475 14.525C17.7917 13.8417 16.9667 13.5 16 13.5C15.5167 13.5 15.0667 13.5875 14.65 13.7625C14.2333 13.9375 13.8667 14.1833 13.55 14.5H14.25C14.4667 14.5 14.6458 14.5708 14.7875 14.7125C14.9292 14.8542 15 15.0333 15 15.25C15 15.4667 14.9292 15.6458 14.7875 15.7875C14.6458 15.9292 14.4667 16 14.25 16H12C11.7167 16 11.4792 15.9042 11.2875 15.7125C11.0958 15.5208 11 15.2833 11 15V12.75C11 12.5333 11.0708 12.3542 11.2125 12.2125C11.3542 12.0708 11.5333 12 11.75 12C11.9667 12 12.1458 12.0708 12.2875 12.2125C12.4292 12.3542 12.5 12.5333 12.5 12.75V13.425C12.95 12.9917 13.475 12.6458 14.075 12.3875C14.675 12.1292 15.3167 12 16 12C17.3833 12 18.5625 12.4875 19.5375 13.4625C20.5125 14.4375 21 15.6167 21 17C21 18.3833 20.5125 19.5625 19.5375 20.5375C18.5625 21.5125 17.3833 22 16 22Z" fill="#303030"/>
</svg>
