<svg width="20" height="20" viewBox="0 0 20 20" fill="none" xmlns="http://www.w3.org/2000/svg">
<path d="M12.275 15.25C12.4583 15.0833 12.5583 14.875 12.575 14.625C12.5917 14.375 12.5083 14.1583 12.325 13.975L9.55 11.05L9.575 10.975H9.825C10.725 10.975 11.4708 10.7 12.0625 10.15C12.6542 9.6 13.0167 8.95833 13.15 8.225H13.575C13.7417 8.225 13.8792 8.16667 13.9875 8.05C14.0958 7.93333 14.15 7.79167 14.15 7.625C14.15 7.45833 14.0958 7.32083 13.9875 7.2125C13.8792 7.10417 13.7417 7.05 13.575 7.05H13.125C13.075 6.8 12.9875 6.5625 12.8625 6.3375C12.7375 6.1125 12.5833 5.89167 12.4 5.675H13.575C13.7417 5.675 13.8792 5.61667 13.9875 5.5C14.0958 5.38333 14.15 5.24167 14.15 5.075C14.15 4.90833 14.0958 4.77083 13.9875 4.6625C13.8792 4.55417 13.7417 4.5 13.575 4.5H6.575C6.375 4.5 6.20417 4.57083 6.0625 4.7125C5.92083 4.85417 5.85 5.025 5.85 5.225C5.85 5.425 5.92083 5.59167 6.0625 5.725C6.20417 5.85833 6.375 5.925 6.575 5.925H9.75C10.1833 5.925 10.5375 6.03333 10.8125 6.25C11.0875 6.46667 11.275 6.73333 11.375 7.05H6.425C6.25833 7.05 6.12083 7.10833 6.0125 7.225C5.90417 7.34167 5.85 7.48333 5.85 7.65C5.85 7.81667 5.90417 7.95417 6.0125 8.0625C6.12083 8.17083 6.25833 8.225 6.425 8.225H11.4C11.3 8.55833 11.1083 8.84583 10.825 9.0875C10.5417 9.32917 10.1583 9.45 9.675 9.45H7.975C7.75833 9.45 7.57083 9.5 7.4125 9.6C7.25417 9.7 7.13333 9.84167 7.05 10.025C6.96667 10.2083 6.94167 10.3958 6.975 10.5875C7.00833 10.7792 7.1 10.9583 7.25 11.125L11 15.225C11.1667 15.4083 11.375 15.5 11.625 15.5C11.875 15.5 12.0917 15.4167 12.275 15.25ZM10 20C8.61667 20 7.31667 19.7375 6.1 19.2125C4.88333 18.6875 3.825 17.975 2.925 17.075C2.025 16.175 1.3125 15.1167 0.7875 13.9C0.2625 12.6833 0 11.3833 0 10C0 8.61667 0.2625 7.31667 0.7875 6.1C1.3125 4.88333 2.025 3.825 2.925 2.925C3.825 2.025 4.88333 1.3125 6.1 0.7875C7.31667 0.2625 8.61667 0 10 0C11.3833 0 12.6833 0.2625 13.9 0.7875C15.1167 1.3125 16.175 2.025 17.075 2.925C17.975 3.825 18.6875 4.88333 19.2125 6.1C19.7375 7.31667 20 8.61667 20 10C20 11.3833 19.7375 12.6833 19.2125 13.9C18.6875 15.1167 17.975 16.175 17.075 17.075C16.175 17.975 15.1167 18.6875 13.9 19.2125C12.6833 19.7375 11.3833 20 10 20Z" fill="#303030"/>
</svg>
