<svg width="15" height="19" viewBox="0 0 15 25" fill="none" xmlns="http://www.w3.org/2000/svg">
<path fill-rule="evenodd" clip-rule="evenodd" d="M5.18478 0.0827849C4.96937 0.186638 4.71996 0.458963 4.66081 0.654821C4.57944 0.924439 4.35464 3.02528 4.3857 3.22596C4.42595 3.48617 4.62492 3.751 4.8894 3.89652C5.08141 4.00214 5.15098 4.01716 5.52286 4.03329L5.94063 4.05137V4.47781V4.90425H5.4572H4.97376V6.92482V8.94538H7.51181H10.0499V6.92482V4.90425H9.56642H9.08298V4.47781V4.05137L9.50075 4.03329C9.87263 4.01716 9.94221 4.00214 10.1342 3.89652C10.3988 3.75096 10.5977 3.48613 10.6379 3.22596C10.6698 3.01924 10.4453 0.91004 10.3641 0.654154C10.3008 0.454491 10.0498 0.182872 9.83525 0.0817255C9.66612 0.00200142 9.60835 -3.87303e-05 7.50915 5.04025e-07C5.40027 3.97383e-05 5.35298 0.00168757 5.18478 0.0827849ZM6.50465 4.47267V4.90425H7.51181H8.51897V4.47267V4.0411H7.51181H6.50465V4.47267ZM4.04717 4.94505C3.1653 5.07468 2.48934 5.51658 2.17276 6.17034C1.95751 6.61479 1.90462 6.862 1.91892 7.35639C1.95546 8.62052 1.92226 10.0427 1.83823 10.8124C1.7589 11.5389 1.61802 12.5877 1.56645 12.8354C1.54575 12.9349 1.55388 12.9405 1.75862 12.9676C2.4895 13.0643 2.93426 13.3585 3.70284 14.2539L3.93195 14.5208L3.96954 15.1367C4.0168 15.9107 4.19821 18.4167 4.23068 18.7442L4.25501 18.9894H7.51426H10.7735L10.7939 18.9011C10.8052 18.8525 10.821 18.6098 10.829 18.3616C10.8371 18.1135 10.9008 17.1689 10.9706 16.2626C11.1127 14.4174 11.0883 14.525 11.4714 14.053C11.5821 13.9166 11.7834 13.7169 11.9187 13.609C12.2226 13.3671 12.8925 13.0409 13.214 12.9784C13.3461 12.9527 13.4582 12.9296 13.4634 12.9272C13.4685 12.9246 13.4467 12.7648 13.4149 12.572C13.1521 10.9778 13.0559 9.6886 13.0857 8.1607C13.113 6.76239 13.0972 6.63185 12.8384 6.12051C12.4933 5.4385 11.765 5.00124 10.8329 4.91649L10.5736 4.89291V9.60668V14.3205H7.51197H4.45036L4.44013 9.62218C4.42997 4.95549 4.42937 4.92383 4.34932 4.91818C4.30501 4.91504 4.16904 4.92712 4.04717 4.94505ZM4.97376 11.6329V13.8104H7.51181H10.0499V11.6329V9.45543H7.51181H4.97376V11.6329ZM1.40664 13.5309C0.993499 13.6351 0.452049 14.0701 0.248321 14.4616C-0.0940738 15.1196 -0.0819073 16.0334 0.281839 16.977C0.550429 17.6738 1.09776 18.286 1.74166 18.6099C2.21478 18.8479 2.61817 18.9495 3.20124 18.9776L3.66461 19L3.65418 18.6514C3.64842 18.4597 3.5871 17.5083 3.51789 16.5372L3.39207 14.7717L3.22726 14.5559C2.9455 14.1869 2.47685 13.7615 2.21776 13.6394C1.96577 13.5207 1.627 13.4754 1.40664 13.5309ZM13.0189 13.5899C12.6455 13.7429 12.3499 13.9303 12.0835 14.1832C11.601 14.641 11.647 14.447 11.4827 16.7192C11.4037 17.8118 11.339 18.7697 11.339 18.8476V18.9894L11.6915 18.9889C12.707 18.9874 13.6807 18.5414 14.235 17.824C14.6834 17.2436 14.9452 16.5183 14.992 15.7262C15.0224 15.2134 14.9691 14.9145 14.7775 14.5236C14.5975 14.1565 14.267 13.8279 13.9012 13.6525C13.5459 13.4821 13.3208 13.4662 13.0189 13.5899Z" fill="black"/>
</svg>
