<svg width="30" height="19" viewBox="0 0 30 19" fill="none" xmlns="http://www.w3.org/2000/svg">
<path fill-rule="evenodd" clip-rule="evenodd" d="M21.2931 0.111581C21.6286 0.229605 22.051 0.545017 22.2107 0.796584L22.315 0.960895L22.1226 0.988011C22.0169 1.00289 21.1776 1.05272 20.2577 1.09879C13.5501 1.4345 10.4086 1.61991 10.1569 1.69487C9.78244 1.80629 9.43782 2.09383 9.2425 2.45779C9.08117 2.75832 9.07712 2.78861 9.05845 3.82564L9.03938 4.88615H4.99867H0.957907L0.968237 3.58401C0.979975 2.09636 0.945349 2.21884 1.57285 1.44319C2.01407 0.897802 2.25451 0.738055 2.85666 0.590391C3.10192 0.530251 3.5324 0.372813 3.81322 0.240506L4.32376 0L12.6575 0.00268498C20.8159 0.00531609 20.9976 0.00762502 21.2931 0.111581ZM23.4839 2.58929C23.8864 3.15852 24.7592 4.38795 25.4234 5.3213C26.1106 6.28697 26.663 7.12007 26.7053 7.25437C26.7462 7.3842 26.7929 7.53267 26.8092 7.58438C26.8369 7.67266 26.7089 7.67835 24.6981 7.67835H22.5576L22.5157 7.39645C22.4927 7.24142 22.2022 6.23258 21.8702 5.15463C21.5382 4.07667 21.1613 2.84923 21.0327 2.42696L20.7989 1.65916L21.0989 1.67522L21.399 1.69122L22.1928 3.53649C23.0767 5.59102 23.1818 5.75597 23.7606 5.99841C24.0065 6.1014 24.2082 6.13517 24.7274 6.16025C25.3282 6.18925 25.3801 6.18425 25.3451 6.10081C25.3241 6.05066 24.6058 5.02866 23.749 3.82956C22.8922 2.63053 22.1985 1.643 22.2075 1.63511C22.2164 1.62721 22.3426 1.60579 22.4879 1.58753L22.752 1.55429L23.4839 2.58929ZM15.2105 7.89314V13.7997H14.8584H14.5062V7.89314V1.98655H14.8584H15.2105V7.89314ZM8.98949 5.98692V6.33594H4.87772H0.765879L0.803793 6.08089C0.824627 5.94058 0.854441 5.78357 0.869993 5.73186C0.896696 5.64353 1.14096 5.63789 4.94392 5.63789H8.98949V5.98692ZM16.1681 6.92279C16.2827 7.03883 16.4044 7.22612 16.4387 7.33894C16.4762 7.46228 16.5011 8.18111 16.5013 9.14157L16.5016 10.739H17.8827C19.3718 10.739 19.4736 10.7544 19.8348 11.033C20.2394 11.3451 20.2829 11.5 20.3061 12.7124L20.3268 13.7997H18.1208H15.9147V10.2558C15.9147 8.3066 15.9249 6.71182 15.9373 6.71182C15.9497 6.71182 16.0535 6.80675 16.1681 6.92279ZM8.98949 7.51689V7.94683H4.64654C2.25792 7.94683 0.303942 7.94076 0.304352 7.93341C0.304821 7.92605 0.368322 7.73876 0.445557 7.51726L0.585999 7.11454L4.78775 7.10074L8.98949 7.08699V7.51689ZM26.8308 8.32212C26.8308 8.35138 26.5783 9.37225 26.2698 10.5908C25.9612 11.8094 25.5901 13.275 25.445 13.8478C25.2999 14.4206 25.1307 14.9798 25.069 15.0905C24.9244 15.3498 24.5463 15.6448 24.2569 15.7241C24.0891 15.7702 21.9349 15.7865 16.0459 15.7865H8.06216L7.98874 15.5046C7.84143 14.9392 7.54435 14.4601 7.08816 14.0523C5.81122 12.9107 3.74092 12.9202 2.48058 14.0733C2.09999 14.4215 1.84164 14.8217 1.66422 15.3379L1.5067 15.7961L1.20798 15.7742C0.795048 15.7439 0.484701 15.5837 0.265383 15.2879C-0.0137405 14.9115 -0.00640488 15.0265 0.00339699 11.182L0.0101471 8.53749H4.49354C8.0253 8.53749 8.98327 8.55172 9.00669 8.60461C9.68941 10.1462 11.3816 13.7736 11.4852 13.9176C11.5636 14.0267 11.7539 14.1838 11.908 14.2666L12.188 14.4172L16.7531 14.4322C19.7447 14.4421 21.3953 14.4282 21.542 14.3921C21.8569 14.3145 22.1312 14.1319 22.339 13.8615L22.5172 13.6295L22.5339 10.9493L22.5507 8.26901H24.6907C26.0632 8.26901 26.8308 8.28807 26.8308 8.32212ZM29.5557 10.8234C29.631 10.8923 29.6479 11.0498 29.6479 11.6825C29.6479 12.391 29.6117 12.5672 29.5001 12.4021C29.4795 12.3716 29.1897 12.1792 28.856 11.9743C28.1645 11.5499 28.1612 11.5408 28.5462 11.1406C28.9154 10.7568 29.3378 10.6241 29.5557 10.8234ZM27.0057 11.3909C27.278 11.7178 27.3997 11.8093 28.298 12.362C29.4723 13.0845 30 13.5565 30 13.8844C30 14.2168 29.9809 14.2204 27.9143 14.2742C26.8826 14.301 26.0321 14.3182 26.0241 14.3122C26.0162 14.3063 26.19 13.5939 26.4103 12.7291L26.8107 11.1567L27.0057 11.3909ZM5.42393 13.8579C6.14744 14.014 6.81438 14.5233 7.15847 15.1826C7.36863 15.5852 7.3755 15.6175 7.37392 16.1892C7.37198 16.8694 7.26675 17.1845 6.89038 17.6377C6.41272 18.2129 5.7662 18.5224 4.95049 18.5663C4.05473 18.6145 3.27552 18.3034 2.74603 17.6862C2.3412 17.2142 2.21097 16.8434 2.21097 16.1624C2.21097 15.626 2.22124 15.5789 2.42178 15.1947C2.77561 14.5169 3.36707 14.0639 4.14769 13.8728C4.47488 13.7927 5.08847 13.7856 5.42393 13.8579ZM29.3467 15.075C29.9541 16.166 29.5925 17.5122 28.5166 18.1657C27.9976 18.4808 27.543 18.5932 26.8895 18.568C26.4121 18.5496 26.2766 18.5221 25.9464 18.3765C25.2395 18.0649 24.7588 17.5649 24.5358 16.9092C24.3681 16.4162 24.3821 16.3466 24.674 16.2217C24.8112 16.1631 24.9955 16.0721 25.0835 16.0196C25.243 15.9245 25.2444 15.9249 25.4526 16.1096C25.5677 16.2115 25.6776 16.3557 25.6971 16.43C25.9399 17.3584 27.1227 17.7419 27.89 17.1411C28.2128 16.8883 28.3541 16.5983 28.3541 16.1892C28.3541 15.6383 28.0189 15.1869 27.4961 15.0339C27.0441 14.9017 27.1666 14.8736 28.1971 14.8736H29.2346L29.3467 15.075ZM26.82 15.4302C27.291 15.8697 27.359 15.9567 27.359 16.1199C27.359 16.3457 27.2115 16.4848 26.9729 16.4839C26.8373 16.4835 26.6805 16.3784 26.2237 15.982L25.6458 15.4807L25.7532 15.204C25.8555 14.9407 25.8708 14.9273 26.0708 14.9273C26.2586 14.9273 26.3384 14.9809 26.82 15.4302ZM5.39617 15.0947C6.0438 15.388 6.32733 16.1401 6.01117 16.7262C5.77724 17.1599 5.32551 17.4156 4.79326 17.4156C3.34049 17.4156 2.93724 15.5675 4.27786 15.0534C4.56843 14.9421 5.10261 14.9618 5.39617 15.0947Z" fill="#4F4F4F"/>
</svg>
