<svg width="133" height="146" viewBox="0 0 133 146" fill="none" xmlns="http://www.w3.org/2000/svg">
<path d="M0.328079 132.818L1.69773 133.606C1.94348 133.73 2.2151 133.795 2.49059 133.795C2.76608 133.795 3.0377 133.73 3.28345 133.606L66.5731 97.0681C66.6692 97.0366 66.7529 96.9756 66.8123 96.8937C66.8716 96.8118 66.9036 96.7133 66.9036 96.6121C66.9036 96.511 66.8716 96.4125 66.8123 96.3306C66.7529 96.2487 66.6692 96.1877 66.5731 96.1562L65.2144 95.3798C64.9687 95.2553 64.6971 95.1904 64.4216 95.1904C64.1461 95.1904 63.8745 95.2553 63.6287 95.3798L0.328079 131.903C0.232421 131.935 0.149334 131.997 0.0904898 132.079C0.0316458 132.161 0 132.259 0 132.36C0 132.461 0.0316458 132.56 0.0904898 132.642C0.149334 132.724 0.232421 132.786 0.328079 132.818Z" fill="#E0E0E0"/>
<path d="M91.6955 145.98C102.363 145.98 111.01 141.24 111.01 135.393C111.01 129.545 102.363 124.805 91.6955 124.805C81.0285 124.805 72.3812 129.545 72.3812 135.393C72.3812 141.24 81.0285 145.98 91.6955 145.98Z" fill="#E0E0E0"/>
<path d="M114.009 117.17C122.239 117.17 128.911 113.512 128.911 108.999C128.911 104.487 122.239 100.829 114.009 100.829C105.779 100.829 99.1078 104.487 99.1078 108.999C99.1078 113.512 105.779 117.17 114.009 117.17Z" fill="#E0E0E0"/>
<path d="M121.297 100.789C121.275 98.9173 122.582 95.0281 124.494 92.5744C126.406 90.1207 129.434 88.308 131.613 89.0258C133.642 89.6923 133.444 92.3437 131.024 94.1272C128.603 95.9106 124.941 98.1556 123.897 101.21L121.681 104.96L121.297 100.789Z" fill="#00C868"/>
<path opacity="0.1" d="M121.297 100.789C121.275 98.9173 122.582 95.0281 124.494 92.5744C126.406 90.1207 129.434 88.308 131.613 89.0258C133.642 89.6923 133.444 92.3437 131.024 94.1272C128.603 95.9106 124.941 98.1556 123.897 101.21L121.681 104.96L121.297 100.789Z" fill="black"/>
<path d="M121.191 103.352C121.22 103.349 121.248 103.336 121.27 103.316C121.292 103.295 121.306 103.268 121.311 103.239C122.487 96.8374 127.592 91.5858 130.668 90.4029C130.703 90.3898 130.731 90.3635 130.746 90.3299C130.761 90.2962 130.762 90.258 130.749 90.2235C130.742 90.2069 130.733 90.1917 130.72 90.1789C130.708 90.166 130.693 90.1557 130.677 90.1486C130.661 90.1414 130.643 90.1376 130.625 90.1372C130.607 90.1369 130.59 90.1401 130.573 90.1466C127.435 91.3514 122.234 96.6909 121.051 103.191C121.048 103.209 121.049 103.227 121.052 103.244C121.056 103.262 121.063 103.278 121.074 103.293C121.084 103.307 121.097 103.32 121.112 103.329C121.127 103.339 121.144 103.346 121.161 103.349L121.191 103.352Z" fill="white"/>
<path d="M122.209 107.428C122.498 106.374 123.761 104.623 125.82 103.162C128.101 101.551 131.002 100.785 131.657 99.5437C132.445 98.0495 131.177 96.6652 128.819 96.9802C126.461 97.2951 122.352 100.573 121.744 105.429L122.209 107.428Z" fill="#00C868"/>
<path d="M121.722 106.33C121.748 106.327 121.773 106.317 121.793 106.301C121.814 106.285 121.83 106.263 121.839 106.238C123.728 100.745 127.881 98.7746 129.811 98.4999C129.847 98.4945 129.879 98.4754 129.901 98.4467C129.923 98.418 129.933 98.3819 129.928 98.3461C129.926 98.3283 129.92 98.311 129.911 98.2954C129.902 98.2798 129.89 98.2662 129.876 98.2553C129.862 98.2444 129.845 98.2364 129.828 98.2319C129.811 98.2274 129.792 98.2264 129.775 98.2289C127.64 98.5329 123.512 100.54 121.579 106.15C121.573 106.167 121.571 106.185 121.572 106.203C121.573 106.22 121.577 106.238 121.585 106.254C121.593 106.27 121.604 106.284 121.617 106.296C121.631 106.308 121.646 106.317 121.663 106.322C121.681 106.33 121.702 106.333 121.722 106.33Z" fill="white"/>
<path d="M2.03469 131.895L1.75636 131.734C1.52228 131.581 1.32737 131.376 1.1874 131.134C1.04743 130.893 0.966342 130.621 0.950684 130.342V36.4955C0.966639 36.2161 1.04783 35.9444 1.18774 35.7021C1.32766 35.4598 1.5224 35.2536 1.75636 35.1002L62.2261 0.192354C62.4759 0.0658953 62.7519 0 63.0318 0C63.3117 0 63.5877 0.0658953 63.8375 0.192354L64.1122 0.353489C64.3469 0.506091 64.5423 0.712037 64.6823 0.954522C64.8223 1.19701 64.903 1.46916 64.9178 1.74878V95.5919C64.903 95.8715 64.8223 96.1437 64.6823 96.3862C64.5423 96.6287 64.3469 96.8346 64.1122 96.9872L3.64604 131.895C3.3963 132.021 3.1203 132.087 2.84037 132.087C2.56043 132.087 2.28443 132.021 2.03469 131.895Z" fill="#00C868"/>
<path opacity="0.4" d="M64.9105 1.6206C64.8556 1.20311 64.5186 1.0493 64.1158 1.28002L3.64237 36.1915C3.40563 36.3407 3.21039 36.5473 3.07474 36.7921L1.18872 35.6934C1.32616 35.4488 1.52253 35.2423 1.76002 35.0928L62.2261 0.192354C62.4759 0.0658953 62.7519 0 63.0318 0C63.3117 0 63.5877 0.0658953 63.8375 0.192354L64.1158 0.353489C64.33 0.49687 64.5115 0.683852 64.6484 0.902204C64.7854 1.12056 64.8747 1.36536 64.9105 1.6206Z" fill="white"/>
<path opacity="0.1" d="M3.51054 131.957C3.2758 132.051 3.02392 132.093 2.77144 132.083C2.51897 132.072 2.27163 132.008 2.04567 131.895L1.76369 131.734C1.5296 131.581 1.33495 131.374 1.19558 131.132C1.05621 130.89 0.976067 130.618 0.96167 130.338V36.4951C0.970161 36.2156 1.05091 35.9431 1.19605 35.7041L3.08207 36.8028C2.93244 37.0374 2.84312 37.3053 2.82205 37.5828V131.43C2.82205 131.891 3.12967 132.107 3.51054 131.957Z" fill="black"/>
<path d="M9.9706 97.9539L9.69228 97.7928C9.45819 97.6403 9.26328 97.4349 9.12332 97.1932C8.98335 96.9514 8.90226 96.6801 8.8866 96.4012V79.5332C8.90227 79.2538 8.98334 78.982 9.12328 78.7396C9.26322 78.4973 9.45812 78.2912 9.69228 78.1379L64.5919 46.4125C64.841 46.2861 65.1164 46.2202 65.3957 46.2202C65.6751 46.2202 65.9505 46.2861 66.1996 46.4125L66.4779 46.5737C66.7127 46.7263 66.908 46.9322 67.048 47.1747C67.1881 47.4172 67.2688 47.6893 67.2836 47.9689V64.8369C67.2688 65.116 67.1881 65.3877 67.048 65.6296C66.908 65.8715 66.7126 66.0767 66.4779 66.2285L11.582 97.9539C11.3322 98.0804 11.0562 98.1463 10.7763 98.1463C10.4963 98.1463 10.2203 98.0804 9.9706 97.9539Z" fill="#EBEBEB"/>
<path d="M67.2763 47.841C67.2213 47.4235 66.8844 47.2697 66.4779 47.5004L11.5783 79.2295C11.3415 79.3787 11.1463 79.5853 11.0107 79.8301L9.12463 78.7314C9.26041 78.4846 9.45708 78.2766 9.69593 78.1272L64.5919 46.4018C64.841 46.2754 65.1164 46.2095 65.3957 46.2095C65.6751 46.2095 65.9505 46.2754 66.1996 46.4018L66.4779 46.5629C66.6952 46.7059 66.879 46.8941 67.0168 47.1147C67.1546 47.3353 67.2431 47.583 67.2763 47.841Z" fill="#FAFAFA"/>
<path d="M11.4428 98.0198C11.2079 98.1133 10.9558 98.1558 10.7033 98.1444C10.4507 98.133 10.2035 98.0681 9.97792 97.9539L9.69227 97.7965C9.45987 97.642 9.2667 97.4354 9.12812 97.1932C8.98953 96.951 8.90934 96.6798 8.89392 96.4012V79.5332C8.90241 79.2537 8.98316 78.9812 9.1283 78.7422L11.0143 79.8408C10.8707 80.0807 10.7889 80.3525 10.7763 80.6319V97.5035C10.7726 97.9503 11.0656 98.1663 11.4428 98.0198Z" fill="#E0E0E0"/>
<path d="M19.3421 78.0979C22.4733 76.2887 25.0112 77.695 25.0112 81.24C25.0112 84.785 22.4696 89.0917 19.3348 90.8605C16.2 92.6293 13.6621 91.2267 13.6621 87.7184C13.6621 84.21 16.211 79.907 19.3421 78.0979Z" fill="#00C868"/>
<path d="M9.9706 120.813L9.69228 120.652C9.45819 120.5 9.26328 120.294 9.12332 120.053C8.98335 119.811 8.90226 119.539 8.8866 119.261V102.393C8.90227 102.113 8.98334 101.841 9.12328 101.599C9.26322 101.357 9.45812 101.151 9.69228 100.997L64.5919 69.2719C64.841 69.1455 65.1164 69.0796 65.3957 69.0796C65.6751 69.0796 65.9505 69.1455 66.1996 69.2719L66.4779 69.433C66.7129 69.5854 66.9084 69.7913 67.0484 70.0338C67.1885 70.2764 67.2691 70.5486 67.2836 70.8283V87.6963C67.2688 87.9754 67.1881 88.247 67.048 88.4889C66.908 88.7308 66.7126 88.9361 66.4779 89.0879L11.582 120.813C11.3322 120.94 11.0562 121.006 10.7763 121.006C10.4963 121.006 10.2203 120.94 9.9706 120.813Z" fill="#EBEBEB"/>
<path d="M67.2763 70.6965C67.2213 70.279 66.8844 70.1289 66.4779 70.3596L11.5783 102.089C11.3425 102.237 11.1474 102.443 11.0107 102.686L9.12463 101.587C9.26348 101.35 9.46002 101.152 9.69593 101.012L64.5919 69.2866C64.841 69.1601 65.1164 69.0942 65.3957 69.0942C65.6751 69.0942 65.9505 69.1601 66.1996 69.2866L66.4779 69.4477C66.6921 69.5871 66.8741 69.7707 67.0117 69.986C67.1494 70.2013 67.2396 70.4436 67.2763 70.6965Z" fill="#FAFAFA"/>
<path d="M11.4428 120.876C11.2082 120.97 10.9562 121.013 10.7037 121.002C10.4511 120.991 10.2037 120.927 9.97792 120.813L9.69227 120.652C9.45927 120.498 9.26564 120.292 9.12698 120.05C8.98831 119.807 8.90849 119.536 8.89392 119.257V102.393C8.90191 102.113 8.9827 101.84 9.1283 101.602L11.0143 102.7C10.8711 102.942 10.7894 103.215 10.7763 103.495V120.367C10.7726 120.81 11.0656 121.026 11.4428 120.876Z" fill="#E0E0E0"/>
<path d="M19.3421 100.957C22.4733 99.1481 25.0112 100.554 25.0112 104.099C25.0112 107.644 22.4696 111.951 19.3348 113.72C16.2 115.489 13.6621 114.086 13.6621 110.578C13.6621 107.069 16.211 102.763 19.3421 100.957Z" fill="#00C868"/>
<path d="M9.9706 59.7279L9.69228 59.5667C9.45812 59.4135 9.26322 59.2074 9.12328 58.965C8.98334 58.7227 8.90227 58.4508 8.8866 58.1714V41.3181C8.90226 41.0392 8.98335 40.7679 9.12332 40.5261C9.26328 40.2844 9.45819 40.0789 9.69228 39.9265L64.5919 8.18645C64.841 8.06003 65.1164 7.99414 65.3957 7.99414C65.6751 7.99414 65.9505 8.06003 66.1996 8.18645L66.4779 8.34759C66.7126 8.4994 66.908 8.70466 67.048 8.94656C67.1881 9.18845 67.2688 9.46009 67.2836 9.73921V26.6072C67.2688 26.8868 67.1881 27.1589 67.048 27.4014C66.908 27.6439 66.7127 27.8499 66.4779 28.0025L11.582 59.7279C11.3322 59.8543 11.0562 59.9202 10.7763 59.9202C10.4963 59.9202 10.2203 59.8543 9.9706 59.7279Z" fill="#EBEBEB"/>
<path d="M67.2763 9.61128C67.2213 9.19379 66.8844 9.04365 66.4779 9.27436L11.5783 41.0034C11.3409 41.1502 11.1454 41.3559 11.0107 41.6003L9.12463 40.5017C9.25957 40.2552 9.45649 40.0482 9.69593 39.9011L64.5919 8.17571C64.841 8.04929 65.1164 7.9834 65.3957 7.9834C65.6751 7.9834 65.9505 8.04929 66.1996 8.17571L66.4779 8.33685C66.6951 8.47905 66.8789 8.6666 67.0167 8.88659C67.1545 9.10659 67.2431 9.35382 67.2763 9.61128Z" fill="#FAFAFA"/>
<path d="M11.4429 59.7901C11.2083 59.8841 10.9563 59.9272 10.7038 59.9165C10.4512 59.9058 10.2039 59.8415 9.97805 59.7279L9.6924 59.5667C9.45775 59.4126 9.26281 59.2052 9.12345 58.9615C8.98408 58.7177 8.90423 58.4445 8.89038 58.1641V41.3181C8.89824 41.0374 8.97901 40.7635 9.12476 40.5234L11.0108 41.6221C10.867 41.8633 10.7852 42.1363 10.7727 42.4168V59.2628C10.7727 59.7242 11.0657 59.9366 11.4429 59.7901Z" fill="#E0E0E0"/>
<path d="M19.3421 39.8719C22.4733 38.0628 25.0112 39.469 25.0112 43.0103C25.0112 46.5517 22.4696 50.862 19.3348 52.6345C16.2 54.407 13.6621 53.0008 13.6621 49.4924C13.6621 45.984 16.211 41.6846 19.3421 39.8719Z" fill="#00C868"/>
<path d="M13.8307 81.1451L13.5524 80.984C13.3176 80.8314 13.1222 80.6254 12.9822 80.383C12.8422 80.1405 12.7615 79.8683 12.7467 79.5887V62.7207C12.7621 62.4413 12.843 62.1693 12.983 61.9269C13.123 61.6845 13.318 61.4785 13.5524 61.3255L68.4483 29.6001C68.6981 29.4736 68.9741 29.4077 69.254 29.4077C69.5339 29.4077 69.8099 29.4736 70.0597 29.6001L70.338 29.7575C70.572 29.911 70.7667 30.1172 70.9066 30.3595C71.0465 30.6018 71.1277 30.8735 71.1437 31.1528V48.0208C71.128 48.3002 71.047 48.572 70.907 48.8144C70.7671 49.0567 70.5722 49.2628 70.338 49.4161L15.4384 81.1451C15.1893 81.2715 14.9139 81.3374 14.6346 81.3374C14.3552 81.3374 14.0798 81.2715 13.8307 81.1451Z" fill="#37474F"/>
<path d="M71.1364 31.0283C71.0814 30.6108 70.7445 30.457 70.338 30.6914L15.4384 62.4204C15.2008 62.5682 15.0043 62.7735 14.8671 63.0174L12.9847 61.9187C13.1192 61.6721 13.3147 61.4641 13.5524 61.3145L68.4483 29.6001C68.6981 29.4736 68.9741 29.4077 69.254 29.4077C69.5339 29.4077 69.8099 29.4736 70.0597 29.6001L70.338 29.7575C70.5544 29.8997 70.7377 30.0868 70.8755 30.306C71.0132 30.5253 71.1022 30.7716 71.1364 31.0283Z" fill="#455A64"/>
<path d="M15.3028 81.2074C15.068 81.3009 14.8162 81.3437 14.5637 81.333C14.3112 81.3223 14.0639 81.2582 13.8379 81.1451L13.5559 80.984C13.3222 80.8305 13.1279 80.6243 12.9886 80.3819C12.8493 80.1396 12.7689 79.8678 12.7539 79.5887V62.7207C12.7637 62.4409 12.8457 62.1684 12.9919 61.9297L14.8743 63.0283C14.7317 63.2685 14.6511 63.5403 14.6399 63.8194V80.691C14.6326 81.1378 14.9073 81.3538 15.3028 81.2074Z" fill="#263238"/>
<path d="M23.2022 61.2845C26.3334 59.4791 28.8713 60.8854 28.8713 64.4267C28.8713 67.968 26.3297 72.2784 23.1949 74.0509C20.0601 75.8233 17.5186 74.4171 17.5222 70.9087C17.5259 67.4004 20.0711 63.0936 23.2022 61.2845Z" fill="#F5F5F5"/>
<path d="M23.3302 71.4769C23.2311 71.5521 23.1116 71.5955 22.9874 71.6013C22.8632 71.6072 22.7401 71.5753 22.6344 71.5099L20.1441 69.6275C19.8109 69.3748 19.8511 68.6827 20.2357 68.0748C20.6202 67.4668 21.2025 67.1812 21.5321 67.4339L23.2679 68.7486L28.091 58.3883C28.3913 57.7401 28.9663 57.2897 29.3764 57.4178C29.7866 57.546 29.8745 58.1503 29.5705 58.7875L24.0626 70.6163C23.9103 70.9566 23.6654 71.2472 23.3558 71.4549L23.3302 71.4769Z" fill="#00C868"/>
<path d="M71.1289 56.0772L69.5358 55.158C68.8437 54.7625 67.9977 55.158 67.5509 55.429L66.5438 54.8687C65.339 54.1362 63.6617 55.6634 63.2882 56.0259L62.856 55.7806C61.5779 55.0115 59.2524 57.0733 59.2524 57.0733V49.3754L60.2632 48.8884L58.6555 47.9582C58.4251 47.8559 58.172 47.816 57.9213 47.8424C57.6707 47.8687 57.4313 47.9604 57.2273 48.1083C56.6324 48.4956 56.1372 49.0179 55.7822 49.6326C55.4271 50.2473 55.2221 50.9371 55.1838 51.646V69.4331C53.7189 68.3345 52.1515 67.6753 50.7892 67.9207C49.7039 68.1743 48.7544 68.8283 48.1304 69.7517C47.4566 70.9456 48.5699 71.6927 50.0055 73.3333C51.441 74.974 52.6862 76.9223 53.9826 78.1308C54.6224 78.7791 55.3824 79.2966 56.2202 79.6542V81.9687L57.7949 82.8806L68.2248 75.0399V72.7218C68.2248 72.7218 69.7116 66.7817 70.1877 64.2988C70.6455 61.911 71.0666 58.0987 70.2792 56.1211L71.1325 56.0625L71.1289 56.0772Z" fill="#00C868"/>
<path opacity="0.4" d="M71.1289 56.0772L69.5358 55.158C68.8437 54.7625 67.9977 55.158 67.5509 55.429L66.5438 54.8687C65.339 54.1362 63.6617 55.6634 63.2882 56.0259L62.856 55.7806C61.5779 55.0115 59.2524 57.0733 59.2524 57.0733V49.3754L60.2632 48.8884L58.6555 47.9582C58.4251 47.8559 58.172 47.816 57.9213 47.8424C57.6707 47.8687 57.4313 47.9604 57.2273 48.1083C56.6324 48.4956 56.1372 49.0179 55.7822 49.6326C55.4271 50.2473 55.2221 50.9371 55.1838 51.646V69.4331C53.7189 68.3345 52.1515 67.6753 50.7892 67.9207C49.7039 68.1743 48.7544 68.8283 48.1304 69.7517C47.4566 70.9456 48.5699 71.6927 50.0055 73.3333C51.441 74.974 52.6862 76.9223 53.9826 78.1308C54.6224 78.7791 55.3824 79.2966 56.2202 79.6542V81.9687L57.7949 82.8806L68.2248 75.0399V72.7218C68.2248 72.7218 69.7116 66.7817 70.1877 64.2988C70.6455 61.911 71.0666 58.0987 70.2792 56.1211L71.1325 56.0625L71.1289 56.0772Z" fill="white"/>
<path d="M59.3697 76.5191L51.4813 71.9671L48.0279 69.9712C47.5885 71.0479 48.6541 71.8023 50.0018 73.344C51.4264 74.9737 52.6825 76.933 53.9789 78.1415C54.6188 78.7898 55.3788 79.3073 56.2165 79.665V81.9685L57.7913 82.8803L60.0948 81.1481C59.7981 79.1925 59.3697 76.5191 59.3697 76.5191Z" fill="#00C868"/>
<path d="M56.7622 52.5652L55.1875 51.6533V70.3121L56.7622 70.3524V52.5652Z" fill="#00C868"/>
<path d="M69.1367 57.2749L70.3599 56.374C70.3306 56.2935 70.3086 56.2129 70.2757 56.136L70.7225 56.1067L69.741 56.0628L68.104 55.1582C67.9127 55.2349 67.7278 55.3268 67.551 55.4329L68.0637 55.7295L69.1367 57.2749Z" fill="#00C868"/>
<path d="M64.8042 57.0074L65.9505 56.1358L64.3684 55.1763C63.9866 55.4216 63.6296 55.7037 63.3027 56.0186L64.4014 56.6558L64.8042 57.0074Z" fill="#00C868"/>
<path d="M62.4092 56.9229L60.8418 56.0073L60.8491 55.9927V57.9739L62.6729 57.3074L62.4092 56.9229Z" fill="#00C868"/>
<g opacity="0.15">
<path d="M59.3697 76.5191L51.4813 71.9671L48.0279 69.9712C47.5885 71.0479 48.6541 71.8023 50.0018 73.344C51.4264 74.9737 52.6825 76.933 53.9789 78.1415C54.6188 78.7898 55.3788 79.3073 56.2165 79.665V81.9685L57.7913 82.8803L60.0948 81.1481C59.7981 79.1925 59.3697 76.5191 59.3697 76.5191Z" fill="black"/>
<path d="M56.7622 52.5652L55.1875 51.6533V70.3121L56.7622 70.3524V52.5652Z" fill="black"/>
<path d="M69.1367 57.2745L70.3599 56.3736C70.3306 56.293 70.3086 56.2124 70.2757 56.1355L70.7225 56.1062L69.741 56.0623L68.104 55.1577C67.9127 55.2345 67.7278 55.3263 67.551 55.4324L68.0637 55.729L69.1367 57.2745Z" fill="black"/>
<path d="M64.8043 57.0074L65.9506 56.1358L64.3685 55.1763C63.9867 55.4216 63.6298 55.7037 63.3029 56.0186L64.4015 56.6558L64.8043 57.0074Z" fill="black"/>
<path d="M62.4092 56.9229L60.8418 56.0073L60.8491 55.9927V57.9739L62.6729 57.3074L62.4092 56.9229Z" fill="black"/>
</g>
<path d="M57.7914 82.8952V80.5771C56.954 80.2143 56.1952 79.6919 55.5575 79.039C54.2611 77.8305 52.994 75.8675 51.5804 74.2415C50.1668 72.6155 49.0168 71.8501 49.7053 70.6599C50.3293 69.7364 51.2788 69.0825 52.3641 68.8288C53.7337 68.5835 55.2938 69.2537 56.7587 70.3413V52.5651C56.7966 51.8566 57.001 51.167 57.3554 50.5523C57.7099 49.9376 58.2043 49.4152 58.7985 49.0275C59.9265 48.3756 60.842 48.903 60.842 50.2067V57.9742C60.842 57.9742 63.6582 55.4766 64.7935 57.0073C64.7935 57.0073 67.5621 54.1106 68.8219 56.5569C68.8219 56.5569 70.8507 54.9199 71.7516 56.8206C72.6525 58.7212 72.2277 62.7423 71.7516 65.2253C71.2755 67.7082 69.785 73.6483 69.785 73.6483V75.9664L57.7914 82.8952Z" fill="#00C868"/>
<path d="M60.8492 61.3106C60.8492 61.3106 61.1056 57.7656 62.4093 56.916H62.3617C61.8222 57.2069 61.3152 57.5543 60.8492 57.9524V57.8865C60.8443 57.8968 60.8418 57.9081 60.8418 57.9195C60.8418 57.9309 60.8443 57.9421 60.8492 57.9524V61.3106Z" fill="#455A64"/>
<path d="M64.8043 57.0071V60.2518C64.8043 60.2518 65.1705 56.9155 65.903 56.1099C65.505 56.3678 65.1365 56.6686 64.8043 57.0071Z" fill="#455A64"/>
<path d="M68.818 56.5571V59.8128C68.818 59.8128 69.0158 56.5352 69.7225 56.0518C69.398 56.1751 69.0932 56.3454 68.818 56.5571Z" fill="#455A64"/>
<path d="M57.22 45.8745C56.9636 46.021 56.7585 45.9367 56.7585 45.6804V43.1169C56.7721 42.967 56.821 42.8225 56.9012 42.6952C56.9814 42.5679 57.0907 42.4614 57.22 42.3844C57.4727 42.2379 57.6777 42.3258 57.6777 42.5785V45.142C57.6649 45.2916 57.6167 45.4361 57.5371 45.5634C57.4575 45.6907 57.3488 45.7973 57.22 45.8745Z" fill="#EBEBEB"/>
<path d="M53.3601 49.9357C53.1806 50.2433 52.8913 50.4118 52.7119 50.3019L51.2214 49.4413C51.0419 49.3387 51.0419 49.0018 51.2214 48.7089C51.4008 48.3976 51.6901 48.2291 51.8696 48.3426L53.3601 49.2032C53.5542 49.2875 53.5542 49.6244 53.3601 49.9357Z" fill="#EBEBEB"/>
<path d="M51.7817 55.2568V55.3301C51.766 55.4892 51.7131 55.6425 51.6272 55.7773C51.5413 55.9122 51.4249 56.025 51.2873 56.1065L49.2511 57.282C48.9801 57.4395 48.7567 57.3479 48.7567 57.0733V57C48.7732 56.8411 48.8265 56.6882 48.9123 56.5535C48.9981 56.4187 49.1141 56.3058 49.2511 56.2237L51.2873 55.0481C51.5619 54.8906 51.7817 54.9822 51.7817 55.2568Z" fill="#EBEBEB"/>
<path d="M62.6547 49.0532V48.98C62.6698 48.8202 62.7224 48.6662 62.8083 48.5306C62.8942 48.3951 63.011 48.2818 63.1491 48.1999L65.1852 47.0244C65.4562 46.8669 65.6796 46.9621 65.6796 47.2331V47.3063C65.6631 47.4652 65.6099 47.6181 65.5241 47.7529C65.4382 47.8876 65.3222 48.0006 65.1852 48.0827L63.1491 49.2583C62.8817 49.4157 62.6547 49.3242 62.6547 49.0532Z" fill="#EBEBEB"/>
<path d="M61.0506 45.4931C60.8712 45.3905 60.8712 45.0573 61.0506 44.7607L62.5411 42.1971C62.7206 41.8859 63.0099 41.7174 63.1893 41.8309C63.3688 41.9371 63.3688 42.2704 63.1893 42.5817L61.6988 45.1452C61.534 45.4308 61.241 45.5993 61.0506 45.4931Z" fill="#EBEBEB"/>
<path d="M118.993 105.854V105.436C118.828 105.923 118.067 108.029 116.913 109.098C115.994 109.937 114.738 110.904 114.419 111.838C114.101 112.771 116.166 113.138 117.023 112.987C118.023 112.808 119.312 112.255 120.015 111.38C120.509 110.772 120.824 110.054 121.176 109.574C121.527 109.095 122.34 108.567 122.535 108.014C122.637 107.71 122.513 107.044 122.366 106.483C122.22 105.923 122.084 105.403 121.908 105.451V105.773C121.491 106.099 120.974 106.273 120.443 106.264C120.011 106.264 118.99 106.176 118.993 105.854Z" fill="#263238"/>
<path d="M116.078 109.82C116.364 109.567 116.653 109.318 116.913 109.087C117.719 108.355 118.334 107.102 118.689 106.249C118.89 105.762 118.993 105.241 118.993 104.715V103.056H121.923V105.758V105.832C121.784 106.436 120.458 108.029 119.685 109.098C119.176 109.801 118.221 110.695 117.052 110.852C115.928 110.999 115.368 110.651 116.078 109.82Z" fill="#FFA8A7"/>
<path d="M107.63 102.978V102.561C107.465 103.051 106.699 105.157 105.546 106.223C104.627 107.061 103.371 108.032 103.052 108.966C102.733 109.9 104.799 110.266 105.656 110.112C106.655 109.936 107.945 109.38 108.648 108.508C109.142 107.9 109.457 107.179 109.809 106.702C110.16 106.226 110.977 105.692 111.167 105.139C111.27 104.835 111.145 104.172 110.999 103.612C110.852 103.051 110.717 102.513 110.541 102.575V102.894C110.124 103.222 109.607 103.397 109.076 103.388C108.659 103.388 107.626 103.304 107.63 102.978Z" fill="#263238"/>
<path d="M104.714 106.948C104.996 106.692 105.286 106.446 105.546 106.215C106.351 105.483 106.967 104.227 107.322 103.374C107.524 102.889 107.629 102.368 107.63 101.843V100.18H110.541V102.883V102.956C110.402 103.564 109.076 105.172 108.303 106.223C107.794 106.926 106.839 107.823 105.67 107.977C104.561 108.123 104 107.779 104.714 106.948Z" fill="#FFA8A7"/>
<path d="M121.33 60.5628C123.589 65.4957 121.246 82.88 121.246 82.88C121.315 83.6784 122.231 85.2568 122.571 88.7798C122.974 92.9437 121.938 103.399 121.938 103.399C121.495 103.655 120.998 103.799 120.487 103.819C119.977 103.84 119.469 103.736 119.008 103.516C119.008 103.516 116.232 87.769 115.712 83.6308C115.251 80.0162 114.364 72.0803 114.364 72.0803L111.878 83.6161C112.24 84.7808 112.504 85.974 112.665 87.1831C112.903 89.6184 110.541 100.957 110.541 100.957C110.541 100.957 109.538 101.323 107.63 101.044C107.63 101.044 106.795 85.9965 106.575 83.0631C106.209 78.1375 107.512 62.7637 108.406 59.8486L121.33 60.5628Z" fill="#37474F"/>
<path d="M114.364 72.0809L113.632 67.4959C113.632 67.4959 110.526 66.855 109.12 65.5293C110.089 66.6681 111.358 67.513 112.782 67.9683L113.606 71.4986L112.167 82.1812L114.364 72.0809Z" fill="#263238"/>
<path d="M112.522 43.2851C111.814 43.2242 111.101 43.3449 110.452 43.6358C109.803 43.9267 109.239 44.3782 108.813 44.9477C107.648 46.4712 103.184 52.2721 103.184 52.2721C103.184 52.2721 96.5919 48.9761 96.2806 48.5879C95.9693 48.1997 96.1414 47.4087 96.2293 46.9766C96.3172 46.5444 96.4674 45.5739 96.5626 45.3029C96.731 44.8305 96.0316 44.9587 95.6178 45.4018C95.2039 45.8449 95.0245 46.7092 94.8157 46.8667C94.607 47.0242 93.0469 45.2151 92.2852 44.3471C91.5234 43.4792 91.1865 42.8823 90.6628 43.2302C90.2966 43.4865 90.531 44.0029 91.0767 44.7463C91.3307 45.0614 91.5655 45.3916 91.7798 45.7351C91.842 45.8669 91.6443 45.9731 91.5637 46.0464C91.4172 46.1782 91.1536 46.4126 91.1352 46.5994C91.139 46.7121 91.1316 46.825 91.1133 46.9363C91.0437 47.1853 90.7471 47.3025 90.6518 47.5442C90.5896 47.7163 90.6518 47.9104 90.6225 48.0972C90.6006 48.2144 90.5347 48.3206 90.5127 48.4414C90.5052 48.5591 90.5232 48.6769 90.5656 48.7869C90.6079 48.8969 90.6736 48.9964 90.758 49.0786C91.2891 49.7159 92.0178 49.9576 92.7173 50.3458C93.2996 50.668 93.9002 50.8072 94.5704 51.1038C95.2405 51.4005 103.012 56.7912 104.242 56.11C105.473 55.4288 111.823 48.0532 111.823 48.0532C113.654 45.01 112.522 43.2851 112.522 43.2851Z" fill="#FFA8A7"/>
<path d="M117.345 43.4207C120.238 43.6221 120.443 45.0211 121.169 46.5482C121.699 47.728 121.748 49.0685 121.304 50.2836L119.279 56.1211C119.279 56.1211 120.224 58.4063 121.322 60.5633C116.258 63.3905 109.933 61.9037 108.41 59.8309C108.344 59.3914 108.735 55.9709 108.977 53.737C108.084 51.4994 107.849 50.0749 108.226 48.61C108.926 45.8634 111.636 43.19 112.837 43.2852L117.345 43.4207Z" fill="#F5F5F5"/>
<path d="M114.558 41.0217H115.683C116.461 41.0217 117.232 40.8683 117.95 40.5702C118.669 40.2722 119.323 39.8353 119.873 39.2847C120.422 38.734 120.859 38.0803 121.156 37.361C121.453 36.6417 121.605 35.8709 121.604 35.0926C121.603 33.514 120.976 32.0003 119.859 30.8844C118.742 29.7685 117.228 29.1416 115.65 29.1416H114.591C113.016 29.1464 111.507 29.7756 110.395 30.8911C109.283 32.0066 108.659 33.5175 108.659 35.0926C108.656 36.6609 109.275 38.1663 110.382 39.278C111.488 40.3897 112.99 41.0168 114.558 41.0217Z" fill="#263238"/>
<path d="M124.772 44.142C123.845 44.1411 122.956 43.7723 122.3 43.1166C121.645 42.4609 121.276 41.5719 121.275 40.6447V33.1519C121.734 33.1519 122.189 33.2424 122.614 33.4184C123.039 33.5944 123.424 33.8524 123.749 34.1775C124.074 34.5027 124.331 34.8886 124.507 35.3134C124.683 35.7381 124.773 36.1933 124.772 36.6529V44.142Z" fill="#263238"/>
<path d="M121.916 31.8262L121.041 33.2324C121.13 33.2948 121.231 33.3384 121.338 33.3606C121.444 33.3828 121.554 33.3831 121.661 33.3616C121.768 33.34 121.869 33.297 121.959 33.2351C122.049 33.1733 122.125 33.0939 122.183 33.0017C122.298 32.8089 122.334 32.5793 122.284 32.3606C122.234 32.1418 122.103 31.9505 121.916 31.8262Z" fill="#263238"/>
<path d="M110.768 31.771C110.083 32.1738 109.237 33.8951 109.321 37.506C109.391 40.5675 110.384 41.3219 110.882 41.5343C111.38 41.7467 112.346 41.6186 113.273 41.4611V43.2922C113.273 43.2922 111.984 44.79 112.064 45.6323C112.145 46.4746 113.929 46.6724 115.137 45.852C115.919 45.2871 116.591 44.5832 117.118 43.7756V39.3517C117.216 39.4721 117.337 39.5718 117.474 39.6451C117.61 39.7183 117.76 39.7636 117.915 39.7782C118.069 39.7929 118.225 39.7767 118.373 39.7305C118.521 39.6843 118.659 39.609 118.777 39.5092C119.81 38.8243 119.85 37.1288 119.25 36.5208C118.649 35.9129 117.356 36.107 117.118 36.9456C117.118 36.9456 115.628 37.0006 113.647 35.9129C112.875 35.4974 112.212 34.9058 111.712 34.1862C111.212 33.4665 110.888 32.6391 110.768 31.771Z" fill="#FFA8A7"/>
<path d="M113.079 36.7369C113.076 36.8127 113.095 36.8878 113.134 36.9528C113.173 37.0178 113.23 37.0698 113.299 37.1022C113.367 37.1346 113.444 37.146 113.519 37.135C113.594 37.124 113.664 37.091 113.721 37.0403C113.777 36.9895 113.817 36.9232 113.836 36.8497C113.854 36.7762 113.851 36.6988 113.826 36.6272C113.801 36.5557 113.755 36.4931 113.695 36.4475C113.634 36.4018 113.561 36.3751 113.486 36.3707C113.384 36.3685 113.285 36.4052 113.21 36.4732C113.134 36.5413 113.087 36.6356 113.079 36.7369Z" fill="#263238"/>
<path d="M112.636 39.333L111.742 39.615C111.758 39.6747 111.786 39.7305 111.824 39.7792C111.862 39.8279 111.909 39.8685 111.963 39.8985C112.017 39.9286 112.077 39.9475 112.138 39.9542C112.2 39.9608 112.262 39.9551 112.321 39.9373C112.441 39.8969 112.542 39.8114 112.6 39.6987C112.659 39.586 112.672 39.4549 112.636 39.333Z" fill="#F28F8F"/>
<path d="M109.926 35.558L110.702 35.016C110.67 34.9639 110.627 34.9189 110.576 34.8838C110.526 34.8487 110.469 34.8243 110.408 34.8119C110.348 34.7996 110.286 34.7997 110.226 34.8121C110.165 34.8245 110.108 34.849 110.058 34.8842C109.954 34.9582 109.882 35.0694 109.857 35.1948C109.833 35.3202 109.857 35.4503 109.926 35.558Z" fill="#263238"/>
<path d="M110.123 36.4586C110.119 36.5102 110.126 36.5621 110.142 36.6112C110.159 36.6603 110.185 36.7056 110.219 36.7445C110.253 36.7834 110.294 36.8151 110.341 36.8377C110.387 36.8603 110.438 36.8734 110.49 36.8761C110.569 36.8826 110.648 36.8653 110.718 36.8263C110.787 36.7874 110.843 36.7287 110.879 36.6577C110.914 36.5866 110.928 36.5066 110.918 36.4277C110.908 36.3489 110.875 36.2748 110.822 36.215C110.77 36.1553 110.701 36.1125 110.624 36.0923C110.547 36.072 110.466 36.0752 110.391 36.1013C110.316 36.1275 110.25 36.1755 110.203 36.2392C110.155 36.3028 110.127 36.3792 110.123 36.4586Z" fill="#263238"/>
<path d="M111.984 36.2388L111.922 38.5569L110.702 38.1797L111.984 36.2388Z" fill="#F28F8F"/>
<path d="M113.273 41.4683C114.258 41.3401 116.283 40.7578 116.598 39.9595C116.471 40.3644 116.223 40.7208 115.888 40.9812C115.283 41.4976 113.273 42.0799 113.273 42.0799V41.4683Z" fill="#F28F8F"/>
<path opacity="0.1" d="M116.049 61.1123C116.446 61.0209 116.82 60.8512 117.151 60.613C117.481 60.3749 117.761 60.0732 117.973 59.7256C118.185 59.378 118.326 58.9915 118.386 58.5888C118.447 58.1861 118.427 57.7753 118.327 57.3805C118.268 57.1398 118.13 56.926 117.934 56.7738C117.739 56.6215 117.498 56.5398 117.25 56.5419C117.575 56.3265 117.854 56.049 118.072 55.7254C118.289 55.4017 118.441 55.0382 118.517 54.6559L119.132 50.9937C119.207 50.3972 119.153 49.7917 118.975 49.2176L121.011 46.8628L121.377 47.1228C121.687 48.1571 121.657 49.2633 121.293 50.2796L119.279 56.1208C119.279 56.1208 120.224 58.406 121.322 60.563C119.676 61.4512 117.858 61.9762 115.991 62.1026C114.124 62.2289 112.252 61.9537 110.501 61.2954C112.345 61.5845 114.228 61.5224 116.049 61.1123Z" fill="black"/>
<path d="M126.512 57.9559C123.882 47.2074 121.938 43.6221 118.744 43.6734C117.81 44.772 118.07 48.1559 119.543 50.1994C119.543 50.1994 122.839 57.1319 123.355 59.5965C123.813 61.7609 124.336 64.4855 124.303 66.3459C124.293 66.676 124.163 66.9911 123.937 67.2321C123.337 67.884 123.337 68.4077 122.945 69.1255C122.641 69.6895 122.308 69.9019 122.403 70.0264C122.528 70.1603 122.7 70.2422 122.883 70.2557C123.066 70.2693 123.248 70.2136 123.392 70.0996C123.668 69.8905 123.915 69.644 124.124 69.3672C124.02 70.0569 123.821 70.7287 123.531 71.3631C122.857 72.8829 123.022 73.6593 125.073 73.1173C126.358 72.7767 127.167 71.7073 127.361 68.6128C127.454 67.4749 127.465 66.3318 127.394 65.1923C127.134 62.2626 126.937 59.6844 126.512 57.9559Z" fill="#FFA8A7"/>
<path d="M100.422 88.6853C100.704 78.2225 99.8658 75.7176 97.0825 73.8022L96.0022 79.8631C96.0022 79.8631 97.2693 87.0044 97.1338 89.3848C97.0166 91.4759 96.8115 94.0907 96.3171 95.7789C96.2302 96.0833 96.033 96.3444 95.7642 96.5114C95.0537 96.9545 94.768 97.4086 94.2334 97.9762C93.8159 98.4157 93.4606 98.5219 93.5009 98.6611C93.5818 98.8147 93.7174 98.9323 93.8808 98.9906C94.0443 99.049 94.2237 99.0437 94.3835 98.976C94.7378 98.8332 95.0745 98.6501 95.387 98.4304C95.1415 99.0716 94.794 99.6689 94.3579 100.199C93.3618 101.419 93.3178 102.169 95.3284 102.188C96.5845 102.188 97.5879 101.422 98.5364 98.6501C98.9042 97.6335 99.1992 96.592 99.419 95.5336C99.9171 92.7686 100.378 90.3699 100.422 88.6853Z" fill="#B16668"/>
<path d="M94.7424 73.0075C96.0718 72.8135 97.8772 73.0918 99.0455 75.1792C100.214 77.2667 100.51 80.8592 100.631 84.4299C100.631 84.4299 98.313 86.3671 95.5298 85.415L94.7424 73.0075Z" fill="#00C868"/>
<path opacity="0.1" d="M94.7424 73.0075C96.0718 72.8135 97.8772 73.0918 99.0455 75.1792C100.214 77.2667 100.51 80.8592 100.631 84.4299C100.631 84.4299 98.313 86.3671 95.5298 85.415L94.7424 73.0075Z" fill="black"/>
<path d="M98.6498 130.544C98.8585 130.624 98.9135 131.027 98.9464 131.825C98.9684 132.43 99.1002 133.488 98.3898 133.697C97.6793 133.906 96.6429 133.799 96.1925 133.232C95.6248 132.499 95.244 131.891 94.4346 131.034C93.7315 130.28 92.9698 129.57 92.6914 128.522C92.4351 127.566 92.6475 127.152 93.2994 126.874C94.1929 126.508 95.6029 127.742 96.3024 127.936C96.9029 128.112 98.4374 130.463 98.6498 130.544Z" fill="#263238"/>
<path d="M98.6498 129.804V130.786C98.2811 131.022 97.855 131.152 97.4175 131.164C96.98 131.176 96.5476 131.068 96.1669 130.852C96.1266 130.757 95.9105 129.449 95.9105 129.449L98.6498 129.804Z" fill="#B16668"/>
<path d="M90.7141 136.202C90.8854 136.727 91.0296 137.262 91.1463 137.802C91.2671 138.395 91.4393 139.388 91.2342 139.835C91.0291 140.281 90.2161 140.567 88.9563 140.567C88.1433 140.567 86.8762 141.113 86.0083 141.596C85.1403 142.079 83.2433 142.296 82.2948 142.186C81.1779 142.054 80.0206 141.406 79.8375 140.941C79.6544 140.475 79.8961 139.999 82.5329 138.875C82.5585 138.875 86.195 137.681 87.4695 136.275L90.7141 136.202Z" fill="#263238"/>
<path d="M90.7141 135.14C90.7141 135.14 90.7141 135.872 90.7141 136.286C90.7141 136.7 90.227 137.322 88.9526 137.275C88.059 137.245 87.4364 137.004 87.4877 136.268V135.206L90.7141 135.14Z" fill="#B16668"/>
<path d="M99.2871 116.778C99.0699 115.035 98.6823 113.318 98.1299 111.651C98.1299 111.651 98.4778 107.256 98.6463 103.059C98.8294 98.5402 98.6463 92.8639 98.7232 91.7359C98.7232 91.7359 84.1477 88.8062 83.8877 94.0065C83.6277 99.2067 84.4627 112.522 84.6201 114.815C84.7776 117.107 85.1878 119.14 85.6639 122.872C86.1399 126.603 87.44 135.206 87.44 135.206C87.9446 135.463 88.5046 135.591 89.0706 135.579C89.6366 135.568 90.191 135.417 90.6847 135.14C90.6847 135.14 91.7101 124.699 91.6039 122.051C91.5212 120.091 91.1839 118.15 90.6005 116.276C90.6005 116.276 90.8751 111.969 91.1205 108.219C91.3659 104.469 91.6222 102.675 91.6771 101.049L91.9921 100.891C91.9921 100.891 92.3107 107.351 92.4828 109.648C92.6549 111.944 93.0212 114.141 93.684 118.4C94.2626 122.099 95.9765 129.918 95.9765 129.918C97.6392 130.819 98.6353 129.801 98.6353 129.801C98.6353 129.801 99.7376 119.986 99.2871 116.778Z" fill="#37474F"/>
<path d="M91.6917 101.052C91.6917 101.052 95.2293 99.3089 96.9981 97.7378C96.9981 97.7378 95.3538 100.052 93.1968 101.078C93.1968 101.078 92.4314 109.105 92.4351 108.944L91.9919 101.037L91.6917 101.052Z" fill="#263238"/>
<path d="M88.5459 71.3523L89.4102 76.0985L93.6949 75.7872L92.7977 70.4038L88.5459 71.3523Z" fill="#B16668"/>
<path d="M98.225 75.4396C97.8002 74.1506 96.1632 72.7443 94.5262 73.0482C92.0915 73.4619 89.6919 74.0605 87.3483 74.8391C85.8468 75.3774 84.4809 76.6701 84.3563 81.6067C84.3563 81.6067 83.8546 93.1133 83.8473 95.3362C87.612 96.8267 91.5379 96.7828 93.6949 96.3104C98.2067 95.3252 98.7487 93.4539 98.7487 93.4539C98.7487 93.4539 98.8073 85.181 98.6718 81.6067C98.5582 78.5708 98.518 76.3259 98.225 75.4396Z" fill="#00C868"/>
<path d="M85.239 65.5767C85.239 65.5767 84.1404 67.3125 84.2832 67.4773C84.426 67.6421 85.2463 67.774 85.2463 67.774L85.239 65.5767Z" fill="#B16668"/>
<path d="M88.2567 60.7831C85.9898 61.3142 85.3562 62.3286 85.2207 65.9541C85.0816 69.7408 85.4954 70.92 86.0044 71.4181C86.345 71.755 88.2017 71.7843 89.1466 71.495C90.3148 71.1288 92.9552 70.14 94.1564 68.199C95.57 65.9285 95.8886 62.8889 94.2919 61.6767C92.0434 59.9958 89.1795 60.5634 88.2567 60.7831Z" fill="#B16668"/>
<path d="M88.5935 71.6118C89.3626 70.9929 89.293 70.5938 89.293 70.5938C88.7437 71.1101 86.7002 71.5496 85.9971 71.4177C86.2864 71.7144 87.6157 71.7583 88.5935 71.6118Z" fill="#9A4A4D"/>
<path d="M85.2464 61.7239C85.9129 62.8628 87.3558 63.4085 87.3558 63.4085C87.7916 63.9028 87.5499 65.8365 88.3153 66.1404C88.3153 66.1404 88.6448 64.7342 89.8277 64.8843C91.0106 65.0345 91.212 66.5433 90.4833 67.4771C89.7545 68.411 89.055 68.0777 89.055 68.0777C89.055 68.0777 89.1356 70.0736 90.0475 71.1869C90.0475 71.1869 91.0619 71.4909 92.904 71.0514C94.0392 70.7841 95.6176 69.3229 96.2585 67.8031C97.6208 64.5803 97.6538 61.7092 95.5993 60.8962C95.3466 59.4313 94.1747 58.7978 92.849 58.5231C89.9962 57.9372 88.1578 59.717 85.9605 59.5632C84.7007 59.4753 84.4663 60.3872 85.2464 61.7239Z" fill="#263238"/>
<path d="M95.647 61.3873L96.991 60.5524C96.8803 60.3741 96.7033 60.2472 96.4989 60.1995C96.2946 60.1517 96.0797 60.1871 95.9015 60.2978C95.7233 60.4086 95.5963 60.5856 95.5486 60.7899C95.5008 60.9942 95.5362 61.2091 95.647 61.3873Z" fill="#263238"/>
<path d="M87.4657 74.8203C87.4657 74.8203 85.3343 75.2158 84.221 76.9004C83.1077 78.585 78.2883 84.6276 78.2883 84.6276C78.2883 84.6276 71.3594 81.1595 71.0189 80.7457C70.6783 80.3319 70.8687 79.5042 70.9639 79.0465C71.0591 78.5887 71.2129 77.5816 71.3301 77.2886C71.5059 76.7869 70.7698 76.9224 70.334 77.3875C69.8982 77.8526 69.7078 78.7645 69.4917 78.9219C69.2757 79.0794 67.624 77.1824 66.8257 76.2669C66.0273 75.3513 65.6501 74.7105 65.1118 75.0877C64.7272 75.3623 64.9763 75.9043 65.5476 76.688C65.8164 77.0167 66.0611 77.3643 66.28 77.7281C66.3496 77.8672 66.1372 77.9808 66.0566 78.054C65.8991 78.1932 65.6245 78.4202 65.6025 78.64C65.6141 78.7618 65.6141 78.8844 65.6025 79.0062C65.5256 79.2662 65.2033 79.3724 65.1118 79.6434C65.0458 79.8302 65.1118 80.0352 65.0825 80.2293C65.0568 80.3539 64.9909 80.4637 64.9653 80.5956C64.9582 80.7199 64.9777 80.8443 65.0225 80.9606C65.0674 81.0768 65.1365 81.182 65.2253 81.2694C65.7856 81.9396 66.5547 82.1959 67.2908 82.6024C67.9023 82.943 68.5359 83.0895 69.2427 83.4044C69.9495 83.7194 78.2553 89.8572 79.5517 89.1431C80.8481 88.4289 87.4913 80.6651 87.4913 80.6651C88.0525 79.7927 88.3488 78.7763 88.3443 77.7389C88.3397 76.7016 88.0345 75.6878 87.4657 74.8203Z" fill="#B16668"/>
<path d="M88.209 74.5713C87.2935 74.6738 86.0117 74.5054 84.2136 76.4317C82.7702 78.0848 81.4251 79.8212 80.1852 81.632C80.4215 82.5833 80.9273 83.4462 81.6418 84.1172C82.3563 84.7882 83.2493 85.2388 84.2136 85.415C84.2136 85.415 87.3557 82.1959 88.242 80.4198C89.1282 78.6436 89.2857 75.7652 88.209 74.5713Z" fill="#00C868"/>
<path opacity="0.1" d="M88.209 74.5713C87.2935 74.6738 86.0117 74.5054 84.2136 76.4317C82.7702 78.0848 81.4251 79.8212 80.1852 81.632C80.4215 82.5833 80.9273 83.4462 81.6418 84.1172C82.3563 84.7882 83.2493 85.2388 84.2136 85.415C84.2136 85.415 87.3557 82.1959 88.242 80.4198C89.1282 78.6436 89.2857 75.7652 88.209 74.5713Z" fill="black"/>
</svg>
