<svg width="301" height="301" viewBox="0 0 301 301" fill="none" xmlns="http://www.w3.org/2000/svg">
<path d="M301 230.203H0V230.354H301V230.203Z" fill="#EBEBEB"/>
<path d="M270.841 239.891H250.902V240.041H270.841V239.891Z" fill="#EBEBEB"/>
<path d="M199.395 241.527H194.164V241.678H199.395V241.527Z" fill="#EBEBEB"/>
<path d="M250.298 234.305H238.746V234.455H250.298V234.305Z" fill="#EBEBEB"/>
<path d="M57.5824 235.316H31.582V235.467H57.5824V235.316Z" fill="#EBEBEB"/>
<path d="M66.756 235.316H62.9453V235.467H66.756V235.316Z" fill="#EBEBEB"/>
<path d="M135.54 237.855H79.1445V238.006H135.54V237.855Z" fill="#EBEBEB"/>
<path d="M142.675 203.355H26.4353C25.5247 203.353 24.6519 202.991 24.0086 202.346C23.3652 201.702 23.0039 200.828 23.0039 199.918V36.5167C23.0118 35.6113 23.3767 34.7456 24.0191 34.1076C24.6616 33.4696 25.5299 33.1109 26.4353 33.1094H142.675C143.587 33.1094 144.461 33.4715 145.106 34.1162C145.751 34.7608 146.113 35.6351 146.113 36.5468V199.918C146.113 200.829 145.751 201.704 145.106 202.348C144.461 202.993 143.587 203.355 142.675 203.355ZM26.4353 33.2298C25.5646 33.2314 24.7301 33.5784 24.115 34.1946C23.4999 34.8109 23.1544 35.646 23.1544 36.5167V199.918C23.1544 200.788 23.4999 201.623 24.115 202.24C24.7301 202.856 25.5646 203.203 26.4353 203.204H142.675C143.547 203.203 144.382 202.856 144.998 202.24C145.614 201.624 145.961 200.789 145.962 199.918V36.5167C145.961 35.6454 145.614 34.8103 144.998 34.1942C144.382 33.5782 143.547 33.2314 142.675 33.2298H26.4353Z" fill="#EBEBEB"/>
<path d="M272.895 203.355H156.648C155.737 203.353 154.864 202.991 154.22 202.346C153.575 201.702 153.213 200.829 153.211 199.918V36.5167C153.22 35.6108 153.587 34.7451 154.23 34.1072C154.873 33.4694 155.742 33.1109 156.648 33.1094H272.895C273.799 33.1125 274.666 33.4719 275.307 34.1097C275.948 34.7475 276.312 35.6123 276.32 36.5167V199.918C276.32 200.827 275.959 201.7 275.317 202.344C274.675 202.988 273.804 203.352 272.895 203.355ZM156.648 33.2298C155.777 33.2314 154.942 33.5782 154.326 34.1942C153.71 34.8103 153.363 35.6454 153.361 36.5167V199.918C153.363 200.789 153.71 201.624 154.326 202.24C154.942 202.856 155.777 203.203 156.648 203.204H272.895C273.766 203.203 274.601 202.856 275.217 202.24C275.833 201.624 276.18 200.789 276.181 199.918V36.5167C276.18 35.6454 275.833 34.8103 275.217 34.1942C274.601 33.5782 273.766 33.2314 272.895 33.2298H156.648Z" fill="#EBEBEB"/>
<path d="M88.1374 69.6224C88.1373 68.5589 87.8885 67.5102 87.411 66.56C86.9334 65.6098 86.2402 64.7844 85.3869 64.1498C84.5335 63.5151 83.5436 63.0889 82.4961 62.905C81.4486 62.7211 80.3727 62.7847 79.3542 63.0907C79.4561 62.397 79.5064 61.6968 79.5047 60.9957C79.5047 58.8729 79.037 56.7762 78.1348 54.8547C77.2325 52.9331 75.9179 51.234 74.2845 49.8782C72.6511 48.5224 70.739 47.5432 68.6842 47.0102C66.6294 46.4772 64.4823 46.4036 62.3959 46.7945C60.9652 44.4656 58.8183 42.663 56.2769 41.657C53.7355 40.651 50.9365 40.4957 48.2994 41.2145C45.6623 41.9333 43.3292 43.4873 41.6498 45.6438C39.9704 47.8003 39.0351 50.4429 38.9841 53.1757H38.7734C35.6871 53.1757 32.7273 54.4017 30.545 56.584C28.3627 58.7663 27.1367 61.7262 27.1367 64.8124C27.1367 67.8986 28.3627 70.8585 30.545 73.0408C32.7273 75.2231 35.6871 76.4491 38.7734 76.4491H81.5154C83.2907 76.3973 84.9759 75.6551 86.2125 74.3803C87.4491 73.1054 88.1397 71.3985 88.1374 69.6224Z" fill="#F0F0F0"/>
<path d="M63.0583 79.8294V66.5312H52.2102V79.8294H43.3789L57.6343 91.8754L71.8956 79.8294H63.0583Z" fill="#E0E0E0"/>
<path d="M251.81 66.028C251.809 65.4771 251.68 64.9337 251.433 64.4415C251.185 63.9492 250.826 63.5217 250.384 63.1929C249.942 62.8642 249.429 62.6435 248.886 62.5483C248.344 62.4531 247.786 62.4862 247.258 62.6448C247.314 62.2862 247.342 61.924 247.343 61.5612C247.346 60.4607 247.106 59.3731 246.64 58.3763C246.174 57.3795 245.493 56.4982 244.646 55.7956C243.799 55.093 242.807 54.5866 241.741 54.3126C240.675 54.0386 239.562 54.0038 238.481 54.2108C237.748 52.9909 236.637 52.0438 235.317 51.5135C233.996 50.9832 232.538 50.8986 231.165 51.2727C229.792 51.6468 228.579 52.459 227.71 53.5859C226.841 54.7129 226.364 56.0927 226.351 57.5158H226.243C224.646 57.5158 223.115 58.15 221.986 59.279C220.857 60.4079 220.223 61.9391 220.223 63.5358C220.223 65.1324 220.857 66.6636 221.986 67.7925C223.115 68.9215 224.646 69.5558 226.243 69.5558H248.36C249.282 69.5338 250.158 69.1526 250.802 68.4936C251.447 67.8345 251.808 66.9498 251.81 66.028Z" fill="#F0F0F0"/>
<path d="M233.21 66.2992V73.1861H238.826V66.2992H243.402L236.021 60.0625L228.641 66.2992H233.21Z" fill="#E0E0E0"/>
<path d="M79.4354 106.68L27.0547 118.254L35.7194 157.467L88.1001 145.893L79.4354 106.68Z" fill="#FAFAFA"/>
<path d="M77.4558 109.781L30.2891 120.203L37.803 154.209L84.9697 143.786L77.4558 109.781Z" fill="#E0E0E0"/>
<path d="M83.9537 139.152L84.9771 143.782L37.8104 154.202L34.1562 137.671L42.0063 127.004L59.5667 137.906L65.978 130.64L83.9537 139.152Z" fill="#EBEBEB"/>
<path d="M71.588 120.461C71.7545 121.212 71.6945 121.996 71.4156 122.713C71.1367 123.43 70.6514 124.048 70.0211 124.489C69.3909 124.93 68.644 125.174 67.8748 125.191C67.1057 125.208 66.349 124.996 65.7004 124.582C65.0517 124.168 64.5403 123.572 64.2309 122.867C63.9214 122.163 63.8278 121.383 63.9618 120.625C64.0959 119.868 64.4516 119.167 64.984 118.612C65.5163 118.056 66.2014 117.671 66.9526 117.506C67.9593 117.283 69.013 117.47 69.8822 118.024C70.7514 118.578 71.3649 119.455 71.588 120.461Z" fill="#EBEBEB"/>
<path opacity="0.3" d="M71.588 120.461C71.7545 121.212 71.6945 121.996 71.4156 122.713C71.1367 123.43 70.6514 124.048 70.0211 124.489C69.3909 124.93 68.644 125.174 67.8748 125.191C67.1057 125.208 66.349 124.996 65.7004 124.582C65.0517 124.168 64.5403 123.572 64.2309 122.867C63.9214 122.163 63.8278 121.383 63.9618 120.625C64.0959 119.868 64.4516 119.167 64.984 118.612C65.5163 118.056 66.2014 117.671 66.9526 117.506C67.9593 117.283 69.013 117.47 69.8822 118.024C70.7514 118.578 71.3649 119.455 71.588 120.461Z" fill="#EBEBEB"/>
<path d="M92.9422 188.866L60.793 179.859L49.0307 221.846L81.1798 230.852L92.9422 188.866Z" fill="#EBEBEB"/>
<path d="M86.4851 193.487L63.9297 187.168L63.2931 189.44L85.8485 195.759L86.4851 193.487Z" fill="#E0E0E0"/>
<path d="M85.3679 197.456L62.8125 191.137L62.1775 193.403L84.733 199.722L85.3679 197.456Z" fill="#E0E0E0"/>
<path d="M84.2547 201.42L61.6992 195.102L61.0643 197.368L83.6197 203.687L84.2547 201.42Z" fill="#E0E0E0"/>
<path d="M83.1453 205.401L60.5898 199.082L59.9533 201.354L82.5087 207.673L83.1453 205.401Z" fill="#E0E0E0"/>
<path d="M82.032 209.37L59.4766 203.051L58.8416 205.317L81.397 211.636L82.032 209.37Z" fill="#E0E0E0"/>
<path d="M80.9187 213.342L58.3633 207.023L57.7283 209.29L80.2838 215.609L80.9187 213.342Z" fill="#E0E0E0"/>
<path d="M79.8054 217.315L57.25 210.996L56.6134 213.268L79.1688 219.587L79.8054 217.315Z" fill="#E0E0E0"/>
<path d="M70.4836 218.438L55.9258 214.344L55.2886 216.609L69.8464 220.704L70.4836 218.438Z" fill="#E0E0E0"/>
<path d="M85.075 171.885L52.9258 162.879L41.1635 204.865L73.3127 213.872L85.075 171.885Z" fill="#FAFAFA"/>
<path d="M78.6179 176.502L56.0625 170.184L55.4259 172.456L77.9813 178.775L78.6179 176.502Z" fill="#E0E0E0"/>
<path d="M77.5047 180.475L54.9492 174.156L54.3143 176.423L76.8697 182.742L77.5047 180.475Z" fill="#E0E0E0"/>
<path d="M76.3914 184.44L53.8359 178.121L53.201 180.388L75.7564 186.706L76.3914 184.44Z" fill="#E0E0E0"/>
<path d="M75.282 188.416L52.7266 182.098L52.09 184.37L74.6454 190.689L75.282 188.416Z" fill="#E0E0E0"/>
<path d="M74.1648 192.389L51.6094 186.07L50.9728 188.343L73.5282 194.661L74.1648 192.389Z" fill="#E0E0E0"/>
<path d="M73.0515 196.358L50.4961 190.039L49.8611 192.306L72.4166 198.624L73.0515 196.358Z" fill="#E0E0E0"/>
<path d="M71.9383 200.331L49.3828 194.012L48.7478 196.278L71.3033 202.597L71.9383 200.331Z" fill="#E0E0E0"/>
<path d="M62.8756 202.071L48.2734 197.98L47.6368 200.253L62.239 204.344L62.8756 202.071Z" fill="#E0E0E0"/>
<path d="M266.826 108.643C263.382 105.964 258.789 97.1572 258.795 97.1211L254.292 128.136C254.394 127.432 251.643 126.607 249.807 126.33C245.358 125.686 241.518 127.624 241.078 130.634C240.639 133.644 243.95 136.654 248.399 137.256C252.847 137.858 256.646 135.962 257.085 132.946C257.146 132.495 256.808 132.001 256.869 131.58L260.342 107.68C262.08 109.874 264.26 111.677 266.741 112.972C270.04 114.669 271.112 119.383 271.112 119.383C271.112 119.383 272.147 112.779 266.826 108.643Z" fill="#E0E0E0"/>
<path d="M233.002 123.651C230.63 121.809 227.458 115.735 227.464 115.711L224.358 137.1C224.43 136.612 222.552 136.04 221.269 135.86C218.199 135.414 215.55 136.751 215.249 138.828C214.948 140.905 217.23 142.957 220.294 143.403C223.358 143.848 225.983 142.506 226.284 140.429C226.332 140.116 226.097 139.773 226.14 139.484L228.548 123.007C229.748 124.517 231.251 125.76 232.96 126.655C235.242 127.823 235.97 131.074 235.97 131.074C235.97 131.074 236.675 126.505 233.002 123.651Z" fill="#E0E0E0"/>
<path d="M231.874 185.137L230.218 183.837C229.924 183.606 229.58 183.446 229.213 183.371C228.846 183.295 228.467 183.307 228.105 183.404L219.804 185.812C219.456 185.907 219.139 186.092 218.885 186.347C218.63 186.603 218.447 186.92 218.353 187.269L217.835 189.189C217.742 189.537 217.559 189.855 217.306 190.111C217.053 190.367 216.737 190.554 216.39 190.652L211.43 192.079C211.152 192.156 210.893 192.291 210.669 192.474C210.446 192.657 210.263 192.884 210.132 193.142C210.001 193.4 209.925 193.682 209.909 193.97C209.893 194.259 209.938 194.547 210.039 194.818L219.635 222.094C219.841 222.66 220.251 223.129 220.784 223.407C221.318 223.686 221.937 223.754 222.519 223.599L261.805 212.282C262.084 212.204 262.343 212.069 262.566 211.886C262.79 211.703 262.973 211.476 263.103 211.218C263.234 210.961 263.31 210.679 263.326 210.39C263.342 210.102 263.298 209.813 263.196 209.543L253.6 182.266C253.395 181.7 252.985 181.232 252.451 180.953C251.917 180.674 251.298 180.606 250.716 180.761L233.987 185.577C233.625 185.673 233.245 185.683 232.878 185.607C232.512 185.531 232.168 185.37 231.874 185.137Z" fill="#E0E0E0"/>
<path d="M255.404 182.262L219.411 192.641C218.677 192.866 218.05 193.35 217.647 194.004C217.245 194.658 217.095 195.436 217.225 196.193L221.981 220.839C222.044 221.193 222.181 221.531 222.384 221.828C222.587 222.126 222.851 222.377 223.159 222.564C223.466 222.752 223.81 222.871 224.168 222.915C224.525 222.959 224.888 222.926 225.232 222.819L261.226 212.453C261.96 212.228 262.587 211.743 262.989 211.089C263.391 210.436 263.541 209.658 263.411 208.901L258.655 184.261C258.595 183.905 258.459 183.565 258.257 183.266C258.055 182.966 257.791 182.713 257.483 182.524C257.176 182.335 256.831 182.213 256.472 182.168C256.114 182.123 255.749 182.155 255.404 182.262Z" fill="#E6E6E6"/>
<path d="M150.499 257.391C214.963 257.391 267.221 254.34 267.221 250.576C267.221 246.813 214.963 243.762 150.499 243.762C86.0355 243.762 33.7773 246.813 33.7773 250.576C33.7773 254.34 86.0355 257.391 150.499 257.391Z" fill="#F5F5F5"/>
<path d="M270.935 143.879C270.935 178.103 245.049 205.945 213.281 205.945C181.514 205.945 155.628 178.103 155.628 143.879C155.628 109.655 181.514 81.813 213.281 81.813C232.888 81.813 250.894 92.348 261.598 110.023L257.384 112.858L268.443 116.265L270.333 104.225L266.378 106.868C254.645 87.3935 234.833 75.793 213.281 75.793C178.407 75.793 150.035 106.338 150.035 143.879C150.035 181.42 178.407 211.965 213.281 211.965C248.155 211.965 276.527 181.426 276.527 143.879H270.935Z" fill="#303030"/>
<path opacity="0.7" d="M270.935 143.879C270.935 178.103 245.049 205.945 213.281 205.945C181.514 205.945 155.628 178.103 155.628 143.879C155.628 109.655 181.514 81.813 213.281 81.813C232.888 81.813 250.894 92.348 261.598 110.023L257.384 112.858L268.443 116.265L270.333 104.225L266.378 106.868C254.645 87.3935 234.833 75.793 213.281 75.793C178.407 75.793 150.035 106.338 150.035 143.879C150.035 181.42 178.407 211.965 213.281 211.965C248.155 211.965 276.527 181.426 276.527 143.879H270.935Z" fill="white"/>
<path d="M221.799 131.021V122.84L217.88 122.442C217.371 119.768 216.382 117.209 214.961 114.887L217.477 111.612L212.101 105.827L209.091 108.536C206.983 107.033 204.597 105.965 202.072 105.394L201.699 101.18H194.077L193.704 105.394C191.179 105.965 188.793 107.033 186.685 108.536L183.675 105.827L178.299 111.612L180.809 114.887C179.393 117.211 178.405 119.77 177.89 122.442L173.977 122.84V131.021L177.89 131.418C178.405 134.092 179.394 136.653 180.809 138.979L178.299 142.248L183.675 148.033L186.685 145.33C188.794 146.831 191.18 147.899 193.704 148.473L194.077 152.687H201.669L202.042 148.473C204.566 147.899 206.952 146.831 209.061 145.33L212.071 148.033L217.447 142.248L214.931 138.979C216.351 136.655 217.341 134.094 217.85 131.418L221.799 131.021ZM197.876 138.01C192.193 138.01 187.588 133.05 187.588 126.933C187.588 120.817 192.193 115.856 197.876 115.856C203.559 115.856 208.164 120.811 208.164 126.933C208.164 133.056 203.559 138.01 197.876 138.01Z" fill="#303030"/>
<path d="M252.603 154.114V147.709L249.539 147.402C249.137 145.306 248.362 143.3 247.251 141.478L249.22 138.913L245.006 134.38L242.604 136.499C240.951 135.323 239.08 134.486 237.102 134.037L236.813 130.738H230.859L230.57 134.037C228.591 134.486 226.721 135.323 225.068 136.499L222.66 134.38L218.446 138.913L220.414 141.478C219.303 143.3 218.529 145.306 218.127 147.402L215.062 147.709V154.114L218.127 154.427C218.53 156.522 219.304 158.528 220.414 160.351L218.524 162.915L222.738 167.454L225.146 165.329C226.798 166.508 228.669 167.345 230.648 167.791L230.937 171.096H236.891L237.18 167.791C239.16 167.345 241.03 166.508 242.682 165.329L245.06 167.454L249.274 162.915L247.306 160.357C248.416 158.534 249.19 156.528 249.593 154.433L252.603 154.114ZM233.857 159.592C229.408 159.592 225.796 155.703 225.796 150.911C225.796 146.119 229.408 142.23 233.857 142.23C238.306 142.23 241.924 146.113 241.924 150.911C241.924 155.709 238.312 159.598 233.857 159.598V159.592Z" fill="#303030"/>
<path d="M221.799 172.33V166.942L219.223 166.677C218.881 164.919 218.228 163.235 217.296 161.705L218.952 159.556L215.418 155.745L213.419 157.551C212.032 156.559 210.46 155.855 208.796 155.48L208.555 152.711H203.553L203.306 155.48C201.644 155.857 200.075 156.561 198.688 157.551L196.69 155.745L193.15 159.532L194.806 161.681C193.875 163.211 193.225 164.895 192.885 166.653L190.309 166.918V172.306L192.885 172.565C193.214 174.343 193.865 176.047 194.806 177.592L193.15 179.747L196.69 183.551L198.688 181.745C200.075 182.736 201.644 183.44 203.306 183.816L203.553 186.592H208.555L208.796 183.816C210.46 183.441 212.032 182.737 213.419 181.745L215.418 183.551L218.952 179.747L217.32 177.592C218.255 176.063 218.907 174.378 219.247 172.619L221.799 172.33ZM206.051 176.923C202.312 176.923 199.278 173.661 199.278 169.633C199.278 165.606 202.288 162.343 206.051 162.343C209.813 162.343 212.823 165.606 212.823 169.633C212.823 173.661 209.795 176.923 206.051 176.923Z" fill="#303030"/>
<path opacity="0.7" d="M221.799 131.021V122.84L217.88 122.442C217.371 119.768 216.382 117.209 214.961 114.887L217.477 111.612L212.101 105.827L209.091 108.536C206.983 107.033 204.597 105.965 202.072 105.394L201.699 101.18H194.077L193.704 105.394C191.179 105.965 188.793 107.033 186.685 108.536L183.675 105.827L178.299 111.612L180.809 114.887C179.393 117.211 178.405 119.77 177.89 122.442L173.977 122.84V131.021L177.89 131.418C178.405 134.092 179.394 136.653 180.809 138.979L178.299 142.248L183.675 148.033L186.685 145.33C188.794 146.831 191.18 147.899 193.704 148.473L194.077 152.687H201.669L202.042 148.473C204.566 147.899 206.952 146.831 209.061 145.33L212.071 148.033L217.447 142.248L214.931 138.979C216.351 136.655 217.341 134.094 217.85 131.418L221.799 131.021ZM197.876 138.01C192.193 138.01 187.588 133.05 187.588 126.933C187.588 120.817 192.193 115.856 197.876 115.856C203.559 115.856 208.164 120.811 208.164 126.933C208.164 133.056 203.559 138.01 197.876 138.01Z" fill="white"/>
<path opacity="0.5" d="M252.603 154.114V147.709L249.539 147.402C249.137 145.306 248.362 143.3 247.251 141.478L249.22 138.913L245.006 134.38L242.604 136.499C240.951 135.323 239.08 134.486 237.102 134.037L236.813 130.738H230.859L230.57 134.037C228.591 134.486 226.721 135.323 225.068 136.499L222.66 134.38L218.446 138.913L220.414 141.478C219.303 143.3 218.529 145.306 218.127 147.402L215.062 147.709V154.114L218.127 154.427C218.53 156.522 219.304 158.528 220.414 160.351L218.524 162.915L222.738 167.454L225.146 165.329C226.798 166.508 228.669 167.345 230.648 167.791L230.937 171.096H236.891L237.18 167.791C239.16 167.345 241.03 166.508 242.682 165.329L245.06 167.454L249.274 162.915L247.306 160.357C248.416 158.534 249.19 156.528 249.593 154.433L252.603 154.114ZM233.857 159.592C229.408 159.592 225.796 155.703 225.796 150.911C225.796 146.119 229.408 142.23 233.857 142.23C238.306 142.23 241.924 146.113 241.924 150.911C241.924 155.709 238.312 159.598 233.857 159.598V159.592Z" fill="white"/>
<path opacity="0.3" d="M221.799 172.33V166.942L219.223 166.677C218.881 164.919 218.228 163.235 217.296 161.705L218.952 159.556L215.418 155.745L213.419 157.551C212.032 156.559 210.46 155.855 208.796 155.48L208.555 152.711H203.553L203.306 155.48C201.644 155.857 200.075 156.561 198.688 157.551L196.69 155.745L193.15 159.532L194.806 161.681C193.875 163.211 193.225 164.895 192.885 166.653L190.309 166.918V172.306L192.885 172.565C193.214 174.343 193.865 176.047 194.806 177.592L193.15 179.747L196.69 183.551L198.688 181.745C200.075 182.736 201.644 183.44 203.306 183.816L203.553 186.592H208.555L208.796 183.816C210.46 183.441 212.032 182.737 213.419 181.745L215.418 183.551L218.952 179.747L217.32 177.592C218.255 176.063 218.907 174.378 219.247 172.619L221.799 172.33ZM206.051 176.923C202.312 176.923 199.278 173.661 199.278 169.633C199.278 165.606 202.288 162.343 206.051 162.343C209.813 162.343 212.823 165.606 212.823 169.633C212.823 173.661 209.795 176.923 206.051 176.923Z" fill="white"/>
<path opacity="0.1" d="M211.791 52.5382V235.016C211.791 235.37 211.721 235.721 211.584 236.047C211.447 236.373 211.247 236.669 210.995 236.917C210.743 237.165 210.444 237.361 210.116 237.493C209.787 237.624 209.436 237.689 209.082 237.683H124.164C123.53 237.687 122.92 237.44 122.466 236.997C122.232 236.768 122.047 236.493 121.923 236.19C121.799 235.886 121.738 235.561 121.744 235.233V52.3215C121.733 52.0384 121.777 51.7559 121.875 51.4901C121.973 51.2243 122.123 50.9804 122.315 50.7724C122.507 50.5644 122.739 50.3964 122.996 50.2779C123.254 50.1594 123.532 50.0929 123.815 50.082H147.931C148.268 50.0887 148.595 50.1952 148.872 50.3881C149.148 50.581 149.361 50.8516 149.484 51.1656L150.501 53.6278C150.625 53.94 150.839 54.2085 151.115 54.3993C151.392 54.59 151.719 54.6944 152.055 54.6994H181.553C181.887 54.6975 182.213 54.5963 182.489 54.4088C182.766 54.2212 182.98 53.9556 183.106 53.6459L184.099 51.1716C184.222 50.8574 184.435 50.5864 184.711 50.3926C184.988 50.1988 185.315 50.0908 185.652 50.082H209.425C209.742 50.0875 210.055 50.1554 210.345 50.2819C210.635 50.4084 210.898 50.591 211.118 50.8191C211.338 51.0473 211.51 51.3166 211.626 51.6116C211.741 51.9066 211.797 52.2215 211.791 52.5382Z" fill="black"/>
<path d="M197.402 57.1089V230.485C197.403 230.821 197.337 231.154 197.208 231.464C197.078 231.774 196.888 232.056 196.649 232.292C196.41 232.528 196.126 232.714 195.814 232.838C195.502 232.963 195.168 233.025 194.832 233.019H114.164C113.57 233.023 112.998 232.791 112.574 232.375C112.353 232.156 112.178 231.894 112.061 231.605C111.943 231.317 111.884 231.007 111.888 230.696V56.9042C111.868 56.3672 112.061 55.8441 112.423 55.4476C112.786 55.0512 113.29 54.8132 113.827 54.7852H136.739C137.06 54.7914 137.371 54.8933 137.634 55.0778C137.897 55.2622 138.099 55.5209 138.214 55.8206L139.159 58.1564C139.276 58.4527 139.479 58.7075 139.742 58.8886C140.004 59.0697 140.315 59.1689 140.634 59.1737H168.675C168.993 59.1715 169.303 59.0747 169.565 58.8956C169.828 58.7166 170.031 58.4634 170.15 58.1684L171.095 55.8206C171.21 55.5213 171.412 55.2631 171.675 55.0788C171.937 54.8944 172.249 54.7922 172.57 54.7852H195.151C195.755 54.8024 196.328 55.055 196.749 55.4891C197.17 55.9232 197.404 56.5044 197.402 57.1089Z" fill="#303030"/>
<path opacity="0.6" d="M122.492 61.7617H123.684V60.1724H122.492V61.7617Z" fill="white"/>
<path opacity="0.6" d="M120.554 61.7617H121.746V59.6427H120.554V61.7617Z" fill="white"/>
<path opacity="0.6" d="M118.609 61.7539H119.801V59.1051H118.609V61.7539Z" fill="white"/>
<path opacity="0.6" d="M116.664 61.7539H117.855V58.5753H116.664V61.7539Z" fill="white"/>
<path opacity="0.6" d="M186.478 59.5859H185.773V61.1752H186.478V59.5859Z" fill="white"/>
<path opacity="0.6" d="M186.965 61.7539H192.594V59.0028H186.965V61.7539Z" fill="white"/>
<path opacity="0.3" d="M127.504 156.949H181.756C183.448 156.949 184.82 155.579 184.82 153.888C184.82 152.197 183.448 150.827 181.756 150.827H127.504C125.812 150.827 124.44 152.197 124.44 153.888C124.44 155.579 125.812 156.949 127.504 156.949Z" fill="black"/>
<path d="M157.083 151.374C157.423 151.357 157.764 151.41 158.083 151.529C158.402 151.648 158.694 151.83 158.941 152.065C159.188 152.3 159.384 152.583 159.519 152.896C159.653 153.209 159.722 153.547 159.722 153.887C159.722 154.228 159.653 154.566 159.519 154.879C159.384 155.192 159.188 155.475 158.941 155.71C158.694 155.945 158.402 156.127 158.083 156.246C157.764 156.365 157.423 156.417 157.083 156.401H127.507C127.166 156.417 126.826 156.365 126.507 156.246C126.187 156.127 125.895 155.945 125.648 155.71C125.401 155.475 125.205 155.192 125.071 154.879C124.936 154.566 124.867 154.228 124.867 153.887C124.867 153.547 124.936 153.209 125.071 152.896C125.205 152.583 125.401 152.3 125.648 152.065C125.895 151.83 126.187 151.648 126.507 151.529C126.826 151.41 127.166 151.357 127.507 151.374H157.083Z" fill="#303030"/>
<path opacity="0.3" d="M157.083 151.374C157.423 151.357 157.764 151.41 158.083 151.529C158.402 151.648 158.694 151.83 158.941 152.065C159.188 152.3 159.384 152.583 159.519 152.896C159.653 153.209 159.722 153.547 159.722 153.887C159.722 154.228 159.653 154.566 159.519 154.879C159.384 155.192 159.188 155.475 158.941 155.71C158.694 155.945 158.402 156.127 158.083 156.246C157.764 156.365 157.423 156.417 157.083 156.401H127.507C127.166 156.417 126.826 156.365 126.507 156.246C126.187 156.127 125.895 155.945 125.648 155.71C125.401 155.475 125.205 155.192 125.071 154.879C124.936 154.566 124.867 154.228 124.867 153.887C124.867 153.547 124.936 153.209 125.071 152.896C125.205 152.583 125.401 152.3 125.648 152.065C125.895 151.83 126.187 151.648 126.507 151.529C126.826 151.41 127.166 151.357 127.507 151.374H157.083Z" fill="white"/>
<path d="M147.292 148.835L146.594 144.934H147.196L147.683 147.974L148.177 144.934H148.779L148.093 148.835H147.292Z" fill="white"/>
<path d="M149.297 148.833V144.926H150.97V145.528H149.899V146.593H150.687V147.195H149.899V148.261H150.982V148.863L149.297 148.833Z" fill="white"/>
<path d="M152.308 144.933C152.441 144.922 152.575 144.94 152.7 144.987C152.825 145.034 152.938 145.108 153.03 145.204C153.172 145.392 153.243 145.624 153.229 145.86V146.462C153.231 146.594 153.204 146.725 153.15 146.846C153.096 146.966 153.016 147.074 152.916 147.16L153.356 148.864H152.73L152.368 147.395H151.977V148.864H151.375V144.963L152.308 144.933ZM152.657 145.872C152.664 145.826 152.661 145.779 152.646 145.735C152.632 145.691 152.607 145.65 152.574 145.618C152.542 145.585 152.501 145.56 152.457 145.546C152.413 145.531 152.366 145.528 152.32 145.535H151.965V146.781H152.308C152.353 146.782 152.397 146.774 152.439 146.758C152.48 146.741 152.518 146.716 152.549 146.685C152.58 146.653 152.605 146.615 152.622 146.574C152.638 146.533 152.646 146.488 152.645 146.444L152.657 145.872Z" fill="white"/>
<path d="M153.77 148.25H154.372V148.852H153.77V148.25Z" fill="white"/>
<path d="M155.178 146.028C155.167 145.875 155.188 145.721 155.238 145.576C155.289 145.431 155.369 145.298 155.473 145.185C155.563 145.098 155.669 145.031 155.786 144.986C155.903 144.941 156.028 144.921 156.153 144.927C156.278 144.925 156.401 144.95 156.515 145C156.629 145.05 156.732 145.123 156.815 145.216C156.991 145.396 157.089 145.638 157.086 145.89C157.086 146.156 157.026 146.42 156.912 146.66C156.778 146.906 156.627 147.141 156.46 147.365L156.171 147.792L156.063 147.955L155.906 148.201C155.906 148.201 155.906 148.25 155.906 148.256H157.062V148.858H155.19V148.316C155.224 148.237 155.266 148.163 155.316 148.093C155.352 148.033 155.401 147.967 155.449 147.894L155.599 147.672C155.69 147.551 155.834 147.359 156.021 147.07C156.181 146.854 156.318 146.622 156.43 146.377C156.497 146.23 156.534 146.07 156.538 145.908C156.539 145.799 156.503 145.693 156.436 145.607C156.403 145.565 156.361 145.532 156.313 145.509C156.265 145.486 156.212 145.474 156.159 145.474C156.078 145.475 155.999 145.504 155.935 145.555C155.872 145.606 155.828 145.678 155.81 145.757C155.784 145.831 155.772 145.908 155.774 145.986V146.137H155.172L155.178 146.028Z" fill="white"/>
<path d="M157.492 148.25H158.094V148.852H157.492V148.25Z" fill="white"/>
<path d="M160.351 147.943C160.351 148.191 160.252 148.428 160.077 148.603C159.902 148.778 159.665 148.876 159.417 148.876C159.17 148.876 158.933 148.778 158.758 148.603C158.583 148.428 158.484 148.191 158.484 147.943V145.812C158.484 145.689 158.509 145.567 158.556 145.454C158.603 145.34 158.673 145.237 158.76 145.15C158.847 145.064 158.951 144.995 159.065 144.948C159.178 144.902 159.3 144.878 159.423 144.879C159.546 144.877 159.668 144.9 159.781 144.948C159.894 144.995 159.996 145.066 160.08 145.156C160.167 145.241 160.237 145.343 160.283 145.456C160.33 145.569 160.353 145.69 160.351 145.812V147.943ZM159.749 145.8C159.748 145.755 159.739 145.711 159.722 145.669C159.704 145.628 159.678 145.591 159.646 145.559C159.616 145.528 159.579 145.503 159.539 145.487C159.498 145.47 159.455 145.462 159.411 145.463C159.367 145.462 159.322 145.47 159.281 145.486C159.24 145.503 159.202 145.528 159.171 145.559C159.139 145.591 159.114 145.629 159.098 145.67C159.081 145.711 159.073 145.756 159.074 145.8V147.937C159.073 147.981 159.082 148.024 159.098 148.065C159.115 148.105 159.139 148.142 159.171 148.172C159.201 148.206 159.238 148.232 159.28 148.25C159.321 148.268 159.366 148.276 159.411 148.274C159.456 148.276 159.5 148.267 159.54 148.249C159.581 148.232 159.617 148.205 159.646 148.172C159.678 148.142 159.704 148.106 159.721 148.065C159.739 148.025 159.748 147.981 159.749 147.937V145.8Z" fill="white"/>
<path d="M161.488 145.517V146.354C161.552 146.269 161.637 146.202 161.735 146.161C161.801 146.149 161.868 146.149 161.934 146.161C162.045 146.149 162.157 146.167 162.258 146.215C162.359 146.263 162.445 146.338 162.506 146.432C162.624 146.63 162.678 146.859 162.662 147.088V147.931C162.667 148.061 162.645 148.192 162.599 148.314C162.552 148.436 162.482 148.547 162.391 148.641C162.306 148.729 162.202 148.798 162.088 148.844C161.974 148.89 161.852 148.911 161.729 148.906C161.609 148.91 161.489 148.887 161.379 148.839C161.269 148.791 161.171 148.719 161.091 148.629C160.925 148.452 160.837 148.216 160.844 147.973V147.883L161.404 147.835V147.973C161.404 148.037 161.421 148.1 161.456 148.155C161.49 148.209 161.539 148.253 161.597 148.28C161.629 148.3 161.667 148.31 161.705 148.31C161.946 148.31 162.066 148.184 162.066 147.931V146.974C162.068 146.92 162.057 146.867 162.036 146.818C162.014 146.769 161.981 146.725 161.94 146.691C161.892 146.653 161.832 146.633 161.771 146.637C161.726 146.634 161.681 146.644 161.64 146.665C161.6 146.687 161.566 146.718 161.543 146.757C161.501 146.826 161.478 146.905 161.476 146.986V147.088H160.874V144.957H162.602V145.559L161.488 145.517Z" fill="white"/>
<path d="M143.322 109.03C143.074 109.031 142.829 108.984 142.6 108.89C142.371 108.796 142.163 108.658 141.988 108.484C141.813 108.309 141.674 108.101 141.579 107.873C141.485 107.644 141.437 107.399 141.438 107.151V101.035H142.605V107.157C142.604 107.247 142.621 107.336 142.655 107.419C142.689 107.502 142.74 107.577 142.804 107.639C142.868 107.703 142.944 107.754 143.028 107.788C143.111 107.822 143.201 107.839 143.292 107.838C143.472 107.838 143.645 107.766 143.773 107.639C143.9 107.511 143.972 107.338 143.972 107.157V101.035H145.218V107.157C145.222 107.407 145.174 107.654 145.078 107.884C144.982 108.114 144.839 108.322 144.658 108.494C144.484 108.67 144.276 108.809 144.046 108.901C143.816 108.993 143.569 109.037 143.322 109.03Z" fill="white"/>
<path d="M148.155 101.034C148.413 101.02 148.67 101.062 148.91 101.157C149.15 101.251 149.367 101.396 149.546 101.581C149.872 101.948 150.045 102.427 150.027 102.918V104.068C150.033 104.316 149.987 104.563 149.893 104.793C149.799 105.023 149.658 105.231 149.48 105.404C149.309 105.583 149.103 105.725 148.876 105.822C148.648 105.918 148.403 105.966 148.155 105.964H147.493V108.962H146.289V101.034H148.155ZM148.872 102.936C148.877 102.845 148.863 102.754 148.831 102.669C148.798 102.584 148.748 102.506 148.684 102.441C148.62 102.377 148.543 102.326 148.458 102.293C148.373 102.26 148.282 102.245 148.191 102.25H147.493V104.784H148.215C148.306 104.783 148.395 104.765 148.478 104.73C148.561 104.694 148.636 104.643 148.699 104.579C148.762 104.515 148.812 104.438 148.846 104.355C148.88 104.271 148.897 104.182 148.896 104.092L148.872 102.936Z" fill="white"/>
<path d="M154.715 107.047C154.721 107.296 154.675 107.543 154.581 107.773C154.487 108.003 154.346 108.211 154.167 108.384C153.997 108.563 153.791 108.705 153.563 108.801C153.336 108.898 153.09 108.946 152.843 108.944H150.965V101.027H152.843C153.09 101.024 153.335 101.072 153.563 101.167C153.79 101.262 153.996 101.403 154.167 101.581C154.349 101.757 154.491 101.969 154.586 102.203C154.68 102.438 154.724 102.689 154.715 102.942V107.047ZM152.169 107.758H152.909C152.999 107.758 153.088 107.74 153.171 107.705C153.254 107.67 153.329 107.618 153.391 107.553C153.515 107.421 153.584 107.247 153.584 107.066V102.942C153.585 102.852 153.568 102.763 153.534 102.68C153.5 102.598 153.449 102.523 153.385 102.46C153.326 102.393 153.252 102.34 153.17 102.304C153.088 102.269 152.999 102.252 152.909 102.256H152.187L152.169 107.758Z" fill="white"/>
<path d="M157.082 107.159L156.793 108.965H155.547L156.895 101.055H158.533L159.863 108.965H158.605L158.328 107.159H157.082ZM157.684 102.879L157.245 105.997H158.129L157.684 102.879Z" fill="white"/>
<path d="M161.02 102.231H159.75V101.027H163.476V102.231H162.212V108.962H161.008L161.02 102.231Z" fill="white"/>
<path d="M164.434 108.962V101.027H167.829V102.231H165.626V104.393H167.239V105.597H165.626V107.758H167.829V108.962H164.434Z" fill="white"/>
<path opacity="0.2" d="M164.041 162.281H145.217C143.844 162.281 142.73 163.394 142.73 164.768V168.819C142.73 170.192 143.844 171.305 145.217 171.305H164.041C165.414 171.305 166.528 170.192 166.528 168.819V164.768C166.528 163.394 165.414 162.281 164.041 162.281Z" fill="black"/>
<path d="M148.859 168.521C148.736 168.522 148.614 168.499 148.5 168.453C148.387 168.406 148.283 168.337 148.197 168.25C148.11 168.164 148.041 168.062 147.994 167.949C147.948 167.837 147.924 167.716 147.926 167.594V165.463C147.927 165.215 148.026 164.978 148.201 164.802C148.375 164.627 148.611 164.527 148.859 164.523C148.982 164.523 149.104 164.548 149.217 164.595C149.331 164.642 149.434 164.712 149.521 164.799C149.608 164.886 149.676 164.99 149.723 165.104C149.769 165.218 149.793 165.34 149.792 165.463V165.908H149.19V165.451C149.189 165.36 149.152 165.274 149.088 165.21C149.024 165.146 148.937 165.109 148.847 165.107C148.803 165.108 148.759 165.117 148.719 165.134C148.679 165.152 148.642 165.178 148.612 165.21C148.579 165.241 148.553 165.278 148.536 165.319C148.518 165.361 148.509 165.405 148.51 165.451V167.588C148.51 167.632 148.519 167.675 148.537 167.715C148.554 167.756 148.58 167.792 148.612 167.822C148.643 167.854 148.679 167.878 148.72 167.895C148.76 167.911 148.803 167.92 148.847 167.919C148.891 167.92 148.935 167.912 148.976 167.895C149.018 167.879 149.055 167.855 149.087 167.824C149.119 167.793 149.144 167.757 149.162 167.716C149.18 167.676 149.189 167.632 149.19 167.588V167.046H149.792V167.594C149.794 167.716 149.771 167.837 149.725 167.95C149.678 168.063 149.609 168.165 149.521 168.25C149.435 168.337 149.331 168.406 149.218 168.453C149.104 168.499 148.982 168.522 148.859 168.521Z" fill="white"/>
<path d="M150.887 167.574L150.743 168.471H150.141L150.803 164.57H151.616L152.272 168.471H151.67L151.531 167.574H150.887ZM151.194 165.461L150.977 167.002H151.411L151.194 165.461Z" fill="white"/>
<path d="M153.416 164.562L154.193 167.187V164.562H154.795V168.469H154.163L153.356 165.965V168.469H152.754V164.562H153.416Z" fill="white"/>
<path d="M156.234 168.521C156.111 168.522 155.989 168.499 155.875 168.453C155.762 168.406 155.658 168.337 155.572 168.25C155.485 168.164 155.416 168.062 155.369 167.949C155.323 167.837 155.299 167.716 155.301 167.594V165.463C155.302 165.215 155.401 164.978 155.576 164.802C155.75 164.627 155.986 164.527 156.234 164.523C156.357 164.523 156.479 164.548 156.592 164.595C156.706 164.642 156.809 164.712 156.896 164.799C156.983 164.886 157.051 164.99 157.098 165.104C157.144 165.218 157.168 165.34 157.167 165.463V165.908H156.565V165.451C156.564 165.36 156.527 165.274 156.463 165.21C156.399 165.146 156.312 165.109 156.222 165.107C156.178 165.108 156.134 165.117 156.094 165.134C156.054 165.152 156.017 165.178 155.987 165.21C155.954 165.241 155.928 165.278 155.911 165.319C155.893 165.361 155.884 165.405 155.885 165.451V167.588C155.885 167.632 155.894 167.675 155.912 167.715C155.929 167.756 155.955 167.792 155.987 167.822C156.018 167.854 156.054 167.878 156.095 167.895C156.135 167.911 156.178 167.92 156.222 167.919C156.266 167.92 156.31 167.912 156.351 167.895C156.393 167.879 156.43 167.855 156.462 167.824C156.494 167.793 156.519 167.757 156.537 167.716C156.555 167.676 156.564 167.632 156.565 167.588V167.046H157.167V167.594C157.169 167.716 157.146 167.837 157.1 167.95C157.053 168.063 156.984 168.165 156.896 168.25C156.81 168.337 156.706 168.406 156.593 168.453C156.479 168.499 156.357 168.522 156.234 168.521Z" fill="white"/>
<path d="M157.648 168.469V164.562H159.328V165.164H158.238V166.23H159.033V166.832H158.238V167.898H159.328V168.5L157.648 168.469Z" fill="white"/>
<path d="M161.338 168.471H159.73V164.57H160.332V167.887H161.338V168.471Z" fill="white"/>
<g opacity="0.3">
<path d="M176.151 205.211H133.108C133.008 205.211 132.908 205.191 132.816 205.152C132.723 205.114 132.639 205.058 132.568 204.987C132.497 204.916 132.44 204.831 132.402 204.739C132.364 204.646 132.344 204.546 132.344 204.446C132.345 204.244 132.427 204.051 132.57 203.909C132.713 203.767 132.907 203.687 133.108 203.688H176.151C176.353 203.687 176.547 203.767 176.69 203.909C176.833 204.051 176.914 204.244 176.916 204.446C176.916 204.649 176.835 204.843 176.692 204.987C176.549 205.13 176.354 205.211 176.151 205.211Z" fill="white"/>
<path d="M181.635 209.786H127.624C127.421 209.786 127.227 209.705 127.083 209.562C126.94 209.419 126.859 209.224 126.859 209.021C126.867 208.824 126.951 208.638 127.094 208.502C127.237 208.366 127.427 208.291 127.624 208.293H181.635C181.735 208.292 181.834 208.311 181.927 208.349C182.019 208.387 182.103 208.443 182.174 208.513C182.244 208.584 182.3 208.668 182.338 208.76C182.376 208.853 182.395 208.952 182.394 209.052C182.388 209.248 182.305 209.435 182.163 209.572C182.022 209.709 181.832 209.786 181.635 209.786Z" fill="white"/>
<path d="M170.667 214.355H138.593C138.493 214.356 138.393 214.337 138.301 214.299C138.208 214.261 138.123 214.206 138.052 214.135C137.981 214.065 137.925 213.981 137.886 213.888C137.848 213.796 137.828 213.697 137.828 213.597C137.828 213.394 137.909 213.199 138.052 213.056C138.195 212.913 138.39 212.832 138.593 212.832H170.667C170.87 212.832 171.064 212.913 171.208 213.056C171.351 213.199 171.432 213.394 171.432 213.597C171.432 213.697 171.412 213.796 171.373 213.888C171.335 213.981 171.279 214.065 171.207 214.135C171.136 214.206 171.052 214.261 170.959 214.299C170.867 214.337 170.767 214.356 170.667 214.355Z" fill="white"/>
<path d="M181.635 223.5H127.624C127.524 223.501 127.425 223.481 127.332 223.444C127.239 223.406 127.155 223.35 127.084 223.28C127.013 223.209 126.956 223.125 126.918 223.033C126.879 222.94 126.859 222.841 126.859 222.741C126.859 222.538 126.94 222.344 127.083 222.201C127.227 222.057 127.421 221.977 127.624 221.977H181.635C181.736 221.975 181.837 221.994 181.931 222.031C182.025 222.069 182.11 222.125 182.182 222.197C182.253 222.268 182.31 222.353 182.349 222.446C182.387 222.54 182.407 222.64 182.406 222.741C182.407 222.842 182.387 222.942 182.349 223.035C182.31 223.128 182.253 223.213 182.181 223.284C182.109 223.354 182.024 223.41 181.93 223.447C181.836 223.484 181.736 223.502 181.635 223.5Z" fill="white"/>
</g>
<g opacity="0.1">
<path d="M150.345 59.1617L125.717 151.406L125.44 152.442L125.001 154.103L124.718 155.139L111.859 203.299V145.031L135.951 54.7852H136.74C137.061 54.7914 137.373 54.8933 137.636 55.0778C137.898 55.2622 138.1 55.5209 138.215 55.8206L139.16 58.1564C139.278 58.4527 139.481 58.7075 139.743 58.8886C140.006 59.0697 140.316 59.1689 140.635 59.1737L150.345 59.1617Z" fill="white"/>
<path d="M197.405 106.273V164.565L182.041 222.098L181.674 223.495L179.14 232.988H163.578L166.113 223.501L166.516 221.978L168.551 214.357L168.954 212.833L169.773 209.781L170.176 208.258L170.989 205.212L171.398 203.689L184.203 155.734V155.728L184.793 153.512V153.506L197.405 106.273Z" fill="white"/>
<path d="M158.781 59.1602L134.303 150.827L134.159 151.375L132.816 156.401L132.672 156.949L112.577 232.374C112.356 232.154 112.181 231.892 112.063 231.604C111.945 231.315 111.887 231.006 111.891 230.694V221.796L129.204 156.949L129.349 156.401L130.691 151.375L130.836 150.827L155.277 59.1602H158.781Z" fill="white"/>
</g>
<path d="M242.604 214.799C241.641 213.216 240.052 214.595 240.052 214.595C240.281 211.555 237.481 209.472 237.481 209.472C237.481 209.472 240.732 209.472 241.19 206.371C241.647 203.271 240.052 204.71 238.565 204.692C237.078 204.674 235.519 209.02 237.481 211.464C239.444 213.909 238.92 218.086 234.387 222.102C233.3 223.115 232.487 224.387 232.021 225.798C232.364 222.108 232.557 216.912 231.467 213.439C229.625 207.545 233.141 205.962 234.158 203.012C235.176 200.063 231.467 197.594 231.467 197.594C231.467 197.594 234.953 196.011 233.273 194.193C231.594 192.375 228.054 192.628 228.054 195C228.054 197.372 230.462 198.275 230.462 198.275C230.462 198.275 233.183 201.11 233.183 202.585C233.183 204.06 230.462 207.232 230.462 207.232C230.462 207.232 231.708 204.517 229.216 204.397C226.724 204.277 225.929 207.569 226.946 209.044C227.964 210.519 229.667 209.273 229.667 209.273C229.774 210.992 230.034 212.699 230.444 214.372C230.703 215.221 230.583 218.544 230.366 222.005C229.899 220.747 229.142 219.617 228.156 218.706C223.617 214.685 223.094 210.513 225.056 208.069C227.019 205.625 225.465 201.273 223.973 201.291C222.48 201.309 220.896 199.87 221.354 202.97C221.811 206.07 225.056 206.07 225.056 206.07C225.056 206.07 222.257 208.153 222.486 211.193C222.486 211.193 220.896 209.815 219.933 211.398C218.217 214.234 222.203 215.991 222.871 214.595C222.871 214.595 231.329 220.585 229.288 229.199L229.764 229.898C229.698 230.59 229.661 231.011 229.661 231.011L230.324 230.728L231.076 231.836C231.047 233.087 231.111 234.339 231.269 235.581L233.291 232.57C231.251 223.956 239.703 217.972 239.703 217.972C240.341 219.393 244.332 217.635 242.604 214.799Z" fill="#303030"/>
<path opacity="0.2" d="M242.604 214.799C241.641 213.216 240.052 214.595 240.052 214.595C240.281 211.555 237.481 209.472 237.481 209.472C237.481 209.472 240.732 209.472 241.19 206.371C241.647 203.271 240.052 204.71 238.565 204.692C237.078 204.674 235.519 209.02 237.481 211.464C239.444 213.909 238.92 218.086 234.387 222.102C233.3 223.115 232.487 224.387 232.021 225.798C232.364 222.108 232.557 216.912 231.467 213.439C229.625 207.545 233.141 205.962 234.158 203.012C235.176 200.063 231.467 197.594 231.467 197.594C231.467 197.594 234.953 196.011 233.273 194.193C231.594 192.375 228.054 192.628 228.054 195C228.054 197.372 230.462 198.275 230.462 198.275C230.462 198.275 233.183 201.11 233.183 202.585C233.183 204.06 230.462 207.232 230.462 207.232C230.462 207.232 231.708 204.517 229.216 204.397C226.724 204.277 225.929 207.569 226.946 209.044C227.964 210.519 229.667 209.273 229.667 209.273C229.774 210.992 230.034 212.699 230.444 214.372C230.703 215.221 230.583 218.544 230.366 222.005C229.899 220.747 229.142 219.617 228.156 218.706C223.617 214.685 223.094 210.513 225.056 208.069C227.019 205.625 225.465 201.273 223.973 201.291C222.48 201.309 220.896 199.87 221.354 202.97C221.811 206.07 225.056 206.07 225.056 206.07C225.056 206.07 222.257 208.153 222.486 211.193C222.486 211.193 220.896 209.815 219.933 211.398C218.217 214.234 222.203 215.991 222.871 214.595C222.871 214.595 231.329 220.585 229.288 229.199L229.764 229.898C229.698 230.59 229.661 231.011 229.661 231.011L230.324 230.728L231.076 231.836C231.047 233.087 231.111 234.339 231.269 235.581L233.291 232.57C231.251 223.956 239.703 217.972 239.703 217.972C240.341 219.393 244.332 217.635 242.604 214.799Z" fill="#303030"/>
<g opacity="0.3">
<path d="M242.604 214.799C241.641 213.216 240.052 214.595 240.052 214.595C240.281 211.555 237.481 209.472 237.481 209.472C237.481 209.472 240.732 209.472 241.19 206.371C241.647 203.271 240.052 204.71 238.565 204.692C237.078 204.674 235.519 209.02 237.481 211.464C239.444 213.909 238.92 218.086 234.387 222.102C233.3 223.115 232.487 224.387 232.021 225.798C232.364 222.108 232.557 216.912 231.467 213.439C229.625 207.545 233.141 205.962 234.158 203.012C235.176 200.063 231.467 197.594 231.467 197.594C231.467 197.594 234.953 196.011 233.273 194.193C231.594 192.375 228.054 192.628 228.054 195C228.054 197.372 230.462 198.275 230.462 198.275C230.462 198.275 233.183 201.11 233.183 202.585C233.183 204.06 230.462 207.232 230.462 207.232C230.462 207.232 231.708 204.517 229.216 204.397C226.724 204.277 225.929 207.569 226.946 209.044C227.964 210.519 229.667 209.273 229.667 209.273C229.774 210.992 230.034 212.699 230.444 214.372C230.703 215.221 230.583 218.544 230.366 222.005C229.899 220.747 229.142 219.617 228.156 218.706C223.617 214.685 223.094 210.513 225.056 208.069C227.019 205.625 225.465 201.273 223.973 201.291C222.48 201.309 220.896 199.87 221.354 202.97C221.811 206.07 225.056 206.07 225.056 206.07C225.056 206.07 222.257 208.153 222.486 211.193C222.486 211.193 220.896 209.815 219.933 211.398C218.217 214.234 222.203 215.991 222.871 214.595C222.871 214.595 231.329 220.585 229.288 229.199L229.764 229.898C229.698 230.59 229.661 231.011 229.661 231.011L230.324 230.728L231.076 231.836C231.047 233.087 231.111 234.339 231.269 235.581L233.291 232.57C231.251 223.956 239.703 217.972 239.703 217.972C240.341 219.393 244.332 217.635 242.604 214.799Z" fill="black"/>
<path opacity="0.2" d="M242.604 214.799C241.641 213.216 240.052 214.595 240.052 214.595C240.281 211.555 237.481 209.472 237.481 209.472C237.481 209.472 240.732 209.472 241.19 206.371C241.647 203.271 240.052 204.71 238.565 204.692C237.078 204.674 235.519 209.02 237.481 211.464C239.444 213.909 238.92 218.086 234.387 222.102C233.3 223.115 232.487 224.387 232.021 225.798C232.364 222.108 232.557 216.912 231.467 213.439C229.625 207.545 233.141 205.962 234.158 203.012C235.176 200.063 231.467 197.594 231.467 197.594C231.467 197.594 234.953 196.011 233.273 194.193C231.594 192.375 228.054 192.628 228.054 195C228.054 197.372 230.462 198.275 230.462 198.275C230.462 198.275 233.183 201.11 233.183 202.585C233.183 204.06 230.462 207.232 230.462 207.232C230.462 207.232 231.708 204.517 229.216 204.397C226.724 204.277 225.929 207.569 226.946 209.044C227.964 210.519 229.667 209.273 229.667 209.273C229.774 210.992 230.034 212.699 230.444 214.372C230.703 215.221 230.583 218.544 230.366 222.005C229.899 220.747 229.142 219.617 228.156 218.706C223.617 214.685 223.094 210.513 225.056 208.069C227.019 205.625 225.465 201.273 223.973 201.291C222.48 201.309 220.896 199.87 221.354 202.97C221.811 206.07 225.056 206.07 225.056 206.07C225.056 206.07 222.257 208.153 222.486 211.193C222.486 211.193 220.896 209.815 219.933 211.398C218.217 214.234 222.203 215.991 222.871 214.595C222.871 214.595 231.329 220.585 229.288 229.199L229.764 229.898C229.698 230.59 229.661 231.011 229.661 231.011L230.324 230.728L231.076 231.836C231.047 233.087 231.111 234.339 231.269 235.581L233.291 232.57C231.251 223.956 239.703 217.972 239.703 217.972C240.341 219.393 244.332 217.635 242.604 214.799Z" fill="black"/>
</g>
<path d="M240.955 251.552H221.589L219.5 230.344H243.044L240.955 251.552Z" fill="#303030"/>
<path opacity="0.3" d="M240.955 251.552H221.589L219.5 230.344H243.044L240.955 251.552Z" fill="white"/>
<path d="M244.08 228.008H218.465V232.685H244.08V228.008Z" fill="#303030"/>
<path opacity="0.5" d="M244.08 228.008H218.465V232.685H244.08V228.008Z" fill="white"/>
<path d="M95.0469 108.266C97.3285 108.374 106.894 121.221 106.894 121.221L110.446 116.597C110.446 116.597 115.924 127.241 113.215 132.303C110.506 137.366 96.2268 123.526 96.2268 123.526L95.0469 108.266Z" fill="#303030"/>
<path opacity="0.6" d="M95.0469 108.27L95.986 118.504L96.2268 123.512C96.2268 123.512 98.5746 125.788 101.542 128.154C105.901 131.633 111.602 135.305 113.215 132.295C115.924 127.233 110.446 116.589 110.446 116.589L106.894 121.207V121.17C106.328 120.4 97.2562 108.36 95.0469 108.27Z" fill="white"/>
<path opacity="0.2" d="M95.9883 118.518L96.2291 123.526C96.2291 123.526 98.5769 125.802 101.545 128.168C101.828 122.148 96.2291 113.395 96.2291 113.395L95.9883 118.518Z" fill="black"/>
<path opacity="0.2" d="M106.896 121.218L106.384 122.193L107.877 127.991C107.877 127.991 103.765 124.252 106.384 120.586L106.896 121.218Z" fill="black"/>
<path d="M95.4583 140.389L76.1943 141.876C76.1943 141.876 75.9354 130.371 74.3883 124.382C73.8886 122.443 73.2626 120.264 72.4679 117.76C72.1308 116.688 71.7636 115.556 71.3603 114.346C70.9569 113.136 70.5897 112.023 70.1562 110.734C72.7911 109.894 75.483 109.244 78.211 108.79C81.0914 108.278 84.0043 107.97 86.928 107.869C90.7025 107.839 95.0429 108.266 95.0429 108.266C95.0429 108.266 95.6449 108.417 96.0483 112.414C96.4095 116.188 96.2409 126.717 95.4583 140.389Z" fill="#303030"/>
<path opacity="0.6" d="M95.4583 140.386L76.1943 141.873C76.1943 141.873 76.1943 141.638 76.1943 141.211C76.11 138.688 75.7308 129.508 74.3883 124.355C74.0331 122.97 73.6117 121.459 73.1061 119.792C72.9074 119.123 72.6967 118.431 72.4679 117.709C72.1308 116.637 71.7636 115.505 71.3603 114.295C70.9569 113.085 70.5897 111.972 70.1562 110.683C72.7911 109.843 75.483 109.193 78.211 108.739C81.0914 108.227 84.0043 107.92 86.928 107.818C90.7025 107.788 95.0429 108.215 95.0429 108.215C95.0429 108.215 95.6449 108.366 96.0483 112.363C96.4095 116.186 96.2409 126.715 95.4583 140.386Z" fill="white"/>
<path d="M71.2773 237.852L74.185 239.562C75.5489 237.727 77.0246 235.978 78.6037 234.324C79.4465 233.433 80.3314 232.446 81.2525 231.387C83.0946 229.274 85.0872 226.86 87.1762 224.265L89.0484 221.923C96.3205 212.761 104.195 201.997 107.157 194.719C108.072 192.455 108.517 190.535 108.318 189.096C107.716 184.75 106.031 178.206 104.104 171.885C101.167 162.253 97.8617 153.066 97.8617 153.066L89.6985 166.822C89.6985 166.822 92.1908 172.764 94.4604 179.091C96.6938 185.304 98.7105 191.895 97.964 193.611C97.8918 193.78 97.8015 193.978 97.6991 194.213C96.3506 197.006 92.6182 203.333 88.3802 210.323L87.0859 212.448C84.8103 216.18 82.4444 220.015 80.2532 223.537C79.3983 224.921 78.5676 226.258 77.7789 227.522C74.0465 233.5 71.2773 237.852 71.2773 237.852Z" fill="#EEC1BB"/>
<path opacity="0.2" d="M89.2137 221.915C85.373 226.731 81.6827 231.126 78.9376 234.317C78.5463 232.354 78.149 230.03 77.8359 227.496C81.0085 222.403 84.8914 216.118 88.4191 210.297C88.3442 214.186 88.6101 218.073 89.2137 221.915Z" fill="black"/>
<path d="M74.7195 182.113C75.7249 188.969 77.1275 195.182 78.0907 198.884C78.6506 201.106 79.0299 202.418 79.0299 202.418C79.0434 209.459 79.4575 216.494 80.27 223.488C80.577 226.245 80.9081 228.906 81.2512 231.356C82.5154 240.471 83.8459 247.008 83.8459 247.008L87.3074 246.557L87.1749 224.229L87.1027 212.393L87.0064 196.29L86.9702 193.484L86.8017 181.24L86.5549 163.18L74.5149 157.762C72.9015 164.655 73.5035 173.853 74.7195 182.113Z" fill="#EEC1BB"/>
<path opacity="0.2" d="M104.143 172.132L93.6682 176.894C91.6515 171.476 89.707 166.822 89.707 166.822L97.828 153.066C97.828 153.066 101.133 162.223 104.071 171.885L104.143 172.132Z" fill="black"/>
<path opacity="0.2" d="M86.7644 178.578L74.3511 179.396C73.4 171.889 73.0749 163.925 74.5137 157.809L86.5537 163.227L86.7644 178.578Z" fill="black"/>
<path d="M71.5406 235.948C71.8958 235.689 74.8938 240.162 74.8938 240.162C74.8938 240.162 74.2255 244.846 75.58 247.862C76.9345 250.878 74.3038 250.625 72.1185 247.766L66.7005 240.692C65.1654 238.675 67.8684 238.621 71.5406 235.948Z" fill="#263238"/>
<path d="M75.9116 243.572C75.2313 243.415 74.7919 241.471 74.7076 241.085C74.7016 241.068 74.7016 241.049 74.7076 241.031C74.7037 241.017 74.7037 241.003 74.7076 240.989V240.953C74.7232 240.947 74.7402 240.947 74.7558 240.953C74.816 240.953 76.0862 240.532 76.7664 240.953C76.8715 241.011 76.9626 241.091 77.0333 241.187C77.1041 241.284 77.1527 241.395 77.1758 241.513C77.2136 241.609 77.22 241.716 77.1941 241.816C77.1682 241.917 77.1112 242.006 77.0313 242.073C76.7965 242.229 76.339 242.073 75.8875 241.892C76.1801 242.177 76.3885 242.538 76.4895 242.933C76.5027 243.012 76.4993 243.092 76.4796 243.168C76.4599 243.245 76.4243 243.317 76.3751 243.379C76.328 243.454 76.2635 243.517 76.187 243.562C76.1105 243.607 76.0243 243.633 75.9357 243.638L75.9116 243.572ZM75.9778 243.295C75.9778 243.295 76.0862 243.325 76.2246 243.15C76.2494 243.117 76.2669 243.079 76.2762 243.038C76.2856 242.998 76.2864 242.956 76.2788 242.915C76.2246 242.47 75.5504 241.82 75.0748 241.422C75.2915 242.259 75.6588 243.21 75.9778 243.295ZM75.1952 241.109C75.9176 241.561 76.7183 241.922 76.923 241.784C76.9832 241.742 76.9651 241.603 76.923 241.519C76.9081 241.44 76.8761 241.365 76.8293 241.299C76.7826 241.234 76.7221 241.179 76.6521 241.14C76.4503 241.04 76.2264 240.995 76.0019 241.007C75.7302 241.014 75.46 241.048 75.1952 241.109Z" fill="#303030"/>
<path d="M82.6252 244.829C82.6252 244.39 88.0432 244.733 88.0432 244.733C88.0432 244.733 91.3602 248.104 94.5809 248.863C97.8016 249.621 96.0016 251.554 92.4017 251.554H83.474C80.9155 251.554 82.5168 249.374 82.6252 244.829Z" fill="#263238"/>
<path d="M88.6188 245.423C88.6025 245.417 88.5881 245.407 88.5767 245.393C88.5736 245.38 88.5736 245.365 88.5767 245.351C88.5741 245.337 88.5741 245.323 88.5767 245.309C88.5734 245.289 88.5734 245.269 88.5767 245.249C88.5767 245.183 89.0522 243.937 89.7807 243.636C89.8901 243.585 90.0092 243.559 90.1298 243.559C90.2504 243.559 90.3696 243.585 90.479 243.636C90.7258 243.756 90.8402 243.906 90.8342 244.087C90.8342 244.37 90.4308 244.659 89.9914 244.894C90.3966 244.822 90.8139 244.866 91.1954 245.02C91.2656 245.059 91.3273 245.112 91.3769 245.175C91.4265 245.238 91.4631 245.31 91.4843 245.387C91.5307 245.488 91.5428 245.602 91.5189 245.711C91.495 245.819 91.4364 245.917 91.3519 245.989C91.2143 246.089 91.0456 246.136 90.8763 246.122C90.0882 246.025 89.3237 245.789 88.6188 245.423ZM89.1124 245.333C89.9071 245.67 90.9184 245.971 91.1472 245.761C91.1472 245.761 91.2375 245.688 91.1833 245.478C91.1724 245.437 91.1535 245.399 91.1277 245.366C91.1018 245.333 91.0695 245.305 91.0328 245.285C90.8322 245.197 90.6135 245.158 90.3947 245.171C89.957 245.182 89.5215 245.237 89.0944 245.333H89.1124ZM89.8589 243.9C89.4343 244.175 89.1109 244.581 88.9379 245.056C89.7325 244.755 90.5031 244.334 90.5151 244.093C90.5151 244.015 90.4007 243.949 90.3285 243.912C90.2502 243.873 90.1635 243.852 90.0756 243.852C90.0009 243.854 89.9273 243.87 89.8589 243.9Z" fill="#303030"/>
<path d="M85.3341 112.167C80.5482 111.565 79.1094 109.506 79.1094 109.506C81.0659 107.664 80.7107 104.943 80.211 103.245C80.0558 102.707 79.8544 102.183 79.609 101.68L85.3702 102.757C85.2374 103.553 85.163 104.358 85.1474 105.165C85.126 105.772 85.1806 106.378 85.31 106.971C85.7013 108.693 86.6825 108.717 86.6825 108.717C87.7059 110.601 85.3341 112.167 85.3341 112.167Z" fill="#EEC1BB"/>
<path opacity="0.2" d="M85.1598 105.183C85.1384 105.789 85.193 106.396 85.3223 106.989C83.0347 106.688 81.301 104.858 80.2114 103.268C80.0561 102.73 79.8547 102.207 79.6094 101.703L85.3705 102.781C85.2421 103.575 85.1717 104.378 85.1598 105.183Z" fill="black"/>
<path d="M80.1981 83.4375C72.047 84.0937 67.2491 105.29 78.7774 103.267C82.1666 102.665 96.2354 91.8836 90.8535 87.7839C87.7749 85.3725 84.085 83.8673 80.1981 83.4375Z" fill="#263238"/>
<path d="M86.1613 87.4483C91.1218 88.1647 92.3318 91.0604 91.9585 96.2195C91.489 102.673 89.4181 107.007 83.4101 104.75C75.247 101.68 77.9199 86.2564 86.1613 87.4483Z" fill="#EEC1BB"/>
<path d="M88.7955 95.4766C89.0843 96.2744 89.4683 97.0344 89.9393 97.7401C89.7657 97.9245 89.5444 98.057 89.2999 98.1229C89.0554 98.1888 88.7974 98.1855 88.5547 98.1133L88.7955 95.4766Z" fill="#D4827D"/>
<path d="M85.8147 94.6356C85.7666 95.0449 85.5077 95.3459 85.2127 95.3158C84.9178 95.2857 84.7612 94.9245 84.8094 94.5152C84.8576 94.1058 85.1224 93.7988 85.4114 93.8349C85.7004 93.871 85.8629 94.2262 85.8147 94.6356Z" fill="#263238"/>
<path d="M85.2969 93.8424L86.224 93.6016C86.224 93.6016 85.6942 94.2939 85.2969 93.8424Z" fill="#263238"/>
<path d="M90.9007 95.1582C90.8525 95.5675 90.5936 95.8745 90.2987 95.8384C90.0037 95.8023 89.8472 95.4531 89.8953 95.0438C89.9435 94.6344 90.2084 94.3274 90.4973 94.3575C90.7863 94.3876 90.9609 94.7488 90.9007 95.1582Z" fill="#263238"/>
<path d="M90.3906 94.3658L91.3237 94.125C91.3237 94.125 90.7879 94.8233 90.3906 94.3658Z" fill="#263238"/>
<path d="M84.0037 91.8524C83.9739 91.8525 83.9445 91.8461 83.9175 91.8336C83.8905 91.8211 83.8665 91.8029 83.8472 91.7802C83.8264 91.761 83.8098 91.7378 83.7985 91.7119C83.7871 91.686 83.7812 91.658 83.7812 91.6297C83.7812 91.6014 83.7871 91.5734 83.7985 91.5475C83.8098 91.5216 83.8264 91.4984 83.8472 91.4792C84.1913 91.2119 84.5931 91.0286 85.0206 90.944C85.448 90.8593 85.8893 90.8756 86.3094 90.9916C86.3632 91.0083 86.4083 91.0453 86.4353 91.0948C86.4623 91.1442 86.4689 91.2022 86.4539 91.2565C86.4384 91.3098 86.4026 91.3549 86.3541 91.3819C86.3057 91.409 86.2485 91.4158 86.195 91.4009C85.8445 91.3068 85.4773 91.2931 85.1208 91.3609C84.7643 91.4286 84.4277 91.5761 84.1362 91.7922C84.1009 91.8278 84.0537 91.8493 84.0037 91.8524Z" fill="#263238"/>
<path d="M91.8178 92.4202C91.7646 92.4205 91.7132 92.4012 91.6733 92.366C91.4523 92.1338 91.1813 91.9552 90.8809 91.8435C90.5804 91.7319 90.2585 91.6903 89.9395 91.7219C89.8846 91.7308 89.8284 91.7183 89.7824 91.6869C89.7365 91.6556 89.7043 91.6077 89.6927 91.5533C89.6865 91.526 89.6858 91.4978 89.6907 91.4702C89.6955 91.4427 89.7058 91.4163 89.721 91.3928C89.7361 91.3693 89.7558 91.349 89.7788 91.3331C89.8019 91.3173 89.8279 91.3062 89.8552 91.3005C90.2391 91.2583 90.6275 91.3035 90.9913 91.4328C91.3552 91.5621 91.6851 91.772 91.9562 92.0469C91.9762 92.0666 91.9922 92.09 92.003 92.1158C92.0139 92.1417 92.0195 92.1694 92.0195 92.1974C92.0195 92.2255 92.0139 92.2532 92.003 92.2791C91.9922 92.3049 91.9762 92.3283 91.9562 92.3479C91.9214 92.3894 91.8717 92.4154 91.8178 92.4202Z" fill="#263238"/>
<path d="M79.5292 95.0253C79.5292 95.0253 82.4369 91.2869 82.5392 88.0842C82.5392 88.0842 92.9538 85.4896 91.9966 95.543C91.9966 95.543 94.2361 86.82 85.7358 85.3873C77.2356 83.9545 75.5018 96.44 79.3366 100.798C79.3366 100.798 77.7292 97.3671 79.5292 95.0253Z" fill="#263238"/>
<path d="M80.1925 96.1937C80.2271 95.6121 80.0299 95.0404 79.644 94.6038C79.2582 94.1672 78.7151 93.9012 78.1336 93.864C76.5744 93.8098 75.3825 96.874 79.0968 98.1743C79.6326 98.3609 80.0179 97.8673 80.1925 96.1937Z" fill="#EEC1BB"/>
<path d="M87.3871 100.927C86.7649 100.955 86.1506 100.779 85.6385 100.424C85.1264 100.07 84.7446 99.5572 84.5516 98.965C84.5357 98.9107 84.5419 98.8523 84.569 98.8026C84.5961 98.7529 84.6418 98.716 84.6961 98.7001C84.7504 98.6841 84.8088 98.6904 84.8585 98.7175C84.9082 98.7446 84.945 98.7903 84.961 98.8446C85.4968 100.651 87.3991 100.506 87.4834 100.5C87.539 100.497 87.5937 100.515 87.6363 100.551C87.6789 100.586 87.7061 100.637 87.7121 100.693C87.7146 100.721 87.7114 100.749 87.7026 100.776C87.6939 100.803 87.6799 100.828 87.6613 100.849C87.6428 100.871 87.6201 100.888 87.5947 100.9C87.5693 100.913 87.5417 100.92 87.5135 100.921L87.3871 100.927Z" fill="#263238"/>
<path d="M80.1992 83.438C80.1992 83.438 87.4714 82.4869 92.0225 86.8935C96.5736 91.3002 83.1972 90.5838 83.1972 90.5838L86.5864 89.0366C86.5864 89.0366 82.3423 90.2406 80.5062 89.6386L80.1992 83.438Z" fill="#263238"/>
<path d="M74.7839 96.3672C74.7839 96.3672 72.5806 100.226 74.7839 103.561C74.3131 104.646 74.2403 105.862 74.5784 106.995C74.9165 108.129 75.6438 109.106 76.6321 109.756C76.6321 109.756 75.9819 111.778 79.1063 114.223C79.1063 114.223 80.0815 117.407 79.311 119.683L81.5745 118.569C81.5745 118.569 81.5745 115.709 80.1959 114.042C80.1959 114.042 80.9243 109.509 79.1063 108.022C79.1063 108.022 79.919 105.162 79.618 103.916C79.618 103.916 78.709 98.5284 78.5645 97.9505C78.5645 97.9565 75.5003 97.5652 74.7839 96.3672Z" fill="#263238"/>
<path d="M87.4983 91.6365C87.4604 91.6366 87.4238 91.6224 87.3959 91.5968C87.368 91.5711 87.3508 91.5358 87.3478 91.498C87.347 91.4791 87.3499 91.4601 87.3564 91.4423C87.363 91.4244 87.3729 91.4081 87.3858 91.3941C87.3987 91.3801 87.4142 91.3688 87.4314 91.3608C87.4486 91.3528 87.4673 91.3483 87.4862 91.3475C88.9551 91.2572 92.826 90.7455 93.0969 89.4813C93.428 87.9402 91.2909 86.7362 91.2487 86.7242C91.2315 86.7153 91.2163 86.7031 91.2039 86.6882C91.1915 86.6733 91.1822 86.6561 91.1766 86.6376C91.1709 86.6191 91.1691 86.5996 91.1712 86.5803C91.1732 86.5611 91.1791 86.5424 91.1885 86.5255C91.2076 86.4919 91.2389 86.4669 91.2758 86.4557C91.3128 86.4445 91.3527 86.4479 91.3872 86.4653C91.4835 86.5195 93.7591 87.7897 93.3858 89.5415C93.0126 91.2934 87.727 91.6245 87.5043 91.6365H87.4983Z" fill="#263238"/>
<path d="M98.5358 116.754C98.5262 116.824 98.5319 116.895 98.5524 116.963C98.573 117.03 98.6079 117.093 98.6549 117.145C98.7018 117.198 98.7596 117.24 98.8242 117.268C98.8889 117.296 98.9589 117.31 99.0294 117.308H104.532C104.68 117.299 104.821 117.239 104.931 117.138C105.04 117.037 105.112 116.902 105.134 116.754L106.338 105.918C106.351 105.772 106.306 105.627 106.212 105.514C106.119 105.401 105.984 105.33 105.838 105.316H100.336C100.183 105.337 100.042 105.407 99.9335 105.516C99.8248 105.625 99.7547 105.766 99.7338 105.918L98.5358 116.754Z" fill="#263238"/>
<path opacity="0.5" d="M100.372 105.821L99.1261 116.79C99.1099 116.854 99.109 116.921 99.1236 116.986C99.1382 117.05 99.1678 117.11 99.21 117.161C99.2523 117.212 99.3059 117.253 99.3666 117.279C99.4273 117.306 99.4934 117.317 99.5595 117.313H104.225C104.538 117.313 105.11 117.139 105.146 116.832L106.392 105.827C106.428 105.52 105.893 105.273 105.58 105.273H100.914C100.771 105.279 100.636 105.339 100.535 105.441C100.435 105.543 100.377 105.678 100.372 105.821Z" fill="white"/>
<path opacity="0.6" d="M87.8906 142.85C87.8906 143.043 87.9478 143.232 88.055 143.392C88.1622 143.552 88.3145 143.677 88.4927 143.751C88.6709 143.825 88.867 143.844 89.0561 143.807C89.2453 143.769 89.4191 143.676 89.5555 143.54C89.6919 143.403 89.7848 143.23 89.8224 143.041C89.86 142.851 89.8407 142.655 89.7669 142.477C89.6931 142.299 89.5681 142.147 89.4077 142.039C89.2473 141.932 89.0588 141.875 88.8659 141.875C88.7376 141.874 88.6104 141.899 88.4917 141.948C88.3731 141.996 88.2652 142.068 88.1745 142.159C88.0838 142.25 88.012 142.357 87.9632 142.476C87.9145 142.595 87.8898 142.722 87.8906 142.85Z" fill="white"/>
<path d="M110.055 117.655L107.19 112.791C107.19 112.791 107.19 110.232 106.943 109.63C106.696 109.028 103.885 107.668 103.331 107.872C102.777 108.077 102.578 113.092 103.084 113.766C103.59 114.44 105.342 115.199 105.342 115.199L105.221 116.15L106.895 121.219L110.055 117.655Z" fill="#EEC1BB"/>
<path d="M111.214 117.104L110.257 116.152L105.742 121.221L106.386 123.226L111.214 117.104Z" fill="#303030"/>
<path d="M105.61 170.433L90.8184 175.688L90.3247 174.333L89.7227 172.666L89.4699 175.074L89.2772 176.922H71.3136C71.3136 176.922 71.2594 176.404 71.2052 175.477C70.8755 169.572 71.1174 163.649 71.9276 157.791C72.5977 152.719 73.8751 147.747 75.7322 142.981C75.8827 142.608 76.0393 142.241 76.1958 141.874L95.4598 140.387L95.6223 141.314L96.8263 148.231L99.126 154.046L104.803 168.404L105.61 170.433Z" fill="#263238"/>
<path opacity="0.2" d="M88.3346 125.217C88.3346 125.217 83.025 137.311 76.1742 141.23C76.0899 138.708 75.7107 129.527 74.3682 124.374C74.013 122.99 73.5916 121.479 73.0859 119.811L75.1749 117.301C75.1749 117.301 76.6197 121.78 75.9816 125.669L83.9701 120.774L88.3346 125.217Z" fill="black"/>
<path d="M83.1953 122.416L89.6969 117.305C90.075 116.198 90.5379 115.121 91.0815 114.085C91.4788 113.603 97.1918 111.496 97.6674 111.442C98.143 111.388 97.6674 116.125 96.957 116.926C96.2467 117.727 91.6354 119.334 91.6354 119.334L84.8087 125.763L83.1953 122.416Z" fill="#EEC1BB"/>
<path d="M70.1634 110.77C66.3346 112.684 64.631 134.308 71.2771 138.04C77.9231 141.773 87.8923 124.874 87.8923 124.874L84.0334 120.781C84.0334 120.781 75.9365 127.553 74.9613 126.933C73.9861 126.313 75.0937 119.709 75.0937 119.709C75.0937 119.709 76.2315 117.711 73.8356 114.556C71.4396 111.402 70.1634 110.77 70.1634 110.77Z" fill="#303030"/>
<path opacity="0.6" d="M70.1634 110.77C66.3346 112.684 64.631 134.308 71.2771 138.04C77.9231 141.773 87.8923 124.874 87.8923 124.874L84.0334 120.781C84.0334 120.781 75.9365 127.553 74.9613 126.933C73.9861 126.313 75.0937 119.709 75.0937 119.709C75.0937 119.709 76.2315 117.711 73.8356 114.556C71.4396 111.402 70.1634 110.77 70.1634 110.77Z" fill="white"/>
<path d="M87.934 126.374L89.0899 125.681L84.7555 119.324L83.1602 120.215L87.934 126.374Z" fill="#303030"/>
<path opacity="0.2" d="M80.42 143.625C80.42 143.625 78.2347 155.665 71.9258 157.79C72.5959 152.719 73.8732 147.747 75.7304 142.98L80.42 143.625Z" fill="black"/>
<path opacity="0.2" d="M99.1307 154.045C94.0799 151.583 94.1642 141.872 94.1642 141.872L95.621 141.312L96.825 148.229L99.1307 154.045Z" fill="black"/>
<path opacity="0.2" d="M89.4618 175.074L89.2691 176.922H71.3115C71.3115 176.922 71.2573 176.405 71.2031 175.478L89.4618 175.074Z" fill="black"/>
<path opacity="0.2" d="M105.609 170.435L90.8179 175.69L90.3242 174.336L104.808 168.406L105.609 170.435Z" fill="black"/>
<path opacity="0.2" d="M89.6953 172.668L90.0806 167.75L94.1441 159.773C94.1441 159.773 95.4264 164.373 93.4036 168.472C91.3809 172.572 89.6953 172.668 89.6953 172.668Z" fill="black"/>
<path opacity="0.5" d="M76.1955 141.874L75.3828 143.878L95.8929 142.849L95.4595 140.387L76.1955 141.874Z" fill="black"/>
<path d="M87.0176 141.129L87.2584 143.387C87.272 143.505 87.3312 143.613 87.4234 143.689C87.5155 143.764 87.6334 143.8 87.752 143.79L90.762 143.556C90.8222 143.55 90.8807 143.533 90.9342 143.505C90.9877 143.477 91.0352 143.439 91.0738 143.392C91.1124 143.346 91.1414 143.292 91.1592 143.234C91.177 143.177 91.1832 143.116 91.1774 143.056L90.9667 140.834C90.9559 140.715 90.8989 140.605 90.8077 140.527C90.7165 140.45 90.5985 140.411 90.4791 140.419L87.4691 140.624C87.4055 140.625 87.3429 140.64 87.2851 140.666C87.2274 140.693 87.1757 140.731 87.1334 140.778C87.091 140.826 87.0589 140.882 87.039 140.942C87.019 141.002 87.0118 141.066 87.0176 141.129Z" fill="#303030"/>
<path d="M81.993 141.398L81.7522 144.053H81.0117L81.1261 141.398H81.993Z" fill="#263238"/>
<path d="M92.7969 140.591L93.0919 143.366H93.7781L93.5373 140.477L92.7969 140.591Z" fill="#263238"/>
</svg>
