<svg width="20" height="19" viewBox="0 0 20 19" fill="none" xmlns="http://www.w3.org/2000/svg">
<path d="M2.10526 18.9474C1.52632 18.9474 1.0307 18.7412 0.618421 18.3289C0.20614 17.9167 0 17.4211 0 16.8421V2.10526C0 1.52632 0.20614 1.0307 0.618421 0.618421C1.0307 0.20614 1.52632 0 2.10526 0H16.8421C17.4211 0 17.9167 0.20614 18.3289 0.618421C18.7412 1.0307 18.9474 1.52632 18.9474 2.10526H10.5263C9.2807 2.10526 8.26754 2.49561 7.48684 3.27632C6.70614 4.05702 6.31579 5.07018 6.31579 6.31579V12.6316C6.31579 13.8772 6.70614 14.8904 7.48684 15.6711C8.26754 16.4518 9.2807 16.8421 10.5263 16.8421H18.9474C18.9474 17.4211 18.7412 17.9167 18.3289 18.3289C17.9167 18.7412 17.4211 18.9474 16.8421 18.9474H2.10526ZM10.5263 14.7368C9.94737 14.7368 9.45175 14.5307 9.03947 14.1184C8.62719 13.7061 8.42105 13.2105 8.42105 12.6316V6.31579C8.42105 5.73684 8.62719 5.24123 9.03947 4.82895C9.45175 4.41667 9.94737 4.21053 10.5263 4.21053H17.8947C18.4737 4.21053 18.9693 4.41667 19.3816 4.82895C19.7939 5.24123 20 5.73684 20 6.31579V12.6316C20 13.2105 19.7939 13.7061 19.3816 14.1184C18.9693 14.5307 18.4737 14.7368 17.8947 14.7368H10.5263ZM13.6842 11.0526C14.1404 11.0526 14.5175 10.9035 14.8158 10.6053C15.114 10.307 15.2632 9.92982 15.2632 9.47368C15.2632 9.01754 15.114 8.64035 14.8158 8.3421C14.5175 8.04386 14.1404 7.89474 13.6842 7.89474C13.2281 7.89474 12.8509 8.04386 12.5526 8.3421C12.2544 8.64035 12.1053 9.01754 12.1053 9.47368C12.1053 9.92982 12.2544 10.307 12.5526 10.6053C12.8509 10.9035 13.2281 11.0526 13.6842 11.0526Z" fill="#00C868"/>
</svg>
