<svg width="174" height="60" viewBox="0 0 174 60" fill="none" xmlns="http://www.w3.org/2000/svg">
<g clip-path="url(#clip0_266_416)">
<path d="M7.42326 7.36195L37.9814 7C40.5 9 43.5 17 43 19.5L40.5 28L39.5 30.5L30.1116 46L14.5 45L5 29.5L7.42326 7.36195Z" fill="white"/>
<path d="M156.352 48.1066C156.352 48.6677 156.46 49.1655 156.677 49.5999C156.904 50.0253 157.216 50.3602 157.614 50.6046C158.021 50.8489 158.497 50.9711 159.04 50.9711C159.574 50.9711 160.04 50.8489 160.438 50.6046C160.845 50.3602 161.157 50.0253 161.375 49.5999C161.601 49.1655 161.714 48.6677 161.714 48.1066C161.714 47.5454 161.605 47.0521 161.388 46.6268C161.171 46.1923 160.863 45.8529 160.465 45.6086C160.067 45.3642 159.592 45.242 159.04 45.242C158.497 45.242 158.021 45.3642 157.614 45.6086C157.216 45.8529 156.904 46.1923 156.677 46.6268C156.46 47.0521 156.352 47.5454 156.352 48.1066ZM153.921 48.1066C153.921 47.3734 154.048 46.7037 154.302 46.0973C154.564 45.4909 154.926 44.9659 155.388 44.5225C155.849 44.079 156.392 43.7396 157.017 43.5042C157.641 43.2599 158.316 43.1377 159.04 43.1377C159.773 43.1377 160.447 43.2599 161.062 43.5042C161.687 43.7396 162.23 44.079 162.692 44.5225C163.153 44.9659 163.511 45.4909 163.764 46.0973C164.017 46.7037 164.144 47.3734 164.144 48.1066C164.144 48.8397 164.017 49.5139 163.764 50.1294C163.52 50.7449 163.167 51.2788 162.705 51.7314C162.253 52.1839 161.714 52.5369 161.09 52.7903C160.465 53.0347 159.782 53.1569 159.04 53.1569C158.288 53.1569 157.601 53.0347 156.976 52.7903C156.352 52.5369 155.808 52.1839 155.347 51.7314C154.894 51.2788 154.541 50.7449 154.288 50.1294C154.044 49.5139 153.921 48.8397 153.921 48.1066Z" fill="#004D73"/>
<path d="M148.05 48.5546H150.425L153.399 52.8583H150.711L148.05 48.5546ZM145.674 43.355H147.968V52.8583H145.674V43.355ZM147.113 45.2964V43.355H149.136C149.95 43.355 150.629 43.4862 151.172 43.7487C151.715 44.0112 152.127 44.3777 152.408 44.8484C152.688 45.3099 152.828 45.8485 152.828 46.4639C152.828 47.0703 152.688 47.6088 152.408 48.0795C152.127 48.5411 151.715 48.9031 151.172 49.1656C150.629 49.428 149.95 49.5593 149.136 49.5593H147.113V47.7808H148.973C149.281 47.7808 149.543 47.7355 149.76 47.645C149.987 47.5455 150.158 47.4052 150.276 47.2242C150.394 47.0341 150.453 46.8078 150.453 46.5454C150.453 46.2829 150.394 46.0612 150.276 45.8801C150.158 45.6901 149.987 45.5453 149.76 45.4457C149.543 45.3461 149.281 45.2964 148.973 45.2964H147.113Z" fill="#004D73"/>
<path d="M137.216 43.355H139.51V52.8583H137.216V43.355ZM138.655 45.2421V43.355H140.515C141.32 43.355 141.995 43.4817 142.538 43.7351C143.09 43.9795 143.506 44.3325 143.787 44.794C144.067 45.2556 144.208 45.8123 144.208 46.4639C144.208 47.0975 144.067 47.6496 143.787 48.1202C143.506 48.5818 143.09 48.9393 142.538 49.1927C141.995 49.4371 141.32 49.5593 140.515 49.5593H138.655V47.6722H140.515C140.976 47.6722 141.338 47.5681 141.601 47.3599C141.863 47.1518 141.995 46.8531 141.995 46.4639C141.995 46.0657 141.863 45.7625 141.601 45.5543C141.338 45.3461 140.976 45.2421 140.515 45.2421H138.655Z" fill="#004D73"/>
<path d="M157.374 24.5719H151.971V20.8521H164.189L157.944 29.6222H163.321V33.3421H150.831L157.374 24.5719Z" fill="black"/>
<path d="M139.738 39.3164H135.638V20.8529H139.738V39.3164ZM149.947 27.0979C149.947 28.546 149.657 29.7679 149.078 30.7635C148.517 31.759 147.784 32.5103 146.879 33.0171C145.992 33.5239 145.032 33.7774 144 33.7774C142.914 33.7774 141.973 33.5058 141.177 32.9628C140.398 32.4016 139.801 31.6233 139.385 30.6277C138.968 29.614 138.76 28.4374 138.76 27.0979C138.76 25.7403 138.968 24.5637 139.385 23.5681C139.801 22.5725 140.398 21.8032 141.177 21.2602C141.973 20.699 142.914 20.4185 144 20.4185C145.032 20.4185 145.992 20.6719 146.879 21.1787C147.784 21.6856 148.517 22.4368 149.078 23.4324C149.657 24.4098 149.947 25.6317 149.947 27.0979ZM145.63 27.0979C145.63 26.4463 145.494 25.8942 145.222 25.4416C144.951 24.9891 144.589 24.6452 144.136 24.4098C143.684 24.1745 143.186 24.0569 142.643 24.0569C142.172 24.0569 141.711 24.1745 141.258 24.4098C140.824 24.6271 140.462 24.9619 140.172 25.4145C139.882 25.867 139.738 26.4282 139.738 27.0979C139.738 27.7677 139.882 28.3288 140.172 28.7813C140.462 29.2339 140.824 29.5778 141.258 29.8131C141.711 30.0304 142.172 30.139 142.643 30.139C143.186 30.139 143.684 30.0213 144.136 29.786C144.589 29.5507 144.951 29.2067 145.222 28.7542C145.494 28.3017 145.63 27.7496 145.63 27.0979Z" fill="black"/>
<path d="M122.98 39.3164H118.88V20.8529H122.98V39.3164ZM133.189 27.0979C133.189 28.546 132.899 29.7679 132.32 30.7635C131.759 31.759 131.026 32.5103 130.121 33.0171C129.234 33.5239 128.275 33.7774 127.243 33.7774C126.157 33.7774 125.215 33.5058 124.419 32.9628C123.641 32.4016 123.043 31.6233 122.627 30.6277C122.211 29.614 122.002 28.4374 122.002 27.0979C122.002 25.7403 122.211 24.5637 122.627 23.5681C123.043 22.5725 123.641 21.8032 124.419 21.2602C125.215 20.699 126.157 20.4185 127.243 20.4185C128.275 20.4185 129.234 20.6719 130.121 21.1787C131.026 21.6856 131.759 22.4368 132.32 23.4324C132.899 24.4098 133.189 25.6317 133.189 27.0979ZM128.872 27.0979C128.872 26.4463 128.736 25.8942 128.465 25.4416C128.193 24.9891 127.831 24.6452 127.379 24.4098C126.926 24.1745 126.428 24.0569 125.885 24.0569C125.415 24.0569 124.953 24.1745 124.5 24.4098C124.066 24.6271 123.704 24.9619 123.414 25.4145C123.125 25.867 122.98 26.4282 122.98 27.0979C122.98 27.7677 123.125 28.3288 123.414 28.7813C123.704 29.2339 124.066 29.5778 124.5 29.8131C124.953 30.0304 125.415 30.139 125.885 30.139C126.428 30.139 126.926 30.0213 127.379 29.786C127.831 29.5507 128.193 29.2067 128.465 28.7542C128.736 28.3017 128.872 27.7496 128.872 27.0979Z" fill="black"/>
<path d="M102.335 29.6768L102.661 26.1742H112.083L112.381 29.6768H102.335ZM107.304 21.3139L104.643 27.4503L104.86 28.455L102.498 33.3424H97.3118L107.304 13.1411L117.323 33.3424H112.11L109.829 28.645L109.992 27.4775L107.304 21.3139Z" fill="black"/>
<path d="M91.1925 16.1554C91.1925 15.5037 91.4278 14.9788 91.8985 14.5806C92.3691 14.1642 92.9303 13.9561 93.5819 13.9561C94.2517 13.9561 94.8128 14.1642 95.2653 14.5806C95.736 14.9788 95.9713 15.5037 95.9713 16.1554C95.9713 16.807 95.736 17.341 95.2653 17.7574C94.8128 18.1737 94.2517 18.3819 93.5819 18.3819C92.9303 18.3819 92.3691 18.1737 91.8985 17.7574C91.4278 17.341 91.1925 16.807 91.1925 16.1554ZM91.5998 20.8527H95.564V33.3428H91.5998V20.8527Z" fill="black"/>
<path d="M84.9956 20.8521H89.5571L84.7783 26.9342L89.8287 33.3421H85.2671L82.6605 29.7037L80.1082 33.3421H75.3837L80.5154 26.9342L75.6552 20.8521H80.3797L82.6605 24.1375L84.9956 20.8521Z" fill="black"/>
<path d="M65.5255 29.4321C65.5255 29.7579 65.6069 30.0385 65.7698 30.2738C65.9327 30.491 66.15 30.663 66.4215 30.7897C66.693 30.8983 66.9917 30.9526 67.3175 30.9526C67.7881 30.9526 68.2226 30.8531 68.6208 30.654C69.019 30.4548 69.3449 30.1562 69.5983 29.7579C69.8517 29.3597 69.9784 28.871 69.9784 28.2917L70.4129 29.9209C70.4129 30.7173 70.1956 31.3961 69.7612 31.9573C69.3268 32.5003 68.7656 32.9167 68.0778 33.2063C67.3899 33.4778 66.6478 33.6136 65.8513 33.6136C65.0548 33.6136 64.3127 33.4687 63.6248 33.1791C62.955 32.8714 62.412 32.4189 61.9957 31.8215C61.5974 31.2242 61.3983 30.5001 61.3983 29.6493C61.3983 28.4546 61.8237 27.5134 62.6745 26.8255C63.5252 26.1195 64.729 25.7666 66.2857 25.7666C67.046 25.7666 67.7248 25.839 68.3221 25.9838C68.9376 26.1286 69.4625 26.3096 69.897 26.5268C70.3314 26.744 70.6572 26.9703 70.8744 27.2056V29.0248C70.44 28.699 69.9332 28.4546 69.3539 28.2917C68.7928 28.1107 68.1954 28.0202 67.5619 28.0202C67.0731 28.0202 66.684 28.0745 66.3943 28.1831C66.1047 28.2917 65.8875 28.4546 65.7427 28.6719C65.5979 28.871 65.5255 29.1244 65.5255 29.4321ZM63.7063 24.6805L62.3215 21.9381C63.0275 21.5942 63.8782 21.2683 64.8738 20.9606C65.8694 20.6529 66.9555 20.499 68.1321 20.499C69.2363 20.499 70.2228 20.6619 71.0917 20.9878C71.9605 21.2955 72.6484 21.748 73.1552 22.3454C73.6621 22.9427 73.9155 23.6758 73.9155 24.5447V33.342H69.9784V25.4679C69.9784 25.1602 69.9241 24.8977 69.8155 24.6805C69.725 24.4452 69.5802 24.246 69.3811 24.0831C69.182 23.9202 68.9285 23.8025 68.6208 23.7301C68.3312 23.6577 67.9963 23.6215 67.6162 23.6215C67.055 23.6215 66.5029 23.6849 65.9599 23.8116C65.435 23.9383 64.9734 24.0922 64.5751 24.2732C64.1769 24.4361 63.8873 24.5719 63.7063 24.6805Z" fill="black"/>
<path d="M48.3401 18.4364V14.3364H63.3824V18.4364H58.142V33.343H53.5533V18.4364H48.3401Z" fill="black"/>
<path d="M37.8528 30.7638C38.3506 31.2556 39.1932 31.1432 39.5263 30.5331C41.6949 26.5619 43.0869 23.0603 43.0869 19.5648C43.0869 18.9071 42.3105 18.5825 41.7895 18.9996L33.9389 25.2855C33.4554 25.6727 33.4174 26.3819 33.857 26.8162L37.8528 30.7638Z" fill="#00C868"/>
<path d="M32.3213 42.5855C32.5614 42.1798 32.4948 41.6678 32.1575 41.3345L24.6627 33.9302C24.2771 33.5492 23.6577 33.5176 23.2335 33.8572L13.4998 41.651C13.0938 41.9761 12.9919 42.5412 13.2584 42.983C16.0351 47.5852 19.0077 52.9234 21.7799 59.3499C22.157 60.2242 23.4578 60.214 23.8215 59.3344C26.5325 52.7791 29.5223 47.314 32.3213 42.5855Z" fill="#00C868"/>
<path d="M9.19794 34.1666C8.69812 34.5668 7.95044 34.4418 7.61848 33.9003C4.28744 28.4669 2 24.0567 2 19.5648C2 9.36473 11.0967 0 22.565 0C29.6562 0 35.8242 3.58046 39.4995 8.72496C39.8062 9.15435 39.7077 9.73766 39.2931 10.0697L9.19794 34.1666Z" fill="#00C868"/>
<path d="M32.5072 42.3474C32.7499 41.9362 32.6826 41.4172 32.3416 41.0793L24.765 33.5736C24.3752 33.1874 23.7491 33.1553 23.3202 33.4996L13.4802 41.4001C13.0698 41.7297 12.9668 42.3026 13.2362 42.7504C16.0432 47.4156 19.0483 52.8269 21.8507 59.3414C22.2319 60.2277 23.5469 60.2174 23.9146 59.3257C26.6552 52.6806 29.6776 47.1407 32.5072 42.3474Z" fill="#004D73"/>
</g>
<defs>
<clipPath id="clip0_266_416">
<rect width="174" height="60" fill="white"/>
</clipPath>
</defs>
</svg>
