<svg width="50" height="30" viewBox="0 0 50 30" fill="none" xmlns="http://www.w3.org/2000/svg">
<path fill-rule="evenodd" clip-rule="evenodd" d="M35.4886 0.180246C36.0477 0.370901 36.7517 0.880412 37.0178 1.28679L37.1916 1.55221L36.8711 1.59602C36.6948 1.62005 35.2961 1.70054 33.7628 1.77496C22.5834 2.31726 17.3477 2.61678 16.9281 2.73787C16.3041 2.91785 15.7297 3.38234 15.4042 3.97027C15.1353 4.45575 15.1285 4.50467 15.0974 6.17989L15.0656 7.893H8.33112H1.59652L1.61373 5.78956C1.63329 3.38642 1.57558 3.58428 2.62141 2.33131C3.35678 1.45029 3.75753 1.19224 4.7611 0.953708C5.16986 0.856559 5.88733 0.602237 6.35537 0.388509L7.20626 0L21.0959 0.00433727C34.6931 0.00858754 34.9961 0.0123173 35.4886 0.180246ZM39.1398 4.1827C39.8107 5.10223 41.2653 7.08823 42.3723 8.59595C43.5177 10.1559 44.4384 11.5017 44.5089 11.7186C44.577 11.9283 44.6548 12.1682 44.6819 12.2517C44.7282 12.3943 44.5149 12.4035 41.1636 12.4035H37.596L37.5261 11.9481C37.4878 11.6977 37.0036 10.068 36.4503 8.3267C35.8969 6.5854 35.2689 4.6026 35.0546 3.92048L34.6649 2.68018L35.1649 2.70612L35.6649 2.73197L36.9881 5.71279C38.4612 9.03164 38.6363 9.29811 39.6011 9.68974C40.0109 9.85611 40.347 9.91067 41.2123 9.95117C42.2136 9.99801 42.3002 9.98995 42.2419 9.85515C42.2068 9.77414 41.0097 8.12321 39.5817 6.18622C38.1536 4.24931 36.9975 2.65407 37.0124 2.64132C37.0274 2.62857 37.2377 2.59396 37.4798 2.56447L37.9199 2.51078L39.1398 4.1827ZM25.3508 12.7505V22.2919H24.7639H24.177V12.7505V3.20904H24.7639H25.3508V12.7505ZM14.9825 9.67118V10.235H8.12953H1.27647L1.33966 9.82297C1.37438 9.59632 1.42407 9.34269 1.44999 9.25916C1.4945 9.11647 1.9016 9.10737 8.23986 9.10737H14.9825V9.67118ZM26.9468 11.183C27.1378 11.3704 27.3407 11.673 27.3979 11.8552C27.4603 12.0544 27.5018 13.2156 27.5021 14.7672L27.5027 17.3477H29.8045C32.2863 17.3477 32.456 17.3725 33.058 17.8225C33.7323 18.3267 33.8048 18.577 33.8434 20.5354L33.8781 22.2919H30.2013H26.5246V16.567C26.5246 13.4184 26.5415 10.8422 26.5621 10.8422C26.5828 10.8422 26.7559 10.9955 26.9468 11.183ZM14.9825 12.1427V12.8372H7.74424C3.7632 12.8372 0.506573 12.8274 0.507256 12.8155C0.508038 12.8036 0.613873 12.5011 0.742599 12.1433L0.976665 11.4927L7.97958 11.4704L14.9825 11.4482V12.1427ZM44.718 13.4434C44.718 13.4907 44.2972 15.1398 43.783 17.1082C43.2687 19.0767 42.6501 21.4442 42.4083 22.3695C42.1665 23.2948 41.8845 24.1982 41.7817 24.3769C41.5407 24.7958 40.9105 25.2724 40.4281 25.4005C40.1485 25.4749 36.5582 25.5012 26.7431 25.5012H13.4369L13.3146 25.0459C13.0691 24.1326 12.5739 23.3586 11.8136 22.6999C9.68536 20.8558 6.23487 20.8711 4.1343 22.7337C3.49998 23.2963 3.0694 23.9427 2.77371 24.7765L2.51118 25.5168L2.0133 25.4814C1.32508 25.4324 0.807838 25.1737 0.442307 24.6959C-0.0228996 24.0877 -0.0106697 24.2735 0.00566483 18.0633L0.0169144 13.7913H7.48924C13.3755 13.7913 14.9721 13.8143 15.0112 13.8998C16.149 16.3901 18.9693 22.2497 19.1419 22.4823C19.2727 22.6585 19.5898 22.9122 19.8466 23.0461L20.3134 23.2894L27.9218 23.3136C32.9078 23.3295 35.6588 23.3072 35.9033 23.2488C36.4282 23.1234 36.8854 22.8284 37.2316 22.3916L37.5287 22.0169L37.5566 17.6873L37.5845 13.3576H41.1512C43.4386 13.3576 44.718 13.3884 44.718 13.4434ZM49.2594 17.4839C49.3849 17.5953 49.4131 17.8497 49.4131 18.8718C49.4131 20.0162 49.3528 20.3009 49.1668 20.0341C49.1326 19.9849 48.6495 19.674 48.0933 19.3431C46.9409 18.6575 46.9353 18.6428 47.5769 17.9963C48.1924 17.3763 48.8963 17.162 49.2594 17.4839ZM45.0095 18.4007C45.4634 18.9288 45.6662 19.0766 47.1634 19.9694C49.1206 21.1365 50 21.8989 50 22.4287C50 22.9657 49.9681 22.9714 46.5239 23.0583C44.8044 23.1017 43.3868 23.1293 43.3736 23.1197C43.3604 23.1102 43.65 21.9594 44.0171 20.5624L44.6845 18.0224L45.0095 18.4007ZM9.03989 22.3859C10.2457 22.638 11.3573 23.4608 11.9308 24.5257C12.2811 25.1761 12.2925 25.2282 12.2899 26.1518C12.2866 27.2505 12.1113 27.7596 11.484 28.4917C10.6879 29.4209 9.61034 29.9207 8.25082 29.9917C6.75788 30.0696 5.4592 29.567 4.57672 28.57C3.902 27.8076 3.68495 27.2086 3.68495 26.1084C3.68495 25.242 3.70207 25.1659 4.0363 24.5453C4.62602 23.4504 5.61179 22.7186 6.91282 22.4099C7.45813 22.2806 8.48078 22.2691 9.03989 22.3859ZM48.9112 24.3519C49.9235 26.1143 49.3208 28.289 47.5276 29.3445C46.6627 29.8536 45.905 30.0352 44.8158 29.9945C44.0202 29.9647 43.7943 29.9203 43.2441 29.6852C42.0659 29.1818 41.2647 28.3741 40.893 27.3149C40.6135 26.5185 40.6368 26.4061 41.1234 26.2044C41.352 26.1096 41.6591 25.9626 41.8059 25.8779C42.0717 25.7243 42.074 25.7248 42.4211 26.0232C42.6128 26.1879 42.7961 26.4208 42.8285 26.5408C43.2332 28.0406 45.2046 28.6601 46.4834 27.6894C47.0213 27.2812 47.2569 26.8127 47.2569 26.1518C47.2569 25.2618 46.6982 24.5327 45.8269 24.2856C45.0735 24.0719 45.2777 24.0267 46.9951 24.0267H48.7244L48.9112 24.3519ZM44.7 24.9257C45.485 25.6356 45.5984 25.7762 45.5984 26.0399C45.5984 26.4046 45.3526 26.6292 44.9548 26.6279C44.7289 26.6272 44.4675 26.4575 43.7061 25.8172L42.7431 25.0073L42.9221 24.5604C43.0925 24.135 43.1181 24.1134 43.4513 24.1134C43.7643 24.1134 43.8974 24.2 44.7 24.9257ZM8.99362 24.3837C10.073 24.8575 10.5455 26.0724 10.0186 27.0192C9.62873 27.7199 8.87585 28.1329 7.98877 28.1329C5.56748 28.1329 4.8954 25.1474 7.12977 24.3171C7.61405 24.1372 8.50436 24.169 8.99362 24.3837Z" fill="#4F4F4F"/>
</svg>
