<?xml version="1.0" standalone="no"?>
<svg version="1.0" xmlns="http://www.w3.org/2000/svg"
 width="512.000000pt" height="512.000000pt" viewBox="0 0 512.000000 512.000000"
 preserveAspectRatio="xMidYMid meet">

<g transform="translate(0.000000,512.000000) scale(0.100000,-0.100000)"
fill="#000000" stroke="none">
<path d="M1790 4671 c-72 -23 -125 -57 -182 -118 -100 -108 -118 -181 -118
-490 l0 -223 -242 0 c-283 0 -341 -9 -468 -71 -114 -56 -228 -169 -282 -279
-72 -146 -69 -76 -66 -1387 l3 -1178 26 -67 c77 -198 225 -341 414 -401 l70
-22 1615 0 1615 0 70 22 c194 62 351 217 418 413 l22 65 3 1173 c3 1305 6
1236 -66 1382 -54 110 -168 223 -282 279 -127 62 -185 71 -467 71 l-243 0 0
223 c0 247 -11 325 -57 408 -38 71 -138 162 -210 191 l-58 23 -730 2 c-676 2
-734 1 -785 -16z m1410 -616 l0 -215 -640 0 -640 0 0 215 0 215 640 0 640 0 0
-215z m972 -680 c23 -17 54 -51 68 -75 l25 -45 3 -1090 c2 -803 0 -1104 -8
-1144 -16 -71 -83 -142 -152 -159 -67 -17 -3029 -17 -3096 0 -69 17 -136 88
-152 159 -8 40 -10 341 -8 1144 l3 1090 22 40 c26 49 57 79 103 99 31 14 218
15 1592 13 l1556 -2 44 -30z"/>
</g>
</svg>
