<svg width="23" height="24" viewBox="0 0 23 24" fill="none" xmlns="http://www.w3.org/2000/svg">
<path d="M2.3 6.85714H18.4V4.57143H2.3V6.85714ZM2.3 22.8571C1.6675 22.8571 1.12604 22.6333 0.675625 22.1857C0.225208 21.7381 0 21.2 0 20.5714V4.57143C0 3.94286 0.225208 3.40476 0.675625 2.95714C1.12604 2.50952 1.6675 2.28571 2.3 2.28571H3.45V1.14286C3.45 0.819048 3.56021 0.547619 3.78063 0.328571C4.00104 0.109524 4.27417 0 4.6 0C4.92583 0 5.19896 0.109524 5.41937 0.328571C5.63979 0.547619 5.75 0.819048 5.75 1.14286V2.28571H14.95V1.14286C14.95 0.819048 15.0602 0.547619 15.2806 0.328571C15.501 0.109524 15.7742 0 16.1 0C16.4258 0 16.699 0.109524 16.9194 0.328571C17.1398 0.547619 17.25 0.819048 17.25 1.14286V2.28571H18.4C19.0325 2.28571 19.574 2.50952 20.0244 2.95714C20.4748 3.40476 20.7 3.94286 20.7 4.57143V9.91429C20.7 10.2381 20.5898 10.5095 20.3694 10.7286C20.149 10.9476 19.8758 11.0571 19.55 11.0571C19.2242 11.0571 18.951 10.9476 18.7306 10.7286C18.5102 10.5095 18.4 10.2381 18.4 9.91429V9.14286H2.3V20.5714H8.97C9.29583 20.5714 9.56896 20.681 9.78938 20.9C10.0098 21.119 10.12 21.3905 10.12 21.7143C10.12 22.0381 10.0098 22.3095 9.78938 22.5286C9.56896 22.7476 9.29583 22.8571 8.97 22.8571H2.3ZM17.25 24C15.6592 24 14.3031 23.4429 13.1819 22.3286C12.0606 21.2143 11.5 19.8667 11.5 18.2857C11.5 16.7048 12.0606 15.3571 13.1819 14.2429C14.3031 13.1286 15.6592 12.5714 17.25 12.5714C18.8408 12.5714 20.1969 13.1286 21.3181 14.2429C22.4394 15.3571 23 16.7048 23 18.2857C23 19.8667 22.4394 21.2143 21.3181 22.3286C20.1969 23.4429 18.8408 24 17.25 24ZM17.825 18.0571V15.4286C17.825 15.2762 17.7675 15.1429 17.6525 15.0286C17.5375 14.9143 17.4033 14.8571 17.25 14.8571C17.0967 14.8571 16.9625 14.9143 16.8475 15.0286C16.7325 15.1429 16.675 15.2762 16.675 15.4286V18.0286C16.675 18.181 16.7038 18.3286 16.7612 18.4714C16.8188 18.6143 16.905 18.7429 17.02 18.8571L18.7738 20.6C18.8888 20.7143 19.0229 20.7714 19.1763 20.7714C19.3296 20.7714 19.4638 20.7143 19.5788 20.6C19.6938 20.4857 19.7513 20.3524 19.7513 20.2C19.7513 20.0476 19.6938 19.9143 19.5788 19.8L17.825 18.0571Z" fill="#111111"/>
</svg>
