<svg width="12" height="14" viewBox="0 0 12 14" fill="none" xmlns="http://www.w3.org/2000/svg">
<path d="M1.33333 14C0.966667 14 0.652778 13.8629 0.391667 13.5887C0.130556 13.3146 0 12.985 0 12.6V2.8C0 2.415 0.130556 2.08542 0.391667 1.81125C0.652778 1.53708 0.966667 1.4 1.33333 1.4H2V0.7C2 0.501667 2.06389 0.335417 2.19167 0.20125C2.31944 0.0670833 2.47778 0 2.66667 0C2.85556 0 3.01389 0.0670833 3.14167 0.20125C3.26944 0.335417 3.33333 0.501667 3.33333 0.7V1.4H8.66667V0.7C8.66667 0.501667 8.73056 0.335417 8.85833 0.20125C8.98611 0.0670833 9.14444 0 9.33333 0C9.52222 0 9.68056 0.0670833 9.80833 0.20125C9.93611 0.335417 10 0.501667 10 0.7V1.4H10.6667C11.0333 1.4 11.3472 1.53708 11.6083 1.81125C11.8694 2.08542 12 2.415 12 2.8V12.6C12 12.985 11.8694 13.3146 11.6083 13.5887C11.3472 13.8629 11.0333 14 10.6667 14H1.33333ZM1.33333 12.6H10.6667V5.6H1.33333V12.6ZM3.33333 8.4C3.14444 8.4 2.98611 8.33292 2.85833 8.19875C2.73056 8.06458 2.66667 7.89833 2.66667 7.7C2.66667 7.50167 2.73056 7.33542 2.85833 7.20125C2.98611 7.06708 3.14444 7 3.33333 7H8.66667C8.85556 7 9.01389 7.06708 9.14167 7.20125C9.26944 7.33542 9.33333 7.50167 9.33333 7.7C9.33333 7.89833 9.26944 8.06458 9.14167 8.19875C9.01389 8.33292 8.85556 8.4 8.66667 8.4H3.33333ZM3.33333 11.2C3.14444 11.2 2.98611 11.1329 2.85833 10.9987C2.73056 10.8646 2.66667 10.6983 2.66667 10.5C2.66667 10.3017 2.73056 10.1354 2.85833 10.0013C2.98611 9.86708 3.14444 9.8 3.33333 9.8H6.66667C6.85556 9.8 7.01389 9.86708 7.14167 10.0013C7.26944 10.1354 7.33333 10.3017 7.33333 10.5C7.33333 10.6983 7.26944 10.8646 7.14167 10.9987C7.01389 11.1329 6.85556 11.2 6.66667 11.2H3.33333Z" fill="#303030"/>
</svg>
