<svg width="40" height="40" viewBox="0 0 40 40" fill="none" xmlns="http://www.w3.org/2000/svg">
<path fill-rule="evenodd" clip-rule="evenodd" d="M18.5724 0.0401333C9.75405 0.675066 2.40927 7.01085 0.486193 15.6417C-0.139982 18.4519 -0.138578 21.5555 0.490172 24.3888C2.15451 31.8893 8.10938 37.8644 15.5784 39.5283C18.4027 40.1575 21.4995 40.1572 24.3175 39.5277C31.7903 37.8584 37.7502 31.8787 39.4062 24.3888C39.6505 23.2837 39.8451 21.824 39.8451 21.0966C39.8451 20.7861 39.8786 20.5526 39.9231 20.5526C39.9689 20.5526 40.0007 20.2859 40 19.9067C39.9991 19.4608 39.9753 19.2971 39.9231 19.3783C39.8704 19.4601 39.8471 19.3249 39.8463 18.9321C39.8457 18.6221 39.7911 17.9527 39.7252 17.4446C38.6407 9.09039 32.4757 2.31086 24.2962 0.477618C22.5543 0.0871856 20.3055 -0.084661 18.5724 0.0401333ZM11.5599 9.62495C11.1799 9.7957 9.59854 11.4659 9.53448 11.7643C9.41057 12.3413 9.4545 12.3938 13.3426 16.3054L17.0197 20.0046L13.3405 23.7038C9.34441 27.7215 9.35978 27.7027 9.56234 28.3184C9.68945 28.7048 11.3941 30.3795 11.7353 30.4531C12.3105 30.5773 12.3628 30.5331 16.2611 26.6321L19.948 22.9426L23.6348 26.6321C27.5331 30.5331 27.5854 30.5773 28.1606 30.4531C28.521 30.3753 30.2186 28.6927 30.3372 28.2959C30.5176 27.6913 30.5217 27.6962 26.5533 23.7038L22.8762 20.0046L26.5533 16.3054C30.5217 12.313 30.5176 12.3178 30.3372 11.7133C30.2186 11.3164 28.521 9.6338 28.1606 9.55606C27.5854 9.43189 27.5332 9.47604 23.6344 13.3776L19.9472 17.0673L16.2997 13.4107C12.2496 9.35039 12.2214 9.32784 11.5599 9.62495ZM0 20.0046C0 20.3706 0.0134989 20.5203 0.0298847 20.3373C0.0463487 20.1543 0.0463487 19.8549 0.0298847 19.6718C0.0134989 19.4888 0 19.6386 0 20.0046Z" fill="#FF0000"/>
</svg>
