<svg width="50" height="20" viewBox="0 0 50 20" fill="none" xmlns="http://www.w3.org/2000/svg">
<path fill-rule="evenodd" clip-rule="evenodd" d="M14.7284 0.209419C13.1171 0.553276 11.6809 1.1267 8.73974 2.60036C7.0363 3.45385 6.47793 3.66139 3.683 4.48033C1.00723 5.26439 0.543994 5.46938 0.210104 6.01689C0.0151962 6.33649 0.000356775 6.62708 2.45461e-05 10.1363C-0.000418426 13.8718 0.00235015 13.917 0.256505 14.3999C0.4286 14.7268 0.675445 14.9793 1.00402 15.1648C1.47335 15.4297 1.58841 15.4432 3.65786 15.4773L5.82111 15.5131L5.95844 14.7125C6.26276 12.9379 7.32301 11.5303 8.93565 10.7603C9.78527 10.3547 9.82336 10.3475 11.1292 10.3475C12.4351 10.3475 12.4732 10.3547 13.3228 10.7603C14.9327 11.529 15.9958 12.9381 16.2987 14.7044L16.4346 15.497H24.9701H33.5056L33.6263 14.7307C33.9011 12.9859 34.9936 11.5376 36.6214 10.7603C37.4663 10.3569 37.5151 10.3476 38.7596 10.3503C40.2707 10.3537 40.9194 10.5604 41.9993 11.3829C43.0883 12.2125 43.8279 13.5204 44.0279 14.971L44.1004 15.497H46.1963C48.4641 15.497 48.7963 15.4253 49.3503 14.8156C49.937 14.1701 50 13.8974 50 12.0061V10.2317L49.6298 9.47993C49.2443 8.69698 48.8266 8.30207 47.9964 7.93573C47.7584 7.83064 44.8975 7.09652 41.6389 6.30438C38.3803 5.51212 35.465 4.78266 35.1604 4.68321C34.4348 4.44622 33.2282 3.83902 31.2403 2.71055C29.0915 1.49071 28.2615 1.08174 27.111 0.675869C25.3181 0.0433053 24.7802 -0.00774641 20.0042 0.000780791C16.2579 0.00753611 15.542 0.0358849 14.7284 0.209419ZM14.3962 2.08485C13.4177 2.35174 10.2565 4.0481 9.6619 4.62518C9.2805 4.9954 9.19124 5.15741 9.19124 5.47945C9.19124 5.99275 9.34163 6.26296 9.74274 6.47038C10.0145 6.61091 10.7361 6.6376 14.2606 6.6376H18.455L18.6959 6.38134C18.9238 6.13871 18.9366 6.02342 18.9366 4.22186C18.9366 1.72571 19.0712 1.87344 16.8048 1.88208C15.5485 1.88684 14.9316 1.93878 14.3962 2.08485ZM21.0856 2.10877C20.8951 2.31929 20.8746 2.52948 20.8746 4.278C20.8746 6.17924 20.8794 6.218 21.1361 6.42586C21.3854 6.62786 21.6448 6.6376 26.744 6.6376C31.8271 6.6376 32.1033 6.6273 32.3497 6.42774C32.7624 6.09352 32.5435 5.68289 31.6698 5.15265C27.3733 2.54454 25.5474 1.87566 22.7237 1.87566C21.4135 1.87566 21.2793 1.8947 21.0856 2.10877ZM46.6138 9.39765C45.8451 10.1663 46.5128 11.7318 47.6093 11.7318C48.1424 11.7318 48.4703 11.4856 48.625 10.9692C48.7335 10.6071 48.7193 10.4738 48.525 10.0349C48.1127 9.10263 47.2098 8.80163 46.6138 9.39765ZM9.89158 11.6633C8.86522 11.9983 7.93996 12.8444 7.45501 13.8913C7.19532 14.4521 7.14715 14.7026 7.14615 15.497C7.14505 16.3222 7.18724 16.5272 7.48791 17.1582C7.89921 18.0212 8.58337 18.7219 9.41195 19.1288C9.95138 19.3937 10.1498 19.4284 11.1292 19.4284C12.1162 19.4284 12.3049 19.3948 12.8639 19.1204C13.6994 18.7101 14.3563 18.0346 14.7721 17.1582C15.0712 16.5275 15.1133 16.3217 15.1113 15.497C15.1096 14.7009 15.0606 14.4495 14.7943 13.8667C14.4222 13.0523 13.5439 12.1658 12.7628 11.816C12.1033 11.5209 10.5769 11.4396 9.89158 11.6633ZM37.4143 11.7156C36.3118 12.1605 35.469 12.991 35.0287 14.0662C34.8846 14.418 34.8295 14.8362 34.8328 15.5524C34.8367 16.41 34.8803 16.6378 35.1447 17.1845C35.5361 17.9936 36.3188 18.7774 37.0982 19.1408C37.9647 19.5448 39.334 19.5987 40.2266 19.264C41.458 18.8019 42.47 17.5837 42.7458 16.2314C43.0889 14.5485 42.135 12.6505 40.5587 11.8793C39.7293 11.4734 38.2103 11.3943 37.4143 11.7156ZM10.7021 14.0594C9.78781 14.3367 9.35957 15.4328 9.85083 16.2386C10.4622 17.2412 11.7182 17.2636 12.3729 16.2835C13.1206 15.1642 11.9958 13.667 10.7021 14.0594ZM38.3556 14.0665C38.1638 14.1227 37.8523 14.3446 37.6635 14.5598C37.3786 14.8842 37.3199 15.0443 37.3199 15.497C37.3199 15.9478 37.3789 16.1101 37.6577 16.4277C38.0945 16.9252 38.6028 17.0982 39.1749 16.9441C40.1412 16.684 40.6011 15.5882 40.0934 14.7555C39.7154 14.1357 39.0372 13.8668 38.3556 14.0665Z" fill="#4F4F4F"/>
</svg>
