<svg width="20" height="18" viewBox="0 0 20 18" fill="none" xmlns="http://www.w3.org/2000/svg">
<path d="M15.5445 14.5729C16.0788 14.5729 16.5362 14.3827 16.9167 14.0022C17.2973 13.6216 17.4875 13.1642 17.4875 12.6299C17.4875 12.0955 17.2973 11.6381 16.9167 11.2576C16.5362 10.8771 16.0788 10.6868 15.5445 10.6868C15.0101 10.6868 14.5527 10.8771 14.1722 11.2576C13.7917 11.6381 13.6014 12.0955 13.6014 12.6299C13.6014 13.1642 13.7917 13.6216 14.1722 14.0022C14.5527 14.3827 15.0101 14.5729 15.5445 14.5729ZM15.3502 17.4875C15.1235 17.4875 14.9251 17.4147 14.7551 17.2689C14.5851 17.1232 14.4758 16.937 14.4272 16.7103L14.2815 16.0302C14.0872 15.9493 13.905 15.8643 13.735 15.7752C13.565 15.6861 13.3909 15.5768 13.2128 15.4473L12.5084 15.6659C12.2979 15.7307 12.0915 15.7226 11.8891 15.6416C11.6867 15.5607 11.5288 15.4311 11.4155 15.253L11.2212 14.913C11.1078 14.7187 11.0673 14.5082 11.0997 14.2815C11.1321 14.0548 11.2373 13.8686 11.4155 13.7228L11.9498 13.2614C11.9174 13.0671 11.9012 12.8566 11.9012 12.6299C11.9012 12.4032 11.9174 12.1927 11.9498 11.9984L11.4155 11.5369C11.2373 11.3912 11.1321 11.209 11.0997 10.9904C11.0673 10.7718 11.1078 10.5654 11.2212 10.3711L11.4398 10.0067C11.5531 9.82863 11.7069 9.6991 11.9012 9.61814C12.0955 9.53717 12.2979 9.52908 12.5084 9.59385L13.2128 9.81244C13.3909 9.6829 13.565 9.57361 13.735 9.48455C13.905 9.39549 14.0872 9.31048 14.2815 9.22952L14.4272 8.52517C14.4758 8.29848 14.5851 8.11631 14.7551 7.97868C14.9251 7.84105 15.1235 7.77223 15.3502 7.77223H15.7388C15.9655 7.77223 16.1638 7.8451 16.3338 7.99082C16.5038 8.13655 16.6131 8.32276 16.6617 8.54945L16.8074 9.22952C17.0018 9.31048 17.1839 9.39549 17.3539 9.48455C17.524 9.57361 17.698 9.6829 17.8761 9.81244L18.5805 9.59385C18.791 9.52908 18.9974 9.53717 19.1998 9.61814C19.4022 9.6991 19.5601 9.82863 19.6735 10.0067L19.8678 10.3468C19.9811 10.5411 20.0216 10.7516 19.9892 10.9783C19.9568 11.205 19.8516 11.3912 19.6735 11.5369L19.1391 11.9984C19.1715 12.1927 19.1877 12.4032 19.1877 12.6299C19.1877 12.8566 19.1715 13.0671 19.1391 13.2614L19.6735 13.7228C19.8516 13.8686 19.9568 14.0507 19.9892 14.2693C20.0216 14.4879 19.9811 14.6944 19.8678 14.8887L19.6492 15.253C19.5358 15.4311 19.382 15.5607 19.1877 15.6416C18.9934 15.7226 18.791 15.7307 18.5805 15.6659L17.8761 15.4473C17.698 15.5768 17.524 15.6861 17.3539 15.7752C17.1839 15.8643 17.0018 15.9493 16.8074 16.0302L16.6617 16.7346C16.6131 16.9613 16.5038 17.1434 16.3338 17.2811C16.1638 17.4187 15.9655 17.4875 15.7388 17.4875H15.3502ZM1.94306 15.5445C1.40872 15.5445 0.951289 15.3542 0.570773 14.9737C0.190258 14.5932 0 14.1357 0 13.6014V1.94306C0 1.40872 0.190258 0.951289 0.570773 0.570773C0.951289 0.190258 1.40872 0 1.94306 0H6.97072C7.22979 0 7.47672 0.0485764 7.71151 0.145729C7.9463 0.242882 8.15275 0.380515 8.33086 0.558629L9.71529 1.94306H17.4875C18.0219 1.94306 18.4793 2.13332 18.8598 2.51383C19.2403 2.89435 19.4306 3.35177 19.4306 3.88612V5.73202C19.4306 6.02348 19.3051 6.24207 19.0541 6.3878C18.8031 6.53353 18.54 6.54163 18.2647 6.41209C17.8437 6.21778 17.3985 6.07205 16.9289 5.9749C16.4593 5.87775 15.9897 5.82917 15.5202 5.82917C13.6095 5.82917 12.0024 6.4971 10.699 7.83295C9.39549 9.1688 8.74376 10.7597 8.74376 12.6056C8.74376 12.9132 8.764 13.2168 8.80448 13.5164C8.84496 13.8159 8.90568 14.1115 8.98664 14.4029C9.0676 14.6944 9.02712 14.9575 8.8652 15.1923C8.70328 15.4271 8.48468 15.5445 8.20942 15.5445H1.94306Z" fill="#00C868"/>
</svg>
