<svg width="9" height="10" viewBox="0 0 9 10" fill="none" xmlns="http://www.w3.org/2000/svg">
<path d="M1.6875 10C1.37812 10 1.11328 9.8912 0.892969 9.67361C0.672656 9.45602 0.5625 9.19444 0.5625 8.88889V1.66667C0.403125 1.66667 0.269531 1.61343 0.161719 1.50694C0.0539063 1.40046 0 1.26852 0 1.11111C0 0.953704 0.0539063 0.821759 0.161719 0.715278C0.269531 0.608796 0.403125 0.555556 0.5625 0.555556H2.8125C2.8125 0.398148 2.86641 0.266204 2.97422 0.159722C3.08203 0.0532407 3.21562 0 3.375 0H5.625C5.78437 0 5.91797 0.0532407 6.02578 0.159722C6.13359 0.266204 6.1875 0.398148 6.1875 0.555556H8.4375C8.59688 0.555556 8.73047 0.608796 8.83828 0.715278C8.94609 0.821759 9 0.953704 9 1.11111C9 1.26852 8.94609 1.40046 8.83828 1.50694C8.73047 1.61343 8.59688 1.66667 8.4375 1.66667V8.88889C8.4375 9.19444 8.32734 9.45602 8.10703 9.67361C7.88672 9.8912 7.62187 10 7.3125 10H1.6875ZM3.375 7.77778C3.53437 7.77778 3.66797 7.72454 3.77578 7.61806C3.88359 7.51157 3.9375 7.37963 3.9375 7.22222V3.33333C3.9375 3.17593 3.88359 3.04398 3.77578 2.9375C3.66797 2.83102 3.53437 2.77778 3.375 2.77778C3.21562 2.77778 3.08203 2.83102 2.97422 2.9375C2.86641 3.04398 2.8125 3.17593 2.8125 3.33333V7.22222C2.8125 7.37963 2.86641 7.51157 2.97422 7.61806C3.08203 7.72454 3.21562 7.77778 3.375 7.77778ZM5.625 7.77778C5.78437 7.77778 5.91797 7.72454 6.02578 7.61806C6.13359 7.51157 6.1875 7.37963 6.1875 7.22222V3.33333C6.1875 3.17593 6.13359 3.04398 6.02578 2.9375C5.91797 2.83102 5.78437 2.77778 5.625 2.77778C5.46562 2.77778 5.33203 2.83102 5.22422 2.9375C5.11641 3.04398 5.0625 3.17593 5.0625 3.33333V7.22222C5.0625 7.37963 5.11641 7.51157 5.22422 7.61806C5.33203 7.72454 5.46562 7.77778 5.625 7.77778Z" fill="#303030"/>
</svg>
