<svg width="18" height="18" viewBox="0 0 12 12" fill="none" xmlns="http://www.w3.org/2000/svg">
    <path
        d="M5.16 7.08L3.87 5.79C3.76 5.68 3.62 5.625 3.45 5.625C3.28 5.625 3.14 5.68 3.03 5.79C2.92 5.9 2.865 6.04 2.865 6.21C2.865 6.38 2.92 6.52 3.03 6.63L4.74 8.34C4.86 8.46 5 8.52 5.16 8.52C5.32 8.52 5.46 8.46 5.58 8.34L8.97 4.95C9.08 4.84 9.135 4.7 9.135 4.53C9.135 4.36 9.08 4.22 8.97 4.11C8.86 4 8.72 3.945 8.55 3.945C8.38 3.945 8.24 4 8.13 4.11L5.16 7.08ZM6 12C5.17 12 4.39 11.8425 3.66 11.5275C2.93 11.2125 2.295 10.785 1.755 10.245C1.215 9.705 0.7875 9.07 0.4725 8.34C0.1575 7.61 0 6.83 0 6C0 5.17 0.1575 4.39 0.4725 3.66C0.7875 2.93 1.215 2.295 1.755 1.755C2.295 1.215 2.93 0.7875 3.66 0.4725C4.39 0.1575 5.17 0 6 0C6.83 0 7.61 0.1575 8.34 0.4725C9.07 0.7875 9.705 1.215 10.245 1.755C10.785 2.295 11.2125 2.93 11.5275 3.66C11.8425 4.39 12 5.17 12 6C12 6.83 11.8425 7.61 11.5275 8.34C11.2125 9.07 10.785 9.705 10.245 10.245C9.705 10.785 9.07 11.2125 8.34 11.5275C7.61 11.8425 6.83 12 6 12Z"
        fill="#AAAAAA" />
</svg>
