<svg width="20" height="20" viewBox="0 0 20 20" fill="none" xmlns="http://www.w3.org/2000/svg">
<path d="M12 13C12.2833 13 12.5292 12.8958 12.7375 12.6875C12.9458 12.4792 13.05 12.2333 13.05 11.95C13.05 11.6667 12.9458 11.4208 12.7375 11.2125C12.5292 11.0042 12.2833 10.9 12 10.9C11.7167 10.9 11.4708 11.0042 11.2625 11.2125C11.0542 11.4208 10.95 11.6667 10.95 11.95C10.95 12.2333 11.0542 12.4792 11.2625 12.6875C11.4708 12.8958 11.7167 13 12 13ZM12 9.8C12.1833 9.8 12.3542 9.73333 12.5125 9.6C12.6708 9.46667 12.7667 9.29167 12.8 9.075C12.8333 8.875 12.9042 8.69167 13.0125 8.525C13.1208 8.35833 13.3167 8.13333 13.6 7.85C14.1 7.35 14.4333 6.94583 14.6 6.6375C14.7667 6.32917 14.85 5.96667 14.85 5.55C14.85 4.8 14.5875 4.1875 14.0625 3.7125C13.5375 3.2375 12.85 3 12 3C11.45 3 10.95 3.125 10.5 3.375C10.05 3.625 9.69167 3.98333 9.425 4.45C9.325 4.61667 9.31667 4.79167 9.4 4.975C9.48333 5.15833 9.625 5.29167 9.825 5.375C10.0083 5.45833 10.1875 5.46667 10.3625 5.4C10.5375 5.33333 10.6833 5.21667 10.8 5.05C10.95 4.83333 11.125 4.67083 11.325 4.5625C11.525 4.45417 11.75 4.4 12 4.4C12.4 4.4 12.725 4.5125 12.975 4.7375C13.225 4.9625 13.35 5.26667 13.35 5.65C13.35 5.88333 13.2833 6.10417 13.15 6.3125C13.0167 6.52083 12.7833 6.78333 12.45 7.1C11.9667 7.51667 11.6583 7.8375 11.525 8.0625C11.3917 8.2875 11.3083 8.61667 11.275 9.05C11.2583 9.25 11.3208 9.425 11.4625 9.575C11.6042 9.725 11.7833 9.8 12 9.8ZM6 16C5.45 16 4.97917 15.8042 4.5875 15.4125C4.19583 15.0208 4 14.55 4 14V2C4 1.45 4.19583 0.979167 4.5875 0.5875C4.97917 0.195833 5.45 0 6 0H18C18.55 0 19.0208 0.195833 19.4125 0.5875C19.8042 0.979167 20 1.45 20 2V14C20 14.55 19.8042 15.0208 19.4125 15.4125C19.0208 15.8042 18.55 16 18 16H6ZM2 20C1.45 20 0.979167 19.8042 0.5875 19.4125C0.195833 19.0208 0 18.55 0 18V5C0 4.71667 0.0958333 4.47917 0.2875 4.2875C0.479167 4.09583 0.716667 4 1 4C1.28333 4 1.52083 4.09583 1.7125 4.2875C1.90417 4.47917 2 4.71667 2 5V18H15C15.2833 18 15.5208 18.0958 15.7125 18.2875C15.9042 18.4792 16 18.7167 16 19C16 19.2833 15.9042 19.5208 15.7125 19.7125C15.5208 19.9042 15.2833 20 15 20H2Z" fill="#00C868"/>
</svg>
