<svg width="11" height="20" viewBox="0 0 11 20" fill="none" xmlns="http://www.w3.org/2000/svg">
<path d="M2.86817 9.99363L10.6099 17.7354C10.8733 17.9987 11.0005 18.3103 10.9918 18.6702C10.983 19.0301 10.8469 19.3417 10.5836 19.605C10.3203 19.8683 10.0087 20 9.6488 20C9.28892 20 8.97732 19.8683 8.714 19.605L0.629904 11.4946C0.419243 11.2839 0.261247 11.0469 0.155917 10.7836C0.0505875 10.5203 -0.00207816 10.257 -0.00207814 9.99363C-0.00207811 9.7303 0.0505876 9.46698 0.155917 9.20365C0.261248 8.94032 0.419243 8.70333 0.629904 8.49267L8.74033 0.382244C9.00366 0.118919 9.31087 -0.00835433 9.66197 0.000423315C10.0131 0.00920096 10.3203 0.145252 10.5836 0.408577C10.8469 0.671904 10.9786 0.983505 10.9786 1.34338C10.9786 1.70326 10.8469 2.01486 10.5836 2.27819L2.86817 9.99363Z" fill="#303030"/>
</svg>
