<svg width="76" height="50" viewBox="0 0 76 50" fill="none" xmlns="http://www.w3.org/2000/svg">
<path fill-rule="evenodd" clip-rule="evenodd" d="M47.9167 0.18018C47.6817 0.363582 28.4166 39.5999 27.8681 41.012C27.4327 42.1333 27.3258 42.9616 27.4691 44.102C27.6382 45.4477 28.1115 46.4591 29.0537 47.4873C29.936 48.4501 31.2669 49.1827 32.5626 49.4185C35.2839 49.9138 38.3413 48.1351 39.2757 45.513C39.5522 44.7373 49.5827 1.31086 49.5827 0.889602C49.5827 0.189379 48.4972 -0.272836 47.9167 0.18018ZM36.5407 5.82336C36.3145 6.09564 35.8865 14.39 36.0863 14.6314C36.1632 14.7246 36.5415 14.8463 36.9268 14.9018C37.3122 14.9573 37.7778 15.0386 37.9617 15.0824C38.2701 15.1558 38.4613 14.823 40.448 10.7525C41.6317 8.32733 42.5697 6.29344 42.5321 6.2329C42.4578 6.11286 40.2 5.84591 38.0616 5.70436C37.0027 5.63417 36.6766 5.65969 36.5407 5.82336ZM31.3901 6.03495C28.1197 6.47922 23.7643 7.83455 20.5488 9.4086C18.2902 10.5142 14.7911 12.7044 14.6354 13.1099C14.5886 13.2317 14.7 13.5525 14.8829 13.8226C15.0659 14.0928 15.8361 15.2319 16.5944 16.354C17.3528 17.4762 18.0661 18.3943 18.1794 18.3943C18.2929 18.3943 19.1277 18.0229 20.0346 17.5688C21.9412 16.6143 24.9484 15.5763 27.0832 15.1359C27.9001 14.9674 29.6192 14.7495 30.9035 14.6516C32.221 14.5513 33.2629 14.4066 33.2946 14.3197C33.3771 14.0911 32.8401 6.26198 32.7296 6.08318C32.6358 5.93153 32.2528 5.91788 31.3901 6.03495ZM48.7067 13.6053C48.0332 16.5211 47.5434 18.927 47.618 18.9518C47.6926 18.9765 48.1641 19.2954 48.6657 19.6601C49.1676 20.0249 49.6823 20.3233 49.8097 20.3233C50.0904 20.3233 55.8201 11.7014 55.8201 11.2791C55.8201 11.0659 55.4254 10.78 54.2979 10.1763C52.7 9.32106 50.428 8.30419 50.1149 8.30419C49.9949 8.30419 49.5053 10.1479 48.7067 13.6053ZM58.6889 13.8383C57.5832 15.0237 51.959 21.954 51.96 22.1298C51.9606 22.238 52.4926 22.9218 53.142 23.6494C55.7551 26.5772 57.5492 29.5594 58.8631 33.1585C59.1364 33.907 59.4453 34.5129 59.566 34.5372C59.6845 34.561 62.0479 33.6695 64.8179 32.556C71.9521 29.6882 72.0078 29.6642 72.0078 29.4535C72.0078 28.8779 70.3026 25.709 68.7144 23.3331C66.6237 20.2054 63.511 16.7388 60.8695 14.5959C59.2452 13.2783 59.2195 13.2694 58.6889 13.8383ZM10.3263 16.7984C7.70658 19.5567 5.54589 22.6084 3.89014 25.8885C2.66418 28.3171 1.71847 30.6966 1.78767 31.1787C1.82777 31.4584 2.11113 31.628 3.39575 32.141C4.2534 32.4835 5.03353 32.7691 5.12917 32.7756C5.22496 32.7822 5.68861 32.0698 6.15954 31.1924C8.2678 27.2645 11.2826 23.6067 14.4672 21.1127C15.0738 20.6377 15.5708 20.1489 15.5717 20.0265C15.5742 19.6977 12.0213 15.5751 11.7348 15.5742C11.5999 15.5739 10.9661 16.1247 10.3263 16.7984ZM66.6748 35.0907C63.1291 36.1009 60.1746 37.0136 60.1094 37.119C60.0442 37.2245 60.0207 37.4448 60.0574 37.6088C60.7179 40.5583 60.6806 45.0213 59.9668 48.4954C59.8099 49.2593 59.6814 49.9104 59.6814 49.9421C59.6814 49.974 63.2186 50 67.5419 50C74.2257 50 75.4347 49.9677 75.6185 49.784C75.7923 49.6103 75.8554 48.7435 75.9401 45.3695C75.9979 43.0604 76.0173 40.8707 75.9831 40.5034C75.949 40.1362 75.9004 40.8373 75.8753 42.0615L75.8296 44.2872L75.701 43.026C75.4788 40.8484 74.8649 37.5362 74.3142 35.5443C73.7846 33.6284 73.604 33.2231 73.2892 33.2433C73.1969 33.2493 70.2206 34.0807 66.6748 35.0907ZM0.746016 34.9107C0.657355 35.0175 0.474686 35.6687 0.340432 36.3575C-0.0201522 38.205 -0.127229 46.0993 0.180486 48.1391C0.425232 49.7618 0.582505 50 1.40867 50C2.21969 50 2.3483 49.735 2.25474 48.2556C2.07964 45.4894 2.73577 40.4776 3.695 37.2543C3.95875 36.3681 4.0985 35.656 4.02365 35.5813C3.90603 35.4637 1.31659 34.7165 1.027 34.7165C0.961208 34.7165 0.834825 34.8039 0.746016 34.9107ZM32.5782 40.488C30.9046 41.2621 30.2963 43.3637 31.3155 44.8499C32.4586 46.5167 34.8253 46.5474 36.1271 44.9124C36.7261 44.1601 36.8486 42.7843 36.3953 41.9009C35.6348 40.4186 34.0202 39.8209 32.5782 40.488Z" fill="black"/>
</svg>
