<svg width="13" height="15" viewBox="0 0 13 15" fill="none" xmlns="http://www.w3.org/2000/svg">
<path d="M6.20957 15C6.02846 15 5.84735 14.9677 5.66623 14.903C5.48512 14.8383 5.32341 14.7413 5.18111 14.6119C4.34023 13.8357 3.59638 13.0789 2.94955 12.3415C2.30272 11.6041 1.76261 10.8894 1.32924 10.1973C0.89586 9.50517 0.565977 8.83894 0.339586 8.19858C0.113195 7.55821 0 6.94696 0 6.36481C0 4.42432 0.624191 2.8784 1.87257 1.72704C3.12096 0.575679 4.56662 0 6.20957 0C7.85252 0 9.29819 0.575679 10.5466 1.72704C11.795 2.8784 12.4191 4.42432 12.4191 6.36481C12.4191 6.94696 12.306 7.55821 12.0796 8.19858C11.8532 8.83894 11.5233 9.50517 11.0899 10.1973C10.6565 10.8894 10.1164 11.6041 9.4696 12.3415C8.82277 13.0789 8.07891 13.8357 7.23803 14.6119C7.09573 14.7413 6.93402 14.8383 6.75291 14.903C6.5718 14.9677 6.39069 15 6.20957 15ZM6.20957 7.76197C6.63648 7.76197 7.00194 7.60996 7.30595 7.30595C7.60996 7.00194 7.76197 6.63648 7.76197 6.20957C7.76197 5.78266 7.60996 5.41721 7.30595 5.1132C7.00194 4.80919 6.63648 4.65718 6.20957 4.65718C5.78266 4.65718 5.41721 4.80919 5.11319 5.1132C4.80918 5.41721 4.65718 5.78266 4.65718 6.20957C4.65718 6.63648 4.80918 7.00194 5.11319 7.30595C5.41721 7.60996 5.78266 7.76197 6.20957 7.76197Z" fill="#00C868"/>
</svg>
