<svg width="34" height="34" viewBox="0 0 34 34" fill="none" xmlns="http://www.w3.org/2000/svg">
<g clip-path="url(#clip0_987_213)">
<path d="M17 33.5C26.1127 33.5 33.5 26.1127 33.5 17C33.5 7.8873 26.1127 0.5 17 0.5C7.8873 0.5 0.5 7.8873 0.5 17C0.5 26.1127 7.8873 33.5 17 33.5Z" stroke="#3BD101"/>
<path d="M26.4301 27C26.2867 27 26.1523 26.9731 26.0269 26.9194C25.9014 26.8656 25.7849 26.7849 25.6774 26.6774L23.2043 24.2043H12.4516C11.8602 24.2043 11.3539 23.9937 10.9328 23.5726C10.5116 23.1514 10.3011 22.6452 10.3011 22.0538V20.9785H22.129C22.7204 20.9785 23.2267 20.7679 23.6479 20.3468C24.069 19.9256 24.2796 19.4194 24.2796 18.828V11.3011H25.3548C25.9462 11.3011 26.4525 11.5116 26.8737 11.9328C27.2948 12.3539 27.5054 12.8602 27.5054 13.4516V25.8979C27.5054 26.2204 27.3979 26.4848 27.1828 26.6909C26.9677 26.897 26.7168 27 26.4301 27ZM7.07527 21.6237C6.78853 21.6237 6.53763 21.5206 6.32258 21.3145C6.10753 21.1084 6 20.8441 6 20.5215V9.15054C6 8.55914 6.21057 8.05287 6.63172 7.63172C7.05287 7.21057 7.55914 7 8.15054 7H19.9785C20.5699 7 21.0762 7.21057 21.4973 7.63172C21.9185 8.05287 22.129 8.55914 22.129 9.15054V16.6774C22.129 17.2688 21.9185 17.7751 21.4973 18.1962C21.0762 18.6174 20.5699 18.828 19.9785 18.828H10.3011L7.82796 21.3011C7.72043 21.4086 7.60394 21.4892 7.47849 21.543C7.35305 21.5968 7.21864 21.6237 7.07527 21.6237Z" fill="#3BD101"/>
</g>
<defs>
<clipPath id="clip0_987_213">
<rect width="34" height="34" fill="white"/>
</clipPath>
</defs>
</svg>
