<svg width="20" height="20" viewBox="0 0 20 20" fill="none" xmlns="http://www.w3.org/2000/svg">
<path d="M10 20C8.61667 20 7.31667 19.7375 6.1 19.2125C4.88333 18.6875 3.825 17.975 2.925 17.075C2.025 16.175 1.3125 15.1167 0.7875 13.9C0.2625 12.6833 0 11.3833 0 10C0 8.78333 0.204167 7.62917 0.6125 6.5375C1.02083 5.44583 1.58333 4.46667 2.3 3.6C2.48333 3.36667 2.70417 3.25833 2.9625 3.275C3.22083 3.29167 3.44167 3.38333 3.625 3.55C3.80833 3.71667 3.92917 3.93333 3.9875 4.2C4.04583 4.46667 3.95833 4.74167 3.725 5.025C3.19167 5.70833 2.77083 6.47083 2.4625 7.3125C2.15417 8.15417 2 9.05 2 10C2 12.2333 2.775 14.125 4.325 15.675C5.875 17.225 7.76667 18 10 18C12.2333 18 14.125 17.225 15.675 15.675C17.225 14.125 18 12.2333 18 10C18 9.05 17.8458 8.15417 17.5375 7.3125C17.2292 6.47083 16.8083 5.70833 16.275 5.025C16.0417 4.74167 15.9542 4.46667 16.0125 4.2C16.0708 3.93333 16.1917 3.71667 16.375 3.55C16.5583 3.38333 16.7792 3.29167 17.0375 3.275C17.2958 3.25833 17.5167 3.36667 17.7 3.6C18.4167 4.46667 18.9792 5.44583 19.3875 6.5375C19.7958 7.62917 20 8.78333 20 10C20 11.3833 19.7375 12.6833 19.2125 13.9C18.6875 15.1167 17.975 16.175 17.075 17.075C16.175 17.975 15.1167 18.6875 13.9 19.2125C12.6833 19.7375 11.3833 20 10 20ZM10 11C9.71667 11 9.47917 10.9042 9.2875 10.7125C9.09583 10.5208 9 10.2833 9 10V1C9 0.716667 9.09583 0.479167 9.2875 0.2875C9.47917 0.0958333 9.71667 0 10 0C10.2833 0 10.5208 0.0958333 10.7125 0.2875C10.9042 0.479167 11 0.716667 11 1V10C11 10.2833 10.9042 10.5208 10.7125 10.7125C10.5208 10.9042 10.2833 11 10 11Z" fill="#00C868"/>
</svg>
