<svg width="15" height="15" viewBox="0 0 25 20" fill="none" xmlns="http://www.w3.org/2000/svg">
    <path
        d="M5 20C3.625 20 2.44792 19.5104 1.46875 18.5312C0.489583 17.5521 0 16.375 0 15V5C0 3.625 0.489583 2.44792 1.46875 1.46875C2.44792 0.489583 3.625 0 5 0H20C21.375 0 22.5521 0.489583 23.5312 1.46875C24.5104 2.44792 25 3.625 25 5V15C25 16.375 24.5104 17.5521 23.5312 18.5312C22.5521 19.5104 21.375 20 20 20H5ZM5 5H20C20.4583 5 20.8958 5.05208 21.3125 5.15625C21.7292 5.26042 22.125 5.42708 22.5 5.65625V5C22.5 4.3125 22.2552 3.72396 21.7656 3.23438C21.276 2.74479 20.6875 2.5 20 2.5H5C4.3125 2.5 3.72396 2.74479 3.23438 3.23438C2.74479 3.72396 2.5 4.3125 2.5 5V5.65625C2.875 5.42708 3.27083 5.26042 3.6875 5.15625C4.10417 5.05208 4.54167 5 5 5ZM2.6875 9.0625L16.5938 12.4375C16.7812 12.4792 16.9688 12.4792 17.1562 12.4375C17.3438 12.3958 17.5208 12.3125 17.6875 12.1875L22.0312 8.5625C21.8021 8.25 21.5104 7.99479 21.1562 7.79688C20.8021 7.59896 20.4167 7.5 20 7.5H5C4.45833 7.5 3.98438 7.64062 3.57812 7.92188C3.17188 8.20312 2.875 8.58333 2.6875 9.0625Z"
        fill="#00C868" />
</svg>
