<svg width="19" height="20" viewBox="0 0 19 20" fill="none" xmlns="http://www.w3.org/2000/svg">
<path d="M0 17.7143V7.42857C0 7.06667 0.0809524 6.72381 0.242857 6.4C0.404762 6.07619 0.628572 5.80952 0.914286 5.6L7.77143 0.457143C8.17143 0.152381 8.62857 0 9.14286 0C9.65714 0 10.1143 0.152381 10.5143 0.457143L17.3714 5.6C17.6571 5.80952 17.881 6.07619 18.0429 6.4C18.2048 6.72381 18.2857 7.06667 18.2857 7.42857V17.7143C18.2857 18.3429 18.0619 18.881 17.6143 19.3286C17.1667 19.7762 16.6286 20 16 20H12.5714C12.2476 20 11.9762 19.8905 11.7571 19.6714C11.5381 19.4524 11.4286 19.181 11.4286 18.8571V13.1429C11.4286 12.819 11.319 12.5476 11.1 12.3286C10.881 12.1095 10.6095 12 10.2857 12H8C7.67619 12 7.40476 12.1095 7.18571 12.3286C6.96667 12.5476 6.85714 12.819 6.85714 13.1429V18.8571C6.85714 19.181 6.74762 19.4524 6.52857 19.6714C6.30952 19.8905 6.0381 20 5.71429 20H2.28571C1.65714 20 1.11905 19.7762 0.671429 19.3286C0.22381 18.881 0 18.3429 0 17.7143Z" fill="#00C868"/>
</svg>
