<svg width="18" height="20" viewBox="0 0 18 20" fill="white" xmlns="http://www.w3.org/2000/svg">
<path d="M9.03756 17.5587H8.77934C6.3349 17.5587 4.26056 16.7066 2.55634 15.0023C0.852113 13.2981 0 11.2238 0 8.77934C0 6.3349 0.852113 4.26056 2.55634 2.55634C4.26056 0.852113 6.3349 0 8.77934 0C10.0016 0 11.142 0.228091 12.2007 0.684272C13.2594 1.14045 14.189 1.76878 14.9894 2.56925C15.7899 3.36972 16.4182 4.2993 16.8744 5.35798C17.3306 6.41667 17.5587 7.55712 17.5587 8.77934C17.5587 11.0861 16.9088 13.2293 15.6092 15.2089C14.3095 17.1886 12.6698 18.7379 10.6901 19.8568C10.518 19.9429 10.3459 19.9902 10.1737 19.9988C10.0016 20.0074 9.84663 19.9687 9.70892 19.8826C9.5712 19.7966 9.4507 19.6847 9.34742 19.5469C9.24413 19.4092 9.18388 19.2457 9.16667 19.0563L9.03756 17.5587ZM8.75352 14.4343C9.04616 14.4343 9.29577 14.331 9.50235 14.1244C9.70892 13.9178 9.81221 13.6682 9.81221 13.3756C9.81221 13.0829 9.70892 12.8333 9.50235 12.6268C9.29577 12.4202 9.04616 12.3169 8.75352 12.3169C8.46088 12.3169 8.21127 12.4202 8.00469 12.6268C7.79812 12.8333 7.69483 13.0829 7.69483 13.3756C7.69483 13.6682 7.79812 13.9178 8.00469 14.1244C8.21127 14.331 8.46088 14.4343 8.75352 14.4343ZM6.50704 6.58451C6.6964 6.67058 6.88576 6.67488 7.07512 6.59742C7.26447 6.51995 7.4194 6.39515 7.53991 6.223C7.69483 6.01643 7.87559 5.8572 8.08216 5.74531C8.28873 5.63341 8.52113 5.57747 8.77934 5.57747C9.19249 5.57747 9.52817 5.69366 9.78638 5.92606C10.0446 6.15845 10.1737 6.4554 10.1737 6.8169C10.1737 7.04069 10.1092 7.26448 9.98005 7.48826C9.85094 7.71205 9.62285 7.98748 9.29577 8.31455C8.86541 8.69327 8.54695 9.05047 8.34037 9.38615C8.1338 9.72183 8.03052 10.0618 8.03052 10.4061C8.03052 10.6127 8.10368 10.7891 8.25 10.9354C8.39632 11.0818 8.57277 11.1549 8.77934 11.1549C8.98591 11.1549 9.15806 11.0775 9.29577 10.9225C9.43349 10.7676 9.53677 10.5869 9.60563 10.3803C9.6917 10.0876 9.84663 9.82081 10.0704 9.57981C10.2942 9.33881 10.5008 9.12363 10.6901 8.93427C11.0516 8.57277 11.3228 8.21127 11.5035 7.84977C11.6843 7.48826 11.7746 7.12676 11.7746 6.76526C11.7746 5.9734 11.5035 5.33646 10.9613 4.85446C10.419 4.37246 9.6917 4.13146 8.77934 4.13146C8.22848 4.13146 7.72066 4.26487 7.25587 4.53169C6.79108 4.79851 6.41236 5.16432 6.11972 5.62911C6.01643 5.81847 6.00352 6.00352 6.08099 6.18427C6.15845 6.36502 6.30047 6.49844 6.50704 6.58451Z" fill="#00C868"/>
</svg>
