<svg width="24" height="20" viewBox="0 0 24 20" fill="none" xmlns="http://www.w3.org/2000/svg">
<path d="M21.5385 -0.000901961C22.2154 -0.00090202 22.7949 0.240124 23.2769 0.722174C23.759 1.20423 24 1.78371 24 2.46064L24 17.2299C24 17.9068 23.759 18.4863 23.2769 18.9683C22.7949 19.4504 22.2154 19.6914 21.5385 19.6914L8 19.6914C7.61026 19.6914 7.24103 19.6042 6.89231 19.4299C6.54359 19.2555 6.25641 19.0145 6.03077 18.7068L0.492307 11.3222C0.164102 10.8914 -8.12359e-07 10.3991 -8.60778e-07 9.84525C-9.09197e-07 9.29141 0.164102 8.7991 0.492307 8.36833L6.03077 0.983715C6.25641 0.676021 6.54359 0.434997 6.89231 0.260637C7.24102 0.0862785 7.61025 -0.000900743 8 -0.000900777L21.5385 -0.000901961Z" fill="#00C868"/>
</svg>
