<svg width="60" height="60" viewBox="0 0 60 60" fill="none" xmlns="http://www.w3.org/2000/svg">
    <path
        d="M30 30C25.875 30 22.3438 28.5312 19.4062 25.5938C16.4688 22.6562 15 19.125 15 15C15 10.875 16.4688 7.34375 19.4062 4.40625C22.3438 1.46875 25.875 0 30 0C34.125 0 37.6562 1.46875 40.5938 4.40625C43.5312 7.34375 45 10.875 45 15C45 19.125 43.5312 22.6562 40.5938 25.5938C37.6562 28.5312 34.125 30 30 30ZM0 52.5V49.5C0 47.375 0.546875 45.4219 1.64062 43.6406C2.73438 41.8594 4.1875 40.5 6 39.5625C9.875 37.625 13.8125 36.1719 17.8125 35.2031C21.8125 34.2344 25.875 33.75 30 33.75C34.125 33.75 38.1875 34.2344 42.1875 35.2031C46.1875 36.1719 50.125 37.625 54 39.5625C55.8125 40.5 57.2656 41.8594 58.3594 43.6406C59.4531 45.4219 60 47.375 60 49.5V52.5C60 54.5625 59.2656 56.3281 57.7969 57.7969C56.3281 59.2656 54.5625 60 52.5 60H7.5C5.4375 60 3.67188 59.2656 2.20312 57.7969C0.734375 56.3281 0 54.5625 0 52.5Z"
        fill="#00C868" />
</svg>
