<svg width="201" height="194" viewBox="0 0 201 194" fill="none" xmlns="http://www.w3.org/2000/svg">
<path d="M100.324 194C130.108 194 154.253 190.497 154.253 186.177C154.253 181.856 130.108 178.354 100.324 178.354C70.5396 178.354 46.3946 181.856 46.3946 186.177C46.3946 190.497 70.5396 194 100.324 194Z" fill="#EBEBEB"/>
<path d="M0 159.978L25.081 159.866L50.162 159.824L100.324 159.745L150.486 159.824L175.567 159.866L200.648 159.978L175.567 160.094L150.486 160.132L100.324 160.211L50.162 160.132L25.081 160.094L0 159.978Z" fill="#263238"/>
<path d="M29.9142 122.79C29.4273 124.571 29.1046 126.393 28.9502 128.233C29.0015 128.327 28.9922 128.662 28.9502 128.569C28.9502 128.867 28.4846 128.816 28.4846 128.517C28.4846 128.327 28.4846 128.136 28.4846 127.949C27.4228 126.627 25.8768 125.789 24.6242 124.638C23.6195 123.737 22.8872 122.572 22.51 121.276C21.4762 117.705 22.4448 113.919 21.2015 110.356C20.1258 107.288 18.1979 104.615 16.5681 101.835C14.8451 98.8916 13.5785 95.7809 13.4481 92.3535C13.3503 89.7132 13.6623 86.1974 15.674 84.2183C17.8021 82.1228 20.4424 83.6967 22.077 85.5641C26.8128 90.9798 29.0015 97.8578 29.8862 104.871C30.3519 108.754 30.8781 112.661 30.7617 116.578C30.6877 118.672 30.4038 120.753 29.9142 122.79Z" fill="#00C868"/>
<path d="M28.9736 129.664C29.2306 126 29.187 122.321 28.8432 118.664C28.8432 118.664 28.8432 118.664 28.8432 118.627C28.9037 115.652 29.1366 112.69 29.0201 109.714C28.8759 106.496 28.4379 103.297 27.7116 100.159C27.7116 100.121 27.6464 100.131 27.6557 100.159C28.2349 103.244 28.5805 106.368 28.6895 109.505C28.7516 111.187 28.7376 112.867 28.6476 114.543C28.6197 115.088 28.5684 115.638 28.5358 116.192C27.3007 107.844 24.2831 99.8602 19.6881 92.7825C19.6276 92.6847 19.4553 92.7825 19.5158 92.8896C22.8066 98.2691 25.246 104.125 26.7477 110.25C24.4705 106.035 21.0386 102.571 18.4867 98.5195C18.4867 98.4962 18.4401 98.5195 18.4494 98.5428C20.7405 103.05 24.5031 106.608 26.9339 111.046C27.353 112.858 27.693 114.688 27.9491 116.522C28.2879 119.045 28.4715 121.586 28.4986 124.131C27.1016 121.542 25.672 119.065 24.5404 116.327C24.5125 116.252 24.4054 116.303 24.4286 116.373C25.3926 119.219 26.6918 122.283 28.5033 124.709C28.5033 126.511 28.4613 128.313 28.3542 130.111C28.0748 134.912 27.2506 139.652 26.8734 144.435C26.8743 144.461 26.8846 144.486 26.9025 144.506C26.9204 144.526 26.9446 144.538 26.9709 144.542C26.9973 144.545 27.0239 144.539 27.0462 144.524C27.0684 144.51 27.0847 144.488 27.0923 144.463C28.0515 139.577 28.68 134.633 28.9736 129.664Z" fill="#263238"/>
<path d="M23.8745 92.6327C23.8745 92.6001 23.8093 92.6327 23.8233 92.6327C24.6988 95.0588 25.1924 97.5175 25.8257 100.004C25.8327 100.026 25.8471 100.044 25.8664 100.055C25.8857 100.067 25.9086 100.071 25.9307 100.067C25.9528 100.063 25.9728 100.051 25.9869 100.034C26.001 100.016 26.0082 99.9941 26.0073 99.9716C25.7512 97.4989 24.8524 94.9563 23.8745 92.6327Z" fill="#263238"/>
<path d="M46.143 102.8C45.5596 104.222 44.8861 105.607 44.1266 106.944C42.548 109.813 40.8995 112.439 40.6015 115.792C40.4711 117.282 40.4245 118.781 39.9682 120.216C39.5548 121.452 38.96 122.619 38.2033 123.68C36.4943 126.176 34.3522 128.337 32.7689 130.912C31.1184 133.609 29.8992 136.547 29.1553 139.62C29.1134 139.788 28.8526 139.746 28.8899 139.578C28.892 139.566 28.892 139.553 28.8899 139.541C28.8865 139.529 28.8865 139.516 28.8899 139.504C28.6384 132.342 29.2112 125.128 31.3952 118.269C32.3591 115.248 33.5179 112.293 34.8644 109.421C36.0333 106.935 37.4908 104.541 39.5211 102.683C40.853 101.482 43.7448 99.2092 45.6401 100.411C46.5714 100.993 46.5015 101.905 46.143 102.8Z" fill="#00C868"/>
<path d="M38.9483 119.032C37.686 121.11 36.2956 123.107 34.7852 125.011C34.096 125.92 33.3882 126.814 32.699 127.722C32.3731 128.15 32.0052 128.574 31.7072 129.035C31.8934 128.28 32.0797 127.531 32.2706 126.776C33.202 123.158 34.0821 119.507 35.4605 116.029C36.8713 112.66 38.5322 109.403 40.4292 106.282C40.4804 106.203 40.3453 106.142 40.2941 106.222C38.7853 108.708 37.2486 111.195 35.9774 113.817C35.2751 115.281 34.6623 116.786 34.1426 118.324C34.7253 115.054 35.5407 111.83 36.5827 108.676C36.5827 108.648 36.5501 108.629 36.5408 108.676C35.1755 111.861 34.3206 115.241 34.0076 118.692C33.6956 119.624 33.4115 120.555 33.1461 121.486C32.0192 125.491 31.0273 129.538 30.1099 133.594C30.0926 130.924 30.3233 128.258 30.7991 125.631C30.7991 125.57 30.7199 125.556 30.706 125.631C30.0078 128.366 29.7733 131.2 30.0121 134.013C29.6675 135.565 29.3291 137.117 28.997 138.67C28.2938 141.971 27.4323 145.329 27.0179 148.681C27.0183 148.698 27.0243 148.713 27.0348 148.725C27.0454 148.738 27.0599 148.746 27.0758 148.749C27.0917 148.751 27.1081 148.748 27.1222 148.74C27.1363 148.732 27.1471 148.72 27.1529 148.705C27.6419 146.898 27.9399 145.021 28.3404 143.196C28.7408 141.37 29.1599 139.526 29.5837 137.701C30.2077 135.033 30.8596 132.378 31.5209 129.724C31.9866 128.751 32.8248 127.885 33.4674 127.07C34.1705 126.176 34.8644 125.277 35.5629 124.369C36.8497 122.685 38.0019 120.902 39.0089 119.037C39.0321 119.018 38.9716 118.995 38.9483 119.032Z" fill="#263238"/>
<path d="M39.2557 115.968C37.678 117.979 36.3126 120.148 35.1811 122.44C35.1811 122.468 35.2137 122.496 35.2323 122.468C36.6014 120.322 37.9471 118.156 39.3162 116.009C39.3209 115.972 39.279 115.935 39.2557 115.968Z" fill="#263238"/>
<path d="M8.77282 109.607C9.70416 111.204 10.7612 113.123 10.3608 115.041C10.1093 116.256 9.21987 117.244 9.06154 118.482C8.69832 121.216 11.4271 123.023 13.3969 124.317C18.3144 127.544 25.0387 130.418 25.97 137.007C26.0026 137.24 26.4078 137.179 26.3798 136.951C26.382 136.937 26.382 136.923 26.3798 136.909C26.3798 136.909 26.3798 136.909 26.3798 136.872C27.0254 133.539 26.9921 130.11 26.282 126.79C25.5509 123.395 24.0654 120.345 22.3192 117.36C19.3575 112.312 16.2235 107.143 11.7531 103.278C10.5144 102.207 7.97653 100.284 6.9893 102.696C6.00208 105.108 7.65521 107.637 8.77282 109.607Z" fill="#00C868"/>
<path d="M13.2712 120.29C16.5309 123.82 21.7138 125.799 24.5218 129.752C22.9553 123.734 19.9927 118.169 15.8743 113.51C15.8606 113.486 15.8548 113.459 15.8577 113.433C15.8605 113.406 15.872 113.381 15.8902 113.361C15.9085 113.341 15.9326 113.328 15.9591 113.323C15.9856 113.317 16.013 113.321 16.0373 113.333C19.0405 116.252 21.4408 119.733 23.1015 123.578C22.3269 120.897 21.3091 118.292 20.0607 115.796C20.0519 115.777 20.0505 115.756 20.0568 115.736C20.0631 115.716 20.0766 115.699 20.0946 115.688C20.1127 115.678 20.134 115.675 20.1545 115.679C20.1749 115.683 20.1929 115.695 20.205 115.712C21.7448 118.438 22.8449 121.389 23.4647 124.458C27.1621 133.408 27.5067 143.904 26.7244 153.329C26.7244 153.358 26.7131 153.385 26.693 153.405C26.673 153.425 26.6457 153.436 26.6173 153.436C26.5889 153.436 26.5617 153.425 26.5416 153.405C26.5215 153.385 26.5102 153.358 26.5102 153.329C26.7244 145.878 26.6033 138.33 24.8245 131.07C24.7872 130.921 24.7453 130.772 24.7081 130.604C21.6533 126.348 16.4936 124.378 13.1734 120.336C13.1827 120.318 13.2433 120.253 13.2712 120.29Z" fill="#263238"/>
<path d="M12.5167 117.258C14.2304 118.827 15.9114 120.433 17.6391 122.003C17.6391 122.003 17.6391 122.049 17.6391 122.035C15.7011 120.733 13.955 119.165 12.4515 117.379C12.3584 117.29 12.4468 117.192 12.5167 117.258Z" fill="#263238"/>
<path d="M12.2469 110.454C13.7613 112.937 15.4743 115.293 17.3692 117.5C17.3692 117.528 17.3692 117.57 17.3227 117.542C15.1996 115.52 13.4498 113.14 12.1537 110.51C12.15 110.498 12.1504 110.485 12.1548 110.473C12.1593 110.462 12.1676 110.452 12.1783 110.445C12.1891 110.439 12.2017 110.436 12.2141 110.438C12.2265 110.44 12.2381 110.445 12.2469 110.454Z" fill="#263238"/>
<path d="M19.9536 159.978H34.9389L32.9225 139.814H22.2586L19.9536 159.978Z" fill="#455A64"/>
<path d="M21.8859 143.088H33.2529L32.9223 139.814H22.2584L21.8859 143.088Z" fill="#263238"/>
<path d="M20.4239 140.798H34.4732V137.58H20.4239V140.798Z" fill="#455A64"/>
<path d="M92.7522 138.478L106.005 155.982C108.557 159.316 110.732 162.283 111.714 163.922C111.714 163.922 111.714 163.922 111.714 163.95C111.986 164.308 112.173 164.724 112.259 165.165C112.259 165.165 112.259 165.193 112.259 165.202C111.793 166.632 85.7485 187.787 84.589 188.22C83.4294 188.654 82.1116 185.394 82.4655 183.764C82.8194 182.134 89.1712 169.575 89.1712 169.575L76.1091 151.945L92.7522 138.478Z" fill="#EB9481"/>
<path d="M103.286 152.374L106.006 155.964C108.557 159.299 110.732 162.265 111.715 163.904C111.715 163.904 111.715 163.904 111.715 163.932C111.941 164.315 112.124 164.723 112.259 165.147C112.259 165.147 112.259 165.175 112.259 165.185C111.794 166.614 85.7488 187.77 84.5893 188.203C83.4298 188.636 82.112 185.376 82.4659 183.746C82.8198 182.116 89.1715 169.557 89.1715 169.557L86.3542 165.953L103.286 152.374Z" fill="#EBEBEB"/>
<path d="M84.5983 188.203C85.7579 187.775 111.789 166.619 112.268 165.185C112.459 164.64 109.6 160.668 106.005 155.969L105.889 155.82L88.943 169.283L89.1805 169.562C89.1805 169.562 82.8381 182.135 82.4749 183.751C82.1117 185.367 83.4435 188.641 84.5983 188.203Z" fill="#00C868"/>
<path d="M84.0723 186.954C88.375 183.279 106.066 168.872 110.615 165.565C110.653 165.537 110.676 165.565 110.639 165.593C106.448 169.319 88.6451 183.596 84.1514 187.014C84.0257 187.098 83.9838 187.033 84.0723 186.954Z" fill="#263238"/>
<path d="M87.8118 170.758C89.274 169.03 91.6023 167.582 93.9213 167.74C94.0145 167.74 94.0005 167.871 93.9213 167.899C91.8383 168.709 89.8479 169.739 87.9841 170.972C87.9555 170.983 87.9242 170.985 87.8947 170.977C87.8652 170.969 87.839 170.952 87.8198 170.928C87.8006 170.904 87.7895 170.875 87.7881 170.844C87.7866 170.814 87.7949 170.783 87.8118 170.758Z" fill="#263238"/>
<path d="M87.1735 172.523C88.6404 170.795 90.9687 169.347 93.2878 169.505C93.3762 169.505 93.3669 169.635 93.2878 169.663C91.2048 170.471 89.2144 171.5 87.3505 172.732C87.3221 172.748 87.2892 172.753 87.2573 172.748C87.2254 172.742 87.1965 172.725 87.1756 172.7C87.1547 172.676 87.143 172.644 87.1426 172.612C87.1423 172.579 87.1532 172.548 87.1735 172.523Z" fill="#263238"/>
<path d="M86.54 174.288C88.0022 172.56 90.3306 171.107 92.6496 171.266C92.7381 171.266 92.7288 171.401 92.6496 171.429C90.5676 172.239 88.5774 173.268 86.7123 174.497C86.6842 174.511 86.6523 174.515 86.6218 174.508C86.5913 174.501 86.5639 174.484 86.5441 174.46C86.5243 174.436 86.5131 174.406 86.5123 174.375C86.5116 174.344 86.5214 174.313 86.54 174.288Z" fill="#263238"/>
<path d="M105.023 153.672L86.885 168.871C86.885 168.871 66.0136 142.203 61.3057 128.759C57.9575 119.18 73.4131 71.2437 73.4131 71.2437L93.1902 69.9072C93.1902 69.9072 80.3889 116.074 81.8092 120.558C83.5601 126.021 105.023 153.672 105.023 153.672Z" fill="#37474F"/>
<path d="M84.8684 164.509C87.6857 162.181 86.8429 162.8 89.6928 160.495C91.0898 159.363 100.24 151.95 101.726 151.121C101.758 151.121 101.796 151.154 101.772 151.182C100.631 152.439 91.3459 159.694 89.9349 160.798C87.0431 163.052 87.8487 162.372 84.9336 164.593C84.9281 164.597 84.9218 164.6 84.9151 164.602C84.9084 164.604 84.9014 164.605 84.8945 164.604C84.8875 164.603 84.8809 164.601 84.8748 164.597C84.8687 164.594 84.8634 164.589 84.8591 164.584C84.8548 164.578 84.8517 164.572 84.8498 164.565C84.848 164.558 84.8475 164.551 84.8484 164.544C84.8492 164.538 84.8514 164.531 84.8549 164.525C84.8583 164.519 84.8629 164.513 84.8684 164.509Z" fill="#263238"/>
<path d="M99.0015 150.38C95.6208 146.17 92.3362 141.877 89.1479 137.5C85.9814 133.159 82.8567 128.754 80.0161 124.195C79.3318 123.171 78.7824 122.063 78.3816 120.898C78.0119 119.571 77.964 118.174 78.2419 116.824C78.6843 114.128 79.2478 111.445 79.8112 108.772C80.9475 103.408 82.2389 98.0774 83.6856 92.7812C85.1292 87.4912 86.7451 82.2477 88.4541 77.0369C88.6636 76.3989 88.8778 75.7563 89.0921 75.1137C89.1247 75.0205 88.9756 74.9833 88.943 75.0764C87.0245 80.2981 85.3015 85.585 83.7741 90.9371C82.2467 96.2892 80.8854 101.652 79.6902 107.026C79.0941 109.736 78.54 112.459 78.0277 115.194C77.7105 116.524 77.5541 117.887 77.5621 119.255C77.655 120.446 77.9859 121.607 78.5353 122.668C79.1237 123.808 79.7912 124.905 80.533 125.951C81.2843 127.081 82.0449 128.208 82.8148 129.332C84.367 131.595 85.9503 133.835 87.5647 136.051C90.7778 140.447 94.084 144.801 97.6371 148.932C98.0702 149.439 98.5079 149.942 98.941 150.445C98.955 150.492 99.0388 150.427 99.0015 150.38Z" fill="#263238"/>
<path d="M93.2088 69.9072C93.2088 69.9072 89.4834 83.3744 86.261 96.4504C82.6613 88.9997 76.5238 76.1658 74.4609 71.1552L93.2088 69.9072Z" fill="#263238"/>
<path d="M136.297 77.0977H136.33C137.829 77.2839 163.762 98.5651 164.414 99.6128C165.066 100.661 162.137 102.607 160.475 102.584C158.812 102.561 145.229 98.8584 145.229 98.8584L142.965 101.974C138.691 98.5138 130.895 92.1947 126.164 88.2225C127.482 86.3598 128.548 85.0932 128.553 85.0886C131.305 81.922 133.773 79.1978 135.184 77.9126L135.212 77.8893C135.743 77.3817 136.12 77.1023 136.297 77.0977Z" fill="#EBEBEB"/>
<path d="M164.414 99.6046C163.762 98.5568 137.829 77.2757 136.33 77.0941C135.762 77.0149 132.441 80.6099 128.553 85.071L128.432 85.2153L145.029 99.1296L145.257 98.8409C145.257 98.8409 158.826 102.566 160.498 102.566C162.17 102.566 165.076 100.648 164.414 99.6046Z" fill="#00C868"/>
<path d="M163.297 100.367C158.84 96.8884 141.182 82.4293 137.037 78.6527C137.005 78.6201 137.037 78.5968 137.061 78.6248C141.554 81.9776 159.096 96.5764 163.357 100.297C163.446 100.372 163.39 100.441 163.297 100.367Z" fill="#263238"/>
<path d="M146.682 99.9441C144.698 98.8545 142.807 96.8614 142.491 94.5563C142.491 94.4679 142.607 94.4539 142.649 94.5144C143.857 96.3936 145.262 98.1388 146.84 99.7206C146.862 99.7441 146.875 99.7745 146.878 99.8067C146.88 99.8389 146.871 99.8709 146.852 99.8972C146.834 99.9235 146.806 99.9426 146.775 99.9512C146.744 99.9597 146.711 99.9572 146.682 99.9441Z" fill="#263238"/>
<path d="M148.535 100.214C146.551 99.124 144.665 97.131 144.344 94.8259C144.344 94.7374 144.456 94.7234 144.498 94.7886C145.706 96.6664 147.111 98.4101 148.689 99.9902C148.706 100.014 148.715 100.043 148.716 100.073C148.716 100.102 148.707 100.131 148.69 100.156C148.673 100.18 148.65 100.199 148.622 100.209C148.594 100.22 148.564 100.221 148.535 100.214Z" fill="#263238"/>
<path d="M150.388 100.484C148.409 99.3942 146.519 97.4011 146.197 95.1007C146.197 95.0076 146.314 94.9936 146.356 95.0588C147.563 96.9374 148.968 98.6811 150.547 100.26C150.565 100.285 150.574 100.314 150.575 100.345C150.575 100.375 150.566 100.404 150.548 100.429C150.531 100.454 150.506 100.472 150.477 100.482C150.448 100.492 150.417 100.493 150.388 100.484Z" fill="#263238"/>
<path d="M73.781 71.2018V71.2251C73.8974 71.6255 75.7135 77.9447 77.5063 83.3604C78.8195 87.314 80.1327 90.7786 80.766 91.1045C81.4878 91.4678 84.985 92.7437 86.1585 93.1395C86.1585 93.1395 93.6837 119.175 99.9516 127.646C102.098 130.551 111.877 133.457 116.66 130.319C127.883 122.961 144.502 103.827 144.502 103.827L125.14 87.9939L111.43 106.155C108.036 99.8545 106.192 87.137 106.192 87.137C106.192 87.137 105.423 74.5639 100.813 69.3438L73.781 71.2018Z" fill="#37474F"/>
<path d="M139.836 106.137C136.921 103.921 137.727 104.596 134.835 102.347C133.438 101.243 124.124 94.002 122.988 92.74C122.984 92.7336 122.982 92.7261 122.982 92.7185C122.982 92.7109 122.985 92.7036 122.99 92.6975C122.994 92.6914 123 92.6869 123.008 92.6845C123.015 92.6821 123.023 92.682 123.03 92.6842C124.515 93.5084 133.68 100.913 135.077 102.039C137.922 104.345 137.079 103.716 139.901 106.054C139.907 106.058 139.911 106.063 139.915 106.069C139.918 106.075 139.92 106.082 139.921 106.089C139.922 106.096 139.922 106.103 139.92 106.11C139.918 106.116 139.915 106.123 139.911 106.128C139.906 106.134 139.901 106.138 139.895 106.142C139.889 106.145 139.882 106.147 139.875 106.148C139.868 106.149 139.861 106.149 139.855 106.147C139.848 106.145 139.842 106.142 139.836 106.137Z" fill="#263238"/>
<path d="M100.25 84.0545C99.6257 83.938 98.9691 83.9334 98.3405 83.8775C97.8282 83.8309 97.3207 83.775 96.8131 83.7005C95.8457 83.5963 94.9135 83.2781 94.0842 82.7692C93.1762 82.1592 92.6872 81.1673 92.1843 80.2127C91.8956 79.6492 91.6022 79.0857 91.3042 78.5269L90.8618 77.7167C90.6637 77.4026 90.4833 77.0777 90.3216 76.7434C90.3216 76.6969 90.2238 76.7434 90.2471 76.7714C90.3501 77.0016 90.4387 77.238 90.5125 77.4792C90.615 77.7539 90.7128 78.0333 90.8199 78.3081C91.0062 78.7737 91.1924 79.286 91.3927 79.7749C91.7046 80.6733 92.1219 81.5315 92.636 82.3315C93.6558 83.7285 95.3462 84.2174 97.0086 84.3152C97.4743 84.3385 97.9633 84.3432 98.4383 84.3385C99.0411 84.355 99.6442 84.3176 100.24 84.2267C100.263 84.228 100.286 84.2201 100.303 84.2048C100.32 84.1895 100.33 84.1681 100.331 84.1453C100.332 84.1224 100.325 84.1 100.309 84.083C100.294 84.0659 100.273 84.0557 100.25 84.0545Z" fill="#263238"/>
<path d="M78.9033 90.3277C81.3874 91.0474 83.8041 91.9823 86.1258 93.1217C86.1356 93.1254 86.1446 93.1309 86.1522 93.1381C86.1599 93.1452 86.166 93.1538 86.1704 93.1633C86.1747 93.1728 86.1771 93.1831 86.1774 93.1935C86.1778 93.204 86.1761 93.2144 86.1724 93.2242C86.1687 93.2339 86.1632 93.2429 86.1561 93.2505C86.1489 93.2582 86.1403 93.2643 86.1308 93.2687C86.1213 93.273 86.1111 93.2754 86.1006 93.2757C86.0902 93.2761 86.0798 93.2744 86.07 93.2707C83.6438 92.4185 81.1758 91.6129 78.7962 90.6257C78.7567 90.6115 78.7244 90.5822 78.7065 90.5442C78.6886 90.5062 78.6865 90.4627 78.7007 90.4231C78.7149 90.3836 78.7443 90.3514 78.7822 90.3335C78.8202 90.3156 78.8638 90.3135 78.9033 90.3277Z" fill="#263238"/>
<path d="M77.115 74.2156C77.115 74.1317 77.2593 74.1038 77.264 74.1923C77.4363 76.9863 77.7809 79.445 78.1953 82.0435C78.3909 83.2542 79.8205 89.8993 81.8928 89.266C82.242 89.1589 82.3957 88.8004 82.419 88.2648C82.3616 87.5706 82.2209 86.8858 81.9999 86.2252C81.6692 84.8282 81.3852 83.4312 81.171 82.0342C80.7415 79.4077 80.5854 76.7438 80.7053 74.0852C80.7093 74.0703 80.718 74.0571 80.7302 74.0477C80.7424 74.0383 80.7574 74.0332 80.7728 74.0332C80.7882 74.0332 80.8032 74.0383 80.8154 74.0477C80.8276 74.0571 80.8364 74.0703 80.8404 74.0852C81.028 77.7554 81.495 81.4059 82.2374 85.0051C82.6192 86.7328 83.6763 89.3033 81.8695 89.6944C80.0627 90.0856 78.526 85.7735 78.2186 84.5721C77.4053 81.182 77.0343 77.7009 77.115 74.2156Z" fill="#263238"/>
<path d="M81.8464 89.4616C82.0643 89.9024 82.254 90.3566 82.4145 90.8214C82.5739 91.1771 82.667 91.559 82.6892 91.9483C82.6865 91.9637 82.6795 91.978 82.669 91.9896C82.6586 92.0012 82.6451 92.0097 82.6301 92.0141C82.6151 92.0184 82.5991 92.0185 82.5841 92.0143C82.569 92.0101 82.5554 92.0017 82.5449 91.9902C82.3018 91.6617 82.1116 91.2972 81.9814 90.9098C81.7905 90.4907 81.5902 90.0763 81.4133 89.6525C81.394 89.5962 81.3965 89.5347 81.4203 89.4802C81.4442 89.4257 81.4876 89.3821 81.5421 89.3581C81.5966 89.3341 81.6581 89.3314 81.7144 89.3505C81.7707 89.3697 81.8178 89.4094 81.8464 89.4616Z" fill="#263238"/>
<path d="M123.095 94.8074C120.121 99.0854 116.965 103.242 113.628 107.278C112.725 108.358 111.806 109.426 110.871 110.482C107.84 106.291 106.364 101.28 105.186 96.2882C104.883 95.0076 104.599 93.7224 104.305 92.4371C103.942 91.0714 103.648 89.6882 103.425 88.2927C103.244 86.8444 103.323 85.3683 103.193 83.9107C103.059 82.5011 102.836 81.1013 102.527 79.7197C101.819 76.5889 100.75 73.5509 99.3414 70.667C99.3414 70.6298 99.2576 70.667 99.2716 70.695C100.414 73.3518 101.348 76.0936 102.066 78.8954C102.412 80.3203 102.67 81.765 102.839 83.2215C103.006 84.6884 102.988 86.1552 103.085 87.6268C103.236 89.0222 103.498 90.4033 103.868 91.7573C104.161 93.0378 104.445 94.3231 104.739 95.6037C105.291 98.134 105.981 100.632 106.806 103.087C107.715 105.828 109.042 108.412 110.741 110.747C110.754 110.765 110.771 110.779 110.79 110.788C110.81 110.798 110.831 110.803 110.853 110.803C110.874 110.803 110.896 110.798 110.915 110.788C110.935 110.779 110.952 110.765 110.965 110.747C114.383 106.822 117.647 102.756 120.669 98.5002C121.532 97.2894 122.378 96.0663 123.207 94.8307C123.249 94.8027 123.142 94.7422 123.095 94.8074Z" fill="#263238"/>
<path d="M111.575 106.053C111.459 106.236 111.354 106.424 111.258 106.617L111.16 106.691C111.096 106.738 111.037 106.791 110.983 106.85C110.88 106.97 110.789 107.101 110.713 107.241C110.574 107.532 110.504 107.85 110.508 108.172C110.552 107.869 110.657 107.577 110.816 107.315C110.887 107.187 110.969 107.065 111.062 106.952C111.09 106.923 111.115 106.892 111.137 106.859C111.137 106.896 111.1 106.929 111.086 106.971C110.967 107.317 110.883 107.674 110.834 108.037C110.788 108.38 110.788 108.728 110.834 109.071C110.869 109.41 110.936 109.745 111.035 110.072H111.058C111.058 109.728 111.016 109.388 111.058 109.038C111.1 108.689 111.165 108.368 111.211 108.033C111.257 107.705 111.32 107.38 111.402 107.059C111.482 106.733 111.547 106.393 111.645 106.067C111.654 106.039 111.598 106.021 111.575 106.053Z" fill="#263238"/>
<path d="M90.2515 39.6076C86.596 42.2433 69.5152 49.1864 63.2892 46.0478C56.9467 42.844 50.6648 25.6375 49.4169 24.1613C45.9942 20.0727 60.714 14.2798 62.0598 17.1157C64.309 21.8516 69.0868 34.4992 71.2801 34.7739C75.8949 35.3514 80.1278 34.7506 87.3457 34.6622C92.4075 34.5923 94.2702 36.6971 90.2515 39.6076Z" fill="#EB9481"/>
<path d="M63.606 20.2402C63.606 20.2402 69.5945 33.7447 70.945 34.1172C73.1941 34.7598 85.3807 34.3361 89.758 34.4106C94.1353 34.4851 98.3497 38.3595 87.9838 42.2292C77.618 46.0989 68.8913 48.1153 63.2521 46.8486C59.7502 46.057 50.1341 30.8761 50.1341 30.8761L63.606 20.2402Z" fill="#00C868"/>
<path opacity="0.1" d="M63.606 20.2402C63.606 20.2402 69.5945 33.7447 70.945 34.1172C73.1941 34.7598 85.3807 34.3361 89.758 34.4106C94.1353 34.4851 98.3497 38.3595 87.9838 42.2292C77.618 46.0989 68.8913 48.1153 63.2521 46.8486C59.7502 46.057 50.1341 30.8761 50.1341 30.8761L63.606 20.2402Z" fill="#303030"/>
<path d="M52.7419 33.3482C57.543 28.8218 63.2521 24.8357 64.1974 24.0673C64.244 24.0301 64.2952 24.1093 64.2486 24.1465C63.28 24.8497 57.2356 30.1537 52.7931 33.4599C52.7419 33.4739 52.6954 33.3901 52.7419 33.3482Z" fill="#263238"/>
<path opacity="0.1" d="M94.424 37.4971C94.2377 38.8661 92.4915 40.5472 87.9838 42.2283C77.6226 46.1027 68.8913 48.1144 63.2567 46.8477C62.5582 46.6894 61.6128 45.9583 60.5511 44.8826C68.5374 43.1596 87.7928 39.0152 94.424 37.4971Z" fill="#303030"/>
<path d="M50.3625 25.6977C51.8061 26.7734 62.0042 20.7709 62.2371 18.9408C62.2594 18.3148 62.1999 17.6886 62.0601 17.0781C62.0601 17.0781 62.7773 13.0268 64.5747 9.86486C66.0789 7.21054 68.6168 3.43861 67.2197 2.57712C65.1848 1.3105 61.4035 5.69712 59.3825 8.34212C58.6654 6.67968 57.897 5.31992 57.152 4.68661C54.6886 2.61438 43.9781 12.4214 44.5928 15.6438C45.1935 18.7545 48.9189 24.6266 50.3625 25.6977Z" fill="#EB9481"/>
<path d="M60.3044 8.68635C59.727 10.2603 58.1996 8.68635 58.1996 8.68635C58.1996 8.68635 59.8481 11.4804 58.6233 12.8774C57.3986 14.2744 55.6663 12.2441 55.536 12.1044C55.6198 12.2534 57.068 14.8705 55.6943 16.1464C54.3206 17.4223 52.8211 15.1778 52.728 15.0288C52.7652 15.1964 53.2169 17.4037 51.9503 18.1348C49.7756 19.3875 48.4717 13.7715 46.7068 12.7703C46.7068 12.7703 44.6672 15.5643 44.588 15.6435C44.588 15.6435 43.2376 10.3255 44.7231 8.01578C44.9331 7.67567 45.2533 7.41768 45.6302 7.28468C46.0072 7.15168 46.4183 7.15168 46.7953 7.28468C46.7953 7.28468 46.1713 5.61758 47.2191 4.58379C47.7593 4.05293 49.0818 4.44409 49.0818 4.44409C49.0818 4.44409 48.6161 3.08899 49.6266 2.22284C50.4182 1.529 51.629 2.03192 51.629 2.03192C51.629 2.03192 51.8059 0.53246 52.8444 0.090073C54.9399 -0.813327 61.5384 5.29627 60.3044 8.68635Z" fill="#EB9481"/>
<path d="M51.8434 2.08322C51.8434 2.08322 51.8434 2.02733 51.8666 2.0413C54.6396 3.57463 56.8809 5.91492 58.2929 8.75162C58.3348 8.84475 58.2044 8.95186 58.1392 8.86338C56.3801 6.31031 54.2593 4.02639 51.8434 2.08322Z" fill="#263238"/>
<path d="M49.0725 4.39757C49.0446 4.39757 49.0725 4.33238 49.1098 4.351C51.8479 5.89703 54.5534 8.7283 55.6664 12.1091C55.7037 12.2255 55.6198 12.3652 55.5686 12.2348C54.6559 10.0462 51.3636 6.1904 49.0725 4.39757Z" fill="#263238"/>
<path d="M52.7234 15.2899C51.5313 12.0907 49.4358 9.59473 46.9119 7.34088C46.8793 7.31294 46.9119 7.27103 46.9584 7.285C48.4905 8.05336 49.9527 9.65526 50.9818 11.0104C51.9605 12.2423 52.6024 13.7073 52.8445 15.2619C52.8259 15.3132 52.7514 15.3597 52.7234 15.2899Z" fill="#263238"/>
<path d="M58.2553 8.68652C58.3065 8.79828 58.0923 8.75172 58.1389 8.86348C58.3391 9.32915 59.2937 12.2442 58.4043 12.8776C57.6872 13.3851 56.509 12.7751 56.1505 12.3607L55.2424 11.3502L55.736 12.6401C55.9585 13.2099 56.0859 13.8124 56.1132 14.4236C56.143 14.7058 56.1128 14.991 56.0245 15.2607C55.9362 15.5304 55.7919 15.7783 55.601 15.9882C55.4211 16.1809 55.1804 16.306 54.9193 16.3424C54.6582 16.3789 54.3925 16.3245 54.1667 16.1885C53.6659 15.8758 53.2538 15.4396 52.9699 14.9218L52.1317 13.5248L52.4624 15.1128C52.554 15.5552 52.59 16.0073 52.5695 16.4586C52.5641 16.8873 52.433 17.3051 52.1923 17.66C52.0772 17.8148 51.9212 17.9343 51.7418 18.0051C51.5624 18.0759 51.3668 18.095 51.1771 18.0605C50.7643 17.9187 50.3996 17.6638 50.1247 17.3247C49.5239 16.5915 48.9806 15.8131 48.4995 14.9964C48.2387 14.5959 47.9826 14.1907 47.7032 13.7996C47.4467 13.3919 47.1071 13.0428 46.7067 12.7751C47.0696 13.081 47.3701 13.4542 47.5914 13.8741C47.8382 14.2792 48.0571 14.6983 48.2899 15.1221C48.7252 15.984 49.2413 16.8026 49.8313 17.5669C50.1427 17.9913 50.5718 18.3151 51.0653 18.4982C51.3431 18.566 51.6345 18.5515 51.9041 18.4564C52.1737 18.3613 52.4098 18.1898 52.5834 17.9627C52.8997 17.5289 53.0767 17.0092 53.091 16.4725C53.1236 15.969 53.0908 15.4634 52.9932 14.9684L52.4903 15.1593C52.8147 15.7767 53.2967 16.2972 53.8873 16.6681C54.2199 16.8681 54.6125 16.944 54.9956 16.8823C55.3681 16.8112 55.7105 16.6295 55.9782 16.3608C56.2217 16.0965 56.4059 15.7831 56.5183 15.4418C56.6308 15.1004 56.6689 14.739 56.6301 14.3817C56.5863 13.7081 56.4288 13.0469 56.1644 12.4259L55.75 12.6773C56.2157 13.1849 57.4683 14.0091 58.6744 13.3665C60.1506 12.2815 58.5813 9.2267 58.2553 8.68652Z" fill="#263238"/>
<path d="M58.1994 8.67673C58.4846 8.87799 58.7986 9.03498 59.1307 9.1424C59.2619 9.18787 59.4029 9.19716 59.5389 9.1693C59.675 9.14144 59.801 9.07745 59.9037 8.98407C60.1013 8.75031 60.226 8.46374 60.2623 8.15984C60.3182 7.82456 60.3647 7.47064 60.3927 7.10742C60.5477 7.44806 60.6271 7.8182 60.6255 8.19243C60.6377 8.39786 60.609 8.60365 60.541 8.79789C60.4731 8.99213 60.3672 9.17096 60.2297 9.32401C60.0613 9.47777 59.8502 9.57682 59.6243 9.60807C59.4093 9.62401 59.1938 9.58221 59.0003 9.487C58.6537 9.30928 58.3731 9.02536 58.1994 8.67673Z" fill="#263238"/>
<path d="M103.277 76.5443C103.179 76.6188 73.1384 73.2846 72.8916 72.8981C72.547 72.3299 81.4972 41.1906 88.3704 34.7969C90.0888 33.1997 94.8433 33.9121 96.7525 35.9751C106.234 46.2151 103.616 76.2788 103.277 76.5443Z" fill="#EBEBEB"/>
<path d="M88.1097 34.8057L76.575 76.8557L70.675 72.6228C70.675 72.6228 80.3004 45.381 83.0944 41.0457C85.8884 36.7103 88.1097 34.8057 88.1097 34.8057Z" fill="#00C868"/>
<path opacity="0.1" d="M88.1097 34.8057L76.575 76.8557L70.675 72.6228C70.675 72.6228 80.3004 45.381 83.0944 41.0457C85.8884 36.7103 88.1097 34.8057 88.1097 34.8057Z" fill="#303030"/>
<path d="M94.9039 34.5078C94.9039 34.5078 94.4382 50.6852 94.4382 54.4851C94.4382 58.2849 93.5581 79.0352 93.5581 79.0352L107.226 76.5439C107.226 76.5439 104.73 56.4223 103.863 51.7749C102.997 47.1275 99.337 35.8769 94.9039 34.5078Z" fill="#00C868"/>
<path opacity="0.1" d="M94.9039 34.5078C94.9039 34.5078 94.4382 50.6852 94.4382 54.4851C94.4382 58.2849 93.5581 79.0352 93.5581 79.0352L107.226 76.5439C107.226 76.5439 104.73 56.4223 103.863 51.7749C102.997 47.1275 99.337 35.8769 94.9039 34.5078Z" fill="#303030"/>
<path d="M98.1449 43.6016C106.089 51.7368 116.618 60.4402 122.472 59.1969C127.766 58.07 135.375 51.8626 143.678 45.1709C145.327 43.8437 134.323 31.5593 132.707 33.1519C129.526 36.2859 122.998 44.2861 120.562 45.1709C119.519 45.5481 107.84 39.7132 100.185 36.7888C90.8898 33.2358 94.9784 40.3605 98.1449 43.6016Z" fill="#EB9481"/>
<path d="M150.97 39.5136C148.791 42.1353 141.229 47.0528 139.329 47.3183C137.429 47.5837 130.881 36.6497 131.608 34.801C132.334 32.9523 140.348 24.6867 143.757 23.9835C147.166 23.2803 153.229 36.7941 150.97 39.5136Z" fill="#EB9481"/>
<path d="M138.714 26.1164C138.448 27.8999 140.707 27.1967 140.707 27.1967C140.707 27.1967 137.699 28.9942 138.136 30.9221C138.56 32.7848 141.256 31.8534 141.452 31.7836C141.294 31.8814 138.574 33.609 139.217 35.5089C139.883 37.4974 142.425 36.0817 142.593 35.9746C142.472 36.1143 140.907 37.9677 141.722 39.3088C143.119 41.6372 147.259 36.9805 149.447 36.9525C149.447 36.9525 150.775 39.5649 150.812 39.6674C150.812 39.6674 153.983 36.4356 153.773 33.4879C153.755 33.0572 153.587 32.6462 153.299 32.3252C153.011 32.0042 152.621 31.793 152.195 31.7277C152.195 31.7277 153.648 30.475 153.191 28.9337C152.954 28.1514 151.496 27.8347 151.496 27.8347C151.496 27.8347 152.614 26.7823 152.125 25.4551C151.739 24.3934 150.337 24.2397 150.337 24.2397C150.337 24.2397 150.942 22.7309 150.192 21.7763C148.688 19.9183 139.291 22.2886 138.714 26.1164Z" fill="#EB9481"/>
<path d="M150.118 24.2543C150.123 24.2522 150.128 24.2486 150.131 24.244C150.134 24.2395 150.135 24.2342 150.135 24.2287C150.135 24.2233 150.134 24.218 150.131 24.2134C150.128 24.2089 150.123 24.2053 150.118 24.2031C146.708 24.2177 143.383 25.2702 140.586 27.2207C140.498 27.2859 140.563 27.4535 140.675 27.4023C143.653 25.9 146.834 24.8396 150.118 24.2543Z" fill="#263238"/>
<path d="M151.548 27.8718C151.585 27.8718 151.576 27.8066 151.548 27.8066C148.167 27.8532 144.148 29.1291 141.35 31.7462C141.257 31.8347 141.261 32.0116 141.378 31.9185C143.347 30.3166 148.446 28.3794 151.548 27.8718Z" fill="#263238"/>
<path d="M142.458 36.2722C145.252 33.8647 148.512 32.5934 152.056 31.7692C152.102 31.7692 152.083 31.6947 152.056 31.69C150.193 31.6202 148.004 32.3839 146.337 33.1196C144.776 33.7744 143.414 34.8278 142.388 36.1744C142.332 36.2256 142.398 36.3234 142.458 36.2722Z" fill="#263238"/>00C868
<path d="M140.707 27.1826C140.16 27.5778 139.653 28.0254 139.194 28.5191C138.724 28.9763 138.385 29.55 138.211 30.1815C138.148 30.4755 138.196 30.7823 138.346 31.043C138.499 31.3053 138.717 31.5235 138.979 31.6763C139.253 31.8058 139.552 31.8769 139.855 31.8849C140.158 31.8929 140.459 31.8377 140.74 31.7229L142.137 31.2107L141.01 32.1746C140.504 32.5961 140.072 33.098 139.729 33.6601C139.556 33.9123 139.438 34.1982 139.383 34.499C139.327 34.7999 139.336 35.109 139.408 35.4064C139.479 35.6805 139.641 35.9222 139.868 36.0916C140.095 36.261 140.373 36.3478 140.656 36.3377C141.29 36.2992 141.903 36.1005 142.439 35.7603L143.953 34.8708L142.821 36.198C142.505 36.5692 142.237 36.9792 142.025 37.4181C141.809 37.8252 141.717 38.2864 141.759 38.7452C141.788 38.9505 141.874 39.1437 142.006 39.3033C142.139 39.4628 142.313 39.5824 142.509 39.6486C142.972 39.731 143.449 39.6793 143.883 39.4996C144.828 39.1244 145.742 38.676 146.616 38.1585C147.082 37.9117 147.52 37.6649 147.985 37.4367C148.437 37.1786 148.939 37.0199 149.457 36.971C148.959 37.0721 148.484 37.2681 148.06 37.5484C147.594 37.8092 147.189 38.0886 146.756 38.368C145.9 38.9575 144.989 39.4643 144.037 39.8815C143.525 40.1182 142.955 40.1992 142.397 40.1143C142.1 40.0354 141.831 39.8714 141.625 39.6422C141.419 39.4131 141.285 39.1289 141.238 38.8244C141.168 38.2559 141.266 37.6793 141.522 37.1666C141.752 36.6758 142.043 36.2158 142.388 35.7975L142.77 36.2399C142.141 36.6533 141.416 36.8957 140.665 36.9431C140.249 36.9557 139.841 36.8241 139.51 36.5705C139.193 36.3118 138.962 35.9626 138.849 35.5693C138.758 35.1936 138.747 34.8028 138.816 34.4225C138.886 34.0422 139.035 33.6809 139.254 33.3621C139.642 32.7494 140.126 32.2037 140.688 31.7462L140.954 32.2119C140.601 32.3434 140.223 32.3962 139.847 32.3664C139.472 32.3366 139.107 32.2251 138.779 32.0396C138.464 31.8353 138.208 31.5529 138.034 31.22C137.861 30.8774 137.818 30.4836 137.913 30.1117C138.135 29.4411 138.54 28.8459 139.082 28.3934C139.576 27.9299 140.121 27.5238 140.707 27.1826Z" fill="#263238"/>
<path d="M132.707 33.153C132.707 33.153 136.818 19.2806 141.452 23.5462C142.849 24.8128 146.97 31.6582 145.615 32.5197C143.859 33.6279 141.596 31.09 140.427 29.26C140.427 29.26 139.692 34.1728 136.12 34.685C135.465 34.7681 134.8 34.669 134.198 34.3988C133.596 34.1285 133.08 33.6974 132.707 33.153Z" fill="#EB9481"/>
<path d="M141.047 23.2148C141.645 23.6476 142.177 24.1653 142.626 24.7516C143.09 25.3274 143.515 25.9341 143.897 26.5677C144.685 27.8226 145.361 29.1439 145.918 30.5166C146.064 30.8819 146.158 31.2659 146.198 31.6574C146.218 31.8829 146.189 32.1099 146.114 32.3234C146.071 32.4411 146.01 32.5512 145.932 32.6493C145.853 32.7436 145.761 32.8252 145.657 32.8915C145.278 33.122 144.829 33.2096 144.391 33.1383C143.991 33.0643 143.607 32.9225 143.255 32.7192C142.598 32.3219 142.016 31.8146 141.532 31.2197C141.048 30.6513 140.607 30.0473 140.214 29.4129L140.679 29.3058C140.575 29.8639 140.419 30.4111 140.214 30.9403C140.014 31.4655 139.76 31.9682 139.455 32.4398C139.147 32.9112 138.772 33.3348 138.342 33.6971C137.915 34.0572 137.424 34.3323 136.893 34.5074C137.384 34.2716 137.832 33.957 138.221 33.576C138.597 33.1892 138.919 32.7538 139.18 32.2814C139.441 31.8113 139.657 31.3169 139.823 30.8053C139.987 30.2986 140.106 29.778 140.176 29.2499L140.256 28.598L140.642 29.1428C141.046 29.7369 141.488 30.3046 141.965 30.8425C142.421 31.3755 142.958 31.8329 143.557 32.1976C144.13 32.5189 144.847 32.6912 145.322 32.3839C145.765 32.1511 145.592 31.3641 145.369 30.7168C145.125 30.0381 144.845 29.3728 144.53 28.7237C144.228 28.0625 143.911 27.4059 143.567 26.7679C142.849 25.5013 142.128 24.2067 141.047 23.2148Z" fill="#263238"/>
<path d="M131.091 34.7217C131.091 34.7217 121.461 44.5427 120.055 44.4542C117.726 44.3052 103.575 37.5949 99.4255 36.1979C95.2764 34.8008 90.8292 35.6251 97.3859 43.3738C104.785 52.1145 113.07 59.9005 121.633 59.9098C126.248 59.9098 140.619 49.8793 140.619 49.8793L131.091 34.7217Z" fill="#00C868"/>
<path opacity="0.1" d="M131.091 34.7217C131.091 34.7217 121.461 44.5427 120.055 44.4542C117.726 44.3052 103.575 37.5949 99.4255 36.1979C95.2764 34.8008 90.8292 35.6251 97.3859 43.3738C104.785 52.1145 113.07 59.9005 121.633 59.9098C126.248 59.9098 140.619 49.8793 140.619 49.8793L131.091 34.7217Z" fill="#303030"/>
<path d="M136.94 50.7133C133.932 44.8366 129.89 39.174 129.252 38.1402C129.224 38.089 129.149 38.1402 129.182 38.1961C129.857 39.1833 133.778 46.2057 136.861 50.7692C136.898 50.8298 136.972 50.7692 136.94 50.7133Z" fill="#263238"/>
<path d="M103.528 50.0284C103.309 49.7982 103.104 49.5556 102.913 49.3019C102.685 49.0551 102.447 48.8083 102.228 48.5615C101.763 48.0959 101.339 47.6302 100.897 47.1319C100.017 46.1773 99.0806 45.2692 98.1678 44.3379C99.0014 45.3437 99.821 46.3542 100.724 47.2996L100.785 47.3647L100.254 47.0062C99.8862 46.7594 99.5183 46.5126 99.1551 46.2611C99.1551 46.2611 99.1085 46.2844 99.1271 46.2984C99.4671 46.5778 99.8163 46.8432 100.184 47.09C100.37 47.2157 100.557 47.3368 100.752 47.4532L101.022 47.6116L102.042 48.6686C102.275 48.9061 102.508 49.1343 102.75 49.3764C102.992 49.6186 103.281 49.7955 103.495 50.0517C103.504 50.1169 103.584 50.061 103.528 50.0284Z" fill="#263238"/>
<path d="M89.1109 40.5055C90.5359 40.85 94.047 38.7452 95.6582 36.7102C95.7653 36.5705 95.8026 34.9081 95.947 32.8917C96.0354 31.667 96.1658 30.3073 96.3754 29.0732L88.3286 29.646C88.508 31.2612 88.4892 32.8923 88.2727 34.503C88.2429 34.6733 88.1961 34.8402 88.133 35.0012C88.133 35.0245 88.133 35.0525 88.133 35.085C87.7884 36.0304 86.8804 39.9653 89.1109 40.5055Z" fill="#EB9481"/>
<path d="M88.1373 35.0013C88.1238 35.0277 88.1144 35.0559 88.1094 35.0851C88.3664 35.1655 88.6296 35.2247 88.8964 35.2621C93.3109 35.9047 95.29 30.7265 95.7929 29.1152L88.3422 29.6414C88.5246 31.2594 88.5089 32.8935 88.2956 34.5077C88.2563 34.6762 88.2034 34.8413 88.1373 35.0013Z" fill="#263238"/>
<path d="M99.9471 19.8199C100.063 22.721 96.6036 30.1205 94.2379 31.3499C90.806 33.1334 86.2005 32.1834 84.9245 28.2904C83.7045 24.5138 88.3798 14.9536 90.9317 13.9431C94.7036 12.4483 99.7748 15.5404 99.9471 19.8199Z" fill="#EB9481"/>
<path d="M93.4555 21.399C93.2681 21.2444 93.0893 21.0796 92.92 20.9054C92.7011 20.7617 92.537 20.5485 92.4543 20.3C92.4453 20.2172 92.4636 20.1336 92.5065 20.0622C92.5493 19.9907 92.6144 19.9352 92.6918 19.9042C92.8533 19.8673 93.0218 19.8742 93.1797 19.9242C93.3377 19.9741 93.4795 20.0653 93.5905 20.1883C93.8544 20.4012 94.0288 20.7052 94.0795 21.0405C94.0845 21.1153 94.0684 21.19 94.0331 21.2562C93.9977 21.3223 93.9445 21.3772 93.8794 21.4146C93.8144 21.4519 93.7402 21.4703 93.6652 21.4675C93.5903 21.4648 93.5176 21.4411 93.4555 21.399Z" fill="#303030"/>
<path d="M88.4823 19.2666C88.7245 19.3271 88.948 19.3411 89.2041 19.3784C89.452 19.451 89.7167 19.4412 89.9585 19.3504C90.0284 19.3063 90.082 19.2406 90.1114 19.1634C90.1408 19.0861 90.1443 19.0014 90.1215 18.922C90.0493 18.772 89.9383 18.644 89.7998 18.5514C89.6614 18.4589 89.5007 18.4052 89.3345 18.3958C89.0029 18.3203 88.655 18.3735 88.3613 18.5448C88.2967 18.5876 88.2458 18.6481 88.215 18.7191C88.1841 18.7902 88.1745 18.8687 88.1873 18.945C88.2001 19.0214 88.2348 19.0925 88.2872 19.1495C88.3395 19.2066 88.4073 19.2473 88.4823 19.2666Z" fill="#303030"/>
<path d="M90.5728 27.1181C90.4081 27.2223 90.2114 27.2636 90.0187 27.2345C89.8326 27.1501 89.6661 27.028 89.5297 26.876H89.4971C89.5278 27.0062 89.5928 27.1258 89.6854 27.2224C89.7779 27.3191 89.8946 27.3892 90.0233 27.4255C90.1374 27.4443 90.2546 27.4281 90.3593 27.379C90.464 27.33 90.5514 27.2504 90.6101 27.1507C90.6334 27.1368 90.5961 27.1088 90.5728 27.1181Z" fill="#263238"/>
<path d="M90.6943 25.38C90.4798 25.5256 90.2373 25.6248 89.9823 25.6713C89.7274 25.7178 89.4655 25.7106 89.2134 25.6501C88.994 25.6001 88.7824 25.5202 88.5848 25.4126C88.5454 25.3947 88.508 25.3729 88.473 25.3474C88.4362 25.3302 88.4017 25.3083 88.3706 25.2822C88.3457 25.2662 88.3268 25.2426 88.3167 25.2148C88.3066 25.187 88.3059 25.1568 88.3147 25.1285C88.3205 25.1107 88.3283 25.0935 88.338 25.0773V25.0354C88.4963 24.6396 88.8036 24.0668 88.8036 24.0668C88.6313 24.0668 87.7698 24.0668 87.8723 23.8899C88.6709 22.156 89.6445 20.5083 90.7781 18.9724C90.8107 18.9212 90.8945 18.9724 90.8619 19.0236C90.1355 20.6302 89.1296 22.1017 88.3706 23.7036C88.6844 23.6914 88.9983 23.7259 89.3019 23.806C89.3485 23.8433 88.7152 24.905 88.6593 25.0913C88.9649 25.2599 89.3013 25.3654 89.6485 25.4014C89.9957 25.4374 90.3466 25.4032 90.6803 25.3008C90.7129 25.3195 90.7408 25.3521 90.6943 25.38Z" fill="#263238"/>
<path d="M88.8963 25.3203C88.9897 25.6895 89.1775 26.0281 89.4411 26.3029C89.5897 26.4489 89.7802 26.545 89.986 26.5776C90.4516 26.6475 90.6053 26.2796 90.6658 25.9303C90.6968 25.7442 90.7062 25.5551 90.6938 25.3669C90.1049 25.5428 89.4753 25.5264 88.8963 25.3203Z" fill="#263238"/>
<path d="M89.4413 26.2978C89.5899 26.4439 89.7803 26.5399 89.9861 26.5726C90.4518 26.6424 90.6054 26.2746 90.666 25.9253C90.4495 25.8417 90.2114 25.8329 89.9894 25.9004C89.7674 25.9679 89.5744 26.1079 89.4413 26.2978Z" fill="#FF9BBC"/>
<path d="M92.8732 22.6327C92.9014 22.4865 92.8902 22.3354 92.8406 22.195C92.8081 22.1197 92.7609 22.0516 92.7017 21.9949C92.6426 21.9381 92.5726 21.8937 92.496 21.8644C92.4181 21.8408 92.3358 21.8348 92.2553 21.8469C92.1748 21.859 92.0979 21.8888 92.0303 21.9342C91.912 22.0178 91.8147 22.1278 91.7463 22.2555C91.7074 22.3342 91.6732 22.415 91.6438 22.4977C91.5809 22.6671 91.5585 22.8489 91.5786 23.0286C91.6158 22.9027 91.6657 22.781 91.7277 22.6653C91.7848 22.562 91.8485 22.4624 91.9186 22.3673C92.0629 22.1764 92.2539 22.0413 92.4262 22.1158C92.5171 22.1599 92.5913 22.2323 92.6375 22.3222C92.6837 22.412 92.6994 22.5145 92.6823 22.6141C92.6705 22.8653 92.6346 23.1148 92.5752 23.3592C92.7282 23.1427 92.8301 22.8943 92.8732 22.6327Z" fill="#263238"/>
<path d="M87.9652 20.3842C88.0533 20.2652 88.1703 20.1706 88.3052 20.1095C88.3789 20.0785 88.458 20.0625 88.538 20.0625C88.618 20.0625 88.6971 20.0785 88.7708 20.1095C88.8451 20.1484 88.9093 20.204 88.9586 20.2718C89.0079 20.3397 89.0408 20.418 89.0549 20.5006C89.0746 20.6447 89.0602 20.7915 89.013 20.929C88.9872 21.0124 88.9545 21.0934 88.9152 21.1712C88.8352 21.3336 88.7189 21.4754 88.5752 21.5856C88.6423 21.473 88.6955 21.3526 88.7336 21.2271C88.7702 21.1145 88.7983 20.9993 88.8174 20.8825C88.8546 20.645 88.8174 20.4168 88.6497 20.3423C88.5548 20.3061 88.4506 20.302 88.353 20.3306C88.2555 20.3592 88.17 20.4189 88.1096 20.5006C87.9349 20.6833 87.7789 20.883 87.6439 21.0967C87.6927 20.837 87.8029 20.5927 87.9652 20.3842Z" fill="#263238"/>
<path d="M88.631 15.9555C90.68 18.796 95.4065 17.3152 95.4065 17.3152C95.4256 17.9917 95.6625 18.644 96.082 19.1751C96.5015 19.7062 97.0812 20.0877 97.7349 20.2629C97.7349 20.2629 96.6173 25.05 97.8327 25.4738C99.6954 26.1304 102.489 20.072 102.368 18.6284C102.247 17.1848 100.776 16.3001 100.776 16.3001C100.872 15.4923 100.657 14.6782 100.175 14.0229C99.2437 12.6259 94.4379 12.3372 94.4379 12.3372C94.3974 11.6665 94.2013 11.0144 93.8652 10.4326C93.7853 10.2892 93.6771 10.1635 93.5472 10.0631C93.4172 9.96281 93.2682 9.88996 93.1092 9.84902C92.9503 9.80807 92.7846 9.79989 92.6224 9.82497C92.4601 9.85004 92.3047 9.90785 92.1655 9.99487C92.2755 10.4166 92.2866 10.858 92.1981 11.2848C91.9326 12.7097 90.8337 12.3093 91.2667 11.0939C91.417 10.6329 91.7298 10.2423 92.1468 9.99487C91.8907 9.003 91.0991 8.42091 90.4052 8.6584C89.1479 9.09148 86.9267 13.5992 88.631 15.9555Z" fill="#303030"/>
<path d="M91.1504 24.9109C90.6521 24.5917 90.3007 24.0879 90.1732 23.51C90.0458 22.9322 90.1527 22.3273 90.4705 21.8281C90.6953 21.4765 91.0142 21.1949 91.391 21.0155C91.7678 20.8361 92.1874 20.766 92.6021 20.8131C93.0167 20.8603 93.4098 21.0228 93.7367 21.2823C94.0636 21.5417 94.3112 21.8877 94.4512 22.2809C94.5913 22.674 94.6182 23.0985 94.529 23.5062C94.4398 23.9139 94.238 24.2884 93.9465 24.5871C93.6551 24.8858 93.2856 25.0968 92.8803 25.196C92.4749 25.2952 92.0498 25.2787 91.6533 25.1484C91.4758 25.0922 91.3066 25.0123 91.1504 24.9109ZM90.722 21.9865C90.5159 22.3084 90.41 22.6843 90.4176 23.0665C90.4252 23.4487 90.5459 23.8201 90.7646 24.1336C90.9833 24.4472 91.29 24.6889 91.646 24.8281C92.0021 24.9673 92.3914 24.9977 92.7648 24.9156C93.1381 24.8335 93.4787 24.6425 93.7435 24.3668C94.0083 24.0911 94.1854 23.7431 94.2524 23.3667C94.3193 22.9903 94.2732 22.6026 94.1197 22.2524C93.9663 21.9023 93.7124 21.6056 93.3903 21.3997C93.2555 21.3128 93.1099 21.2439 92.9572 21.1948C92.5496 21.0605 92.1089 21.0654 91.7043 21.2087C91.2998 21.352 90.9542 21.6255 90.722 21.9865Z" fill="#303030"/>
<path d="M86.8849 22.9081C86.056 22.5216 85.7998 21.2969 86.3214 20.1839C86.5478 19.6758 86.9271 19.2509 87.4064 18.9685C87.6056 18.8374 87.8351 18.7594 88.073 18.742C88.3108 18.7246 88.5492 18.7684 88.7654 18.8693C88.9815 18.9701 89.1683 19.1246 89.3078 19.3181C89.4473 19.5115 89.535 19.7375 89.5625 19.9744C89.6579 20.5221 89.5781 21.086 89.3343 21.5856C88.8407 22.6427 87.8302 23.2294 87.0059 22.9826L86.8849 22.9081ZM87.5508 19.2293C87.1258 19.4801 86.7902 19.858 86.5915 20.3097C86.1258 21.2736 86.3307 22.3214 87.0106 22.638C87.6905 22.9547 88.6125 22.4285 89.0642 21.4599C89.2795 21.0163 89.3512 20.5165 89.2691 20.0303C89.2439 19.8411 89.1736 19.6607 89.0643 19.5043C88.9549 19.3479 88.8095 19.2201 88.6404 19.1315L88.538 19.0896C88.3728 19.043 88.1996 19.0313 88.0296 19.0553C87.8596 19.0794 87.6966 19.1386 87.5508 19.2293Z" fill="#303030"/>
<path d="M90.4286 22.0924L90.6987 21.9667C90.5124 21.5662 89.9629 20.891 89.2225 21.189L89.3342 21.4637C90.0002 21.1936 90.4099 22.0598 90.4286 22.0924Z" fill="#303030"/>
<path d="M99.197 26.8102H99.4951C99.4951 26.6752 99.4252 25.4458 98.8664 25.0639C98.3076 24.6821 94.559 23.3642 94.4006 23.3037L94.2982 23.5878C95.3832 23.9743 98.2936 25.036 98.6988 25.3108C99.1039 25.5855 99.1831 26.4749 99.197 26.8102Z" fill="#303030"/>
<path d="M96.6266 25.7159C96.6266 25.7159 99.0807 23.7135 100.04 24.6588C100.999 25.6041 98.643 28.8499 97.1807 28.9709C96.9928 29.0004 96.8009 28.9911 96.6167 28.9438C96.4325 28.8964 96.2599 28.812 96.1095 28.6956C95.959 28.5792 95.834 28.4333 95.7419 28.2668C95.6499 28.1004 95.5928 27.9169 95.5742 27.7276L96.6266 25.7159Z" fill="#EB9481"/>
<path d="M99.3417 25.5716C99.365 25.5716 99.3417 25.6089 99.3417 25.6089C98.2986 25.7206 97.5628 26.4471 96.9621 27.248C97.0429 27.1697 97.1397 27.1098 97.2458 27.0725C97.352 27.0353 97.465 27.0215 97.577 27.0321C97.689 27.0427 97.7974 27.0775 97.8946 27.1341C97.9919 27.1907 98.0757 27.2677 98.1403 27.3598C98.1432 27.3654 98.1444 27.3717 98.1438 27.378C98.1432 27.3843 98.1408 27.3903 98.1368 27.3952C98.1329 27.4001 98.1276 27.4038 98.1216 27.4058C98.1156 27.4078 98.1091 27.408 98.103 27.4064C97.9538 27.3068 97.7773 27.2559 97.598 27.2609C97.4186 27.266 97.2453 27.3265 97.1018 27.4343C96.8651 27.6159 96.6481 27.8219 96.4545 28.049C96.3847 28.1235 96.245 28.049 96.3055 27.9465C96.6362 26.7172 98.0332 25.3202 99.3417 25.5716Z" fill="#263238"/>
<path d="M88.0677 34.8519L89.7907 39.6715L95.9189 33.8926L97.5161 35.8856C97.5161 35.8856 91.3786 45.1991 91.36 44.7706L89.5625 40.5796L86.6288 43.3177L87.1317 36.179L88.0677 34.8519Z" fill="#EBEBEB"/>
<path d="M86.6753 39.798C86.801 38.6245 86.8895 37.4371 87.0665 36.2682C87.0665 36.2263 87.141 36.2077 87.1503 36.2682C87.3412 37.4138 86.8476 41.9075 86.8103 42.9879C86.9314 42.8668 89.5252 40.585 89.5485 40.6222C89.9443 41.2882 91.2668 44.3476 91.3553 44.5991C92.3239 43.1182 96.012 37.7444 97.1715 36.352C97.1743 36.3478 97.1778 36.3441 97.182 36.3412C97.1862 36.3383 97.1909 36.3362 97.1959 36.3351C97.2008 36.3341 97.206 36.334 97.211 36.3349C97.216 36.3358 97.2208 36.3376 97.2251 36.3404C97.2293 36.3432 97.233 36.3467 97.2359 36.3509C97.2388 36.3551 97.2409 36.3598 97.242 36.3648C97.2431 36.3697 97.2431 36.3749 97.2422 36.3799C97.2413 36.3849 97.2395 36.3897 97.2367 36.394C96.3706 37.9633 91.4577 45.2044 91.3879 45.1812C90.6899 43.7465 90.0681 42.2761 89.5252 40.7759C89.0595 41.2788 86.4564 43.868 86.4564 43.6957C86.4611 42.3935 86.5342 41.0925 86.6753 39.798Z" fill="#263238"/>
</svg>
