<svg width="22" height="24" viewBox="0 0 22 24" fill="none" xmlns="http://www.w3.org/2000/svg">
<path d="M18 24C17 24 16.15 23.65 15.45 22.95C14.75 22.25 14.4 21.4 14.4 20.4C14.4 20.28 14.43 20 14.49 19.56L6.06 14.64C5.74 14.94 5.37 15.175 4.95 15.345C4.53 15.515 4.08 15.6 3.6 15.6C2.6 15.6 1.75 15.25 1.05 14.55C0.35 13.85 0 13 0 12C0 11 0.35 10.15 1.05 9.45C1.75 8.75 2.6 8.4 3.6 8.4C4.08 8.4 4.53 8.485 4.95 8.655C5.37 8.825 5.74 9.06 6.06 9.36L14.49 4.44C14.45 4.3 14.425 4.165 14.415 4.035C14.405 3.905 14.4 3.76 14.4 3.6C14.4 2.6 14.75 1.75 15.45 1.05C16.15 0.35 17 0 18 0C19 0 19.85 0.35 20.55 1.05C21.25 1.75 21.6 2.6 21.6 3.6C21.6 4.6 21.25 5.45 20.55 6.15C19.85 6.85 19 7.2 18 7.2C17.52 7.2 17.07 7.115 16.65 6.945C16.23 6.775 15.86 6.54 15.54 6.24L7.11 11.16C7.15 11.3 7.175 11.435 7.185 11.565C7.195 11.695 7.2 11.84 7.2 12C7.2 12.16 7.195 12.305 7.185 12.435C7.175 12.565 7.15 12.7 7.11 12.84L15.54 17.76C15.86 17.46 16.23 17.225 16.65 17.055C17.07 16.885 17.52 16.8 18 16.8C19 16.8 19.85 17.15 20.55 17.85C21.25 18.55 21.6 19.4 21.6 20.4C21.6 21.4 21.25 22.25 20.55 22.95C19.85 23.65 19 24 18 24Z" fill="#00C868"/>
</svg>
