<svg width="18" height="17" viewBox="0 0 16 16" fill="none" xmlns="http://www.w3.org/2000/svg">
<path d="M8 12.8014L4.12219 15.1375C3.95088 15.2465 3.77179 15.2932 3.58491 15.2776C3.39802 15.2621 3.2345 15.1998 3.09434 15.0907C2.95418 14.9817 2.84516 14.8455 2.7673 14.6819C2.68943 14.5184 2.67385 14.3354 2.72058 14.133L3.74843 9.71788L0.314465 6.75112C0.15873 6.61096 0.0613956 6.45133 0.0224618 6.27224C-0.016472 6.09314 -0.00479186 5.91794 0.0575022 5.74663C0.119796 5.57532 0.213237 5.43516 0.337826 5.32615C0.462414 5.21713 0.633723 5.14705 0.851752 5.1159L5.38365 4.71878L7.13567 0.560647C7.21354 0.373765 7.33423 0.233603 7.49775 0.140162C7.66128 0.0467206 7.82869 0 8 0C8.17131 0 8.33873 0.0467206 8.50225 0.140162C8.66577 0.233603 8.78646 0.373765 8.86433 0.560647L10.6164 4.71878L15.1482 5.1159C15.3663 5.14705 15.5376 5.21713 15.6622 5.32615C15.7868 5.43516 15.8802 5.57532 15.9425 5.74663C16.0048 5.91794 16.0165 6.09314 15.9775 6.27224C15.9386 6.45133 15.8413 6.61096 15.6855 6.75112L12.2516 9.71788L13.2794 14.133C13.3261 14.3354 13.3106 14.5184 13.2327 14.6819C13.1548 14.8455 13.0458 14.9817 12.9057 15.0907C12.7655 15.1998 12.602 15.2621 12.4151 15.2776C12.2282 15.2932 12.0491 15.2465 11.8778 15.1375L8 12.8014Z" fill="#F8D51A"/>
</svg>
