<svg width="220" height="220" viewBox="0 0 220 220" fill="none" xmlns="http://www.w3.org/2000/svg">
<path d="M139.709 110.317L85.5889 109.803L69.1857 109.723H64.7241H63.5669C63.4352 109.711 63.3026 109.711 63.1709 109.723C63.3019 109.744 63.4344 109.753 63.5669 109.75L64.7241 109.776L69.1857 109.829L85.5889 109.917L139.709 109.952C160.829 109.952 179.969 109.979 193.829 110.08C200.755 110.128 206.36 110.194 210.232 110.265C212.173 110.304 213.673 110.344 214.694 110.379C215.214 110.367 215.734 110.407 216.247 110.498C215.733 110.578 215.213 110.612 214.694 110.599C213.673 110.625 212.168 110.652 210.232 110.665C206.36 110.7 200.755 110.709 193.829 110.665C179.96 110.696 160.838 110.533 139.709 110.317Z" fill="#EBEBEB"/>
<path d="M139.291 115.021L85.8967 106.221L69.7046 103.629L65.3046 102.96L64.1562 102.797C64.0272 102.772 63.8961 102.759 63.7646 102.758C63.8907 102.799 64.0203 102.829 64.1519 102.846L65.2914 103.053L69.6914 103.792L85.8834 106.392L139.339 114.708C160.213 117.942 179.106 120.899 192.773 123.121C199.606 124.23 205.132 125.154 208.947 125.823C210.857 126.153 212.335 126.425 213.347 126.619C213.864 126.685 214.373 126.805 214.865 126.975C214.344 126.975 213.824 126.928 213.312 126.835C212.3 126.707 210.813 126.5 208.912 126.223C205.079 125.664 199.54 124.815 192.702 123.733C178.996 121.572 160.125 118.475 139.291 115.021Z" fill="#EBEBEB"/>
<path d="M138.125 119.601L86.8077 102.608L71.2317 97.5349L66.9857 96.1885L65.8769 95.8497C65.7522 95.8071 65.6242 95.7747 65.4941 95.7529C65.6127 95.8124 65.7364 95.861 65.8637 95.8981L66.9549 96.2765L71.1789 97.6933L86.7505 102.775L138.231 119.297C158.325 125.73 176.511 131.587 189.653 135.903C196.227 138.059 201.533 139.832 205.194 141.082C207.025 141.707 208.446 142.204 209.401 142.551C209.9 142.701 210.383 142.898 210.844 143.141C210.329 143.061 209.822 142.935 209.33 142.763C208.349 142.481 206.915 142.045 205.067 141.473C201.371 140.325 196.038 138.627 189.455 136.497C176.291 132.238 158.149 126.245 138.125 119.601Z" fill="#EBEBEB"/>
<path d="M136.246 123.94L88.286 99.1986L73.7132 91.7714L69.7532 89.7826L68.7148 89.2766C68.5964 89.2165 68.4744 89.1636 68.3496 89.1182C68.4584 89.1947 68.5732 89.2624 68.6928 89.3206L69.7092 89.8662L73.6692 91.9166L88.2376 99.3526L136.4 123.663C155.219 133.131 172.247 141.738 184.536 148.039C190.696 151.189 195.642 153.759 199.056 155.567C200.763 156.447 202.083 157.177 202.976 157.67C203.442 157.892 203.884 158.16 204.296 158.471C203.801 158.313 203.321 158.109 202.862 157.864C201.942 157.424 200.592 156.777 198.858 155.923C195.391 154.216 190.397 151.713 184.241 148.584C171.921 142.336 154.964 133.607 136.246 123.94Z" fill="#EBEBEB"/>
<path d="M133.703 127.935L90.2442 96.1051L77.0442 86.5219L73.4318 83.9435C73.0226 83.6575 72.7102 83.4375 72.4814 83.2835C72.3796 83.201 72.2689 83.1302 72.1514 83.0723C72.2472 83.1622 72.3486 83.2459 72.455 83.3231L73.3746 84.0183L76.9474 86.6583L90.1474 96.2503L133.901 127.688C150.986 139.947 166.439 151.07 177.575 159.188C183.146 163.245 187.638 166.553 190.727 168.868C192.271 170.021 193.464 170.927 194.247 171.547C194.674 171.839 195.071 172.174 195.431 172.546C194.965 172.317 194.523 172.043 194.111 171.728C193.266 171.156 192.038 170.302 190.459 169.193C187.308 166.993 182.772 163.729 177.184 159.694C166.021 151.607 150.652 140.36 133.703 127.935Z" fill="#EBEBEB"/>
<path d="M130.557 131.486L92.6461 93.3818C87.7797 88.5418 83.8461 84.6126 81.1005 81.889C79.7365 80.547 78.6717 79.5042 77.9369 78.787L77.1053 77.9862C77.0142 77.8918 76.9156 77.805 76.8105 77.7266C76.8899 77.8322 76.9782 77.9309 77.0745 78.0214L77.8797 78.8486L80.9949 81.999L92.5317 93.5006L130.812 131.266C145.772 145.997 159.267 159.355 168.991 169.084C173.853 173.946 177.769 177.884 180.453 180.651C181.799 182.029 182.833 183.107 183.533 183.846C183.909 184.2 184.25 184.59 184.549 185.012C184.128 184.71 183.736 184.37 183.379 183.995C182.635 183.309 181.553 182.275 180.171 180.937C177.408 178.262 173.439 174.337 168.555 169.497C158.747 159.831 145.341 146.371 130.557 131.486Z" fill="#EBEBEB"/>
<path d="M126.887 134.517L95.4495 91.0799L85.8575 77.9547L83.2175 74.4039L82.5267 73.4799C82.4511 73.3749 82.3688 73.275 82.2803 73.1807C82.3395 73.2974 82.4102 73.408 82.4915 73.5107L83.1471 74.4523L85.7299 78.0383L95.3087 91.1679L127.16 134.332C139.599 151.171 150.841 166.452 158.911 177.544C162.945 183.093 166.188 187.598 168.41 190.744C169.519 192.311 170.373 193.529 170.94 194.365C171.256 194.778 171.53 195.22 171.759 195.685C171.39 195.324 171.056 194.929 170.76 194.506C170.135 193.71 169.229 192.522 168.076 190.986C165.766 187.906 162.461 183.453 158.396 177.918C150.269 166.839 139.146 151.487 126.887 134.517Z" fill="#EBEBEB"/>
<path d="M122.786 136.942L98.6303 89.1709L91.2339 74.7301L89.1967 70.8405C88.9591 70.4005 88.7831 70.0705 88.6511 69.8285C88.5934 69.7124 88.5273 69.6006 88.4531 69.4941C88.4942 69.6171 88.5457 69.7364 88.6071 69.8505L89.1087 70.8845C89.5487 71.7953 90.2351 73.1241 91.0887 74.8445L98.4719 89.2897L123.072 136.841C132.691 155.391 141.372 172.208 147.58 184.418C150.687 190.521 153.177 195.471 154.871 198.907C155.72 200.623 156.367 201.961 156.798 202.867C157.044 203.32 157.245 203.796 157.397 204.288C157.09 203.874 156.822 203.432 156.596 202.968C156.108 202.088 155.399 200.768 154.506 199.083C152.711 195.695 150.15 190.776 147.026 184.686C140.756 172.481 132.202 155.598 122.786 136.942Z" fill="#EBEBEB"/>
<path d="M118.36 138.706L102.115 87.7805L97.1166 72.3805C96.5138 70.5765 96.0474 69.1729 95.7262 68.2005C95.5634 67.7341 95.4402 67.3777 95.3522 67.1181C95.3135 66.9928 95.265 66.8707 95.207 66.7529C95.2288 66.883 95.2612 67.011 95.3038 67.1357C95.383 67.3953 95.493 67.7561 95.6338 68.2313L96.9538 72.4289C98.1374 76.0853 99.8402 81.3433 101.939 87.8289L118.659 138.605C125.197 158.405 131.089 176.37 135.273 189.39C137.368 195.902 139.035 201.177 140.162 204.834C140.725 206.66 141.152 208.081 141.429 209.049C141.602 209.534 141.724 210.035 141.794 210.545C141.554 210.09 141.36 209.612 141.213 209.119C140.87 208.169 140.382 206.765 139.766 204.957C138.534 201.336 136.796 196.082 134.671 189.579C130.425 176.581 124.669 158.585 118.36 138.706Z" fill="#EBEBEB"/>
<path d="M113.687 139.757C110.607 119.135 107.805 100.474 105.767 86.9573C104.725 80.2121 103.88 74.7561 103.29 70.9633L102.586 66.6205C102.498 66.1365 102.437 65.7625 102.388 65.4941C102.371 65.3645 102.343 65.2365 102.305 65.1113C102.306 65.2426 102.317 65.3736 102.34 65.5029C102.375 65.7713 102.428 66.1453 102.494 66.6337C102.639 67.6457 102.855 69.1065 103.127 70.9897C103.713 74.7781 104.553 80.2297 105.596 86.9837C107.747 100.492 110.713 119.126 113.991 139.718C117.269 160.31 120.239 178.939 122.294 192.447C123.323 199.201 124.133 204.671 124.661 208.459C124.925 210.351 125.101 211.821 125.237 212.819C125.33 213.324 125.371 213.837 125.361 214.351C125.2 213.864 125.085 213.363 125.017 212.855C124.828 211.865 124.577 210.404 124.252 208.516C123.614 204.75 122.734 199.276 121.678 192.544C119.566 179.036 116.759 160.371 113.687 139.757Z" fill="#EBEBEB"/>
<path d="M108.913 140.079C109.103 119.231 109.274 100.369 109.397 86.6979C109.428 79.8735 109.45 74.3779 109.468 70.5191C109.468 68.6183 109.468 67.1399 109.468 66.1191C109.468 65.6263 109.468 65.2391 109.468 64.9751C109.473 64.8456 109.466 64.716 109.446 64.5879C109.439 64.7169 109.439 64.8461 109.446 64.9751C109.446 65.2479 109.446 65.6263 109.415 66.1191C109.415 67.1399 109.389 68.6183 109.362 70.5191C109.362 74.3515 109.318 79.8735 109.283 86.6979V140.079C109.283 160.913 109.283 179.784 109.191 193.442C109.142 200.271 109.081 205.797 109.01 209.616C108.971 211.526 108.935 213.009 108.896 214.016C108.907 214.529 108.867 215.042 108.777 215.548C108.697 215.041 108.663 214.529 108.676 214.016C108.645 213.009 108.623 211.526 108.601 209.616C108.566 205.797 108.553 200.266 108.57 193.438C108.548 179.78 108.707 160.913 108.913 140.079Z" fill="#EBEBEB"/>
<path d="M104.139 139.665C107.615 119.104 110.739 100.505 113.036 87.0061L115.676 71.0385C115.971 69.1597 116.195 67.6989 116.353 66.6913L116.516 65.5561C116.541 65.4286 116.554 65.2989 116.556 65.1689C116.517 65.2943 116.488 65.4222 116.468 65.5517C116.419 65.8157 116.349 66.1897 116.261 66.6737C116.089 67.6813 115.821 69.1377 115.513 71.0121C114.893 74.7961 113.995 80.2521 112.873 86.9797C110.721 100.488 107.747 119.122 104.465 139.718C101.182 160.315 98.2122 178.94 95.9682 192.417C94.8462 199.153 93.9134 204.605 93.2402 208.367C92.9014 210.25 92.633 211.707 92.435 212.697C92.3648 213.206 92.2439 213.707 92.0742 214.193C92.0744 213.679 92.1215 213.166 92.215 212.661C92.3426 211.663 92.5494 210.193 92.8354 208.301C93.3986 204.521 94.2566 199.061 95.3478 192.316C97.5214 178.83 100.654 160.213 104.139 139.665Z" fill="#EBEBEB"/>
<path d="M99.4979 138.521L116.693 87.9207L121.828 72.5559L123.192 68.3671C123.337 67.8963 123.451 67.5355 123.531 67.2759C123.579 67.1473 123.615 67.0148 123.641 66.8799C123.581 66.9953 123.532 67.1161 123.495 67.2407L123.108 68.3187C122.778 69.2867 122.294 70.6859 121.678 72.4855C120.459 76.1287 118.704 81.3691 116.53 87.8459C112.249 100.852 106.34 118.795 99.8103 138.622C93.2807 158.448 87.3759 176.383 83.0067 189.345C80.8067 195.826 79.0467 201.062 77.7619 204.67C77.1283 206.479 76.6267 207.873 76.2747 208.819C76.1267 209.313 75.9276 209.789 75.6807 210.241C75.761 209.733 75.8892 209.233 76.0635 208.749C76.3495 207.785 76.7895 206.364 77.3835 204.543C78.5407 200.899 80.2611 195.637 82.4171 189.143C86.7071 176.167 92.7703 158.272 99.4979 138.521Z" fill="#EBEBEB"/>
<path d="M95.0972 136.674C104.878 118.194 113.736 101.474 120.151 89.3516L127.675 74.9724C128.555 73.2784 129.219 71.9628 129.69 71.052L130.2 70.0224C130.266 69.9097 130.319 69.7902 130.359 69.666C130.284 69.7729 130.216 69.8846 130.156 70.0004L129.606 71.008C129.122 71.91 128.427 73.208 127.53 74.902L119.997 89.2724C113.692 101.447 104.988 118.251 95.3568 136.814C85.7252 155.378 77.0484 172.177 70.664 184.299C67.474 190.358 64.8692 195.255 63.0432 198.621C62.128 200.306 61.4108 201.609 60.9136 202.489C60.6851 202.954 60.4125 203.396 60.0996 203.809C60.2612 203.321 60.469 202.849 60.72 202.401C61.16 201.49 61.82 200.161 62.6824 198.441C64.4116 195.022 66.9504 190.081 70.114 184.022C76.4588 171.865 85.3028 155.132 95.0972 136.674Z" fill="#EBEBEB"/>
<path d="M91.0449 134.165L123.293 91.2873L132.999 78.2457L135.613 74.6817L136.281 73.7489C136.361 73.6439 136.433 73.5337 136.497 73.4189C136.403 73.5112 136.318 73.6113 136.242 73.7181L135.538 74.6289C134.917 75.4429 134.02 76.6309 132.871 78.1489L123.152 91.1817L91.3001 134.346C78.8833 151.202 67.6105 166.466 59.3869 177.439C55.2729 182.931 51.9069 187.366 49.5881 190.411C48.4177 191.933 47.5025 193.112 46.8689 193.9C46.5741 194.323 46.2365 194.716 45.8613 195.07C46.0953 194.604 46.3738 194.162 46.6929 193.75C47.2693 192.919 48.1317 191.704 49.2581 190.151C51.5065 187.04 54.7933 182.561 58.8809 177.052C67.0561 166.052 78.4433 150.89 91.0449 134.165Z" fill="#EBEBEB"/>
<path d="M87.437 131.063L126.056 93.6634C130.966 88.8498 134.939 84.9602 137.72 82.2806L140.862 79.1611L141.671 78.3382C141.767 78.2484 141.855 78.1513 141.935 78.0479C141.83 78.1255 141.73 78.2108 141.636 78.3031C141.438 78.4923 141.161 78.743 140.796 79.095L137.606 82.175L125.95 93.5623L87.6702 131.314C72.7454 146.059 59.2066 159.391 49.3462 168.987C44.4182 173.783 40.4142 177.646 37.6202 180.299C36.2254 181.619 35.1386 182.645 34.3862 183.331C34.0271 183.702 33.6321 184.037 33.207 184.33C33.5117 183.913 33.855 183.525 34.2322 183.173C34.9318 182.442 35.9922 181.377 37.3122 180.013C40.0402 177.259 44.0002 173.361 48.9018 168.521C58.7138 158.885 72.3538 145.641 87.437 131.063Z" fill="#EBEBEB"/>
<path d="M84.3656 127.447L128.414 96.418L141.715 86.9536L145.31 84.3532L146.238 83.6668C146.348 83.5922 146.451 83.5083 146.546 83.416C146.43 83.4787 146.319 83.5493 146.212 83.6272L145.257 84.2784L141.618 86.8216L128.313 96.2816L84.5504 127.702C67.4784 139.982 51.9904 151.075 40.7528 159.039C35.1252 163.025 30.558 166.228 27.3856 168.415C25.7972 169.511 24.5608 170.356 23.7116 170.914C23.2978 171.225 22.8559 171.496 22.3916 171.724C22.7551 171.351 23.1545 171.015 23.584 170.721C24.3892 170.105 25.5904 169.212 27.1436 168.081C30.2544 165.802 34.7776 162.537 40.3876 158.533C51.6032 150.525 67.1616 139.547 84.3656 127.447Z" fill="#EBEBEB"/>
<path d="M81.9022 123.407L130.329 99.5501L144.967 92.2505L148.927 90.2353L149.953 89.6985C150.181 89.5753 150.296 89.5093 150.296 89.5049C150.169 89.5446 150.047 89.5962 149.931 89.6589L148.883 90.1517L144.888 92.1053L130.241 99.3961L82.043 123.688C63.2374 133.179 46.1962 141.755 33.819 147.888C27.6282 150.968 22.6122 153.415 19.1274 155.091C17.3674 155.927 16.0474 156.565 15.1058 156.988C14.6474 157.234 14.1653 157.433 13.667 157.582C14.0824 157.28 14.5242 157.016 14.987 156.794C15.867 156.31 17.187 155.61 18.925 154.726C22.357 152.966 27.3422 150.432 33.5154 147.338C45.8838 141.148 62.991 132.7 81.9022 123.407Z" fill="#EBEBEB"/>
<path d="M80.1105 119.029L131.74 102.987L147.36 98.0497L151.597 96.6769L152.693 96.3029C152.82 96.2681 152.944 96.2209 153.063 96.1621C152.933 96.1845 152.805 96.2168 152.68 96.2589L151.567 96.5845L147.312 97.9045L131.683 102.828L80.2029 119.341C60.1169 125.801 41.9229 131.622 28.7229 135.753C22.1229 137.826 16.7769 139.476 13.0677 140.593C11.2153 141.152 9.77214 141.575 8.79094 141.847C8.29978 142.018 7.79269 142.139 7.27734 142.208C7.74018 141.971 8.225 141.779 8.72494 141.636C9.68414 141.297 11.1053 140.813 12.9445 140.206C16.6141 138.992 21.9425 137.267 28.5337 135.173C41.7117 130.962 59.9541 125.277 80.1105 119.029Z" fill="#EBEBEB"/>
<path d="M79.0378 114.431L132.586 106.599L148.8 104.148L153.2 103.449L154.344 103.251C154.475 103.235 154.605 103.207 154.731 103.167C154.598 103.171 154.466 103.183 154.335 103.202L153.187 103.356L148.787 103.985L132.568 106.427L79.095 114.743C58.2302 118.004 39.3278 120.93 25.635 122.963C18.7842 123.983 13.2402 124.784 9.40343 125.308C7.48503 125.567 5.99343 125.748 4.97703 125.88C4.46426 125.969 3.94427 126.01 3.42383 126.003C3.91923 125.84 4.429 125.726 4.94623 125.66C5.94943 125.475 7.42783 125.22 9.34623 124.903C13.1698 124.274 18.705 123.398 25.547 122.351C39.2178 120.257 58.1378 117.48 79.0378 114.431Z" fill="#EBEBEB"/>
<path d="M78.7118 109.723L132.832 110.163L149.239 110.22H153.697H154.858C155.118 110.22 155.254 110.22 155.254 110.22C155.123 110.2 154.991 110.191 154.858 110.194L153.697 110.168L149.239 110.119L132.845 110L78.725 110.036C57.605 110.062 38.465 110.036 24.605 109.974C17.6794 109.934 12.0738 109.877 8.2018 109.807C6.26579 109.772 4.761 109.736 3.7402 109.697C3.22449 109.711 2.70864 109.674 2.2002 109.587C2.71536 109.507 3.23662 109.473 3.7578 109.486C4.7742 109.455 6.279 109.428 8.215 109.411C12.0914 109.371 17.697 109.358 24.6226 109.371C38.4518 109.393 57.5874 109.534 78.7118 109.723Z" fill="#EBEBEB"/>
<path d="M79.1257 105.019L132.528 113.758L148.72 116.327L153.12 116.996L154.269 117.155C154.399 117.18 154.532 117.193 154.665 117.194C154.539 117.153 154.409 117.124 154.278 117.106L153.138 116.904L148.738 116.169L132.546 113.586L79.0773 105.332C58.1993 102.124 39.3013 99.1717 25.6305 96.9717C18.7973 95.8717 13.2709 94.9521 9.45609 94.2921C7.54649 93.9621 6.06809 93.6937 5.05609 93.5001C4.54043 93.4292 4.03232 93.3114 3.53809 93.1481C4.05888 93.1415 4.57907 93.1857 5.09129 93.2801C6.10769 93.4077 7.59489 93.6145 9.51329 93.8917C13.3457 94.4461 18.8853 95.2865 25.7229 96.3601C39.4113 98.5161 58.2873 101.592 79.1257 105.019Z" fill="#EBEBEB"/>
<path d="M80.2828 100.439L131.622 117.366L147.207 122.417L151.457 123.737L152.566 124.071C152.69 124.116 152.818 124.15 152.949 124.172C152.83 124.114 152.706 124.066 152.579 124.027L151.484 123.649L147.26 122.236L131.679 117.172L80.1992 100.716C60.0956 94.3096 41.8972 88.4752 28.7544 84.1764C22.1808 82.0292 16.8744 80.2648 13.2048 79.0152C11.3744 78.3948 9.95759 77.8976 8.99839 77.55C8.49561 77.4163 8.00766 77.232 7.54199 77C8.05669 77.0792 8.56326 77.2043 9.05559 77.374C10.0368 77.6556 11.4756 78.0912 13.3236 78.6632C17.0196 79.8028 22.3568 81.4968 28.9392 83.6176C42.104 87.846 60.254 93.8168 80.2828 100.439Z" fill="#EBEBEB"/>
<path d="M82.1569 96.0965L130.156 120.776L144.76 128.186L148.72 130.17L149.763 130.676C149.878 130.738 149.999 130.79 150.124 130.83C150.016 130.756 149.903 130.689 149.785 130.632L148.764 130.087L144.804 128.041L130.24 120.622L82.0117 96.3605C63.1841 86.9137 46.1429 78.3205 33.8493 72.0417C27.6893 68.9001 22.7349 66.3217 19.3293 64.5353C17.6221 63.6553 16.3021 62.9293 15.4089 62.4365C14.9424 62.2159 14.5001 61.9475 14.0889 61.6357C14.5832 61.7938 15.0619 61.9971 15.5189 62.2429C16.4429 62.6829 17.7937 63.3253 19.5273 64.1745C22.9945 65.8773 27.9929 68.3809 34.1573 71.4961C46.4597 77.7397 63.4305 86.4517 82.1569 96.0965Z" fill="#EBEBEB"/>
<path d="M84.6998 92.0963L128.198 123.873L141.425 133.439L145.041 136.013L145.992 136.673C146.096 136.752 146.206 136.823 146.322 136.884C146.229 136.791 146.127 136.707 146.018 136.633L145.099 135.96L141.521 133.32L128.299 123.746L84.5106 92.3603C67.4078 80.1239 51.9506 69.0403 40.7922 60.9135C35.2174 56.8655 30.7206 53.5655 27.6318 51.2599C26.0874 50.1071 24.8906 49.2051 24.1118 48.5847C23.6851 48.2902 23.2873 47.9557 22.9238 47.5859C23.3881 47.8192 23.83 48.0946 24.2438 48.4087C25.0842 48.9763 26.3162 49.8255 27.8958 50.9343C31.0506 53.1343 35.5914 56.3903 41.1838 60.4207C52.3598 68.4639 67.729 79.6839 84.6998 92.0963Z" fill="#EBEBEB"/>
<path d="M87.8421 88.5416L125.796 126.602L137.36 138.081L140.523 141.161L141.355 141.958C141.448 142.051 141.548 142.138 141.654 142.217C141.575 142.111 141.486 142.013 141.39 141.922L140.589 141.095L137.474 137.949L125.92 126.465L87.6133 88.744C72.6533 74.0348 59.1233 60.694 49.3905 50.9744C44.5197 46.1344 40.5905 42.1744 37.9109 39.42C36.5645 38.0472 35.5261 36.9692 34.8309 36.2344C34.4537 35.8809 34.1132 35.4902 33.8145 35.0684C34.239 35.3672 34.6339 35.7061 34.9937 36.0804C35.7329 36.7844 36.8153 37.8404 38.2013 39.1604C40.9689 41.8356 44.9421 45.7296 49.8305 50.5696C59.6117 60.232 73.0405 73.674 87.8421 88.5416Z" fill="#EBEBEB"/>
<path d="M91.5197 85.5051L122.997 128.92C127.045 134.446 130.328 138.921 132.603 142.032L135.243 145.574C135.542 145.97 135.775 146.274 135.942 146.489C136.016 146.598 136.1 146.7 136.193 146.793C136.131 146.678 136.06 146.567 135.982 146.463L135.317 145.521L132.735 141.935L123.138 128.819L91.2425 85.6987C78.7817 68.8731 67.5265 53.6183 59.4393 42.5303C55.4001 36.9599 52.1485 32.4719 49.9221 29.3435C48.8133 27.7771 47.9597 26.5583 47.3877 25.7223C47.073 25.3098 46.7989 24.8677 46.5693 24.4023C46.9394 24.7623 47.2739 25.1572 47.5681 25.5815C48.1929 26.3779 49.0993 27.5615 50.2565 29.1015C52.5709 32.1815 55.8797 36.6255 59.9365 42.1563C68.0809 53.2135 79.2261 68.5519 91.5197 85.5051Z" fill="#EBEBEB"/>
<path d="M95.5993 83.0768L119.799 130.817C122.923 136.902 125.453 141.817 127.213 145.249C128.093 146.938 128.784 148.25 129.255 149.156C129.492 149.596 129.673 149.93 129.8 150.168C129.858 150.287 129.926 150.4 130.003 150.507C129.958 150.383 129.905 150.263 129.844 150.146L129.36 149.116L127.376 145.156C125.616 141.738 123.095 136.796 119.975 130.72L95.3133 83.2C85.6729 64.6584 76.9697 47.8592 70.7437 35.68C67.6329 29.5728 65.1205 24.6404 63.4353 21.1908C62.5861 19.4748 61.9393 18.1372 61.5081 17.2308C61.2599 16.7785 61.058 16.3024 60.9053 15.8096C61.2133 16.2233 61.4814 16.6653 61.7061 17.1296C62.1989 18.0096 62.9073 19.3296 63.8049 21.0104C65.6045 24.394 68.1697 29.3132 71.3069 35.3984C77.5901 47.5688 86.1613 64.434 95.5993 83.0768Z" fill="#EBEBEB"/>
<path d="M100.034 81.308C106.401 101.183 112.161 119.174 116.314 132.212C118.431 138.706 120.142 143.964 121.335 147.612C121.937 149.416 122.404 150.819 122.729 151.787C122.892 152.254 123.015 152.614 123.103 152.87C123.142 152.995 123.191 153.117 123.249 153.235C123.23 153.106 123.197 152.979 123.152 152.856L122.822 151.761C122.509 150.784 122.065 149.372 121.502 147.559C120.318 143.907 118.611 138.649 116.499 132.159L99.7305 81.4004C93.1701 61.6004 87.2565 43.6528 83.0545 30.6332C80.9601 24.1344 79.2749 18.8588 78.1441 15.2024C77.5765 13.3764 77.1497 11.9552 76.8725 10.9872C76.7023 10.5013 76.5786 10.0004 76.5029 9.49121C76.742 9.94811 76.9365 10.427 77.0837 10.9212C77.4313 11.8672 77.9197 13.2708 78.5401 15.0792C79.7765 18.7004 81.5233 23.9496 83.6529 30.4484C87.9121 43.446 93.6893 61.4332 100.034 81.308Z" fill="#EBEBEB"/>
<path d="M104.72 80.248C107.836 100.866 110.656 119.527 112.698 133.048C113.749 139.793 114.603 145.249 115.197 149.038C115.505 150.916 115.742 152.373 115.905 153.38C115.993 153.864 116.059 154.26 116.108 154.507C116.122 154.637 116.15 154.765 116.191 154.89C116.19 154.76 116.178 154.63 116.156 154.502C116.116 154.23 116.068 153.856 116.002 153.367L115.36 149.016C114.77 145.223 113.921 139.776 112.874 133.026C110.704 119.518 107.712 100.906 104.404 80.2964C101.095 59.6868 98.1071 41.0836 96.0435 27.5756C94.9743 20.826 94.1603 15.3568 93.6279 11.5728C93.3595 9.68076 93.1879 8.21116 93.0427 7.21236C92.9504 6.7059 92.9091 6.19146 92.9195 5.67676C93.0795 6.16535 93.1944 6.66759 93.2627 7.17716C93.4519 8.16716 93.7027 9.62796 94.0371 11.5112C94.6795 15.2776 95.5683 20.7512 96.6331 27.4832C98.7671 40.978 101.601 59.6384 104.72 80.248Z" fill="#EBEBEB"/>
<path d="M109.472 79.9219C109.309 100.769 109.16 119.632 109.032 133.307C109.032 140.127 108.993 145.627 108.984 149.482C108.984 151.382 108.984 152.861 108.984 153.882C108.984 154.374 108.984 154.762 108.984 155.026C108.982 155.155 108.989 155.284 109.006 155.413C109.026 155.285 109.035 155.155 109.032 155.026C109.032 154.753 109.032 154.374 109.059 153.882C109.059 152.861 109.085 151.382 109.103 149.482C109.103 145.649 109.138 140.127 109.164 133.307C109.164 119.632 109.12 100.747 109.098 79.9219C109.076 59.0967 109.045 40.2207 109.125 26.5587C109.16 19.7299 109.217 14.2035 109.283 10.3843C109.318 8.47473 109.353 6.99193 109.389 5.98433C109.377 5.47125 109.417 4.95832 109.507 4.45312C109.587 4.95942 109.621 5.47192 109.609 5.98433C109.639 6.99193 109.666 8.47473 109.688 10.3843C109.732 14.2035 109.749 19.7343 109.741 26.5631C109.785 40.2207 109.653 59.0879 109.472 79.9219Z" fill="#EBEBEB"/>
<path d="M114.242 80.3314C110.797 100.897 107.677 119.491 105.415 132.999C104.32 139.736 103.435 145.187 102.819 148.971C102.529 150.85 102.305 152.311 102.146 153.319C102.076 153.807 102.023 154.199 101.983 154.454C101.961 154.582 101.949 154.711 101.948 154.841C101.986 154.717 102.014 154.591 102.032 154.463C102.085 154.194 102.151 153.82 102.239 153.336C102.41 152.329 102.679 150.872 102.982 148.998C103.598 145.214 104.491 139.758 105.587 133.026C107.725 119.513 110.673 100.875 113.947 80.2786C117.221 59.6822 120.12 41.0526 122.355 27.571C123.469 20.8302 124.393 15.3786 125.061 11.6122C125.396 9.73342 125.669 8.27262 125.862 7.28702C125.934 6.77828 126.053 6.2774 126.219 5.79102C126.225 6.3047 126.179 6.81768 126.082 7.32222C125.959 8.32102 125.752 9.78622 125.471 11.6782C124.912 15.4578 124.058 20.9182 122.976 27.6678C120.811 41.1582 117.705 59.7746 114.242 80.3314Z" fill="#EBEBEB"/>
<path d="M118.888 81.4666L101.759 132.106C99.6031 138.587 97.8563 143.837 96.6463 147.48C96.0611 149.288 95.6035 150.696 95.2867 151.669L94.9479 152.764C94.9026 152.887 94.8688 153.014 94.8467 153.143C94.9052 153.025 94.9552 152.903 94.9963 152.777C95.0843 152.522 95.2119 152.161 95.3791 151.699L96.8003 147.533L101.926 132.163C106.19 119.153 112.077 101.205 118.58 81.3698C125.083 61.5346 130.966 43.5914 135.3 30.6246C137.474 24.139 139.26 18.903 140.523 15.2906C141.152 13.4822 141.654 12.083 142.006 11.1414C142.156 10.6476 142.355 10.17 142.6 9.71582C142.521 10.2237 142.394 10.7231 142.221 11.2074C141.935 12.1754 141.495 13.5922 140.901 15.4182C139.744 19.0658 138.033 24.3282 135.885 30.8182C131.631 43.807 125.594 61.7106 118.888 81.4666Z" fill="#EBEBEB"/>
<path d="M123.292 83.3145L98.3003 130.68C95.1367 136.748 92.5803 141.68 90.7939 145.068L88.7831 148.993L88.2727 150.023C88.2105 150.137 88.1575 150.256 88.1143 150.379C88.1911 150.274 88.2588 150.162 88.3167 150.045L88.8667 149.037C89.3507 148.135 90.0459 146.837 90.9391 145.143L98.4543 130.76L123.011 83.1605C132.581 64.5837 141.275 47.7757 147.651 35.6405C150.832 29.5729 153.428 24.6757 155.254 21.3053C156.165 19.6201 156.877 18.3133 157.379 17.4333C157.605 16.9679 157.876 16.5258 158.189 16.1133C158.026 16.6016 157.82 17.0743 157.573 17.5257C157.133 18.4365 156.477 19.7697 155.615 21.4857C153.89 24.9045 151.36 29.8457 148.205 35.9133C141.882 48.0969 133.06 64.8389 123.292 83.3145Z" fill="#EBEBEB"/>
<path d="M127.35 85.7999L95.155 128.717L85.475 141.772L82.8658 145.341C82.5754 145.741 82.3554 146.053 82.197 146.273C82.1178 146.378 82.0458 146.489 81.9814 146.603C82.0749 146.511 82.1603 146.411 82.2366 146.304L82.9406 145.393C83.5566 144.575 84.4542 143.391 85.6026 141.873L95.3046 128.827L127.099 85.6239C139.498 68.7543 150.749 53.5039 158.959 42.5039C163.065 37.0039 166.409 32.5687 168.741 29.5195C169.907 27.9927 170.822 26.8179 171.455 26.0259C171.75 25.6022 172.088 25.21 172.463 24.8555C172.23 25.322 171.952 25.7641 171.631 26.1755C171.059 27.0071 170.193 28.2259 169.071 29.7791C166.827 32.8943 163.544 37.3735 159.465 42.8911C151.295 53.8955 139.921 69.0799 127.35 85.7999Z" fill="#EBEBEB"/>
<path d="M130.958 88.9115L92.4005 126.369L80.7713 137.773C79.4162 139.124 78.3601 140.176 77.6297 140.897L76.8245 141.72C76.7282 141.811 76.6399 141.909 76.5605 142.015C76.6655 141.935 76.7654 141.848 76.8597 141.755L77.6957 140.963L80.8857 137.883L92.5237 126.483L130.747 88.6827C145.654 73.9207 159.175 60.5711 169.027 50.9615C173.95 46.1611 177.95 42.2891 180.735 39.6359C182.13 38.3159 183.221 37.2863 183.969 36.5999C184.331 36.2302 184.725 35.8944 185.148 35.5967C184.845 36.0149 184.502 36.4025 184.123 36.7539C183.423 37.4887 182.363 38.5579 181.043 39.9219C178.333 42.6543 174.386 46.5747 169.484 51.4015C159.646 61.0551 146.023 74.3035 130.958 88.9115Z" fill="#EBEBEB"/>
<path d="M134.038 92.5239L90.0377 123.605L76.7497 133.092C75.1965 134.214 73.9865 135.089 73.1549 135.697L72.2177 136.401C72.1097 136.474 72.0082 136.557 71.9141 136.647C72.0315 136.588 72.1434 136.519 72.2485 136.44L73.1989 135.789L76.8333 133.237L90.1301 123.764L133.848 92.2687C150.903 79.9487 166.364 68.8563 177.606 60.8747C183.225 56.8839 187.792 53.6807 190.96 51.4807C192.549 50.3851 193.785 49.5403 194.63 48.9815C195.042 48.6685 195.484 48.3973 195.95 48.1719C195.583 48.5372 195.182 48.8672 194.753 49.1575C193.948 49.7735 192.747 50.6711 191.194 51.7975C188.087 54.0811 183.568 57.3503 177.963 61.3631C166.76 69.4063 151.224 80.4019 134.038 92.5239Z" fill="#EBEBEB"/>
<path d="M136.506 96.5631L88.106 120.477L73.4804 127.799L69.5204 129.801L68.4996 130.338C68.2708 130.465 68.152 130.531 68.1564 130.536C68.2827 130.496 68.405 130.444 68.5216 130.382L69.5644 129.884L73.5596 127.926L88.194 120.618L136.365 96.2683C155.162 86.7511 172.194 78.1579 184.563 72.0067C190.745 68.9267 195.761 66.4671 199.241 64.7907C201.001 63.9503 202.321 63.3079 203.263 62.8855C203.723 62.6414 204.204 62.4411 204.702 62.2871C204.288 62.5933 203.846 62.8586 203.382 63.0791C202.502 63.5675 201.16 64.2627 199.444 65.1515C196.016 66.9115 191.035 69.4591 184.862 72.5611C172.502 78.7607 155.404 87.2439 136.506 96.5631Z" fill="#EBEBEB"/>
<path d="M138.301 100.932L86.6803 117.041L71.0647 121.999L66.8319 123.381L65.7319 123.751C65.605 123.789 65.4814 123.837 65.3623 123.896C65.4939 123.874 65.6234 123.842 65.7495 123.799L66.8583 123.469L71.1175 122.149L86.7331 117.199C99.9331 112.957 118.096 107.079 138.213 100.624C158.33 94.1694 176.493 88.3042 189.693 84.1462C196.293 82.065 201.635 80.4106 205.34 79.3062C207.192 78.7474 208.635 78.325 209.616 78.0478C210.109 77.8802 210.615 77.7579 211.13 77.6826C210.669 77.9252 210.184 78.1184 209.682 78.259C208.723 78.5978 207.302 79.0862 205.467 79.6934C201.798 80.9166 196.474 82.6458 189.882 84.749C176.687 88.9554 158.449 94.6622 138.301 100.932Z" fill="#EBEBEB"/>
<path d="M139.379 105.53L85.8395 113.45L69.6299 115.923L65.2299 116.627L64.0903 116.825C63.9591 116.842 63.8295 116.87 63.7031 116.909C63.8344 116.908 63.9654 116.896 64.0947 116.873L65.2475 116.719L69.6475 116.081L85.8571 113.622L139.322 105.24C160.191 101.931 179.08 99.0006 192.782 96.9326C199.628 95.903 205.172 95.0978 209.009 94.5698C210.927 94.3058 212.419 94.1298 213.435 93.989C213.947 93.8967 214.468 93.8554 214.988 93.8658C214.493 94.0284 213.983 94.1433 213.466 94.209C212.463 94.3938 210.984 94.649 209.066 94.9702C205.247 95.6082 199.712 96.4882 192.87 97.5442C179.194 99.6562 160.274 102.463 139.379 105.53Z" fill="#EBEBEB"/>
<path d="M166.712 163.416C164.5 160.882 161.62 159.022 158.4 158.048C156.161 157.419 152.764 156.843 149.306 157.687C147.21 158.183 145.281 159.221 143.713 160.697C141.861 162.457 140.448 164.846 139.516 167.843C139.445 168.063 139.42 168.296 139.443 168.527C139.465 168.758 139.535 168.982 139.648 169.185C139.757 169.39 139.908 169.571 140.089 169.717C140.27 169.863 140.479 169.971 140.704 170.034L146.582 171.684C146.985 171.793 147.415 171.755 147.793 171.577C148.171 171.399 148.473 171.092 148.646 170.711C149.424 168.951 151.391 166.149 155.809 167.31C156.93 167.584 157.938 168.2 158.692 169.073C159.447 169.946 159.911 171.032 160.02 172.181C160.122 173.153 159.994 174.136 159.645 175.05C159.296 175.963 158.737 176.782 158.013 177.439C155.725 179.577 152.733 179.164 151.162 178.724C150.292 178.482 149.361 178.594 148.573 179.035C147.784 179.475 147.202 180.21 146.952 181.078L145.192 187.401C145.072 187.844 145.13 188.318 145.355 188.719C145.579 189.12 145.952 189.418 146.393 189.548L152.113 191.158C152.557 191.278 153.03 191.22 153.431 190.995C153.832 190.771 154.13 190.398 154.26 189.957L154.634 188.637C154.638 188.621 154.648 188.607 154.66 188.597C154.673 188.587 154.688 188.581 154.704 188.58C157.211 188.413 159.65 187.698 161.85 186.485C165.55 184.426 168.058 181.126 169.33 176.687C171.068 170.32 168.868 165.959 166.712 163.416Z" fill="#E0E0E0"/>
<path d="M149.059 192.026L148.557 191.885C147.405 191.56 146.172 191.707 145.128 192.292C144.084 192.877 143.316 193.853 142.991 195.004C142.667 196.156 142.813 197.39 143.398 198.434C143.983 199.477 144.959 200.246 146.111 200.57L146.612 200.711C147.183 200.872 147.779 200.919 148.367 200.849C148.956 200.779 149.525 200.594 150.042 200.304C150.558 200.014 151.013 199.626 151.38 199.16C151.746 198.695 152.018 198.162 152.178 197.592C152.339 197.021 152.386 196.425 152.316 195.837C152.246 195.248 152.061 194.679 151.771 194.163C151.482 193.646 151.093 193.191 150.628 192.824C150.162 192.458 149.629 192.186 149.059 192.026Z" fill="#E0E0E0"/>
<path d="M179.326 128.397C177.802 127.588 176.08 127.227 174.359 127.354C172.781 127.468 171.258 127.982 169.932 128.846C169.021 129.468 168.289 130.317 167.807 131.31C167.216 132.624 166.975 134.068 167.107 135.503C167.114 135.622 167.145 135.738 167.198 135.845C167.251 135.951 167.325 136.046 167.415 136.123C167.506 136.202 167.612 136.261 167.726 136.297C167.84 136.334 167.961 136.346 168.08 136.334L171.195 136.048C171.41 136.031 171.611 135.936 171.761 135.78C171.91 135.624 171.997 135.419 172.005 135.204C172.053 134.214 172.484 132.515 174.812 132.264C175.398 132.189 175.994 132.299 176.515 132.578C177.036 132.857 177.458 133.292 177.72 133.822C177.947 134.269 178.065 134.764 178.065 135.265C178.065 135.767 177.947 136.261 177.72 136.708C177.016 138.152 175.52 138.499 174.675 138.578C174.214 138.623 173.79 138.848 173.493 139.204C173.197 139.559 173.052 140.018 173.091 140.479L173.395 143.832C173.404 143.949 173.436 144.064 173.49 144.168C173.544 144.273 173.618 144.366 173.708 144.441C173.798 144.517 173.903 144.573 174.015 144.608C174.128 144.642 174.246 144.654 174.363 144.642L177.403 144.364C177.521 144.355 177.635 144.322 177.74 144.268C177.844 144.214 177.937 144.139 178.012 144.048C178.087 143.958 178.143 143.853 178.177 143.74C178.21 143.627 178.221 143.509 178.209 143.392L178.143 142.688C178.143 142.68 178.145 142.671 178.15 142.664C178.155 142.657 178.161 142.652 178.169 142.648C179.338 142.108 180.375 141.318 181.205 140.334C181.896 139.498 182.409 138.529 182.711 137.487C183.014 136.445 183.1 135.352 182.965 134.275C182.679 130.905 180.84 129.22 179.326 128.397Z" fill="#F5F5F5"/>
<path d="M176.114 145.332L175.85 145.354C175.543 145.377 175.243 145.461 174.969 145.601C174.695 145.741 174.451 145.934 174.252 146.17C174.054 146.405 173.904 146.678 173.812 146.972C173.72 147.266 173.688 147.576 173.718 147.882C173.747 148.189 173.837 148.487 173.983 148.758C174.129 149.029 174.327 149.269 174.567 149.462C174.806 149.656 175.082 149.8 175.378 149.885C175.674 149.971 175.984 149.997 176.29 149.961L176.554 149.939C176.861 149.916 177.161 149.832 177.435 149.692C177.71 149.552 177.953 149.359 178.152 149.123C178.351 148.888 178.5 148.615 178.592 148.321C178.684 148.027 178.716 147.717 178.687 147.411C178.658 147.104 178.567 146.806 178.421 146.535C178.276 146.264 178.077 146.024 177.837 145.831C177.598 145.637 177.322 145.493 177.026 145.408C176.73 145.322 176.42 145.296 176.114 145.332Z" fill="#F5F5F5"/>
<path d="M54.5073 56.7908C53.4669 55.7956 52.168 55.1126 50.7585 54.8196C49.4667 54.554 48.1287 54.619 46.8689 55.0088C45.9942 55.2979 45.2111 55.8124 44.5985 56.5004C43.825 57.4212 43.3022 58.526 43.0805 59.708C43.06 59.8046 43.0591 59.9043 43.0779 60.0012C43.0966 60.0982 43.1346 60.1904 43.1895 60.2724C43.2445 60.3544 43.3153 60.4246 43.3979 60.4788C43.4804 60.533 43.5729 60.5701 43.6701 60.588L46.2353 61.072C46.4117 61.104 46.5938 61.0719 46.7486 60.9816C46.9035 60.8912 47.0211 60.7485 47.0801 60.5792C47.2426 59.9656 47.6405 59.4408 48.1874 59.1187C48.7344 58.7967 49.3863 58.7033 50.0017 58.8588C50.4898 58.9321 50.943 59.1558 51.2979 59.4989C51.6529 59.842 51.8919 60.2873 51.9817 60.7728C52.0617 61.1836 52.0441 61.6075 51.9302 62.0103C51.8163 62.4131 51.6094 62.7835 51.3261 63.0916C50.4461 64.0904 49.1261 64.0244 48.4529 63.8968C48.0732 63.8271 47.6815 63.91 47.3627 64.1275C47.0438 64.345 46.8237 64.6795 46.7501 65.0584L46.2309 67.8216C46.2111 67.9184 46.2108 68.0183 46.2301 68.1152C46.2494 68.2122 46.2878 68.3043 46.3431 68.3863C46.3984 68.4682 46.4695 68.5383 46.5522 68.5924C46.6349 68.6466 46.7276 68.6837 46.8249 68.7016L49.3241 69.1724C49.4209 69.1915 49.5205 69.1913 49.6173 69.1718C49.714 69.1523 49.8059 69.1138 49.8877 69.0586C49.9695 69.0034 50.0396 68.9325 50.0939 68.8501C50.1482 68.7677 50.1856 68.6753 50.2041 68.5784L50.3097 67.9976C50.3126 67.9912 50.3168 67.9855 50.3222 67.981C50.3275 67.9764 50.3337 67.9731 50.3405 67.9712C51.4016 67.8039 52.4136 67.4075 53.3061 66.8096C54.0529 66.297 54.6872 65.6373 55.1699 64.8708C55.6526 64.1044 55.9737 63.2474 56.1133 62.3524C56.6237 59.5672 55.5237 57.794 54.5073 56.7908Z" fill="#F5F5F5"/>
<path d="M48.0702 69.648L47.8502 69.6084C47.6015 69.5616 47.346 69.5643 47.0982 69.6162C46.8505 69.6682 46.6154 69.7684 46.4065 69.9112C46.1975 70.054 46.0187 70.2366 45.8802 70.4485C45.7418 70.6604 45.6464 70.8975 45.5996 71.1462C45.5528 71.395 45.5555 71.6505 45.6074 71.8982C45.6594 72.146 45.7596 72.381 45.9024 72.59C46.0452 72.799 46.2278 72.9778 46.4397 73.1163C46.6516 73.2547 46.8887 73.35 47.1374 73.3968L47.3574 73.4408C47.8496 73.5103 48.3497 73.3874 48.7535 73.0976C49.1574 72.8078 49.434 72.3735 49.5258 71.885C49.6176 71.3964 49.5176 70.8913 49.2465 70.4747C48.9754 70.0581 48.5541 69.762 48.0702 69.648Z" fill="#F5F5F5"/>
<path d="M174.68 57.6708C173.157 56.8571 171.435 56.4895 169.712 56.6104C168.138 56.7196 166.617 57.2252 165.29 58.08C164.376 58.6982 163.639 59.5445 163.152 60.5352C162.557 61.8482 162.31 63.2923 162.435 64.7284C162.441 64.8476 162.471 64.9644 162.524 65.0716C162.576 65.1788 162.65 65.2742 162.74 65.352C162.831 65.4298 162.936 65.4884 163.05 65.5241C163.164 65.5599 163.284 65.5721 163.403 65.56L166.522 65.2872C166.738 65.2712 166.939 65.1768 167.089 65.0219C167.239 64.8669 167.327 64.6623 167.336 64.4468C167.389 63.4568 167.825 61.7628 170.152 61.5164C170.74 61.4446 171.335 61.5573 171.855 61.8387C172.375 62.1202 172.795 62.5565 173.056 63.0872C173.283 63.5345 173.402 64.0289 173.402 64.5304C173.402 65.0319 173.283 65.5264 173.056 65.9736C172.348 67.4168 170.856 67.7556 170.003 67.8348C169.542 67.8773 169.116 68.0997 168.818 68.4539C168.52 68.808 168.373 69.2653 168.41 69.7268L168.705 73.0796C168.713 73.1973 168.745 73.3122 168.798 73.4173C168.852 73.5225 168.926 73.6158 169.016 73.6918C169.107 73.7677 169.211 73.8247 169.324 73.8594C169.437 73.8941 169.556 73.9057 169.673 73.8936L172.709 73.6252C172.826 73.6164 172.94 73.5843 173.044 73.5308C173.148 73.4773 173.241 73.4035 173.316 73.3138C173.392 73.224 173.449 73.1201 173.483 73.0081C173.518 72.8961 173.53 72.7783 173.518 72.6616L173.457 71.9532C173.458 71.9449 173.46 71.9369 173.465 71.9299C173.47 71.923 173.476 71.9174 173.483 71.9136C174.654 71.3798 175.693 70.5958 176.528 69.6168C177.225 68.7838 177.745 67.817 178.055 66.7759C178.366 65.7348 178.46 64.6412 178.332 63.5624C178.028 60.1964 176.18 58.52 174.68 57.6708Z" fill="#EBEBEB"/>
<path d="M171.406 74.5936L171.142 74.62C170.84 74.6463 170.545 74.7319 170.276 74.872C170.007 75.012 169.767 75.2038 169.572 75.4363C169.377 75.6687 169.229 75.9374 169.138 76.2269C169.046 76.5165 169.013 76.8212 169.039 77.1236C169.065 77.4261 169.151 77.7205 169.291 77.9899C169.431 78.2593 169.623 78.4985 169.855 78.6938C170.088 78.8891 170.356 79.0367 170.646 79.1281C170.935 79.2196 171.24 79.2531 171.543 79.2268L171.807 79.2048C172.413 79.1458 172.972 78.8497 173.362 78.3809C173.752 77.9121 173.941 77.3085 173.888 76.7011C173.835 76.0937 173.545 75.5317 173.08 75.1371C172.616 74.7425 172.014 74.5472 171.406 74.5936Z" fill="#EBEBEB"/>
<path d="M80.9606 159.065C79.0549 158.206 76.9462 157.901 74.8754 158.185C72.9777 158.442 71.1763 159.177 69.6394 160.319C68.5826 161.135 67.7599 162.216 67.2546 163.452C66.6355 165.084 66.4491 166.848 66.7134 168.573C66.7316 168.716 66.7784 168.854 66.8509 168.979C66.9234 169.103 67.0201 169.212 67.1354 169.299C67.2507 169.385 67.3821 169.448 67.522 169.483C67.6619 169.518 67.8073 169.524 67.9498 169.502L71.6942 168.93C71.951 168.889 72.1846 168.757 72.3525 168.558C72.5204 168.36 72.6116 168.107 72.6094 167.847C72.6094 166.651 72.9922 164.565 75.7862 164.085C76.49 163.952 77.2178 164.042 77.8684 164.341C78.519 164.641 79.06 165.136 79.4162 165.757C79.7239 166.281 79.9042 166.87 79.9424 167.476C79.9806 168.082 79.8757 168.688 79.6362 169.247C78.8882 171.042 77.093 171.574 76.0898 171.733C75.5384 171.822 75.0445 172.126 74.7151 172.577C74.3857 173.028 74.2473 173.591 74.3298 174.144L74.9458 178.174C74.9902 178.457 75.1448 178.71 75.3756 178.879C75.6065 179.048 75.8949 179.119 76.1778 179.076L79.8254 178.517C80.1088 178.474 80.3635 178.32 80.5334 178.089C80.7034 177.858 80.7747 177.569 80.7318 177.285L80.5998 176.441C80.5987 176.431 80.6007 176.421 80.6054 176.412C80.6101 176.404 80.6174 176.397 80.6262 176.392C82.0065 175.654 83.208 174.622 84.1462 173.369C84.9176 172.304 85.4625 171.092 85.747 169.807C86.0316 168.523 86.0498 167.194 85.8006 165.903C85.1758 161.85 82.813 159.945 80.9606 159.065Z" fill="#EBEBEB"/>
<path d="M78.32 179.767L78.0032 179.815C77.2692 179.927 76.6098 180.326 76.17 180.924C75.7302 181.523 75.546 182.271 75.658 183.005C75.7701 183.739 76.1691 184.399 76.7673 184.838C77.3656 185.278 78.114 185.462 78.848 185.35L79.1692 185.302C79.5327 185.246 79.8816 185.119 80.196 184.929C80.5105 184.738 80.7843 184.488 81.0019 184.191C81.2194 183.895 81.3765 183.558 81.4641 183.201C81.5516 182.844 81.568 182.473 81.5122 182.11C81.4565 181.746 81.3297 181.397 81.1391 181.083C80.9485 180.769 80.6978 180.495 80.4014 180.277C80.105 180.06 79.7686 179.903 79.4115 179.815C79.0544 179.727 78.6835 179.711 78.32 179.767Z" fill="#EBEBEB"/>
<path d="M48.0966 82.7906C45.4202 81.5812 42.4571 81.1512 39.5474 81.5498C36.882 81.9142 34.3525 82.9481 32.195 84.555C30.7141 85.7034 29.561 87.2207 28.851 88.955C27.9883 91.2475 27.7321 93.724 28.1074 96.1446C28.1321 96.3456 28.1971 96.5395 28.2984 96.7149C28.3997 96.8903 28.5352 97.0435 28.697 97.1654C28.8597 97.2871 29.0452 97.375 29.2424 97.4241C29.4396 97.4733 29.6446 97.4825 29.8454 97.4514L35.1254 96.6374C35.486 96.5804 35.8141 96.3958 36.0499 96.1171C36.2857 95.8385 36.4136 95.4844 36.4102 95.1193C36.4102 93.4297 36.9382 90.5037 40.863 89.8393C41.851 89.65 42.8735 89.7733 43.7883 90.1921C44.703 90.6108 45.4646 91.3042 45.967 92.1758C46.4009 92.9097 46.6557 93.7356 46.7108 94.5865C46.7658 95.4373 46.6195 96.2892 46.2838 97.073C45.241 99.5986 42.7198 100.351 41.3118 100.593C40.5331 100.715 39.8344 101.141 39.3679 101.776C38.9014 102.412 38.705 103.206 38.8214 103.985L39.7014 109.648C39.7714 110.034 39.9884 110.378 40.3067 110.608C40.625 110.838 41.0199 110.935 41.4086 110.88L46.5346 110.084C46.932 110.021 47.2884 109.803 47.5259 109.478C47.7634 109.154 47.8625 108.748 47.8018 108.35L47.617 107.162C47.6156 107.148 47.6186 107.133 47.6257 107.121C47.6328 107.108 47.6436 107.098 47.6566 107.092C49.5837 106.05 51.2597 104.599 52.567 102.841C54.767 99.867 55.5546 96.3426 54.9386 92.365C54.0542 86.6802 50.7278 84.0402 48.0966 82.7906Z" fill="#EBEBEB"/>
<path d="M44.44 111.883L44 111.954C43.4895 112.033 42.9996 112.212 42.5582 112.48C42.1169 112.749 41.7328 113.102 41.4278 113.519C41.1227 113.936 40.9029 114.409 40.7806 114.91C40.6584 115.412 40.6362 115.933 40.7154 116.444C40.7946 116.954 40.9735 117.444 41.242 117.886C41.5105 118.327 41.8633 118.711 42.2802 119.016C43.1223 119.632 44.1746 119.888 45.2056 119.729L45.6456 119.658C46.1561 119.579 46.646 119.4 47.0874 119.132C47.5287 118.863 47.9128 118.51 48.2179 118.093C48.5229 117.676 48.7428 117.203 48.865 116.701C48.9872 116.2 49.0094 115.678 48.9302 115.168C48.851 114.657 48.6721 114.168 48.4036 113.726C48.1351 113.285 47.7823 112.901 47.3654 112.596C46.9484 112.291 46.4755 112.071 45.9735 111.949C45.4716 111.826 44.9505 111.804 44.44 111.883Z" fill="#EBEBEB"/>
<path d="M122.197 46.9342L126.157 47.5942C128.613 50.5262 132.077 52.4336 135.868 52.9415C139.659 53.4494 143.502 52.521 146.643 50.3389C149.784 48.1568 151.996 44.8787 152.843 41.1489C153.69 37.4192 153.111 33.5076 151.22 30.1829C149.33 26.8582 146.264 24.3609 142.625 23.1818C138.987 22.0027 135.039 22.2271 131.558 23.8109C128.076 25.3947 125.313 28.2234 123.812 31.7409C122.31 35.2584 122.178 39.2105 123.442 42.8202L122.197 46.9342Z" fill="white"/>
<path d="M122.197 46.9344C122.197 46.9344 122.197 46.8464 122.268 46.6704L122.492 45.8828C122.703 45.1744 123.007 44.1228 123.398 42.8028L123.425 42.7104L123.482 42.7896L123.398 42.8292C122.559 40.4731 122.311 37.9468 122.677 35.4724C122.924 33.8475 123.423 32.2711 124.155 30.7996C125.004 29.1427 126.144 27.6523 127.521 26.3996C129.058 25.0167 130.852 23.9506 132.801 23.2624C134.912 22.4993 137.167 22.2182 139.401 22.4396C141.77 22.678 144.053 23.4497 146.08 24.6968C148.207 26.0156 149.973 27.842 151.22 30.012C151.86 31.1124 152.367 32.2852 152.729 33.5056C152.817 33.8092 152.874 34.1172 152.944 34.4252C153.026 34.7259 153.088 35.0317 153.129 35.3404C153.169 35.6484 153.204 35.9608 153.244 36.2644L153.296 36.7044V37.1444C153.374 39.5511 152.897 41.9434 151.902 44.136C150.971 46.208 149.582 48.0419 147.84 49.4996C146.244 50.8381 144.399 51.8475 142.411 52.4696C140.609 53.0233 138.721 53.2425 136.84 53.1164L135.551 52.9668C135.111 52.9052 134.724 52.7952 134.324 52.716C133.553 52.5385 132.798 52.2971 132.066 51.9944C129.759 51.0452 127.72 49.545 126.126 47.6252H126.153L123.2 47.1192L122.448 46.9828L122.197 46.9344L122.466 46.9696L123.236 47.0884L126.17 47.5284C127.767 49.4187 129.8 50.8924 132.093 51.8228C132.819 52.119 133.568 52.3545 134.332 52.5268C134.733 52.6016 135.133 52.7116 135.551 52.7688L136.827 52.9096C138.681 53.0266 140.541 52.8029 142.314 52.2496C144.274 51.6304 146.092 50.6301 147.664 49.306C149.375 47.8776 150.743 46.0839 151.668 44.0568C152.644 41.8931 153.111 39.5343 153.032 37.162V36.722L152.98 36.282C152.94 35.9828 152.905 35.6792 152.865 35.3712C152.822 35.0674 152.762 34.7663 152.685 34.4692C152.61 34.17 152.553 33.862 152.469 33.5892C152.113 32.3853 151.614 31.2286 150.982 30.144C149.754 28.0076 148.015 26.2087 145.922 24.908C143.921 23.6696 141.664 22.9023 139.322 22.664C137.143 22.4476 134.944 22.715 132.88 23.4472C130.957 24.1216 129.185 25.1682 127.666 26.5272C126.299 27.7651 125.167 29.241 124.327 30.8832C123.598 32.333 123.098 33.8871 122.844 35.49C122.471 37.9426 122.699 40.449 123.508 42.794L123.623 43.1196L123.429 42.838H123.508C123.099 44.158 122.778 45.1788 122.562 45.8784C122.452 46.2216 122.369 46.4856 122.312 46.6748C122.254 46.864 122.197 46.9344 122.197 46.9344Z" fill="#263238"/>
<path d="M141.134 30.6981C140.096 30.0323 138.892 29.6724 137.658 29.6597C136.53 29.646 135.417 29.9201 134.424 30.4561C133.737 30.8422 133.164 31.4021 132.761 32.0797C132.259 32.9793 131.997 33.993 132 35.0233C132.002 35.1883 132.069 35.346 132.185 35.4633C132.242 35.5222 132.31 35.5692 132.386 35.6017C132.461 35.6342 132.543 35.6514 132.625 35.6525H134.86C135.018 35.6586 135.172 35.6063 135.294 35.5057C135.416 35.405 135.496 35.263 135.52 35.1069C135.555 34.564 135.803 34.0569 136.21 33.696C136.617 33.3351 137.15 33.1495 137.694 33.1797C138.116 33.1621 138.533 33.2763 138.887 33.5066C139.241 33.7368 139.514 34.0716 139.669 34.4645C139.802 34.7976 139.854 35.1574 139.821 35.5145C139.788 35.8716 139.671 36.2159 139.48 36.5193C139.231 36.8911 138.891 37.1922 138.492 37.3935C138.092 37.5947 137.648 37.6892 137.201 37.6677C136.871 37.6711 136.555 37.8048 136.323 38.0396C136.09 38.2744 135.96 38.5914 135.96 38.9217V41.3285C135.961 41.4969 136.029 41.6581 136.148 41.7768C136.268 41.8955 136.43 41.9621 136.598 41.9621H138.798C138.882 41.9621 138.964 41.9455 139.042 41.9134C139.119 41.8813 139.189 41.8342 139.248 41.7749C139.306 41.7156 139.353 41.6453 139.385 41.5679C139.416 41.4905 139.432 41.4076 139.432 41.3241V40.8005C139.432 40.7942 139.434 40.788 139.438 40.7832C139.442 40.7783 139.447 40.7751 139.454 40.7741C140.318 40.4587 141.103 39.9587 141.755 39.3089C142.297 38.7547 142.721 38.096 143.001 37.3729C143.281 36.6498 143.411 35.8773 143.383 35.1025C143.417 34.2372 143.228 33.3776 142.834 32.6063C142.441 31.835 141.855 31.1779 141.134 30.6981Z" fill="#00C868"/>
<path d="M137.83 42.5605H137.641C137.217 42.585 136.82 42.7712 136.529 43.0807C136.239 43.3901 136.079 43.7991 136.082 44.2232C136.085 44.6473 136.25 45.0542 136.545 45.3597C136.839 45.6652 137.239 45.8461 137.663 45.8649H137.856C138.294 45.8614 138.712 45.6842 139.019 45.3723C139.326 45.0604 139.497 44.6394 139.493 44.2017C139.49 43.7641 139.313 43.3458 139.001 43.0389C138.689 42.7319 138.268 42.5614 137.83 42.5649V42.5605Z" fill="#00C868"/>
<path d="M143.902 66.7696C133.514 59.7824 121.163 57.292 113.067 57.292C105.482 57.292 94.3277 58.4888 84.2297 64.1824C78.0976 67.5846 72.9674 72.5387 69.3533 78.5484C65.0941 85.65 62.7841 94.4368 62.4981 104.662C62.4781 105.418 62.6098 106.171 62.8855 106.875C63.1612 107.579 63.5752 108.221 64.1031 108.762C64.631 109.304 65.2621 109.734 65.959 110.027C66.656 110.321 67.4047 110.471 68.1609 110.47H88.0445C89.4076 110.465 90.7236 109.971 91.7525 109.077C92.7815 108.183 93.4549 106.949 93.6501 105.6C94.5301 99.3648 98.2349 88.8796 113.111 88.6112C124.441 88.4176 129.118 96.6236 130.606 100.161C133.021 105.916 132.405 112.741 128.964 118.417C123.676 127.16 113.96 128.48 108.614 128.48C105.673 128.488 102.853 129.658 100.771 131.736C98.6879 133.814 97.5108 136.63 97.4957 139.572V160.965C97.498 162.467 98.0958 163.907 99.1581 164.97C100.22 166.032 101.661 166.63 103.163 166.632H122.523C124.025 166.63 125.465 166.032 126.528 164.97C127.59 163.907 128.188 162.467 128.19 160.965V156.486C128.191 156.433 128.208 156.382 128.238 156.34C128.269 156.297 128.312 156.265 128.362 156.248C136.068 153.504 143.082 149.11 148.914 143.374C158.691 133.65 163.65 121.101 163.65 106.075C163.68 84.572 152.914 72.8284 143.902 66.7696Z" fill="#00C868"/>
<path d="M112.359 176.624H113.925C117.582 176.689 121.067 178.187 123.631 180.796C126.194 183.405 127.63 186.917 127.63 190.574C127.63 194.232 126.194 197.743 123.631 200.352C121.067 202.961 117.582 204.459 113.925 204.524H112.359C108.702 204.459 105.217 202.961 102.654 200.352C100.09 197.743 98.6543 194.232 98.6543 190.574C98.6543 186.917 100.09 183.405 102.654 180.796C105.217 178.187 108.702 176.689 112.359 176.624Z" fill="#263238"/>
<path d="M103.088 170.786H122.448C123.926 170.807 125.352 170.241 126.413 169.213C127.475 168.184 128.085 166.777 128.11 165.299V156.552C128.112 156.501 128.13 156.451 128.16 156.41C128.191 156.37 128.233 156.339 128.282 156.323C131.471 155.18 134.526 153.694 137.394 151.892C125.026 151.804 102.48 151.681 97.4248 151.861V165.299C97.4503 166.777 98.0607 168.184 99.1222 169.213C100.184 170.241 101.61 170.807 103.088 170.786Z" fill="#263238"/>
<path d="M119.033 73.8756L106.608 37.7956C103.968 28.7624 96.5405 22.7564 87.5821 25.6296L86.7725 25.9464C82.83 27.4685 79.6052 30.4192 77.7398 34.2113C75.8743 38.0033 75.505 42.3588 76.7053 46.4108C79.0241 54.2296 81.6817 62.836 83.3053 66.884C86.6625 75.244 95.4492 72.912 95.4492 72.912C95.4492 72.912 97.4073 78.4956 98.2521 81.008L102.806 85.5048L104.685 83.45L119.033 73.8756Z" fill="#FFBF9D"/>
<path d="M95.4492 72.9116C95.4492 72.9116 100.879 71.1516 105.16 65.4316C105.16 65.4316 104.971 72.7796 96.2764 75.2656L95.4492 72.9116Z" fill="#FF9A6C"/>
<path d="M82.782 52.1092C82.901 52.4231 83.1374 52.6785 83.4411 52.8214C83.7449 52.9642 84.0924 52.9834 84.41 52.8748C84.5678 52.8282 84.7147 52.7504 84.842 52.6461C84.9693 52.5418 85.0744 52.4131 85.1511 52.2675C85.2278 52.1219 85.2745 51.9624 85.2885 51.7984C85.3026 51.6345 85.2836 51.4693 85.2328 51.3128C85.1156 50.9974 84.8797 50.7403 84.5756 50.5964C84.2714 50.4526 83.923 50.4333 83.6048 50.5428C83.4468 50.5899 83.2999 50.6682 83.1726 50.7729C83.0452 50.8776 82.9402 51.0068 82.8635 51.1527C82.7868 51.2987 82.7401 51.4585 82.7261 51.6227C82.7121 51.787 82.7311 51.9524 82.782 52.1092Z" fill="#263238"/>
<path d="M79.7944 49.029C80.0012 49.1302 80.6744 48.1006 81.9504 47.6078C83.2264 47.115 84.4408 47.3922 84.52 47.1678C84.564 47.071 84.3 46.8466 83.772 46.7278C83.0623 46.5551 82.3165 46.6073 81.638 46.8774C80.9653 47.1332 80.3908 47.5952 79.9968 48.1974C79.7196 48.6506 79.6932 48.9894 79.7944 49.029Z" fill="#263238"/>
<path d="M93.6018 47.8189C93.813 47.9157 94.4818 46.8905 95.7578 46.3933C97.0338 45.8961 98.2526 46.1777 98.3318 45.9533C98.3714 45.8565 98.1118 45.6321 97.5838 45.5133C96.8726 45.3414 96.1257 45.3937 95.4454 45.6629C94.7747 45.9201 94.202 46.3819 93.8086 46.9829C93.527 47.4405 93.5006 47.7749 93.6018 47.8189Z" fill="#263238"/>
<path d="M91.7927 56.166C91.7707 56.0912 90.9127 56.2628 89.5443 56.606C89.2011 56.6984 88.8623 56.7556 88.7215 56.5532C88.5605 56.223 88.5052 55.8512 88.5631 55.4884C88.5631 54.5674 88.5631 53.6023 88.5631 52.5932C88.5367 48.488 88.3783 45.1616 88.2155 45.166C88.0527 45.1704 87.9383 48.4968 87.9647 52.602C87.9647 53.614 87.9779 54.5791 88.0043 55.4972C87.9516 55.9765 88.0684 56.4591 88.3343 56.8612C88.4279 56.9584 88.5421 57.0334 88.6685 57.0806C88.7949 57.1278 88.9303 57.1461 89.0647 57.134C89.2678 57.112 89.4674 57.0647 89.6587 56.9932C91.0007 56.5488 91.8147 56.2408 91.7927 56.166Z" fill="#263238"/>
<path d="M90.6096 40.5458C90.9132 40.8054 92.0352 39.9738 93.5532 39.349C95.0712 38.7242 96.4308 38.469 96.4572 38.073C96.4572 37.8838 96.0876 37.6858 95.4452 37.633C94.6086 37.5879 93.7729 37.7341 93.0013 38.0604C92.2298 38.3868 91.5427 38.8846 90.9924 39.5162C90.5876 40.009 90.4732 40.4182 90.6096 40.5458Z" fill="#263238"/>
<path d="M78.2628 45.2495C78.6456 45.4431 79.5828 44.7435 80.8588 44.2595C82.1348 43.7755 83.2832 43.5908 83.4196 43.1904C83.4724 43.0012 83.1908 42.7504 82.6188 42.6624C81.8407 42.552 81.0471 42.6539 80.322 42.9571C79.5905 43.2344 78.9485 43.706 78.4652 44.3212C78.1264 44.7876 78.0912 45.1483 78.2628 45.2495Z" fill="#263238"/>
<path d="M108.191 43.8894C108.31 43.7706 113.317 39.9294 115.355 45.7682C117.392 51.607 111.126 52.443 111.056 52.2802C110.985 52.1174 108.191 43.8894 108.191 43.8894Z" fill="#FFBF9D"/>
<path d="M112.064 49.4464C112.064 49.42 112.191 49.4816 112.389 49.5036C112.667 49.5217 112.942 49.4318 113.155 49.2528C113.692 48.8128 113.868 47.6512 113.529 46.6128C113.368 46.1074 113.096 45.6444 112.733 45.2576C112.614 45.0955 112.458 44.9644 112.278 44.8755C112.098 44.7867 111.899 44.7426 111.699 44.7472C111.571 44.7569 111.451 44.8111 111.359 44.9004C111.267 44.9897 111.21 45.1083 111.197 45.2356C111.175 45.4248 111.254 45.5304 111.223 45.548C111.193 45.5656 111.065 45.4952 111.03 45.24C111.012 45.0861 111.048 44.9308 111.131 44.8C111.25 44.6223 111.433 44.4977 111.641 44.4524C111.897 44.4162 112.158 44.4461 112.399 44.5393C112.64 44.6325 112.854 44.7859 113.019 44.9848C113.442 45.4034 113.757 45.9182 113.938 46.4852C114.312 47.6732 114.097 48.9844 113.335 49.5212C113.195 49.6214 113.034 49.6888 112.864 49.7185C112.694 49.7482 112.52 49.7394 112.354 49.6928C112.125 49.5828 112.046 49.464 112.064 49.4464Z" fill="#FF9A6C"/>
<path d="M96.189 55.5762C95.9866 55.6334 96.431 56.9798 95.5994 58.3174C94.7678 59.655 93.2894 59.9894 93.3422 60.1786C93.3422 60.271 93.747 60.3326 94.3586 60.1478C95.1512 59.8965 95.8292 59.3728 96.2726 58.6694C96.6953 57.9947 96.8404 57.1826 96.6774 56.4034C96.541 55.8226 96.2814 55.541 96.189 55.5762Z" fill="#263238"/>
<path d="M62.1546 42.3188C62.1388 41.94 62.2696 41.5697 62.5198 41.2848C63.0478 40.6556 63.8398 40.4356 64.5746 40.1628C66.4099 39.4694 68.0645 38.3698 69.4146 36.9464C68.7386 36.869 68.0793 36.6848 67.461 36.4008C66.1894 35.7936 65.1422 34.544 65.129 33.136C65.1157 33.0046 65.1321 32.8719 65.1771 32.7478C65.222 32.6236 65.2943 32.5112 65.3886 32.4188C65.7274 32.168 66.1894 32.4188 66.559 32.6256C67.7646 33.29 68.715 33.422 69.9602 32.8368C70.7212 32.5141 71.3995 32.0238 71.9446 31.4024C71.9446 31.3672 71.971 31.3276 71.9886 31.2924C72.1822 30.8524 72.3714 30.474 72.5606 30.0824C73.9862 27.1388 75.3414 24.9696 77.0046 23.4824C79.4466 21.3352 84.0446 19.1968 87.2742 18.9328C90.5038 18.6688 94.0238 20.1296 95.5066 23.0248C96.6726 21.0316 99.1718 20.1648 101.486 20.266L101.526 20.2264C104.065 20.2264 106.185 22.1668 107.664 24.2304L107.897 24.5736C109.085 25.5233 110.484 26.1737 111.976 26.47C112.24 26.5184 112.543 26.5844 112.658 26.8264C112.695 26.9543 112.698 27.0896 112.667 27.2192C112.636 27.3488 112.573 27.4681 112.482 27.5656C112.074 28.143 111.542 28.6212 110.924 28.9648C111.326 29.4418 111.767 29.8834 112.244 30.2848C112.653 30.628 113.124 31.0372 113.071 31.5652C113.028 31.7658 112.924 31.9483 112.774 32.0883C112.624 32.2282 112.434 32.319 112.231 32.3484C111.822 32.3989 111.407 32.3629 111.012 32.2428L112.403 33.7828C111.633 34.2101 110.774 34.4512 109.895 34.4868C110.172 36.8056 111.215 40.9152 111.175 42.5652C109.639 43.1372 109.204 43.102 108.535 43.6344C107.655 44.3252 108.658 45.9752 107.167 45.9312C106.41 45.9092 104.491 43.7312 104.029 43.1372C100.948 39.1248 98.7648 34.4971 97.6274 29.5676C96.3399 28.8993 94.9356 28.4855 93.4914 28.3488L93.6234 28.4016C90.9482 28.4016 87.9694 28.5512 86.1038 30.4652C84.6562 31.948 84.269 34.1304 83.4638 36.0444C81.9502 39.67 79.6578 42.1252 76.0102 43.5904C76.5822 46.2788 77.9682 50.516 78.6854 52.9624L74.9454 48.8792V48.9012C74.6904 48.6818 74.4466 48.4498 74.215 48.206L74.1358 48.1356C73.7662 47.7528 73.4054 47.37 72.983 47.0092V47.04C72.103 48.6416 69.5554 47.5636 70.0878 45.808C70.1917 45.4574 70.349 45.125 70.5542 44.8224C70.3606 45.2099 70.07 45.5408 69.7107 45.7829C69.3514 46.0249 68.9357 46.17 68.5038 46.204C68.0708 46.2221 67.6439 46.097 67.2892 45.848C66.9344 45.5991 66.6716 45.2401 66.5414 44.8268C66.4763 44.54 66.4875 44.2412 66.574 43.9602C66.6605 43.6791 66.8191 43.4257 67.0342 43.2252C66.0077 43.6834 64.8673 43.8228 63.7606 43.6256C63.0038 43.5024 62.2162 43.146 62.1546 42.3188Z" fill="#263238"/>
<path d="M93.1836 24.9648C93.5734 25.0926 93.9516 25.253 94.3144 25.4444C95.2736 26.0208 96.0665 26.8366 96.6156 27.8116C97.0147 28.4783 97.3435 29.1847 97.5968 29.9192C97.8784 30.7024 98.1116 31.5648 98.3624 32.4756C98.6124 33.4324 98.9209 34.3728 99.2864 35.2916C99.4871 35.778 99.7239 36.2486 99.9948 36.6996C100.255 37.192 100.637 37.6099 101.104 37.914C101.308 38.031 101.539 38.0925 101.775 38.0925C102.01 38.0925 102.241 38.031 102.446 37.914C102.843 37.6921 103.154 37.3414 103.326 36.9196C103.566 36.1214 103.586 35.273 103.383 34.4644L103.211 34.548C103.695 35.1002 104.257 35.5789 104.879 35.9692C105.472 36.3255 106.18 36.439 106.854 36.286C107.165 36.2168 107.451 36.0648 107.682 35.846C107.888 35.6259 108.023 35.3482 108.069 35.0496C108.115 34.7728 108.086 34.4887 107.985 34.2268C107.886 33.9867 107.707 33.7879 107.479 33.6636L107.413 33.7736C108.126 34.1778 108.916 34.4267 109.732 34.504C109.946 34.5152 110.16 34.5152 110.374 34.504C110.448 34.5106 110.521 34.5106 110.594 34.504C110.521 34.4936 110.447 34.4936 110.374 34.504C110.161 34.4988 109.948 34.4812 109.736 34.4512C108.94 34.3469 108.173 34.0851 107.479 33.6812L107.418 33.7956C107.62 33.9253 107.778 34.1149 107.867 34.3381C107.957 34.5613 107.975 34.8069 107.919 35.0408C107.876 35.3079 107.751 35.5552 107.563 35.7492C107.357 35.9538 107.098 36.097 106.815 36.1628C106.182 36.2944 105.523 36.1812 104.971 35.846C104.37 35.4588 103.827 34.9893 103.356 34.4512L103.141 34.2224L103.185 34.5348C103.376 35.3073 103.358 36.117 103.132 36.88C102.98 37.2518 102.707 37.5616 102.358 37.76C102.183 37.8596 101.986 37.912 101.786 37.912C101.585 37.912 101.388 37.8596 101.214 37.76C100.781 37.4726 100.429 37.0806 100.188 36.6204C99.9158 36.1651 99.6775 35.6901 99.4756 35.1992C99.1117 34.2888 98.8031 33.3573 98.5516 32.4096C98.292 31.5032 98.0544 30.6496 97.764 29.8488C97.4999 29.1049 97.1577 28.3911 96.7432 27.7192C96.1734 26.7314 95.3481 25.9152 94.354 25.3564C93.9885 25.1615 93.5929 25.0291 93.1836 24.9648Z" fill="#455A64"/>
<path d="M69.7402 42.5474C69.7402 42.5474 69.7666 42.5474 69.8282 42.5826L70.0966 42.6618C70.241 42.7062 70.3879 42.7414 70.5366 42.7674C70.74 42.8094 70.9457 42.8388 71.1526 42.8554C72.4773 42.9739 73.8106 42.7623 75.0334 42.2394C76.8512 41.4598 78.404 40.1699 79.5038 38.5258C80.8273 36.5126 81.7257 34.2502 82.1438 31.8774C82.399 30.6278 82.531 29.3914 82.7466 28.2166C82.9163 27.0861 83.2498 25.9863 83.7366 24.9518C84.1721 24.0184 84.8347 23.209 85.6638 22.5978C86.0403 22.3346 86.4562 22.1326 86.8958 21.9994C87.3063 21.8799 87.7311 21.8162 88.1586 21.8102C88.9004 21.8019 89.6354 21.9519 90.3146 22.2502C90.8276 22.4735 91.3004 22.7797 91.7138 23.1566C92.0463 23.4982 92.3413 23.8744 92.5938 24.2786C92.5938 24.2786 92.5938 24.2479 92.5542 24.1951L92.4222 23.9486C92.2352 23.6402 92.0122 23.3552 91.7578 23.0994C91.3449 22.7039 90.8691 22.3797 90.3498 22.1402C89.6596 21.8233 88.9094 21.6583 88.1498 21.6562C87.7035 21.6582 87.2595 21.7203 86.8298 21.841C86.3683 21.9754 85.9315 22.1834 85.5362 22.457C84.6755 23.0795 83.9855 23.9087 83.5298 24.8682C83.0417 25.9124 82.704 27.0205 82.5266 28.1594C82.311 29.343 82.179 30.575 81.9238 31.8158C81.5158 34.1665 80.6389 36.4111 79.3454 38.4158C78.271 40.0386 76.7529 41.3185 74.9718 42.1031C73.7745 42.6369 72.4652 42.871 71.157 42.785C70.6805 42.7337 70.2074 42.6544 69.7402 42.5474Z" fill="#455A64"/>
<path d="M67.6416 39.0757C67.7646 39.1259 67.8931 39.1614 68.0244 39.1813C68.3753 39.2551 68.7312 39.3022 69.0892 39.3221C69.6231 39.3552 70.1589 39.3434 70.6908 39.2869C71.3412 39.2105 71.9834 39.075 72.6092 38.8821C73.2321 38.6812 73.8346 38.4219 74.4088 38.1077C74.8732 37.8527 75.3148 37.5583 75.7288 37.2277C76.0096 37.0063 76.273 36.7636 76.5164 36.5017C76.688 36.3125 76.7804 36.2069 76.7672 36.1937C76.754 36.1805 76.3536 36.5765 75.6364 37.1089C75.2183 37.422 74.777 37.7029 74.3164 37.9493C73.1822 38.5563 71.9456 38.9487 70.6688 39.1065C70.1414 39.1632 69.6104 39.1809 69.0804 39.1593C68.2004 39.1593 67.6504 39.0361 67.6416 39.0757Z" fill="#455A64"/>
<path d="M83.6006 100.068C83.5258 100.068 84.5246 105.084 85.5014 110.263H85.8094C84.8326 105.084 83.6798 100.046 83.6006 100.068Z" fill="#263238"/>
<path d="M87.8155 110.514C90.6403 110.514 93.2407 108.482 93.6367 105.71C94.5167 99.4837 98.0763 88.9501 113.05 88.6905C124.459 88.4969 129.259 96.5709 130.606 100.166C132.74 105.864 132.476 112.785 129.008 118.452C123.684 127.16 113.886 128.48 108.522 128.515C105.573 128.51 102.741 129.672 100.645 131.746C98.549 133.821 97.3583 136.641 97.3327 139.59V162.852L128.234 162.267V156.464C128.235 156.411 128.252 156.359 128.284 156.317C128.316 156.274 128.36 156.243 128.41 156.226C134.39 154.145 139.958 151.028 144.857 147.017L142.846 120.23C142.846 120.23 148.725 108.926 148.434 106.383C145.772 83.1509 137.874 70.0037 134.658 68.7761C131.054 67.4033 117.133 68.0721 117.133 68.0721C117.133 68.0721 111.118 79.1997 102.683 80.4449C97.9883 81.1313 96.2767 75.2705 96.2767 75.2705L85.3603 81.6637C77.5987 85.5797 76.0939 100.804 75.9531 110.514H87.8155Z" fill="#455A64"/>
<g opacity="0.3">
<path d="M123.64 124.203C129.866 125.787 136.008 127.794 142.239 129.378C142.712 129.45 143.153 129.665 143.501 129.994C143.963 130.526 143.858 131.314 143.651 132C142.931 134.136 141.633 136.03 139.902 137.474C138.547 138.662 136.923 139.674 135.124 139.806C133.122 139.964 131.195 139.036 129.505 137.953C125.112 135.138 121.542 131.211 119.156 126.57C119.156 126.57 120.617 125.968 121.735 125.369C122.39 125.014 123.026 124.625 123.64 124.203Z" fill="black"/>
</g>
<path d="M130.478 100.32C132.968 106.066 132.335 112.882 128.784 118.554C127.014 121.436 124.53 123.812 121.572 125.453C124.251 128.458 127.231 131.181 130.465 133.58C133.646 135.837 140.981 135.194 143.761 130.253C147.193 124.15 147.479 108.574 147.479 108.574L148.131 99.1804L128.947 96.2412L128.793 96.7692C129.465 97.8971 130.029 99.086 130.478 100.32Z" fill="#FFBF9D"/>
<path d="M97.0729 96.3594L95.9817 98.1194C95.1501 98.6958 94.3625 98.379 93.8477 97.3142L82.0381 79.3402L84.9157 77.5098L97.9573 94.749C97.9573 94.749 98.1421 95.6422 97.0729 96.3594Z" fill="#455A64"/>
<path d="M69.7933 79.0103C67.992 77.9904 66.4571 76.5595 65.3135 74.834C64.17 73.1085 63.4502 71.1374 63.2127 69.081C62.9753 67.0247 63.2269 64.9414 63.9471 63.0007C64.6673 61.06 65.8358 59.3169 67.3573 57.9133C68.8787 56.5098 70.7102 55.4854 72.7026 54.9237C74.6949 54.3621 76.7917 54.2789 78.8223 54.6811C80.8528 55.0833 82.7597 55.9594 84.3875 57.2381C86.0153 58.5168 87.3181 60.162 88.1897 62.0395C89.3634 64.5643 89.7047 67.3967 89.1643 70.1281C88.6239 72.8594 87.2298 75.3485 85.1831 77.2361C83.1363 79.1238 80.5428 80.3124 77.7768 80.6305C75.0107 80.9486 72.2151 80.3797 69.7933 79.0059V79.0103ZM82.3069 56.9047C79.7628 55.4668 76.7888 54.9851 73.9209 55.5463C71.053 56.1076 68.48 57.6749 66.6656 59.9657C64.8513 62.2566 63.915 65.1202 64.0256 68.0404C64.1362 70.9606 65.2864 73.7453 67.2688 75.8923C69.2512 78.0394 71.9355 79.4076 74.8376 79.7503C77.7397 80.093 80.6688 79.3877 83.0968 77.7615C85.5248 76.1353 87.292 73.6952 88.0798 70.8811C88.8676 68.0669 88.6241 65.064 87.3933 62.4135C86.3156 60.0906 84.5367 58.164 82.3069 56.9047Z" fill="#263238"/>
<path d="M70.3519 78.4605C68.5506 77.4406 67.0157 76.0097 65.8721 74.2842C64.7286 72.5587 64.0088 70.5876 63.7713 68.5312C63.5339 66.4749 63.7855 64.3916 64.5057 62.4509C65.2259 60.5102 66.3944 58.7671 67.9158 57.3635C69.4373 55.96 71.2688 54.9356 73.2612 54.3739C75.2535 53.8123 77.3503 53.7291 79.3809 54.1313C81.4114 54.5335 83.3183 55.4096 84.9461 56.6883C86.5739 57.967 87.8767 59.6122 88.7483 61.4897C89.9204 64.0146 90.2606 66.8465 89.7197 69.5772C89.1789 72.3078 87.785 74.7963 85.7389 76.6838C83.6928 78.5713 81.1003 79.7604 78.3349 80.0797C75.5696 80.399 72.7743 79.8321 70.3519 78.4605ZM82.8655 56.3549C80.3223 54.9179 77.3494 54.4366 74.4827 54.9979C71.616 55.5592 69.0441 57.126 67.2306 59.4161C65.4171 61.7061 64.4814 64.5687 64.592 67.4877C64.7026 70.4067 65.8524 73.1902 67.834 75.3364C69.8157 77.4826 72.4988 78.8503 75.3997 79.193C78.3007 79.5356 81.2286 78.8307 83.6558 77.2053C86.0829 75.5799 87.8496 73.1409 88.6373 70.3279C89.425 67.515 89.1819 64.5132 87.9519 61.8637C86.8734 59.5413 85.0947 57.6149 82.8655 56.3549Z" fill="#455A64"/>
<path d="M87.7581 67.2093C87.7525 67.1376 87.7525 67.0655 87.7581 66.9937C87.7601 66.7881 87.7513 66.5824 87.7317 66.3777C87.6767 65.6218 87.529 64.8755 87.2917 64.1557C87.1342 63.6593 86.9431 63.1742 86.7197 62.7037C86.4639 62.1656 86.1698 61.6466 85.8397 61.1505C85.4714 60.6033 85.0594 60.0868 84.6077 59.6061C84.1265 59.083 83.5977 58.6057 83.0281 58.1805C82.4587 57.7571 81.8485 57.3916 81.2065 57.0893C80.6064 56.8136 79.9837 56.5899 79.3453 56.4205C78.2598 56.1417 77.1382 56.029 76.0189 56.0861C75.2625 56.1228 74.512 56.2378 73.7793 56.4293C73.5197 56.4909 73.3393 56.5701 73.1897 56.6053C73.121 56.629 73.0503 56.6467 72.9785 56.6581C73.0424 56.6268 73.1086 56.6003 73.1765 56.5789C73.3129 56.5305 73.5065 56.4469 73.7661 56.3765C74.497 56.1619 75.2498 56.0306 76.0101 55.9849C77.1415 55.9128 78.2773 56.0182 79.3761 56.2973C80.0248 56.4636 80.6579 56.6859 81.2681 56.9617C81.9174 57.2684 82.5349 57.6383 83.1117 58.0661C83.6862 58.4985 84.2207 58.9815 84.7089 59.5093C85.1648 59.9981 85.5798 60.5234 85.9497 61.0801C86.2795 61.5839 86.5736 62.1103 86.8297 62.6553C87.0514 63.133 87.2396 63.6255 87.3929 64.1293C87.6216 64.857 87.7547 65.6113 87.7889 66.3733C87.7889 66.6417 87.7889 66.8529 87.7889 66.9937C87.7833 67.0662 87.773 67.1382 87.7581 67.2093Z" fill="white"/>
<path d="M74.043 77.9108C74.043 77.8756 74.6502 78.1 75.6622 78.2408L76.0626 78.2892C76.199 78.2892 76.3442 78.2892 76.5026 78.2892C76.8018 78.3156 77.123 78.2892 77.4574 78.2892C78.9239 78.221 80.358 77.8336 81.6594 77.154C81.9429 77.008 82.219 76.8479 82.4866 76.6744C82.6142 76.5908 82.7374 76.516 82.8518 76.4324L83.1686 76.1948C83.9738 75.5656 84.383 75.0684 84.405 75.0948C84.3205 75.2164 84.2247 75.3299 84.119 75.4336C84.0068 75.5686 83.8848 75.6951 83.7538 75.812C83.587 75.9676 83.4122 76.1144 83.2302 76.252L82.9134 76.5028C82.8034 76.5908 82.6758 76.6656 82.5526 76.7536C82.2845 76.9341 82.0069 77.1 81.721 77.2508C80.4069 77.9481 78.9527 78.3406 77.4662 78.3992C77.123 78.3992 76.7974 78.3992 76.4982 78.3992C76.3442 78.3992 76.199 78.3992 76.0582 78.364L75.6578 78.3068C75.4278 78.2753 75.2001 78.2298 74.9758 78.1704C74.8038 78.1362 74.6347 78.0891 74.4698 78.0296C74.3245 78.0018 74.1817 77.9621 74.043 77.9108Z" fill="white"/>
<path d="M83.085 69.4889C83.0586 69.5153 81.325 67.8037 79.257 65.6609C77.189 63.5181 75.5038 61.7581 75.5346 61.7317C75.5654 61.7053 77.2946 63.4169 79.3582 65.5597C81.4218 67.7025 83.1158 69.4625 83.085 69.4889Z" fill="white"/>
<path d="M81.0618 72.9336C81.0178 72.8955 80.9766 72.8543 80.9386 72.8104L80.5998 72.4452L79.3766 71.0812C78.3426 69.9284 76.9126 68.34 75.311 66.602C73.7094 64.864 72.231 63.3108 71.1794 62.202L69.921 60.882C69.7802 60.7324 69.6658 60.6136 69.5822 60.5168C69.5415 60.475 69.5033 60.4309 69.4678 60.3848C69.5165 60.4171 69.5608 60.4556 69.5998 60.4992L69.9562 60.8468C70.2686 61.1504 70.7086 61.5948 71.2498 62.1668C72.3322 63.2756 73.8106 64.8068 75.4166 66.5668C77.0226 68.3268 78.435 69.902 79.4514 71.0724C79.9574 71.6576 80.3666 72.1328 80.6438 72.4672L80.9606 72.85C80.9971 72.8743 81.031 72.9023 81.0618 72.9336Z" fill="white"/>
<g opacity="0.3">
<path d="M70.3434 56.834L86.487 74.3592C86.487 74.3592 85.167 76.1852 83.9834 76.9992L67.501 59.0472C68.2965 58.1327 69.2618 57.3811 70.3434 56.834Z" fill="white"/>
</g>
<g opacity="0.3">
<path d="M66.1148 61.0674L81.99 78.1526C81.99 78.1526 82.1352 78.2318 81.044 78.509L65.666 61.9342C65.7478 61.6149 65.9013 61.3185 66.1148 61.0674Z" fill="white"/>
</g>
<path d="M107.901 89.2537C104.509 86.5301 96.2019 79.8685 95.8191 79.6925C95.3439 79.4681 88.0311 76.8721 86.6275 77.7037C85.2239 78.5353 81.4707 83.2565 81.4707 83.2565C81.4707 83.2565 81.8271 86.1869 85.1051 84.0881L88.0355 82.2137L91.5203 83.0277C91.5203 83.0277 87.2699 84.7877 86.3723 85.7337C85.4747 86.6797 84.0403 90.2393 84.9203 91.0797C85.4521 91.5663 86.123 91.874 86.8387 91.9597C86.8387 91.9597 85.0787 94.4501 88.1939 95.9549C88.1939 95.9549 88.6339 98.0449 90.1827 98.8677C91.7315 99.6905 94.5827 99.3957 94.5827 99.3957C94.7606 99.2978 94.914 99.1607 95.0312 98.9949C95.1485 98.8291 95.2266 98.6388 95.2596 98.4385C95.2927 98.2381 95.2798 98.0328 95.222 97.8381C95.1642 97.6434 95.0629 97.4644 94.9259 97.3145C93.9403 95.9945 92.1231 95.8317 92.1231 95.8317L94.3759 94.5117C95.4306 94.9145 96.4117 95.4884 97.2799 96.2101C98.4869 94.6839 99.8659 93.302 101.389 92.0917C103.699 90.4241 107.901 89.2537 107.901 89.2537Z" fill="#FFBF9D"/>
<path d="M93.487 90.3581C93.3761 90.3416 93.2634 90.3416 93.1526 90.3581C92.8541 90.4007 92.5597 90.4684 92.2726 90.5605C91.3057 90.8727 90.436 91.4299 89.7483 92.1778C89.0605 92.9257 88.578 93.8389 88.3477 94.8285C88.2793 95.1249 88.2366 95.4267 88.2202 95.7305C88.204 95.8414 88.204 95.954 88.2202 96.0649C88.2554 96.0649 88.2597 95.5897 88.4577 94.8593C88.711 93.9014 89.1939 93.0197 89.8648 92.2905C90.5357 91.5614 91.3742 91.0068 92.3077 90.6749C93.0161 90.4373 93.4914 90.3889 93.487 90.3581Z" fill="#FF9A6C"/>
<path d="M93.6365 86.5697C93.517 86.5609 93.3969 86.5698 93.2801 86.5961C93.1408 86.6086 93.0026 86.6306 92.8665 86.6621C92.684 86.6955 92.5034 86.7381 92.3253 86.7897C91.8576 86.9186 91.4026 87.0894 90.9657 87.3001C90.4334 87.5654 89.9267 87.8791 89.4521 88.2373C88.9844 88.6031 88.5527 89.0127 88.1629 89.4605C87.8469 89.8284 87.5656 90.2246 87.3225 90.6441C87.2125 90.8157 87.1333 90.9873 87.0585 91.1325C86.994 91.2567 86.9367 91.3845 86.8869 91.5153C86.8365 91.6238 86.7982 91.7374 86.7725 91.8541C86.8033 91.8541 86.9881 91.4141 87.4237 90.7057C87.676 90.3014 87.9616 89.9188 88.2773 89.5617C88.6665 89.1273 89.0935 88.7282 89.5533 88.3693C90.0378 87.9797 90.5528 87.6295 91.0933 87.3221C91.4995 87.1362 91.9223 86.9889 92.3561 86.8821C93.1349 86.6797 93.6409 86.6005 93.6365 86.5697Z" fill="#FF9A6C"/>
<path d="M94.275 82.2183C94.1294 82.1395 93.9653 82.1015 93.7998 82.1083C93.4049 82.09 93.011 82.1607 92.647 82.3151C92.2721 82.4523 91.9429 82.6916 91.6966 83.0059C91.503 83.2347 91.4283 83.4107 91.4459 83.4195C91.8021 83.0229 92.2326 82.7 92.7131 82.4691C93.212 82.283 93.7429 82.1978 94.275 82.2183Z" fill="#FF9A6C"/>
<path d="M133.32 68.4287C133.32 68.4287 144.052 69.4583 147.457 78.7819C150.159 86.1827 151.629 108.35 150.951 108.803L132 108.196C131.754 102.793 130.297 98.6215 128.256 95.9243L133.32 68.4287Z" fill="#455A64"/>
<path d="M132.282 108.195C132.415 108.247 132.541 108.316 132.656 108.402C132.885 108.547 133.215 108.772 133.606 109.062C134.628 109.823 135.591 110.66 136.488 111.566C137.386 112.468 138.226 113.428 139.001 114.439C139.295 114.826 139.524 115.147 139.678 115.376C139.767 115.487 139.839 115.61 139.894 115.741C139.531 115.36 139.191 114.959 138.873 114.54C138.248 113.792 137.373 112.78 136.325 111.724C135.433 110.828 134.491 109.982 133.505 109.19C132.748 108.583 132.264 108.239 132.282 108.195Z" fill="#FF9A6C"/>
<path d="M130.025 85.3906C130.087 85.3906 129.739 87.771 129.251 90.6707C128.762 93.5703 128.309 95.9198 128.247 95.9198C128.186 95.9198 128.533 93.5438 129.022 90.6398C129.51 87.7358 129.963 85.3818 130.025 85.3906Z" fill="#263238"/>
<path d="M106.181 151.878C106.283 151.85 106.387 151.834 106.493 151.83L107.399 151.738L110.735 151.421C113.546 151.152 117.427 150.748 121.708 150.206C125.989 149.665 129.848 149.089 132.638 148.653L135.947 148.125L136.827 147.989C136.931 147.969 137.037 147.958 137.143 147.958C137.044 147.995 136.941 148.021 136.835 148.037L135.955 148.213C135.181 148.367 134.055 148.57 132.66 148.812C129.875 149.291 126.011 149.89 121.73 150.435C117.449 150.981 113.559 151.355 110.73 151.584C109.322 151.698 108.178 151.782 107.391 151.826L106.48 151.874C106.38 151.882 106.28 151.883 106.181 151.878Z" fill="#263238"/>
<path d="M104.505 149.045C104.764 149.001 105.026 148.977 105.288 148.974L107.418 148.86L114.458 148.499L121.498 148.094L123.627 147.971C123.888 147.951 124.15 147.951 124.41 147.971C124.156 148.028 123.897 148.063 123.636 148.077C123.134 148.125 122.408 148.191 121.511 148.266C119.711 148.416 117.225 148.592 114.471 148.741C111.716 148.891 109.235 148.988 107.431 149.036C106.551 149.058 105.803 149.071 105.297 149.076C105.032 149.085 104.768 149.074 104.505 149.045Z" fill="#263238"/>
<path d="M74.3292 108.926C74.395 108.656 74.5115 108.4 74.6724 108.174C74.8801 107.864 75.1621 107.612 75.4927 107.441C75.8232 107.269 76.1916 107.183 76.564 107.191C76.9364 107.199 77.3009 107.3 77.6239 107.486C77.9469 107.671 78.218 107.935 78.4124 108.253C78.4132 107.951 78.5137 107.658 78.6983 107.419C78.8829 107.18 79.1413 107.009 79.4332 106.933C79.6986 106.87 79.9758 106.877 80.2375 106.955C80.4991 107.032 80.736 107.176 80.9248 107.373C81.3154 107.694 81.5866 108.137 81.6948 108.631C82.1568 107.593 84.5284 107.72 84.8188 108.499C84.8188 108.499 86.8604 106.264 87.8988 107.364C88.3388 107.804 88.1496 108.521 87.8592 109.221C87.4764 110.158 87.2256 110.541 86.724 111.584L84.788 111.685C84.6252 112.292 84.282 114.765 84.2116 115.376C84.1691 116.003 83.9889 116.613 83.6836 117.163C83.5281 117.435 83.3062 117.664 83.0385 117.828C82.7708 117.992 82.466 118.086 82.1524 118.1C81.8387 118.1 81.5372 117.978 81.3121 117.759C81.087 117.541 80.956 117.243 80.9468 116.93C80.8357 117.455 80.5814 117.939 80.212 118.329C80.0248 118.519 79.7929 118.658 79.5377 118.735C79.2825 118.812 79.0121 118.824 78.7512 118.769C78.4917 118.702 78.2652 118.544 78.1138 118.323C77.9625 118.102 77.8966 117.834 77.9284 117.568C77.242 118.047 76.2212 117.62 75.7856 116.908C75.35 116.195 75.3456 115.302 75.3456 114.466C75.4377 113.7 75.3688 112.924 75.1432 112.186C75.0846 112.082 75.0345 111.973 74.9936 111.861C74.9716 111.678 74.9628 111.495 74.9672 111.311C74.9431 110.92 74.8646 110.535 74.734 110.167C74.7032 110.083 74.6724 110.004 74.6372 109.925C74.5448 109.718 74.404 109.542 74.2984 109.344C74.2739 109.302 74.2575 109.256 74.25 109.208C74.26 109.11 74.2868 109.015 74.3292 108.926Z" fill="#FFBF9D"/>
<path d="M72.1604 107.852C71.9033 107.824 71.6431 107.852 71.3977 107.934C71.1524 108.016 70.9278 108.15 70.7392 108.328C70.33 108.768 70.2332 109.876 70.2992 110.488C71.0164 110.624 71.3992 110.466 72.112 110.598C72.266 110.629 72.3892 110.598 72.5168 110.677C72.8468 110.915 72.794 111.702 72.926 112.085C73.0653 112.408 73.3233 112.665 73.6467 112.804C73.9701 112.942 74.3342 112.951 74.664 112.829C74.9888 112.691 75.267 112.462 75.4652 112.171C75.6634 111.879 75.7733 111.536 75.7816 111.183C75.7895 110.473 75.5304 109.785 75.0556 109.256C74.6965 108.834 74.2538 108.492 73.7554 108.25C73.257 108.009 72.7139 107.873 72.1604 107.852Z" fill="#FFBF9D"/>
<path d="M84.3527 114.36C84.2779 114.36 84.5727 113.04 84.7619 111.404C84.8439 110.71 84.8689 110.011 84.8367 109.314C84.8003 109.022 84.7826 108.728 84.7839 108.434C84.9141 108.71 84.9874 109.009 84.9995 109.314C85.0831 110.022 85.0831 110.739 84.9995 111.448C84.9218 112.152 84.7983 112.85 84.6299 113.538C84.578 113.824 84.4846 114.101 84.3527 114.36Z" fill="#FF9A6C"/>
<path d="M80.8633 117.176C80.8947 116.755 80.9595 116.337 81.0569 115.927C81.1933 115.161 81.3913 114.105 81.5409 112.93C81.6743 111.927 81.736 110.915 81.7257 109.903C81.7257 109.129 81.6597 108.649 81.6949 108.645C81.8182 109.051 81.8834 109.473 81.8885 109.899C81.9472 110.927 81.906 111.958 81.7653 112.979C81.6353 113.989 81.4517 114.992 81.2153 115.984C81.1375 116.392 81.0196 116.791 80.8633 117.176Z" fill="#FF9A6C"/>
<path d="M77.9111 117.682C77.9658 117.215 78.0466 116.75 78.1531 116.292C78.3535 115.177 78.4872 114.052 78.5535 112.922C78.612 111.791 78.6018 110.658 78.5227 109.529C78.4663 109.062 78.4369 108.592 78.4347 108.121C78.4847 108.239 78.5174 108.363 78.5315 108.491C78.5799 108.728 78.6327 109.08 78.6855 109.516C78.8111 110.651 78.8435 111.794 78.7823 112.935C78.7201 114.075 78.5626 115.208 78.3115 116.323C78.2147 116.763 78.1223 117.093 78.0475 117.326C78.0238 117.452 77.9776 117.573 77.9111 117.682Z" fill="#FF9A6C"/>
<path d="M74.0215 109.062C74.2466 109.109 74.455 109.215 74.6243 109.371C75.0646 109.713 75.4025 110.169 75.6011 110.691C75.8161 111.206 75.8623 111.776 75.7331 112.319C75.6055 112.759 75.3371 112.891 75.3283 112.864C75.4378 112.682 75.5208 112.485 75.5747 112.279C75.65 111.77 75.5862 111.25 75.3899 110.774C75.1957 110.291 74.8949 109.858 74.5099 109.507C74.2283 109.221 74.0039 109.12 74.0215 109.062Z" fill="#FF9A6C"/>
</svg>
