<svg width="50" height="19" viewBox="0 0 50 19" fill="none" xmlns="http://www.w3.org/2000/svg">
<path fill-rule="evenodd" clip-rule="evenodd" d="M16.7173 0.0691707C14.7476 0.160503 13.2117 0.290354 9.65897 0.666006C6.31267 1.01992 4.64491 1.22313 4.57902 1.28498C4.55177 1.31069 4.69834 1.42982 4.90488 1.54974L5.28027 1.76785L4.14481 2.59023C3.52043 3.04262 2.67377 3.70547 2.26353 4.06335C1.61138 4.63219 1.49607 4.78686 1.34697 5.29266C1.00252 6.46062 0.821317 7.77143 0.801993 9.23681C0.783408 10.64 0.771054 10.7202 0.56092 10.7932C0.241284 10.9044 0 11.2752 0 11.6551C0 12.4148 0.748245 13.1938 1.77632 13.5045C2.42087 13.6993 3.58104 13.9046 3.65327 13.8366C3.68442 13.8073 3.77586 13.4871 3.85643 13.1251C4.20806 11.545 5.38492 10.3277 7.07971 9.79096C7.66967 9.60412 7.94211 9.5802 9.13902 9.60968C10.486 9.64284 10.537 9.65227 11.3139 10.0134C13.0259 10.8092 13.9263 12.0899 14.0964 13.9712L14.1646 14.725L17.721 14.7902C19.677 14.826 24.5443 14.885 28.537 14.9211L35.7967 14.9869V14.2472C35.7967 12.3162 36.7778 10.7988 38.5421 10.0015L39.3341 9.64363H40.918H42.5019L43.3235 10.0124C45.139 10.8274 46.145 12.3666 46.145 14.3291V14.9841L47.0389 14.9194C48.5509 14.8102 49.5774 14.5289 49.9326 14.1265C50.0399 14.0049 50.0246 13.9673 49.8464 13.9141C49.5842 13.8359 49.5792 13.7203 49.8038 12.934C50.0605 12.0351 50.055 10.6313 49.793 10.1896C49.6399 9.93153 49.595 9.69396 49.6183 9.2657C49.6444 8.7864 49.6051 8.62588 49.3851 8.31336C48.9165 7.64763 47.4977 6.91241 45.7358 6.4222C44.1474 5.98023 41.1061 5.51215 38.8589 5.36364L37.8558 5.29743L36.1134 4.42392C32.9887 2.85757 29.2494 1.37135 27.0246 0.811541C24.1868 0.0975642 21.021 -0.130469 16.7173 0.0691707ZM18.2151 1.22204C16.0424 1.3914 14.0206 1.69458 12.0906 2.14032C10.3914 2.53275 7.39829 3.50017 7.13494 3.7421C6.99006 3.87513 8.48898 4.49549 9.52276 4.73027C10.1977 4.88365 11.586 4.99762 15.5182 5.22247C18.3326 5.3835 20.6453 5.5058 20.6575 5.49429C20.6698 5.48277 20.5893 4.5354 20.4786 3.38899C20.3681 2.24257 20.2769 1.27108 20.2759 1.23018C20.2743 1.1585 19.0901 1.15384 18.2151 1.22204ZM21.7524 1.21737C21.7523 1.43875 22.6364 5.48307 22.6997 5.55107C22.76 5.6157 34.052 6.32372 34.8463 6.3127C35.09 6.30932 35.0701 6.27517 34.5855 5.86706C32.0965 3.77049 28.0152 1.93264 24.7092 1.41979C23.4132 1.21866 21.7525 1.10499 21.7524 1.21737ZM7.71096 10.6466C6.08448 11.0575 4.85029 12.3517 4.53086 13.9814C4.19 15.7208 5.23993 17.5623 7.04846 18.3973C7.60779 18.6554 7.7513 18.6775 8.86997 18.6775C9.99867 18.6775 10.129 18.657 10.7179 18.3864C11.5228 18.0165 12.4949 17.1115 12.8263 16.4236C14.3817 13.195 11.3183 9.73526 7.71096 10.6466ZM39.8358 10.6408C39.0041 10.8514 38.4597 11.1477 37.8481 11.7227C35.8849 13.5683 36.185 16.5989 38.4736 18.0388C39.9913 18.9938 41.8867 18.9866 43.4394 18.0197C45.308 16.8561 45.8738 14.2606 44.6523 12.4558C43.6133 10.9208 41.6508 10.1813 39.8358 10.6408ZM7.90483 11.9337C7.2758 12.1157 6.43126 12.8278 6.11859 13.4398C5.7904 14.0821 5.77541 15.1182 6.08512 15.754C6.62069 16.8534 7.60463 17.4541 8.86997 17.4541C10.5914 17.4541 11.8671 16.2625 11.8643 14.657C11.861 12.69 9.91525 11.3517 7.90483 11.9337ZM39.9575 11.9533C39.2206 12.2011 38.6409 12.6582 38.2861 13.2711C37.189 15.166 38.6333 17.449 40.929 17.449C43.0335 17.449 44.4522 15.5445 43.7634 13.6439C43.2587 12.2517 41.4541 11.45 39.9575 11.9533Z" fill="#4F4F4F"/>
</svg>
