<svg width="146" height="51" viewBox="0 0 146 51" fill="none" xmlns="http://www.w3.org/2000/svg">
<path d="M136.123 44.0653C136.123 44.7725 136.26 45.3998 136.533 45.9473C136.818 46.4834 137.212 46.9055 137.714 47.2134C138.227 47.5214 138.826 47.6754 139.51 47.6754C140.183 47.6754 140.771 47.5214 141.273 47.2134C141.786 46.9055 142.179 46.4834 142.453 45.9473C142.738 45.3998 142.881 44.7725 142.881 44.0653C142.881 43.3581 142.744 42.7365 142.47 42.2004C142.196 41.6529 141.809 41.2251 141.307 40.9171C140.805 40.6092 140.206 40.4552 139.51 40.4552C138.826 40.4552 138.227 40.6092 137.714 40.9171C137.212 41.2251 136.818 41.6529 136.533 42.2004C136.26 42.7365 136.123 43.3581 136.123 44.0653ZM133.06 44.0653C133.06 43.1414 133.22 42.2973 133.539 41.5331C133.87 40.7689 134.326 40.1073 134.908 39.5484C135.49 38.9895 136.174 38.5617 136.961 38.2652C137.748 37.9572 138.598 37.8032 139.51 37.8032C140.434 37.8032 141.284 37.9572 142.06 38.2652C142.847 38.5617 143.531 38.9895 144.113 39.5484C144.694 40.1073 145.145 40.7689 145.464 41.5331C145.784 42.2973 145.943 43.1414 145.943 44.0653C145.943 44.9892 145.784 45.839 145.464 46.6146C145.156 47.3902 144.712 48.0632 144.13 48.6335C143.56 49.2038 142.881 49.6487 142.094 49.9681C141.307 50.276 140.446 50.43 139.51 50.43C138.564 50.43 137.697 50.276 136.91 49.9681C136.123 49.6487 135.438 49.2038 134.857 48.6335C134.286 48.0632 133.841 47.3902 133.522 46.6146C133.214 45.839 133.06 44.9892 133.06 44.0653Z" fill="#004D73"/>
<path d="M125.66 44.6301H128.654L132.401 50.0538H129.014L125.66 44.6301ZM122.666 38.0771H125.558V50.0538H122.666V38.0771ZM124.48 40.5238V38.0771H127.029C128.055 38.0771 128.911 38.2425 129.595 38.5733C130.28 38.9041 130.799 39.3661 131.152 39.9592C131.506 40.5409 131.683 41.2196 131.683 41.9952C131.683 42.7594 131.506 43.4381 131.152 44.0312C130.799 44.613 130.28 45.0692 129.595 45.4C128.911 45.7308 128.055 45.8962 127.029 45.8962H124.48V43.6548H126.824C127.211 43.6548 127.542 43.5978 127.816 43.4837C128.101 43.3583 128.318 43.1815 128.466 42.9533C128.614 42.7138 128.689 42.4287 128.689 42.0979C128.689 41.7671 128.614 41.4876 128.466 41.2595C128.318 41.02 128.101 40.8375 127.816 40.712C127.542 40.5865 127.211 40.5238 126.824 40.5238H124.48Z" fill="#004D73"/>
<path d="M112.007 38.0771H114.898V50.0538H112.007V38.0771ZM113.82 40.4554V38.0771H116.164C117.18 38.0771 118.029 38.2368 118.714 38.5562C119.41 38.8642 119.934 39.309 120.288 39.8908C120.641 40.4725 120.818 41.174 120.818 41.9952C120.818 42.7937 120.641 43.4894 120.288 44.0826C119.934 44.6643 119.41 45.1148 118.714 45.4342C118.029 45.7422 117.18 45.8962 116.164 45.8962H113.82V43.518H116.164C116.746 43.518 117.202 43.3868 117.533 43.1244C117.864 42.8621 118.029 42.4857 118.029 41.9952C118.029 41.4933 117.864 41.1112 117.533 40.8489C117.202 40.5865 116.746 40.4554 116.164 40.4554H113.82Z" fill="#004D73"/>
<path d="M137.412 14.4063H130.602V9.71826H146.001L138.13 20.771H144.906V25.459H129.165L137.412 14.4063Z" fill="black"/>
<path d="M115.185 32.9873H110.018V9.7184H115.185V32.9873ZM128.051 17.5888C128.051 19.4138 127.686 20.9536 126.956 22.2083C126.249 23.463 125.325 24.4097 124.184 25.0485C123.066 25.6872 121.857 26.0066 120.557 26.0066C119.188 26.0066 118.002 25.6644 116.998 24.98C116.017 24.2729 115.264 23.2919 114.74 22.0372C114.215 20.7597 113.953 19.2769 113.953 17.5888C113.953 15.8778 114.215 14.395 114.74 13.1403C115.264 11.8856 116.017 10.9161 116.998 10.2317C118.002 9.52449 119.188 9.1709 120.557 9.1709C121.857 9.1709 123.066 9.49028 124.184 10.129C125.325 10.7678 126.249 11.7145 126.956 12.9692C127.686 14.2011 128.051 15.7409 128.051 17.5888ZM122.61 17.5888C122.61 16.7675 122.439 16.0717 122.097 15.5014C121.755 14.9311 121.298 14.4976 120.728 14.2011C120.158 13.9045 119.53 13.7562 118.846 13.7562C118.253 13.7562 117.671 13.9045 117.101 14.2011C116.553 14.4748 116.097 14.8969 115.732 15.4672C115.367 16.0375 115.185 16.7447 115.185 17.5888C115.185 18.4328 115.367 19.14 115.732 19.7103C116.097 20.2806 116.553 20.7141 117.101 21.0106C117.671 21.2844 118.253 21.4213 118.846 21.4213C119.53 21.4213 120.158 21.273 120.728 20.9764C121.298 20.6799 121.755 20.2464 122.097 19.6761C122.439 19.1058 122.61 18.41 122.61 17.5888Z" fill="black"/>
<path d="M94.0655 32.9873H88.8984V9.7184H94.0655V32.9873ZM106.932 17.5888C106.932 19.4138 106.567 20.9536 105.837 22.2083C105.13 23.463 104.206 24.4097 103.065 25.0485C101.947 25.6872 100.738 26.0066 99.4379 26.0066C98.0691 26.0066 96.8829 25.6644 95.8791 24.98C94.8982 24.2729 94.1453 23.2919 93.6207 22.0372C93.096 20.7597 92.8336 19.2769 92.8336 17.5888C92.8336 15.8778 93.096 14.395 93.6207 13.1403C94.1453 11.8856 94.8982 10.9161 95.8791 10.2317C96.8829 9.52449 98.0691 9.1709 99.4379 9.1709C100.738 9.1709 101.947 9.49028 103.065 10.129C104.206 10.7678 105.13 11.7145 105.837 12.9692C106.567 14.2011 106.932 15.7409 106.932 17.5888ZM101.491 17.5888C101.491 16.7675 101.32 16.0717 100.978 15.5014C100.636 14.9311 100.179 14.4976 99.609 14.2011C99.0386 13.9045 98.4113 13.7562 97.7269 13.7562C97.1338 13.7562 96.5521 13.9045 95.9818 14.2011C95.4343 14.4748 94.978 14.8969 94.613 15.4672C94.248 16.0375 94.0655 16.7447 94.0655 17.5888C94.0655 18.4328 94.248 19.14 94.613 19.7103C94.978 20.2806 95.4343 20.7141 95.9818 21.0106C96.5521 21.2844 97.1338 21.4213 97.7269 21.4213C98.4113 21.4213 99.0386 21.273 99.609 20.9764C100.179 20.6799 100.636 20.2464 100.978 19.6761C101.32 19.1058 101.491 18.41 101.491 17.5888Z" fill="black"/>
<path d="M68.0473 20.8393L68.4579 16.4251H80.3319L80.7083 20.8393H68.0473ZM74.3094 10.2999L70.9559 18.0334L71.2297 19.2995L68.2526 25.4589H61.7168L74.3094 0L86.9362 25.4589H80.3661L77.4917 19.539L77.697 18.0676L74.3094 10.2999Z" fill="black"/>
<path d="M54.0054 3.7981C54.0054 2.97685 54.3019 2.31528 54.8951 1.8134C55.4882 1.28871 56.1954 1.02637 57.0166 1.02637C57.8607 1.02637 58.5679 1.28871 59.1382 1.8134C59.7313 2.31528 60.0279 2.97685 60.0279 3.7981C60.0279 4.61936 59.7313 5.29233 59.1382 5.81702C58.5679 6.34171 57.8607 6.60405 57.0166 6.60405C56.1954 6.60405 55.4882 6.34171 54.8951 5.81702C54.3019 5.29233 54.0054 4.61936 54.0054 3.7981ZM54.5187 9.71798H59.5146V25.4587H54.5187V9.71798Z" fill="black"/>
<path d="M46.1955 9.71826H51.9443L45.9218 17.3833L52.2865 25.459H46.5377L43.2527 20.8736L40.0361 25.459H34.082L40.5494 17.3833L34.4242 9.71826H40.3783L43.2527 13.8588L46.1955 9.71826Z" fill="black"/>
<path d="M21.6578 20.5315C21.6578 20.9421 21.7605 21.2957 21.9658 21.5923C22.1711 21.866 22.4449 22.0827 22.787 22.2424C23.1292 22.3793 23.5056 22.4477 23.9163 22.4477C24.5094 22.4477 25.0569 22.3223 25.5588 22.0713C26.0607 21.8204 26.4713 21.444 26.7907 20.9421C27.11 20.4402 27.2697 19.8243 27.2697 19.0943L27.8172 21.1474C27.8172 22.1512 27.5435 23.0066 26.996 23.7138C26.4485 24.3982 25.7413 24.9229 24.8744 25.2879C24.0075 25.6301 23.0722 25.8012 22.0684 25.8012C21.0647 25.8012 20.1294 25.6187 19.2625 25.2537C18.4184 24.8659 17.7341 24.2955 17.2094 23.5427C16.7075 22.7899 16.4565 21.8774 16.4565 20.8052C16.4565 19.2996 16.9926 18.1133 18.0648 17.2464C19.137 16.3568 20.6541 15.9119 22.616 15.9119C23.5741 15.9119 24.4296 16.0032 25.1824 16.1857C25.958 16.3682 26.6196 16.5963 27.1671 16.87C27.7146 17.1438 28.1252 17.429 28.399 17.7255V20.0182C27.8514 19.6076 27.2127 19.2996 26.4827 19.0943C25.7755 18.8661 25.0227 18.7521 24.2242 18.7521C23.6083 18.7521 23.1178 18.8205 22.7528 18.9574C22.3878 19.0943 22.1141 19.2996 21.9316 19.5733C21.7491 19.8243 21.6578 20.1437 21.6578 20.5315ZM19.3652 14.5432L17.62 11.087C18.5097 10.6536 19.5819 10.243 20.8366 9.85516C22.0913 9.46735 23.46 9.27344 24.9428 9.27344C26.3344 9.27344 27.5777 9.47875 28.6727 9.88938C29.7677 10.2772 30.6346 10.8475 31.2733 11.6003C31.9121 12.3531 32.2315 13.2771 32.2315 14.3721V25.459H27.2697V15.5355C27.2697 15.1477 27.2013 14.8169 27.0644 14.5432C26.9503 14.2466 26.7678 13.9957 26.5169 13.7903C26.266 13.585 25.9466 13.4367 25.5588 13.3455C25.1938 13.2542 24.7717 13.2086 24.2927 13.2086C23.5855 13.2086 22.8897 13.2885 22.2053 13.4481C21.5438 13.6078 20.962 13.8017 20.4602 14.0299C19.9583 14.2352 19.5933 14.4063 19.3652 14.5432Z" fill="black"/>
<path d="M0 6.67292V1.50586H18.9573V6.67292H12.353V25.4591H6.57003V6.67292H0Z" fill="black"/>
</svg>
