<svg width="206" height="76" viewBox="0 0 206 76" fill="none" xmlns="http://www.w3.org/2000/svg">
<path d="M196.121 56.3939C196.121 57.1011 196.258 57.7284 196.532 58.2759C196.817 58.812 197.21 59.2341 197.712 59.542C198.226 59.85 198.824 60.004 199.509 60.004C200.182 60.004 200.769 59.85 201.271 59.542C201.784 59.2341 202.178 58.812 202.452 58.2759C202.737 57.7284 202.879 57.1011 202.879 56.3939C202.879 55.6867 202.743 55.0651 202.469 54.529C202.195 53.9815 201.807 53.5537 201.305 53.2458C200.803 52.9378 200.205 52.7838 199.509 52.7838C198.824 52.7838 198.226 52.9378 197.712 53.2458C197.21 53.5537 196.817 53.9815 196.532 54.529C196.258 55.0651 196.121 55.6867 196.121 56.3939ZM193.059 56.3939C193.059 55.47 193.218 54.6259 193.538 53.8617C193.868 53.0975 194.325 52.4359 194.906 51.877C195.488 51.3181 196.173 50.8904 196.96 50.5938C197.747 50.2858 198.596 50.1318 199.509 50.1318C200.433 50.1318 201.283 50.2858 202.058 50.5938C202.845 50.8904 203.53 51.3181 204.111 51.877C204.693 52.4359 205.144 53.0975 205.463 53.8617C205.782 54.6259 205.942 55.47 205.942 56.3939C205.942 57.3178 205.782 58.1676 205.463 58.9432C205.155 59.7188 204.71 60.3918 204.128 60.9621C203.558 61.5324 202.879 61.9773 202.092 62.2967C201.305 62.6046 200.444 62.7586 199.509 62.7586C198.562 62.7586 197.695 62.6046 196.908 62.2967C196.121 61.9773 195.437 61.5324 194.855 60.9621C194.285 60.3918 193.84 59.7188 193.521 58.9432C193.213 58.1676 193.059 57.3178 193.059 56.3939Z" fill="#004D73"/>
<path d="M185.659 56.9587H188.653L192.4 62.3824H189.013L185.659 56.9587ZM182.665 50.4058H185.557V62.3824H182.665V50.4058ZM184.479 52.8524V50.4058H187.028C188.055 50.4058 188.91 50.5712 189.594 50.9019C190.279 51.2327 190.798 51.6947 191.151 52.2878C191.505 52.8695 191.682 53.5482 191.682 54.3238C191.682 55.0881 191.505 55.7667 191.151 56.3599C190.798 56.9416 190.279 57.3978 189.594 57.7286C188.91 58.0594 188.055 58.2248 187.028 58.2248H184.479V55.9834H186.823C187.21 55.9834 187.541 55.9264 187.815 55.8124C188.1 55.6869 188.317 55.5101 188.465 55.282C188.613 55.0424 188.688 54.7573 188.688 54.4265C188.688 54.0957 188.613 53.8163 188.465 53.5881C188.317 53.3486 188.1 53.1661 187.815 53.0406C187.541 52.9152 187.21 52.8524 186.823 52.8524H184.479Z" fill="#004D73"/>
<path d="M172.006 50.4058H174.897V62.3824H172.006V50.4058ZM173.819 52.784V50.4058H176.163C177.179 50.4058 178.028 50.5655 178.713 50.8848C179.409 51.1928 179.933 51.6376 180.287 52.2194C180.64 52.8011 180.817 53.5026 180.817 54.3238C180.817 55.1223 180.64 55.8181 180.287 56.4112C179.933 56.9929 179.409 57.4435 178.713 57.7628C178.028 58.0708 177.179 58.2248 176.163 58.2248H173.819V55.8466H176.163C176.745 55.8466 177.201 55.7154 177.532 55.4531C177.863 55.1907 178.028 54.8143 178.028 54.3238C178.028 53.822 177.863 53.4398 177.532 53.1775C177.201 52.9151 176.745 52.784 176.163 52.784H173.819Z" fill="#004D73"/>
<path d="M197.411 26.7349H190.601V22.0469H206L198.129 33.0996H204.905V37.7876H189.164L197.411 26.7349Z" fill="black"/>
<path d="M175.184 45.3159H170.017V22.047H175.184V45.3159ZM188.05 29.9174C188.05 31.7424 187.685 33.2822 186.955 34.5369C186.248 35.7916 185.324 36.7383 184.183 37.3771C183.065 38.0159 181.856 38.3352 180.556 38.3352C179.187 38.3352 178.001 37.993 176.997 37.3087C176.016 36.6015 175.264 35.6205 174.739 34.3658C174.214 33.0883 173.952 31.6055 173.952 29.9174C173.952 28.2064 174.214 26.7236 174.739 25.4689C175.264 24.2142 176.016 23.2447 176.997 22.5603C178.001 21.8531 179.187 21.4995 180.556 21.4995C181.856 21.4995 183.065 21.8189 184.183 22.4576C185.324 23.0964 186.248 24.0431 186.955 25.2978C187.685 26.5297 188.05 28.0695 188.05 29.9174ZM182.609 29.9174C182.609 29.0961 182.438 28.4003 182.096 27.83C181.754 27.2597 181.297 26.8263 180.727 26.5297C180.157 26.2331 179.529 26.0848 178.845 26.0848C178.252 26.0848 177.67 26.2331 177.1 26.5297C176.552 26.8034 176.096 27.2255 175.731 27.7958C175.366 28.3661 175.184 29.0733 175.184 29.9174C175.184 30.7614 175.366 31.4686 175.731 32.0389C176.096 32.6093 176.552 33.0427 177.1 33.3393C177.67 33.613 178.252 33.7499 178.845 33.7499C179.529 33.7499 180.157 33.6016 180.727 33.305C181.297 33.0085 181.754 32.575 182.096 32.0047C182.438 31.4344 182.609 30.7386 182.609 29.9174Z" fill="black"/>
<path d="M154.065 45.3159H148.897V22.047H154.065V45.3159ZM166.931 29.9174C166.931 31.7424 166.566 33.2822 165.836 34.5369C165.129 35.7916 164.205 36.7383 163.064 37.3771C161.946 38.0159 160.737 38.3352 159.437 38.3352C158.068 38.3352 156.882 37.993 155.878 37.3087C154.897 36.6015 154.144 35.6205 153.62 34.3658C153.095 33.0883 152.833 31.6055 152.833 29.9174C152.833 28.2064 153.095 26.7236 153.62 25.4689C154.144 24.2142 154.897 23.2447 155.878 22.5603C156.882 21.8531 158.068 21.4995 159.437 21.4995C160.737 21.4995 161.946 21.8189 163.064 22.4576C164.205 23.0964 165.129 24.0431 165.836 25.2978C166.566 26.5297 166.931 28.0695 166.931 29.9174ZM161.49 29.9174C161.49 29.0961 161.319 28.4003 160.977 27.83C160.635 27.2597 160.178 26.8263 159.608 26.5297C159.038 26.2331 158.41 26.0848 157.726 26.0848C157.133 26.0848 156.551 26.2331 155.981 26.5297C155.433 26.8034 154.977 27.2255 154.612 27.7958C154.247 28.3661 154.065 29.0733 154.065 29.9174C154.065 30.7614 154.247 31.4686 154.612 32.0389C154.977 32.6093 155.433 33.0427 155.981 33.3393C156.551 33.613 157.133 33.7499 157.726 33.7499C158.41 33.7499 159.038 33.6016 159.608 33.305C160.178 33.0085 160.635 32.575 160.977 32.0047C161.319 31.4344 161.49 30.7386 161.49 29.9174Z" fill="black"/>
<path d="M128.046 33.1679L128.457 28.7537H140.331L140.707 33.1679H128.046ZM134.308 22.6285L130.955 30.362L131.229 31.6281L128.252 37.7875H121.716L134.308 12.3286L146.935 37.7875H140.365L137.491 31.8676L137.696 30.3962L134.308 22.6285Z" fill="black"/>
<path d="M114.004 16.1267C114.004 15.3055 114.3 14.6439 114.894 14.142C115.487 13.6173 116.194 13.355 117.015 13.355C117.859 13.355 118.566 13.6173 119.137 14.142C119.73 14.6439 120.026 15.3055 120.026 16.1267C120.026 16.948 119.73 17.6209 119.137 18.1456C118.566 18.6703 117.859 18.9327 117.015 18.9327C116.194 18.9327 115.487 18.6703 114.894 18.1456C114.3 17.6209 114.004 16.948 114.004 16.1267ZM114.517 22.0466H119.513V37.7873H114.517V22.0466Z" fill="black"/>
<path d="M106.195 22.0469H111.943L105.921 29.7119L112.286 37.7876H106.537L103.252 33.2022L100.035 37.7876H94.0811L100.548 29.7119L94.4232 22.0469H100.377L103.252 26.1874L106.195 22.0469Z" fill="black"/>
<path d="M81.6573 32.8601C81.6573 33.2707 81.76 33.6243 81.9653 33.9209C82.1706 34.1946 82.4444 34.4113 82.7866 34.571C83.1287 34.7079 83.5052 34.7763 83.9158 34.7763C84.5089 34.7763 85.0564 34.6509 85.5583 34.3999C86.0602 34.149 86.4708 33.7726 86.7902 33.2707C87.1095 32.7688 87.2692 32.1529 87.2692 31.4229L87.8167 33.476C87.8167 34.4798 87.543 35.3352 86.9955 36.0424C86.448 36.7268 85.7408 37.2515 84.8739 37.6165C84.007 37.9587 83.0717 38.1298 82.068 38.1298C81.0642 38.1298 80.1289 37.9473 79.262 37.5823C78.4179 37.1945 77.7336 36.6242 77.2089 35.8713C76.707 35.1185 76.4561 34.206 76.4561 33.1338C76.4561 31.6282 76.9922 30.4419 78.0643 29.5751C79.1365 28.6854 80.6536 28.2405 82.6155 28.2405C83.5736 28.2405 84.4291 28.3318 85.1819 28.5143C85.9575 28.6968 86.6191 28.9249 87.1666 29.1987C87.7141 29.4724 88.1247 29.7576 88.3985 30.0541V32.3468C87.851 31.9362 87.2122 31.6282 86.4822 31.4229C85.775 31.1948 85.0222 31.0807 84.2238 31.0807C83.6078 31.0807 83.1173 31.1491 82.7523 31.286C82.3873 31.4229 82.1136 31.6282 81.9311 31.902C81.7486 32.1529 81.6573 32.4723 81.6573 32.8601ZM79.3647 26.8718L77.6195 23.4157C78.5092 22.9822 79.5814 22.5716 80.8361 22.1838C82.0908 21.796 83.4595 21.6021 84.9424 21.6021C86.3339 21.6021 87.5772 21.8074 88.6722 22.218C89.7672 22.6058 90.6341 23.1761 91.2729 23.9289C91.9116 24.6818 92.231 25.6057 92.231 26.7007V37.7876H87.2692V27.8641C87.2692 27.4763 87.2008 27.1455 87.0639 26.8718C86.9499 26.5752 86.7674 26.3243 86.5164 26.119C86.2655 25.9136 85.9461 25.7654 85.5583 25.6741C85.1933 25.5829 84.7713 25.5372 84.2922 25.5372C83.585 25.5372 82.8892 25.6171 82.2048 25.7768C81.5433 25.9365 80.9615 26.1304 80.4597 26.3585C79.9578 26.5638 79.5928 26.7349 79.3647 26.8718Z" fill="black"/>
<path d="M59.999 19.0015V13.8345H78.9563V19.0015H72.3521V37.7877H66.5691V19.0015H59.999Z" fill="black"/>
<path d="M45.1839 38.7705C45.8112 39.3902 46.8731 39.2486 47.293 38.4797C50.0259 33.4749 51.7802 29.062 51.7802 24.6568C51.7802 23.8278 50.8018 23.4188 50.1452 23.9445L40.2514 31.8664C39.642 32.3543 39.5941 33.2481 40.1481 33.7954L45.1839 38.7705Z" fill="#00C868"/>
<path d="M38.2127 53.6689C38.5154 53.1576 38.4314 52.5123 38.0063 52.0923L28.561 42.7609C28.075 42.2808 27.2944 42.2409 26.7598 42.669L14.4928 52.4911C13.9811 52.9008 13.8527 53.6131 14.1886 54.1698C17.6879 59.9698 21.4342 66.6973 24.9278 74.7964C25.4031 75.8982 27.0424 75.8854 27.5008 74.7769C30.9174 66.5154 34.6852 59.628 38.2127 53.6689Z" fill="#00C868"/>
<path d="M9.07129 43.0589C8.44139 43.5632 7.49912 43.4057 7.08075 42.7233C2.88278 35.8757 0 30.3178 0 24.6568C0 11.802 11.4642 0 25.9173 0C34.8541 0 42.6274 4.51232 47.2592 10.9957C47.6458 11.5369 47.5215 12.272 46.999 12.6904L9.07129 43.0589Z" fill="#00C868"/>
<path d="M38.4474 53.3685C38.7534 52.8502 38.6685 52.1961 38.2387 51.7703L28.6903 42.3111C28.199 41.8244 27.4099 41.784 26.8695 42.2179L14.4685 52.1746C13.9512 52.5899 13.8214 53.3119 14.161 53.8763C17.6985 59.7557 21.4857 66.5754 25.0175 74.7854C25.4979 75.9022 27.1551 75.8893 27.6186 74.7655C31.0724 66.391 34.8814 59.4092 38.4474 53.3685Z" fill="#004D73"/>
</svg>
