<?xml version="1.0" encoding="UTF-8"?>
<svg version="1.1" xmlns="http://www.w3.org/2000/svg" width="42" height="42">
<path d="M0 0 C5.90524312 2.7046915 10.10191083 7.26443073 12.546875 13.3125 C13.41079944 20.90699858 13.35764511 28.08506139 8.546875 34.3125 C4.85380967 38.16355743 0.95328266 41.03875521 -4.40625 41.6484375 C-12.16627698 41.74038095 -18.19631823 41.39466854 -23.9765625 35.8515625 C-29.21809329 29.88288293 -29.90529348 25.36464296 -29.765625 17.578125 C-29.18742775 11.53596379 -26.99172866 7.42317733 -22.453125 3.4375 C-15.55812147 -1.44646084 -8.27470203 -2.31902477 0 0 Z " fill="#3BCC00" transform="translate(29.453125,0.6875)"/>
<path d="M0 0 C2.9375 1.5625 2.9375 1.5625 5 4 C5.73247245 8.39483471 5.32515971 10.42555117 3.125 14.3125 C1 17 1 17 -1 19 C-3.375 18.9375 -3.375 18.9375 -6 18 C-9.15650586 14.58045198 -10.88185613 12.27595378 -11.3125 7.625 C-11 4 -11 4 -9.4375 1.5625 C-6.04295632 -0.61348954 -3.9634351 -0.55627159 0 0 Z " fill="#303B2C" transform="translate(24,11)"/>
<path d="M0 0 C0.33 0 0.66 0 1 0 C1.5287747 5.02335965 1.56054353 7.94340941 -1.625 12 C-3.8873218 14.3155529 -4.84820875 14.95972885 -8.0625 15.8125 C-12.30585043 14.63880733 -13.68507369 12.67664767 -16 9 C-16.3125 5.625 -16.3125 5.625 -16 3 C-15.38125 3.78375 -14.7625 4.5675 -14.125 5.375 C-12.10141339 7.96837647 -12.10141339 7.96837647 -10 10 C-7.52673046 10.14091482 -7.52673046 10.14091482 -5 9 C-2.68691875 6.04439618 -1.18644952 3.55934855 0 0 Z " fill="#247A01" transform="translate(29,19)"/>
<path d="M0 0 C2.26185454 2.26185454 3.03921617 3.96983561 4 7 C3.67 7.99 3.34 8.98 3 10 C0.64551835 7.44931155 0.01672076 6.28982642 -0.1875 2.75 C-0.125625 1.8425 -0.06375 0.935 0 0 Z " fill="#278202" transform="translate(13,22)"/>
</svg>
