<svg width="16" height="14" viewBox="0 0 20 14" fill="none" xmlns="http://www.w3.org/2000/svg">
    <path
        d="M2 14C1.45 14 0.979167 13.8286 0.5875 13.4859C0.195833 13.1432 0 12.7312 0 12.25V9.29687C0 9.13646 0.0583333 8.99792 0.175 8.88125C0.291667 8.76458 0.441667 8.69167 0.625 8.6625C1.025 8.54583 1.35417 8.33437 1.6125 8.02812C1.87083 7.72187 2 7.37917 2 7C2 6.62083 1.87083 6.27812 1.6125 5.97187C1.35417 5.66562 1.025 5.45417 0.625 5.3375C0.441667 5.30833 0.291667 5.23542 0.175 5.11875C0.0583333 5.00208 0 4.86354 0 4.70312V1.75C0 1.26875 0.195833 0.856771 0.5875 0.514062C0.979167 0.171354 1.45 0 2 0H18C18.55 0 19.0208 0.171354 19.4125 0.514062C19.8042 0.856771 20 1.26875 20 1.75V4.70312C20 4.86354 19.9417 5.00208 19.825 5.11875C19.7083 5.23542 19.5583 5.30833 19.375 5.3375C18.975 5.45417 18.6458 5.66562 18.3875 5.97187C18.1292 6.27812 18 6.62083 18 7C18 7.37917 18.1292 7.72187 18.3875 8.02812C18.6458 8.33437 18.975 8.54583 19.375 8.6625C19.5583 8.69167 19.7083 8.76458 19.825 8.88125C19.9417 8.99792 20 9.13646 20 9.29687V12.25C20 12.7312 19.8042 13.1432 19.4125 13.4859C19.0208 13.8286 18.55 14 18 14H2ZM10 11.375C10.2833 11.375 10.5208 11.2911 10.7125 11.1234C10.9042 10.9557 11 10.7479 11 10.5C11 10.2521 10.9042 10.0443 10.7125 9.87656C10.5208 9.70885 10.2833 9.625 10 9.625C9.71667 9.625 9.47917 9.70885 9.2875 9.87656C9.09583 10.0443 9 10.2521 9 10.5C9 10.7479 9.09583 10.9557 9.2875 11.1234C9.47917 11.2911 9.71667 11.375 10 11.375ZM10 7.875C10.2833 7.875 10.5208 7.79115 10.7125 7.62344C10.9042 7.45573 11 7.24792 11 7C11 6.75208 10.9042 6.54427 10.7125 6.37656C10.5208 6.20885 10.2833 6.125 10 6.125C9.71667 6.125 9.47917 6.20885 9.2875 6.37656C9.09583 6.54427 9 6.75208 9 7C9 7.24792 9.09583 7.45573 9.2875 7.62344C9.47917 7.79115 9.71667 7.875 10 7.875ZM10 4.375C10.2833 4.375 10.5208 4.29115 10.7125 4.12344C10.9042 3.95573 11 3.74792 11 3.5C11 3.25208 10.9042 3.04427 10.7125 2.87656C10.5208 2.70885 10.2833 2.625 10 2.625C9.71667 2.625 9.47917 2.70885 9.2875 2.87656C9.09583 3.04427 9 3.25208 9 3.5C9 3.74792 9.09583 3.95573 9.2875 4.12344C9.47917 4.29115 9.71667 4.375 10 4.375Z"
        fill="#00C868" />
</svg>
