<svg width="18" height="18" viewBox="0 0 18 18" fill="none" xmlns="http://www.w3.org/2000/svg">
<path d="M8.17808 17.1781V16.3562C6.46575 16.1644 4.99658 15.4555 3.77055 14.2295C2.54452 13.0034 1.83562 11.5342 1.64384 9.82192H0.821918C0.589041 9.82192 0.393836 9.74315 0.236301 9.58562C0.0787671 9.42808 0 9.23288 0 9C0 8.76712 0.0787671 8.57192 0.236301 8.41438C0.393836 8.25685 0.589041 8.17808 0.821918 8.17808H1.64384C1.83562 6.46575 2.54452 4.99658 3.77055 3.77055C4.99658 2.54452 6.46575 1.83562 8.17808 1.64384V0.821918C8.17808 0.589041 8.25685 0.393836 8.41438 0.236301C8.57192 0.0787671 8.76712 0 9 0C9.23288 0 9.42808 0.0787671 9.58562 0.236301C9.74315 0.393836 9.82192 0.589041 9.82192 0.821918V1.64384C11.5342 1.83562 13.0034 2.54452 14.2295 3.77055C15.4555 4.99658 16.1644 6.46575 16.3562 8.17808H17.1781C17.411 8.17808 17.6062 8.25685 17.7637 8.41438C17.9212 8.57192 18 8.76712 18 9C18 9.23288 17.9212 9.42808 17.7637 9.58562C17.6062 9.74315 17.411 9.82192 17.1781 9.82192H16.3562C16.1644 11.5342 15.4555 13.0034 14.2295 14.2295C13.0034 15.4555 11.5342 16.1644 9.82192 16.3562V17.1781C9.82192 17.411 9.74315 17.6062 9.58562 17.7637C9.42808 17.9212 9.23288 18 9 18C8.76712 18 8.57192 17.9212 8.41438 17.7637C8.25685 17.6062 8.17808 17.411 8.17808 17.1781ZM9 14.7534C10.589 14.7534 11.9452 14.1918 13.0685 13.0685C14.1918 11.9452 14.7534 10.589 14.7534 9C14.7534 7.41096 14.1918 6.05479 13.0685 4.93151C11.9452 3.80822 10.589 3.24658 9 3.24658C7.41096 3.24658 6.05479 3.80822 4.93151 4.93151C3.80822 6.05479 3.24658 7.41096 3.24658 9C3.24658 10.589 3.80822 11.9452 4.93151 13.0685C6.05479 14.1918 7.41096 14.7534 9 14.7534ZM9 12.2877C8.09589 12.2877 7.32192 11.9658 6.67808 11.3219C6.03425 10.6781 5.71233 9.90411 5.71233 9C5.71233 8.09589 6.03425 7.32192 6.67808 6.67808C7.32192 6.03425 8.09589 5.71233 9 5.71233C9.90411 5.71233 10.6781 6.03425 11.3219 6.67808C11.9658 7.32192 12.2877 8.09589 12.2877 9C12.2877 9.90411 11.9658 10.6781 11.3219 11.3219C10.6781 11.9658 9.90411 12.2877 9 12.2877Z" fill="#00C868"/>
</svg>
