<svg width="20" height="19" viewBox="0 0 20 19" fill="none" xmlns="http://www.w3.org/2000/svg">
<path d="M1.90476 12.381C1.39683 12.381 0.952381 12.1905 0.571429 11.8095C0.190476 11.4286 0 10.9841 0 10.4762V8.57143C0 8.46032 0.0119048 8.34127 0.0357143 8.21429C0.0595238 8.0873 0.0952381 7.96825 0.142857 7.85714L3 1.14286C3.14286 0.825397 3.38095 0.555556 3.71429 0.333333C4.04762 0.111111 4.39683 0 4.7619 0H12.381C12.9048 0 13.3532 0.186508 13.7262 0.559524C14.0992 0.93254 14.2857 1.38095 14.2857 1.90476V11.5952C14.2857 11.8492 14.2341 12.0913 14.131 12.3214C14.0278 12.5516 13.8889 12.754 13.7143 12.9286L8.54762 18.0714C8.30952 18.2937 8.02778 18.4286 7.70238 18.4762C7.37698 18.5238 7.06349 18.4683 6.7619 18.3095C6.46032 18.1508 6.24206 17.9286 6.10714 17.6429C5.97222 17.3571 5.94444 17.0635 6.02381 16.7619L7.09524 12.381H1.90476ZM18.0952 0C18.619 0 19.0675 0.186508 19.4405 0.559524C19.8135 0.93254 20 1.38095 20 1.90476V10.4762C20 11 19.8135 11.4484 19.4405 11.8214C19.0675 12.1944 18.619 12.381 18.0952 12.381C17.5714 12.381 17.123 12.1944 16.75 11.8214C16.377 11.4484 16.1905 11 16.1905 10.4762V1.90476C16.1905 1.38095 16.377 0.93254 16.75 0.559524C17.123 0.186508 17.5714 0 18.0952 0Z" fill="#E2E2E2"/>
</svg>
