<svg width="20" height="15" viewBox="0 0 20 15" fill="none" xmlns="http://www.w3.org/2000/svg">
<path d="M1.81818 14.5455C1.31818 14.5455 0.890152 14.3674 0.534091 14.0114C0.17803 13.6553 0 13.2273 0 12.7273V3.63636C0 3.37879 0.0871212 3.16288 0.261364 2.98864C0.435606 2.81439 0.651515 2.72727 0.909091 2.72727C1.16667 2.72727 1.38258 2.81439 1.55682 2.98864C1.73106 3.16288 1.81818 3.37879 1.81818 3.63636V12.7273H16.3636C16.6212 12.7273 16.8371 12.8144 17.0114 12.9886C17.1856 13.1629 17.2727 13.3788 17.2727 13.6364C17.2727 13.8939 17.1856 14.1098 17.0114 14.2841C16.8371 14.4583 16.6212 14.5455 16.3636 14.5455H1.81818ZM5.45455 10.9091C4.95455 10.9091 4.52652 10.7311 4.17045 10.375C3.81439 10.0189 3.63636 9.59091 3.63636 9.09091V1.81818C3.63636 1.31818 3.81439 0.890152 4.17045 0.534091C4.52652 0.17803 4.95455 0 5.45455 0H18.1818C18.6818 0 19.1098 0.17803 19.4659 0.534091C19.822 0.890152 20 1.31818 20 1.81818V9.09091C20 9.59091 19.822 10.0189 19.4659 10.375C19.1098 10.7311 18.6818 10.9091 18.1818 10.9091H5.45455ZM7.27273 9.09091C7.27273 8.59091 7.0947 8.16288 6.73864 7.80682C6.38258 7.45076 5.95455 7.27273 5.45455 7.27273V9.09091H7.27273ZM16.3636 9.09091H18.1818V7.27273C17.6818 7.27273 17.2538 7.45076 16.8977 7.80682C16.5417 8.16288 16.3636 8.59091 16.3636 9.09091ZM11.8182 8.18182C12.5758 8.18182 13.2197 7.91667 13.75 7.38636C14.2803 6.85606 14.5455 6.21212 14.5455 5.45455C14.5455 4.69697 14.2803 4.05303 13.75 3.52273C13.2197 2.99242 12.5758 2.72727 11.8182 2.72727C11.0606 2.72727 10.4167 2.99242 9.88636 3.52273C9.35606 4.05303 9.09091 4.69697 9.09091 5.45455C9.09091 6.21212 9.35606 6.85606 9.88636 7.38636C10.4167 7.91667 11.0606 8.18182 11.8182 8.18182ZM5.45455 3.63636C5.95455 3.63636 6.38258 3.45833 6.73864 3.10227C7.0947 2.74621 7.27273 2.31818 7.27273 1.81818H5.45455V3.63636ZM18.1818 3.63636V1.81818H16.3636C16.3636 2.31818 16.5417 2.74621 16.8977 3.10227C17.2538 3.45833 17.6818 3.63636 18.1818 3.63636Z" fill="#00C868"/>
</svg>
