<svg width="10" height="10" viewBox="0 0 10 10" fill="none" xmlns="http://www.w3.org/2000/svg">
<path d="M1.11111 8.88889H1.90278L7.33333 3.45833L6.54167 2.66667L1.11111 8.09722V8.88889ZM0.555556 10C0.398148 10 0.266204 9.94676 0.159722 9.84028C0.0532407 9.7338 0 9.60185 0 9.44444V8.09722C0 7.94907 0.0277778 7.80787 0.0833333 7.67361C0.138889 7.53935 0.217593 7.4213 0.319444 7.31944L7.33333 0.319444C7.44444 0.217593 7.56713 0.138889 7.70139 0.0833333C7.83565 0.0277778 7.97685 0 8.125 0C8.27315 0 8.41667 0.0277778 8.55556 0.0833333C8.69444 0.138889 8.81481 0.222222 8.91667 0.333333L9.68056 1.11111C9.79167 1.21296 9.87269 1.33333 9.92361 1.47222C9.97454 1.61111 10 1.75 10 1.88889C10 2.03704 9.97454 2.17824 9.92361 2.3125C9.87269 2.44676 9.79167 2.56944 9.68056 2.68056L2.68056 9.68056C2.5787 9.78241 2.46065 9.86111 2.32639 9.91667C2.19213 9.97222 2.05093 10 1.90278 10H0.555556ZM6.93056 3.06944L6.54167 2.66667L7.33333 3.45833L6.93056 3.06944Z" fill="#303030"/>
</svg>
