<svg width="20" height="14" viewBox="0 0 20 14" fill="none" xmlns="http://www.w3.org/2000/svg">
<path d="M0.427349 8.15L4.44444 13.15C4.65337 13.4167 4.92403 13.625 5.25641 13.775C5.58879 13.925 5.94492 14 6.32479 14H17.7208C18.3476 14 18.8841 13.8042 19.3305 13.4125C19.7768 13.0208 20 12.55 20 12V2C20 1.45 19.7768 0.979167 19.3305 0.5875C18.8841 0.195833 18.3476 0 17.7208 0H6.32479C5.94492 0 5.58879 0.075 5.25641 0.225C4.92403 0.375 4.65337 0.583333 4.44444 0.85L0.427349 5.85C0.14245 6.2 0 6.58333 0 7C0 7.41667 0.14245 7.8 0.427349 8.15Z" fill="#00C868"/>
</svg>
