<svg width="50" height="19" viewBox="0 0 50 19" fill="none" xmlns="http://www.w3.org/2000/svg">
<path fill-rule="evenodd" clip-rule="evenodd" d="M14.7284 0.201536C13.1171 0.532449 11.6809 1.08429 8.73974 2.50248C7.0363 3.32385 6.47793 3.52357 3.683 4.31168C1.00723 5.06623 0.543994 5.2635 0.210104 5.7904C0.0151962 6.09798 0.000356775 6.37762 2.45461e-05 9.75475C-0.000418426 13.3496 0.00235015 13.3931 0.256505 13.8579C0.4286 14.1725 0.675445 14.4155 1.00402 14.594C1.47335 14.8489 1.58841 14.8619 3.65786 14.8947L5.82111 14.9292L5.95844 14.1587C6.26276 12.4509 7.32301 11.0963 8.93565 10.3553C9.78527 9.96492 9.82336 9.95799 11.1292 9.95799C12.4351 9.95799 12.4732 9.96492 13.3228 10.3553C14.9327 11.095 15.9958 12.4511 16.2987 14.1509L16.4346 14.9137H24.9701H33.5056L33.6263 14.1762C33.9011 12.4971 34.9936 11.1033 36.6214 10.3553C37.4663 9.96705 37.5151 9.9581 38.7596 9.96066C40.2707 9.96396 40.9194 10.1629 41.9993 10.9545C43.0883 11.7528 43.8279 13.0115 44.0279 14.4075L44.1004 14.9137H46.1963C48.4641 14.9137 48.7963 14.8446 49.3503 14.2579C49.937 13.6367 50 13.3742 50 11.5542V9.84652L49.6298 9.12309C49.2443 8.36961 48.8266 7.98956 47.9964 7.63702C47.7584 7.53588 44.8975 6.82939 41.6389 6.06707C38.3803 5.30464 35.465 4.60263 35.1604 4.50693C34.4348 4.27886 33.2282 3.69451 31.2403 2.60852C29.0915 1.4346 28.2615 1.04102 27.111 0.650428C25.3181 0.0416752 24.7802 -0.00745482 20.0042 0.0007514C16.2579 0.00725244 15.542 0.0345341 14.7284 0.201536ZM14.3962 2.00637C13.4177 2.26322 10.2565 3.89572 9.6619 4.45108C9.2805 4.80736 9.19124 4.96328 9.19124 5.2732C9.19124 5.76717 9.34163 6.02721 9.74274 6.22682C10.0145 6.36207 10.7361 6.38775 14.2606 6.38775H18.455L18.6959 6.14114C18.9238 5.90763 18.9366 5.79669 18.9366 4.06294C18.9366 1.66075 19.0712 1.80292 16.8048 1.81124C15.5485 1.81582 14.9316 1.8658 14.3962 2.00637ZM21.0856 2.02939C20.8951 2.23199 20.8746 2.43427 20.8746 4.11697C20.8746 5.94664 20.8794 5.98394 21.1361 6.18398C21.3854 6.37837 21.6448 6.38775 26.744 6.38775C31.8271 6.38775 32.1033 6.37784 32.3497 6.18579C32.7624 5.86415 32.5435 5.46897 31.6698 4.9587C27.3733 2.44876 25.5474 1.80505 22.7237 1.80505C21.4135 1.80505 21.2793 1.82338 21.0856 2.02939ZM46.6138 9.0439C45.8451 9.78364 46.5128 11.2902 47.6093 11.2902C48.1424 11.2902 48.4703 11.0533 48.625 10.5563C48.7335 10.2078 48.7193 10.0796 48.525 9.65713C48.1127 8.75999 47.2098 8.47032 46.6138 9.0439ZM9.89158 11.2243C8.86522 11.5467 7.93996 12.3609 7.45501 13.3684C7.19532 13.9081 7.14715 14.1491 7.14615 14.9137C7.14505 15.7078 7.18724 15.9051 7.48791 16.5123C7.89921 17.3428 8.58337 18.0171 9.41195 18.4088C9.95138 18.6637 10.1498 18.6971 11.1292 18.6971C12.1162 18.6971 12.3049 18.6648 12.8639 18.4007C13.6994 18.0058 14.3563 17.3557 14.7721 16.5123C15.0712 15.9054 15.1133 15.7074 15.1113 14.9137C15.1096 14.1475 15.0606 13.9056 14.7943 13.3447C14.4222 12.561 13.5439 11.7078 12.7628 11.3713C12.1033 11.0873 10.5769 11.009 9.89158 11.2243ZM37.4143 11.2746C36.3118 11.7027 35.469 12.502 35.0287 13.5368C34.8846 13.8752 34.8295 14.2778 34.8328 14.967C34.8367 15.7923 34.8803 16.0115 35.1447 16.5377C35.5361 17.3163 36.3188 18.0705 37.0982 18.4203C37.9647 18.8091 39.334 18.861 40.2266 18.5388C41.458 18.0942 42.47 16.9218 42.7458 15.6204C43.0889 14.0009 42.135 12.1743 40.5587 11.4321C39.7293 11.0415 38.2103 10.9654 37.4143 11.2746ZM10.7021 13.5302C9.78781 13.797 9.35957 14.8519 9.85083 15.6273C10.4622 16.5922 11.7182 16.6138 12.3729 15.6706C13.1206 14.5934 11.9958 13.1526 10.7021 13.5302ZM38.3556 13.537C38.1638 13.5911 37.8523 13.8047 37.6635 14.0118C37.3786 14.3239 37.3199 14.478 37.3199 14.9137C37.3199 15.3475 37.3789 15.5037 37.6577 15.8093C38.0945 16.2881 38.6028 16.4545 39.1749 16.3063C40.1412 16.056 40.6011 15.0014 40.0934 14.2001C39.7154 13.6036 39.0372 13.3448 38.3556 13.537Z" fill="#4F4F4F"/>
</svg>
