<svg width="18" height="20" viewBox="0 0 18 20" fill="none" xmlns="http://www.w3.org/2000/svg">
<path d="M7.82609 3.47826C7.57971 3.47826 7.37319 3.39493 7.20652 3.22826C7.03986 3.06159 6.95652 2.85507 6.95652 2.6087V0.869565C6.95652 0.623188 7.03986 0.416667 7.20652 0.25C7.37319 0.0833333 7.57971 0 7.82609 0C8.07246 0 8.27899 0.0833333 8.44565 0.25C8.61232 0.416667 8.69565 0.623188 8.69565 0.869565V2.6087C8.69565 2.85507 8.61232 3.06159 8.44565 3.22826C8.27899 3.39493 8.07246 3.47826 7.82609 3.47826ZM2.5 4.08696L1.13043 2.71739C0.956522 2.54348 0.869565 2.33696 0.869565 2.09783C0.869565 1.8587 0.956522 1.65217 1.13043 1.47826C1.30435 1.30435 1.50725 1.21739 1.73913 1.21739C1.97101 1.21739 2.17391 1.30435 2.34783 1.47826L3.73913 2.86957C3.91304 3.04348 4 3.24638 4 3.47826C4 3.71014 3.91304 3.91304 3.73913 4.08696C3.56522 4.26087 3.3587 4.34783 3.11957 4.34783C2.88043 4.34783 2.67391 4.26087 2.5 4.08696ZM3.47826 15.6522H5.21739C5.46377 15.6522 5.67029 15.5688 5.83696 15.4022C6.00362 15.2355 6.08696 15.029 6.08696 14.7826C6.08696 14.5362 6.00362 14.3297 5.83696 14.163C5.67029 13.9964 5.46377 13.913 5.21739 13.913H3.47826C3.23188 13.913 3.02536 13.9964 2.8587 14.163C2.69203 14.3297 2.6087 14.5362 2.6087 14.7826C2.6087 15.029 2.69203 15.2355 2.8587 15.4022C3.02536 15.5688 3.23188 15.6522 3.47826 15.6522ZM10.4348 15.6522H12.1739C12.4203 15.6522 12.6268 15.5688 12.7935 15.4022C12.9601 15.2355 13.0435 15.029 13.0435 14.7826C13.0435 14.5362 12.9601 14.3297 12.7935 14.163C12.6268 13.9964 12.4203 13.913 12.1739 13.913H10.4348C10.1884 13.913 9.98188 13.9964 9.81522 14.163C9.64855 14.3297 9.56522 14.5362 9.56522 14.7826C9.56522 15.029 9.64855 15.2355 9.81522 15.4022C9.98188 15.5688 10.1884 15.6522 10.4348 15.6522ZM11.8043 9.17391C11.9783 9.34783 12.1812 9.43478 12.413 9.43478C12.6449 9.43478 12.8478 9.34783 13.0217 9.17391L14.9783 7.23913C15.1087 7.1087 15.1739 6.95652 15.1739 6.78261C15.1739 6.6087 15.1087 6.45652 14.9783 6.32609C14.8478 6.19565 14.6957 6.13406 14.5217 6.1413C14.3478 6.14855 14.1957 6.21014 14.0652 6.32609L12.413 7.93478L12.0217 7.54348C11.8913 7.41304 11.7391 7.35145 11.5652 7.3587C11.3913 7.36594 11.2391 7.43478 11.1087 7.56522C10.9783 7.69565 10.913 7.84783 10.913 8.02174C10.913 8.19565 10.9783 8.34783 11.1087 8.47826L11.8043 9.17391ZM13.0435 12.1739C11.8406 12.1739 10.8152 11.75 9.96739 10.9022C9.11957 10.0543 8.69565 9.02899 8.69565 7.82609C8.69565 6.62319 9.11957 5.59783 9.96739 4.75C10.8152 3.90217 11.8406 3.47826 13.0435 3.47826C14.2464 3.47826 15.2717 3.90217 16.1196 4.75C16.9674 5.59783 17.3913 6.62319 17.3913 7.82609C17.3913 9.02899 16.9674 10.0543 16.1196 10.9022C15.2717 11.75 14.2464 12.1739 13.0435 12.1739ZM1.30435 20C0.942029 20 0.634058 19.8732 0.380435 19.6196C0.126812 19.3659 0 19.058 0 18.6957V12.4783C0 12.3768 0.00724638 12.2754 0.0217391 12.1739C0.0362319 12.0725 0.057971 11.9783 0.0869565 11.8913L1.82609 6.95652C1.91304 6.69565 2.06884 6.48551 2.29348 6.32609C2.51812 6.16667 2.76812 6.08696 3.04348 6.08696H5.21739V5.21739C5.21739 4.97101 5.30072 4.76449 5.46739 4.59783C5.63406 4.43116 5.84058 4.34783 6.08696 4.34783H7.17391C7.37681 4.34783 7.52536 4.43116 7.61957 4.59783C7.71377 4.76449 7.71014 4.93478 7.6087 5.1087C7.43478 5.44203 7.29348 5.79348 7.18478 6.16304C7.07609 6.53261 7.00725 6.91304 6.97826 7.30435C6.96377 7.44928 6.9058 7.57246 6.80435 7.67391C6.7029 7.77536 6.57971 7.82609 6.43478 7.82609H3.34783L2.06522 11.3043H7.36957C7.58696 11.3043 7.79348 11.3551 7.98913 11.4565C8.18478 11.558 8.35507 11.6884 8.5 11.8478C9.07971 12.5 9.76087 13.0072 10.5435 13.3696C11.3261 13.7319 12.1594 13.913 13.0435 13.913C13.2899 13.913 13.5399 13.8986 13.7935 13.8696C14.0471 13.8406 14.2971 13.7899 14.5435 13.7174C14.8188 13.6449 15.0725 13.6884 15.3043 13.8478C15.5362 14.0072 15.6522 14.2246 15.6522 14.5V18.6957C15.6522 19.058 15.5254 19.3659 15.2717 19.6196C15.0181 19.8732 14.7101 20 14.3478 20C13.9855 20 13.6775 19.8732 13.4239 19.6196C13.1703 19.3659 13.0435 19.058 13.0435 18.6957V18.2609H2.6087V18.6957C2.6087 19.058 2.48188 19.3659 2.22826 19.6196C1.97464 19.8732 1.66667 20 1.30435 20Z" fill="#00C868"/>
</svg>
