<svg width="15" height="15" viewBox="0 0 15 15" fill="none" xmlns="http://www.w3.org/2000/svg">
<rect width="15" height="15" fill="white"/>
<path d="M3.84319 3.23268L2.53003 4.54584C2.3918 4.68407 2.23053 4.75031 2.04623 4.74455C1.86193 4.73879 1.70066 4.66679 1.56243 4.52857C1.43572 4.39034 1.36949 4.22907 1.36373 4.04477C1.35797 3.86047 1.4242 3.6992 1.56243 3.56097L4.05053 1.07288C4.11964 1.00376 4.19452 0.954806 4.27515 0.926008C4.35578 0.897211 4.44218 0.882812 4.53433 0.882812C4.62648 0.882812 4.71287 0.897211 4.7935 0.926008C4.87414 0.954806 4.94901 1.00376 5.01812 1.07288L7.50622 3.56097C7.63293 3.68768 7.69628 3.84607 7.69628 4.03613C7.69628 4.22619 7.63293 4.39034 7.50622 4.52857C7.36799 4.66679 7.20385 4.73591 7.01379 4.73591C6.82372 4.73591 6.65958 4.66679 6.52135 4.52857L5.22547 3.23268L5.22547 13.0296C5.22547 13.2254 5.15923 13.3895 5.02676 13.522C4.8943 13.6545 4.73015 13.7207 4.53433 13.7207C4.3385 13.7207 4.17436 13.6545 4.04189 13.522C3.90942 13.3895 3.84319 13.2254 3.84319 13.0296L3.84319 3.23268ZM9.37229 11.7682L9.37229 1.97135C9.37229 1.77553 9.43853 1.61139 9.571 1.47892C9.70346 1.34645 9.86761 1.28022 10.0634 1.28022C10.2593 1.28022 10.4234 1.34645 10.5559 1.47892C10.6883 1.61139 10.7546 1.77553 10.7546 1.97135L10.7546 11.7682L12.0677 10.4551C12.206 10.3168 12.3672 10.2506 12.5515 10.2564C12.7358 10.2621 12.8971 10.3341 13.0353 10.4724C13.162 10.6106 13.2283 10.7718 13.234 10.9562C13.2398 11.1405 13.1736 11.3017 13.0353 11.4399L10.5472 13.928C10.4781 13.9972 10.4032 14.0461 10.3226 14.0749C10.242 14.1037 10.1556 14.1181 10.0634 14.1181C9.97128 14.1181 9.88489 14.1037 9.80426 14.0749C9.72362 14.0461 9.64875 13.9972 9.57964 13.928L7.09154 11.4399C6.96483 11.3132 6.90148 11.1549 6.90148 10.9648C6.90148 10.7747 6.96483 10.6106 7.09154 10.4724C7.22977 10.3341 7.39391 10.265 7.58397 10.265C7.77404 10.265 7.93818 10.3341 8.07641 10.4724L9.37229 11.7682Z" fill="#303030"/>
</svg>
