<svg width="16" height="24" viewBox="0 0 16 24" fill="none" xmlns="http://www.w3.org/2000/svg">
<path d="M13.9618 11.98C14.1556 12.1715 14.4837 12.1277 14.6135 11.8902C15.4579 10.3437 16 8.98011 16 7.61891C16 7.36276 15.6977 7.23636 15.4948 7.3988L12.4376 9.84665C12.2493 9.99743 12.2345 10.2736 12.4057 10.4427L13.9618 11.98Z" fill="#00C868"/>
<path d="M11.8077 16.5836C11.9012 16.4256 11.8752 16.2262 11.7439 16.0964L8.82529 13.213C8.67512 13.0647 8.43393 13.0524 8.26873 13.1846L4.47825 16.2197C4.32013 16.3463 4.28046 16.5664 4.38424 16.7384C5.46552 18.5306 6.62312 20.6094 7.70265 23.112C7.84951 23.4524 8.35605 23.4485 8.49771 23.1059C9.55342 20.5532 10.7177 18.4249 11.8077 16.5836Z" fill="#00C868"/>
<path d="M2.80301 13.3051C2.60837 13.461 2.31721 13.4123 2.18794 13.2014C0.890773 11.0855 0 9.36814 0 7.61891C0 3.6468 3.54242 0 8.0084 0C10.7699 0 13.1718 1.3943 14.603 3.39766C14.7225 3.56487 14.6841 3.79203 14.5226 3.92131L2.80301 13.3051Z" fill="#00C868"/>
<path d="M11.88 16.491C11.9746 16.3308 11.9484 16.1287 11.8156 15.9972L8.86511 13.0743C8.7133 12.9239 8.46947 12.9114 8.30247 13.0455L4.4706 16.1221C4.31075 16.2504 4.27065 16.4735 4.37557 16.6479C5.46865 18.4646 6.63889 20.5719 7.73021 23.1088C7.87867 23.4539 8.39074 23.4499 8.53394 23.1026C9.60118 20.5149 10.7782 18.3575 11.88 16.491Z" fill="#004D73"/>
</svg>
