<svg width="42" height="42" viewBox="0 0 42 42" fill="none" xmlns="http://www.w3.org/2000/svg">
<circle cx="21" cy="21" r="21" fill="#3BD101" fill-opacity="0.25"/>
<g filter="url(#filter0_d_648_1410)">
<path d="M21 30.325C20.7667 30.325 20.5333 30.2833 20.3 30.2C20.0667 30.1167 19.8583 29.9917 19.675 29.825C18.5917 28.825 17.6333 27.85 16.8 26.9C15.9667 25.95 15.2708 25.0292 14.7125 24.1375C14.1542 23.2458 13.7292 22.3875 13.4375 21.5625C13.1458 20.7375 13 19.95 13 19.2C13 16.7 13.8042 14.7083 15.4125 13.225C17.0208 11.7417 18.8833 11 21 11C23.1167 11 24.9792 11.7417 26.5875 13.225C28.1958 14.7083 29 16.7 29 19.2C29 19.95 28.8542 20.7375 28.5625 21.5625C28.2708 22.3875 27.8458 23.2458 27.2875 24.1375C26.7292 25.0292 26.0333 25.95 25.2 26.9C24.3667 27.85 23.4083 28.825 22.325 29.825C22.1417 29.9917 21.9333 30.1167 21.7 30.2C21.4667 30.2833 21.2333 30.325 21 30.325ZM21 21C21.55 21 22.0208 20.8042 22.4125 20.4125C22.8042 20.0208 23 19.55 23 19C23 18.45 22.8042 17.9792 22.4125 17.5875C22.0208 17.1958 21.55 17 21 17C20.45 17 19.9792 17.1958 19.5875 17.5875C19.1958 17.9792 19 18.45 19 19C19 19.55 19.1958 20.0208 19.5875 20.4125C19.9792 20.8042 20.45 21 21 21Z" fill="#303030"/>
</g>
<circle cx="21" cy="19" r="2" fill="#3BD101"/>
<defs>
<filter id="filter0_d_648_1410" x="9" y="11" width="24" height="27.3242" filterUnits="userSpaceOnUse" color-interpolation-filters="sRGB">
<feFlood flood-opacity="0" result="BackgroundImageFix"/>
<feColorMatrix in="SourceAlpha" type="matrix" values="0 0 0 0 0 0 0 0 0 0 0 0 0 0 0 0 0 0 127 0" result="hardAlpha"/>
<feOffset dy="4"/>
<feGaussianBlur stdDeviation="2"/>
<feComposite in2="hardAlpha" operator="out"/>
<feColorMatrix type="matrix" values="0 0 0 0 0 0 0 0 0 0 0 0 0 0 0 0 0 0 0.25 0"/>
<feBlend mode="normal" in2="BackgroundImageFix" result="effect1_dropShadow_648_1410"/>
<feBlend mode="normal" in="SourceGraphic" in2="effect1_dropShadow_648_1410" result="shape"/>
</filter>
</defs>
</svg>
