<svg width="360" height="361" viewBox="0 0 360 361" fill="none" xmlns="http://www.w3.org/2000/svg">
<path opacity="0.7" d="M110.222 21.8525C110.222 21.8525 46.6047 54.2416 14.8757 104.151C-16.8534 154.06 -14.343 218.268 24.2122 265.929C62.7673 313.589 136.46 307.33 198.164 337.52C259.867 367.711 327.943 361.493 357.12 297.529C386.296 233.565 342.3 209.659 334.744 135.634C327.187 61.6088 260.413 -46.7856 110.222 21.8525Z" fill="#004D73" fill-opacity="0.2"/>
<path d="M185.894 211.568L174.232 254.254L131.631 196.73L141.671 347.565H202.49L220.213 348.419C220.213 348.419 217.584 324.652 216.508 311.214C215.851 300.488 214.042 289.863 211.112 279.524C202.029 249.985 185.894 211.568 185.894 211.568Z" fill="#FAFAFA"/>
<path d="M172.163 278.325C172.01 278.512 178.891 284.045 187.53 290.686C196.17 297.328 203.256 302.536 203.409 302.348C203.563 302.16 196.699 296.611 188.042 289.986C179.386 283.362 172.317 278.12 172.163 278.325Z" fill="#263238"/>
<path d="M66.2919 190.767L99.4161 174.837L112.41 159.402L130.782 178.491L179.512 347.134H95.95L85.2444 318.193L66.2919 206.459V190.767Z" fill="#00C868"/>
<path d="M215.344 349.53L217.581 313.674L116.655 296.599C116.655 296.599 99.4095 213.311 88.7892 199.668C78.9715 187.067 66.1998 191.438 66.1998 191.438C66.1998 191.438 54.6747 199.327 57.4236 229.531C58.875 245.359 64.6632 300.202 66.7462 320.025C67.258 324.772 68.8338 329.342 71.3563 333.395C74.1978 337.958 78.1544 341.722 82.8534 344.333C87.5523 346.944 92.8387 348.315 98.2143 348.318L215.344 349.53Z" fill="#00C868"/>
<path d="M100.165 317.478C100.318 317.478 100.455 315.89 101.189 313.448C102.131 310.26 103.723 307.301 105.866 304.759C108.008 302.217 110.654 300.147 113.636 298.679C115.924 297.535 117.495 297.142 117.444 296.971C116.03 297.082 114.65 297.465 113.38 298.098C110.212 299.45 107.405 301.526 105.184 304.159C102.963 306.792 101.39 309.909 100.592 313.26C100.182 314.626 100.037 316.057 100.165 317.478Z" fill="#263238"/>
<g opacity="0.2">
<path d="M102.01 177.263C102.964 187.804 104.983 198.221 108.037 208.355L115.618 206.135C114.179 208.453 113.235 211.044 112.847 213.745C112.459 216.446 112.635 219.198 113.365 221.827C114.845 227.071 117.052 232.083 119.921 236.716C132.442 259.265 144.998 281.826 157.587 304.398L119.614 218.173L120.604 202.225L113.296 200.672L102.01 177.263Z" fill="black"/>
</g>
<g opacity="0.2">
<path d="M116.977 295.694C112.342 295.427 107.757 296.768 103.996 299.49C100.235 302.212 97.529 306.148 96.3338 310.634C95.9823 311.687 95.9823 312.825 96.3338 313.878C96.5238 314.395 96.902 314.821 97.3926 315.071C97.8833 315.321 98.4504 315.377 98.9803 315.227C99.6959 314.777 100.219 314.077 100.449 313.263C102.13 309.502 104.55 306.118 107.565 303.311C110.581 300.504 114.13 298.332 118.001 296.923" fill="black"/>
</g>
<path d="M157.313 303.583C157.173 303.112 157.002 302.65 156.801 302.2L155.094 298.29L148.964 284.033L128.372 237.096C125.436 230.437 122.601 224.017 119.938 218.007V218.195C120.262 212.526 120.587 207.199 120.877 202.264V201.923H120.569L113.245 200.403L113.484 200.591L104.383 182.168L101.839 177.131L101.139 175.833C101.065 175.679 100.98 175.53 100.883 175.389C100.91 175.557 100.968 175.719 101.053 175.867L101.651 177.216C102.232 178.463 103.017 180.187 104.024 182.338L112.852 200.898V201.052H113.023L120.33 202.64L120.023 202.247C119.716 207.182 119.374 212.492 118.999 218.178V218.28V218.382C121.662 224.41 124.479 230.83 127.416 237.489L148.23 284.324C150.911 290.231 153.079 295.046 154.633 298.478L156.34 302.303C156.632 302.754 156.957 303.182 157.313 303.583Z" fill="#263238"/>
<path d="M215.433 348.398C215.475 348.201 215.504 348.002 215.518 347.801C215.518 347.357 215.518 346.776 215.655 346.093C215.774 344.488 215.945 342.235 216.15 339.264C216.542 333.373 217.106 324.921 217.857 314.523V314.233H217.584L144.557 300.812L117.631 295.929L117.972 296.253C112.047 273.766 106.925 254.25 103.237 240.284C101.393 233.454 99.8221 227.871 98.883 224.012C98.3537 222.151 97.961 220.699 97.6708 219.658L97.3463 218.531L97.2097 218.172C97.1871 218.302 97.1871 218.435 97.2097 218.565L97.4658 219.692C97.722 220.751 98.0805 222.219 98.5415 224.08L102.656 240.42C106.259 254.404 111.296 273.954 117.084 296.458V296.731H117.357L144.352 301.717L217.396 314.864L217.123 314.523C216.559 324.938 216.098 333.39 215.774 339.298C215.637 342.183 215.535 344.42 215.467 346.042C215.467 346.776 215.467 347.357 215.467 347.75C215.433 347.964 215.422 348.182 215.433 348.398Z" fill="#263238"/>
<path d="M71.3775 187.987C71.3775 188.141 73.0849 188.397 75.6461 189.353C79.0023 190.611 82.077 192.52 84.6936 194.969C87.3101 197.419 89.4171 200.361 90.8935 203.627C92.0204 206.137 92.379 207.844 92.6009 207.793C92.8229 207.742 92.6009 207.366 92.4814 206.581C92.27 205.489 91.9556 204.42 91.5423 203.388C90.1759 199.949 88.0671 196.855 85.3665 194.325C82.6658 191.796 79.44 189.894 75.9193 188.755C74.8618 188.415 73.7761 188.169 72.6752 188.021C71.8215 187.936 71.3946 187.919 71.3775 187.987Z" fill="#263238"/>
<path d="M262.199 150.033C259.211 144.518 260.491 122.253 255.932 123.038C250.042 124.045 255.488 147.454 255.932 149.589C256.376 151.723 253.218 152.235 252.996 150.306C252.654 147.523 249.239 120.289 243.451 121.826C240.241 122.662 241.744 128.519 241.744 128.519C241.744 128.519 246.729 154.916 243.963 155.548C241.197 156.179 239.097 140.966 237.868 135.434C236.638 129.902 233.224 127.836 231.909 130.636C229.996 134.734 233.616 148.035 234.777 153.362C235.938 158.689 238.636 174.142 231.14 168.097C223.645 162.053 215.774 160.175 213.195 161.148C210.617 162.121 211.266 165.929 214.134 166.68C217.172 167.817 220.043 169.356 222.672 171.256C224.758 172.81 226.66 174.597 228.34 176.583C230.578 179.044 232.39 181.86 233.702 184.916C234.766 187.329 236.33 189.49 238.29 191.256C240.25 193.022 242.562 194.352 245.073 195.16L249.444 215.957L277.753 209.895L271.453 187.886C269.148 173.424 270.411 153.994 270.394 145.201C270.394 131.097 268.533 130.995 266.98 131.37C263.206 132.105 265.118 155.411 262.199 150.033Z" fill="#FFD1BD"/>
<path d="M263.001 168.95C261.709 169.44 260.449 170.01 259.228 170.657C256.352 172.431 254.115 175.075 252.842 178.204C252.474 179.169 252.188 180.162 251.988 181.175L251.903 181.653L251.493 181.431C249.225 180.098 246.749 179.158 244.168 178.648C242.239 178.273 241.044 178.238 241.044 178.136C242.1 177.955 243.18 177.955 244.237 178.136C246.911 178.521 249.489 179.407 251.835 180.748L251.339 181.005C251.518 179.929 251.809 178.876 252.21 177.863C252.953 176.076 254.005 174.435 255.318 173.014C256.395 171.877 257.639 170.909 259.006 170.145C259.912 169.648 260.875 169.264 261.874 169.001C262.245 168.922 262.625 168.905 263.001 168.95Z" fill="#CC8F75"/>
<path d="M266.759 188.755C262.674 191.538 257.854 193.042 252.912 193.075C252.912 192.87 256.139 192.495 259.963 191.282C263.788 190.07 266.674 188.567 266.759 188.755Z" fill="#CC8F75"/>
<path d="M164.278 168.269L185.894 211.57L174.233 254.238L143.174 221.422L112.56 164.547L164.278 168.269Z" fill="#FFD1BD"/>
<path d="M184.63 172.328C184.63 172.328 215.364 183.256 215.364 185.287C220.794 189.539 238.876 233.266 244.63 241.53L261.089 265.861L247.293 212.009L277.634 203.096C277.634 203.096 303.553 265.622 306.695 279.521C308.594 287.773 308.418 296.367 306.183 304.535L306.012 304.398C304.067 310.635 300.056 316.025 294.64 319.68C281.783 327.926 269.763 329.48 257.47 320.397C250.503 315.274 242.547 309.042 235.273 303.237L233.361 348.45H216.611C216.611 345.906 217.123 314.933 217.123 314.933C214.924 307.604 213.213 300.138 212.001 292.583C210.481 281.928 185.518 211.958 185.518 211.958L166.173 174.633L165.712 160.82L184.63 172.328Z" fill="#00C868"/>
<path d="M233.718 348.053C233.8 347.59 233.846 347.122 233.855 346.653C233.923 345.651 234.009 344.302 234.111 342.606C234.299 338.986 234.555 333.898 234.879 327.615C235.46 314.826 236.245 297.222 237.133 277.484V277.382C236.775 275.521 236.382 273.523 235.989 271.508C231.943 250.78 228.255 231.998 225.574 218.322L222.313 202.238C221.937 200.394 221.613 198.942 221.391 197.867L221.135 196.74C221.107 196.611 221.067 196.485 221.015 196.364C220.989 196.494 220.989 196.627 221.015 196.757L221.203 197.901L221.971 202.306L224.942 218.458C227.554 232.118 231.14 250.9 235.187 271.696C235.562 273.694 235.955 275.692 236.314 277.553V277.45C235.528 297.188 234.828 314.809 234.333 327.581C234.128 333.881 233.957 338.969 233.838 342.589C233.838 344.296 233.838 345.645 233.735 346.653C233.692 347.118 233.687 347.586 233.718 348.053Z" fill="#263238"/>
<path d="M216.527 307.933C216.521 307.456 216.47 306.982 216.373 306.515C216.219 305.525 216.032 304.176 215.776 302.486C215.178 298.9 214.358 293.949 213.351 287.665C211.217 275.099 208.229 257.888 205.053 238.85C202.884 226.403 200.853 214.724 199.111 204.701V204.599C194.842 194.934 191.274 186.858 188.747 181.104C187.5 178.338 186.493 176.136 185.776 174.531L184.973 172.823C184.89 172.617 184.781 172.422 184.649 172.243C184.693 172.455 184.762 172.661 184.854 172.857C185.042 173.335 185.264 173.916 185.554 174.565C186.237 176.17 187.159 178.407 188.32 181.207C190.796 186.995 194.262 195.122 198.394 204.838C200.101 214.792 202.082 226.488 204.216 238.986C207.631 258.007 210.568 275.201 212.753 287.768C213.88 293.932 214.785 298.951 215.451 302.52L216.219 306.532C216.29 307.006 216.392 307.473 216.527 307.933Z" fill="#263238"/>
<path d="M275.449 302.918C275.569 302.832 274.254 300.954 272.41 297.795C270.007 293.582 267.941 289.186 266.229 284.648C264.526 280.19 263.112 275.628 261.995 270.988C261.141 267.386 260.748 265.132 260.612 265.149C260.526 265.686 260.526 266.234 260.612 266.771C260.714 267.813 260.936 269.298 261.295 271.125C262.23 275.892 263.572 280.571 265.307 285.109C267.036 289.654 269.197 294.022 271.761 298.154C272.769 299.742 273.622 300.971 274.271 301.791C274.92 302.61 275.449 302.969 275.449 302.918Z" fill="#263238"/>
<g opacity="0.2">
<path d="M273.109 300.421C273.386 300.481 273.646 300.603 273.87 300.778C274.093 300.953 274.274 301.176 274.399 301.43C274.524 301.685 274.589 301.965 274.59 302.248C274.592 302.532 274.529 302.812 274.407 303.068C274.114 303.565 273.675 303.96 273.149 304.199C272.623 304.437 272.037 304.507 271.47 304.4C270.336 304.165 269.296 303.601 268.482 302.778C266.008 300.237 264.242 297.094 263.359 293.66C260.747 285.43 260.628 276.586 260.525 268.048C262.91 279.319 267.139 290.118 273.041 300.012" fill="black"/>
</g>
<g opacity="0.2">
<path d="M235.786 304.434C240.752 296.112 242.924 286.419 241.984 276.773C241.062 263.626 234.676 251.606 229.913 239.329C232.644 252.237 234.215 265.06 236.742 277.473C236.742 277.473 235.428 295.931 235.393 304.109" fill="black"/>
</g>
<g opacity="0.2">
<path d="M214.578 296.199C213.246 276.529 211.898 256.825 208.432 237.429C204.918 217.576 198.23 198.418 188.625 180.691C191.101 188.477 198.733 204.834 198.733 204.834C198.733 204.834 209.746 262.887 214.527 292.186" fill="black"/>
</g>
<path d="M217.054 318.798L214.305 349.293H228.699L241.437 349.088C246.29 349.614 251.178 349.74 256.052 349.464C256.287 349.471 256.521 349.424 256.735 349.327C257.491 349.219 258.235 349.036 258.955 348.781C260.252 348.303 261.584 347.466 261.379 346.032C260.748 341.661 258.152 341.302 258.152 341.302H256.855L256.752 340.926C258.716 340.926 260.389 340.926 261.26 340.773C261.67 340.773 261.909 340.687 261.943 340.619C261.977 340.551 267.065 340.022 266.655 337.324C266.092 332.816 263.497 332.458 263.497 332.458L259.296 332.184C261.328 332.184 263.07 332.184 263.958 332.031C264.367 332.031 264.606 331.945 264.641 331.877C264.675 331.809 269.763 331.279 269.353 328.582C268.721 324.211 266.126 323.852 266.126 323.852L262.711 323.613C264.419 323.613 265.733 323.613 266.502 323.476C266.911 323.476 267.15 323.391 267.185 323.323C267.219 323.254 272.307 322.725 271.897 320.027C271.197 315.639 268.619 315.383 268.619 315.383C268.619 315.383 260.594 314.803 255.079 314.581C255.079 314.581 248.813 308.946 246.354 309.202C242.666 309.595 221.255 317.5 221.255 317.5L217.054 318.798Z" fill="#FFD1BD"/>
<path d="M244.064 340.358C246.405 340.885 248.803 341.114 251.202 341.041C253.558 341.259 255.932 341.184 258.27 340.819C255.93 340.289 253.532 340.054 251.133 340.119C248.777 339.891 246.4 339.972 244.064 340.358Z" fill="#CC8F75"/>
<path d="M244.03 331.703C247.379 332.29 250.773 332.57 254.173 332.539C257.584 332.811 261.012 332.777 264.417 332.437C261.069 331.851 257.674 331.576 254.275 331.617C250.865 331.335 247.436 331.364 244.03 331.703Z" fill="#CC8F75"/>
<g opacity="0.78">
<path d="M244.716 322.925C248.1 323.505 251.528 323.779 254.961 323.745C258.372 324.026 261.801 323.992 265.206 323.643C261.856 323.069 258.462 322.795 255.063 322.823C251.619 322.536 248.155 322.571 244.716 322.925Z" fill="#CC8F75"/>
</g>
<path d="M257.352 314.664C256.289 314.87 255.207 314.956 254.125 314.92L246.322 315.176L238.519 315.466C237.44 315.576 236.353 315.576 235.275 315.466C236.319 315.162 237.397 314.99 238.485 314.954C240.482 314.766 243.248 314.561 246.305 314.459C249.361 314.356 252.11 314.356 254.125 314.459C255.205 314.399 256.288 314.468 257.352 314.664Z" fill="#CC8F75"/>
<path d="M98.4208 66.2835C94.801 57.4902 83.3612 53.4777 74.4142 56.756C65.4672 60.0343 59.5254 69.1861 58.4497 78.6453C57.7101 83.3128 58.6802 88.0904 61.1816 92.0999C62.6791 94.0585 64.5594 95.6921 66.708 96.9015C68.8566 98.1108 71.2287 98.8705 73.68 99.1345C78.0587 99.7458 82.5212 99.1816 86.6099 97.4997C90.6987 95.8178 94.2666 93.0788 96.9478 89.5635C99.6291 86.0482 101.327 81.883 101.868 77.4951C102.409 73.1072 101.773 68.6543 100.026 64.5931" fill="#263238"/>
<path d="M62.0198 67.4413C62.0198 67.4413 62.1905 67.9024 62.6686 68.6195C63.3494 69.6169 64.1149 70.5537 64.9566 71.4197C67.7549 74.3192 71.2011 76.5136 75.0123 77.8226C78.8234 79.1316 82.8907 79.5177 86.88 78.9495C88.0779 78.778 89.26 78.5096 90.4144 78.147C90.8533 78.0477 91.2701 77.8683 91.6438 77.6177C91.6438 77.464 89.7998 78.0445 86.8118 78.3177C82.9255 78.6951 79.0034 78.235 75.31 76.9685C71.6165 75.7021 68.2374 73.6585 65.4005 70.9757C63.2662 68.9097 62.1905 67.356 62.0198 67.4413Z" fill="#455A64"/>
<path d="M58.2785 77.4799C58.2785 77.4799 58.5859 77.8555 59.2518 78.4019C60.1976 79.1785 61.1897 79.8969 62.2227 80.5533C65.6261 82.7617 69.3959 84.3459 73.3552 85.2317C75.5515 85.6724 77.7933 85.8444 80.0312 85.7439C81.8519 85.6531 83.6564 85.3552 85.4096 84.856C86.5873 84.5426 87.7312 84.1137 88.8245 83.5754C89.5929 83.1998 90.0197 82.9608 89.9856 82.9095C89.9514 82.8583 88.1757 83.5584 85.2218 84.2584C83.4949 84.6545 81.7338 84.8832 79.9629 84.9414C77.7912 84.9822 75.6215 84.7875 73.4918 84.3608C69.6294 83.4846 65.926 82.0159 62.5129 80.0069C59.9006 78.4873 58.3639 77.3604 58.2785 77.4799Z" fill="#455A64"/>
<path d="M190.76 92.5589C211.898 46.0655 161.614 22.7248 134.192 30.4595C108.41 37.7503 97.4141 50.5731 93.2138 67.8182C89.0135 85.0633 89.1672 103.674 95.9287 120.185C99.3435 128.278 105.268 136.525 113.976 137.533" fill="#263238"/>
<path d="M165.508 207.454C165.883 185.257 166.139 154.728 166.139 154.865C166.139 155.001 185.228 151.689 189.19 126.777C191.153 114.398 190.539 94.08 189.497 77.4837C188.541 62.5266 178.655 44.2058 163.749 45.7766L117.255 57.558C115.072 57.7886 113.055 58.8309 111.603 60.4784C110.152 62.1259 109.372 64.2585 109.418 66.4537L112.457 162.616" fill="#FFD1BD"/>
<path d="M178.124 95.1178C178.138 95.9447 177.832 96.7449 177.268 97.35C176.704 97.9551 175.928 98.3178 175.102 98.3619C174.698 98.3993 174.292 98.3557 173.905 98.2335C173.519 98.1114 173.161 97.9133 172.852 97.6508C172.544 97.3883 172.291 97.0668 172.108 96.7051C171.926 96.3434 171.817 95.9489 171.789 95.5447C171.771 94.7166 172.076 93.914 172.641 93.3079C173.205 92.7019 173.984 92.3404 174.812 92.3006C175.215 92.2632 175.622 92.3068 176.008 92.429C176.394 92.5511 176.752 92.7492 177.061 93.0117C177.37 93.2742 177.623 93.5957 177.805 93.9574C177.988 94.3191 178.096 94.7136 178.124 95.1178Z" fill="#263238"/>
<path d="M143.636 95.1178C143.655 95.9459 143.349 96.7485 142.785 97.3546C142.22 97.9606 141.441 98.3221 140.614 98.3619C140.211 98.3993 139.804 98.3557 139.417 98.2335C139.031 98.1114 138.673 97.9133 138.365 97.6508C138.056 97.3883 137.803 97.0668 137.62 96.7051C137.438 96.3434 137.329 95.9489 137.302 95.5447C137.287 94.7178 137.594 93.9176 138.158 93.3125C138.721 92.7074 139.498 92.3447 140.324 92.3006C140.727 92.2632 141.134 92.3068 141.52 92.429C141.907 92.5511 142.265 92.7492 142.573 93.0117C142.882 93.2742 143.135 93.5957 143.317 93.9574C143.5 94.3191 143.608 94.7136 143.636 95.1178Z" fill="#263238"/>
<path d="M164.244 112.803C166.058 112.245 167.933 111.907 169.828 111.796C170.715 111.711 171.535 111.54 171.689 110.942C171.766 110.033 171.564 109.121 171.108 108.33L168.513 101.654C164.91 92.1264 162.298 84.3064 162.673 84.1698C163.049 84.0332 166.293 91.6313 169.896 101.142C170.767 103.481 171.603 105.718 172.389 107.869C172.942 108.917 173.105 110.127 172.85 111.284C172.722 111.596 172.525 111.875 172.274 112.1C172.023 112.325 171.723 112.49 171.398 112.582C170.913 112.708 170.414 112.777 169.913 112.786C168.032 113.041 166.126 113.046 164.244 112.803Z" fill="#263238"/>
<path d="M166.173 154.964C154.442 155.139 142.891 152.054 132.81 146.051C132.81 146.051 141.262 163.416 166.173 161.06V154.964Z" fill="#CC8F75"/>
<path d="M114.184 97.8394C113.808 97.6687 100.848 91.9317 100.695 106.838C100.541 121.744 115.55 118.79 115.584 118.414C115.618 118.038 114.184 97.8394 114.184 97.8394Z" fill="#FFD1BD"/>
<path d="M111.076 112.701C111.076 112.701 110.82 112.871 110.376 113.076C109.752 113.331 109.053 113.331 108.429 113.076C106.858 112.479 105.561 109.969 105.51 107.288C105.488 106.006 105.75 104.735 106.278 103.566C106.423 103.102 106.68 102.681 107.025 102.339C107.37 101.997 107.794 101.744 108.258 101.602C108.556 101.526 108.87 101.556 109.148 101.686C109.425 101.817 109.648 102.041 109.778 102.319C109.983 102.746 109.881 103.037 109.966 103.071C110.051 103.105 110.29 102.815 110.171 102.2C110.087 101.831 109.882 101.501 109.59 101.261C109.181 100.949 108.667 100.808 108.156 100.868C107.543 100.985 106.97 101.256 106.492 101.657C106.014 102.057 105.646 102.573 105.424 103.156C104.766 104.438 104.443 105.865 104.485 107.305C104.485 110.31 106.056 113.128 108.207 113.776C108.605 113.9 109.026 113.931 109.438 113.865C109.849 113.8 110.24 113.641 110.581 113.401C111.042 113.059 111.127 112.735 111.076 112.701Z" fill="#CC8F75"/>
<path d="M163.236 122.443C162.802 123.743 162.175 124.969 161.374 126.08C160.978 126.635 160.469 127.1 159.881 127.444C159.292 127.789 158.637 128.005 157.96 128.078C157.214 128.082 156.479 127.897 155.824 127.538C155.17 127.18 154.618 126.66 154.22 126.029C153.456 124.779 153.099 123.324 153.196 121.863C153.196 120.548 153.862 118.977 155.159 118.824C155.711 118.805 156.257 118.929 156.747 119.182L163.577 121.948" fill="#CC8F75"/>
<path d="M160.503 128.056C159.262 128.15 158.015 127.999 156.832 127.612C155.635 127.14 154.651 126.248 154.066 125.102C153.752 124.395 153.59 123.63 153.59 122.856C153.59 122.083 153.752 121.318 154.066 120.611C154.225 120.248 154.425 119.904 154.664 119.587C154.937 119.296 154.886 119.313 155.176 119.365C155.466 119.416 155.91 119.655 156.286 119.792L157.413 120.253C158.881 120.85 160.213 121.362 161.323 121.789C162.499 122.365 163.762 122.74 165.062 122.899C164.031 122.086 162.879 121.44 161.647 120.987C160.571 120.457 159.274 119.86 157.84 119.279L156.73 118.784C156.319 118.59 155.897 118.418 155.466 118.272C155.139 118.161 154.785 118.161 154.459 118.272C154.158 118.406 153.895 118.611 153.69 118.87C153.388 119.279 153.131 119.72 152.922 120.184C152.55 121.057 152.376 122.002 152.415 122.95C152.453 123.898 152.702 124.825 153.144 125.665C153.868 127.016 155.095 128.028 156.559 128.482C157.521 128.788 158.547 128.83 159.53 128.602C160.196 128.363 160.52 128.124 160.503 128.056Z" fill="#263238"/>
<path d="M97.4485 87.6224C98.9852 87.5199 111.296 89.1078 110.323 112.005C109.418 133.399 94.4264 128.686 89.6285 120.644C85.1038 113.012 82.5085 88.681 97.4485 87.6224Z" fill="#455A64"/>
<path d="M89.8345 90.3429C89.852 90.1441 89.852 89.9441 89.8345 89.7453C89.8345 89.2843 89.8345 88.7208 89.8345 88.0379C89.8345 86.467 89.937 84.2644 90.0224 81.5154C90.1248 75.898 90.2785 68.095 90.4663 59.0627L90.1931 59.3359H96.6814L96.3911 59.0456C96.3911 60.753 96.2887 62.5458 96.2545 64.3728C96.0325 72.91 95.8277 80.952 95.674 87.6622V87.85H95.8789C98.4776 88.4547 100.788 89.9384 102.418 92.0503C103.645 93.7042 104.533 95.5842 105.031 97.5824C105.359 98.8655 105.581 100.173 105.697 101.492C105.697 101.953 105.697 102.295 105.697 102.534C105.697 102.773 105.697 102.893 105.697 102.893C105.718 102.774 105.718 102.652 105.697 102.534C105.697 102.295 105.697 101.953 105.697 101.475C105.632 100.141 105.449 98.8158 105.15 97.5141C104.689 95.4624 103.811 93.5272 102.572 91.8284C100.888 89.5881 98.4709 88.0108 95.7423 87.372L95.9301 87.611C96.1179 80.9178 96.3569 72.927 96.596 64.3386C96.596 62.5117 96.6984 60.7018 96.7326 58.9944V58.7041H89.8175V58.9773C89.715 67.9926 89.6297 75.8126 89.5614 81.4301C89.5614 84.179 89.5614 86.3816 89.5614 87.9525V89.6599C89.6322 89.8952 89.7236 90.1237 89.8345 90.3429Z" fill="#455A64"/>
<path d="M97.4469 59.0128C102.067 49.3304 109.723 41.4222 119.251 36.4917C125.118 33.5622 131.283 31.2724 137.64 29.662C137.64 29.662 128.676 27.5447 114.18 33.9818C107.606 36.9186 100.964 40.8115 96.5761 46.446C93.793 50.0829 90.3098 57.1687 90.3269 58.9957L97.4469 59.0128Z" fill="#455A64"/>
<path d="M99.0876 127.032C99.2417 127.02 99.3923 126.98 99.5315 126.912C99.9291 126.746 100.312 126.546 100.675 126.315C102.004 125.446 103.11 124.276 103.903 122.9C105.026 120.827 105.701 118.541 105.883 116.19C106.139 113.35 106.139 110.493 105.883 107.653C105.642 104.807 105.168 101.986 104.466 99.2179C103.974 96.9231 103.146 94.7137 102.007 92.6613C101.209 91.2838 100.098 90.1139 98.7631 89.2464C98.4038 89.0123 98.0203 88.8177 97.6192 88.6659C97.48 88.5985 97.3294 88.558 97.1752 88.5464C97.1752 88.5464 97.7387 88.8025 98.6436 89.4343C99.8849 90.3419 100.916 91.5067 101.666 92.8491C102.722 94.8909 103.492 97.0684 103.954 99.3203C104.62 102.071 105.077 104.867 105.32 107.687C105.55 110.499 105.55 113.326 105.32 116.139C105.17 118.43 104.554 120.667 103.51 122.712C102.773 124.059 101.747 125.225 100.505 126.127C99.5827 126.776 99.0705 126.981 99.0876 127.032Z" fill="#263238"/>
<path d="M148.474 123.579L160.269 125.893C161.842 126.201 162.868 127.727 162.559 129.3L162.385 130.188C162.076 131.761 160.551 132.786 158.978 132.478L147.182 130.163C145.609 129.855 144.584 128.329 144.893 126.756L145.067 125.868C145.375 124.295 146.901 123.27 148.474 123.579Z" fill="#455A64"/>
<path d="M146.538 125.308L94.205 108.882C93.8923 108.778 93.5621 108.738 93.2335 108.762C92.905 108.787 92.5846 108.877 92.2908 109.026C91.9971 109.175 91.7358 109.381 91.5222 109.632C91.3086 109.883 91.1468 110.173 91.0462 110.487C90.9446 110.805 90.9085 111.141 90.94 111.474C90.9714 111.806 91.0699 112.129 91.2294 112.422C91.389 112.716 91.6062 112.974 91.8682 113.181C92.1301 113.389 92.4313 113.541 92.7537 113.629L146.282 128.091L146.538 125.308Z" fill="#455A64"/>
<path d="M107.863 118.085C107.307 117.852 106.736 117.652 106.156 117.488L101.375 116.019C99.3601 115.405 96.9014 114.756 94.289 113.902C93.6526 113.671 93.0712 113.311 92.5816 112.844C92.1048 112.356 91.8408 111.699 91.8474 111.017C91.8475 110.685 91.9513 110.362 92.1442 110.093C92.3371 109.823 92.6094 109.621 92.9231 109.514C93.6386 109.32 94.3931 109.32 95.1086 109.514L110.8 114.636L115.581 116.122C116.139 116.315 116.709 116.469 117.288 116.583C116.737 116.313 116.166 116.085 115.581 115.9L110.851 114.192C106.856 112.844 101.358 110.948 95.1769 109.07C94.3587 108.822 93.4852 108.822 92.667 109.07C92.2451 109.213 91.8784 109.483 91.6181 109.845C91.3579 110.206 91.2172 110.64 91.2156 111.085C91.2101 111.497 91.2873 111.905 91.4428 112.287C91.5982 112.668 91.8287 113.014 92.1206 113.305C92.6654 113.831 93.3178 114.233 94.0329 114.483C96.7307 115.336 99.1552 115.917 101.187 116.497L106.019 117.778C106.622 117.94 107.24 118.043 107.863 118.085Z" fill="#263238"/>
<path d="M135.32 87.8628C135.73 88.4946 139.316 86.5481 143.755 87.3335C148.194 88.1189 150.943 91.124 151.524 90.663C151.814 90.4752 151.524 89.3653 150.329 88.0165C148.713 86.2704 146.563 85.1111 144.216 84.7211C141.885 84.3013 139.481 84.674 137.386 85.7797C135.764 86.5822 135.115 87.5896 135.32 87.8628Z" fill="#CC8F75"/>
<path d="M135.83 88.4256C136.656 88.2718 137.472 88.0665 138.272 87.8109C140.218 87.38 142.234 87.38 144.18 87.8109C146.113 88.2654 147.924 89.1334 149.49 90.355C150.702 91.3112 151.334 92.0624 151.436 91.96C151.539 91.8575 151.061 91.0038 149.9 89.8769C148.353 88.4203 146.444 87.4061 144.371 86.9405C142.299 86.4749 140.139 86.575 138.118 87.2304C136.582 87.7085 135.779 88.289 135.83 88.4256Z" fill="#263238"/>
<path d="M133.527 78.4109C133.902 79.6061 137.71 79.5207 142.235 79.7427C146.759 79.9646 150.584 80.2208 151.011 79.0597C151.216 78.4792 150.43 77.6084 148.876 76.823C144.753 74.9613 140.063 74.7897 135.815 76.3449C134.21 77.0108 133.373 77.8304 133.527 78.4109Z" fill="#263238"/>
<path d="M171.074 90.4916C171.416 90.6795 172.082 90.0477 173.174 89.2964C174.523 88.3489 176.071 87.7238 177.699 87.4695C181.558 86.8378 184.665 88.6135 185.109 87.9817C185.314 87.7256 184.785 86.8377 183.402 85.984C181.554 84.9005 179.388 84.4903 177.272 84.823C175.118 85.1239 173.165 86.2504 171.826 87.9647C170.869 89.2965 170.784 90.338 171.074 90.4916Z" fill="#CC8F75"/>
<path d="M170.645 92.3356C170.764 92.3356 171.345 91.5672 172.557 90.4915C174.107 89.0886 175.999 88.1169 178.042 87.6734C180.085 87.23 182.209 87.3304 184.202 87.9646C185.738 88.4426 186.626 88.9719 186.695 88.8524C186.763 88.7329 185.995 88.0329 184.407 87.367C182.324 86.5377 180.041 86.3475 177.85 86.8206C175.656 87.2934 173.656 88.4183 172.113 90.0476C171.422 90.6601 170.914 91.452 170.645 92.3356Z" fill="#263238"/>
<path d="M169.11 79.911C169.332 81.1233 172.968 81.4819 177.271 81.5331C181.574 81.5843 185.228 81.2599 185.467 80.0306C185.706 78.8012 182.052 77.1108 177.305 77.0767C172.559 77.0425 168.871 78.7158 169.11 79.911Z" fill="#263238"/>
<path d="M128.898 44.58C131.799 48.5035 134.101 52.8365 135.727 57.437C136.526 59.7432 136.81 62.1963 136.559 64.624C136.308 67.0516 135.529 69.3949 134.276 71.4892C131.647 75.3309 127.156 77.3628 123.058 79.5995C118.96 81.8363 114.777 84.9096 113.753 89.4514C113.445 90.8686 114.043 95.8543 112.984 96.8446C111.516 98.1935 108.938 97.3568 107.862 95.7006C106.786 94.0444 106.018 88.5636 105.984 86.5659L105.728 67.9548C105.728 62.6959 105.728 57.2492 107.999 52.5879C111.192 45.963 117.782 43.8458 127.412 44.3239" fill="#263238"/>
<path d="M190.08 81.9381C189.348 75.604 186.905 69.5889 183.011 64.5394C179.076 59.4957 173.402 56.0991 167.098 55.0119C160.815 54.0557 154.463 55.7973 148.111 56.1559C141.76 56.5144 134.554 54.9607 131.242 49.5481C130.2 47.8407 129.722 45.4844 131.037 44.016C131.57 43.4877 132.203 43.0699 132.898 42.7866C141.322 38.6966 150.762 37.1708 160.046 38.3985C169.364 39.6874 177.855 44.4358 183.831 51.6995C186.763 55.3489 188.827 59.6167 189.868 64.1806C190.909 68.7445 190.9 73.4854 189.841 78.0452" fill="#263238"/>
<path d="M193.852 72.5873C193.984 72.3339 194.081 72.064 194.142 71.7848C194.374 70.9908 194.545 70.1803 194.654 69.3603C195.023 66.3175 194.732 63.231 193.801 60.3109C192.417 55.9456 189.817 52.0657 186.305 49.1272C182.004 45.5364 176.812 43.1764 171.279 42.2974C165.787 41.4535 160.182 41.703 154.786 43.0316C152.468 43.5844 150.187 44.2801 147.956 45.1147C145.822 45.9001 143.926 46.8221 142.099 47.249C139.221 48.0325 136.226 48.2985 133.255 48.0344C132.185 47.8108 131.187 47.3237 130.352 46.6172C130.51 46.863 130.706 47.082 130.933 47.2661C131.58 47.8085 132.346 48.189 133.169 48.3759C136.209 48.7949 139.3 48.6151 142.27 47.8466C144.148 47.3856 146.095 46.5489 148.195 45.8147C150.43 45.0179 152.71 44.3565 155.025 43.8341C160.321 42.5734 165.812 42.3473 171.194 43.1682C176.561 44.0055 181.61 46.2502 185.827 49.6735C189.251 52.4948 191.823 56.2134 193.254 60.4133C194.225 63.2426 194.597 66.2429 194.347 69.2237C194.108 71.4263 193.766 72.5703 193.852 72.5873Z" fill="#455A64"/>
<path d="M166.295 33.4164C165.79 33.2323 165.26 33.1286 164.724 33.1091C163.276 32.961 161.817 32.961 160.37 33.1091C155.538 33.5688 150.939 35.4059 147.12 38.4021C144.918 40.1096 143.074 42.0731 141.11 43.3878C139.366 44.5372 137.409 45.3267 135.356 45.71C133.982 46.0394 132.562 46.1375 131.156 46.0002C130.165 45.8807 129.67 45.6075 129.619 45.6758C130.033 46.0369 130.543 46.2685 131.087 46.3417C132.537 46.6186 134.026 46.6186 135.475 46.3417C137.644 46.03 139.721 45.2619 141.571 44.0879C143.637 42.739 145.532 40.8267 147.667 39.1193C151.374 36.2296 155.781 34.3738 160.438 33.7409C164.024 33.2457 166.278 33.6555 166.295 33.4164Z" fill="#455A64"/>
<path d="M90.8917 79.1382C90.8917 79.1382 91.2331 78.5577 91.9503 77.6015C93.0084 76.2818 94.3666 75.234 95.9115 74.5452C98.2005 73.5343 100.684 73.0389 103.185 73.0939C106.282 73.2662 109.36 73.6888 112.388 74.3574C115.486 75.0412 118.665 75.2826 121.83 75.0745C124.411 74.8518 126.944 74.2417 129.343 73.2647C130.957 72.6106 132.497 71.7864 133.936 70.806C134.506 70.4599 135.013 70.0214 135.439 69.5083C133.421 70.6922 131.321 71.7307 129.155 72.6158C126.786 73.4753 124.31 74.0039 121.796 74.1867C118.708 74.3472 115.612 74.0887 112.593 73.4183C109.517 72.7332 106.385 72.3274 103.236 72.2061C100.617 72.1808 98.0272 72.7653 95.6725 73.9135C94.0756 74.692 92.7057 75.8679 91.6942 77.3284C91.4414 77.7298 91.2243 78.1526 91.0453 78.5919C90.9087 78.9675 90.8575 79.1382 90.8917 79.1382Z" fill="#455A64"/>
<path d="M93.5895 67.1913C93.5895 67.1913 93.9139 66.6108 94.6481 65.6888C95.7236 64.4423 97.0901 63.4805 98.6264 62.8886C100.928 62.0402 103.403 61.7762 105.832 62.1203C108.581 62.3934 111.569 63.2301 114.796 63.8277C117.852 64.529 121.033 64.4821 124.067 63.6911C126.528 62.9323 128.752 61.5501 130.521 59.6786C131.717 58.4485 132.682 57.0145 133.373 55.4442C133.522 55.0203 133.641 54.5868 133.731 54.1465C133.761 53.9886 133.761 53.8264 133.731 53.6685C132.784 55.7339 131.49 57.6221 129.907 59.2518C128.158 60.963 126.019 62.2229 123.674 62.9228C120.751 63.6259 117.702 63.6259 114.779 62.9228C111.62 62.3252 108.598 61.5056 105.729 61.2153C103.18 60.8997 100.593 61.2467 98.2166 62.2227C96.6132 62.8933 95.2251 63.992 94.2041 65.3985C93.848 65.9331 93.6362 66.5507 93.5895 67.1913Z" fill="#455A64"/>
<path d="M157.635 237.951L157.31 237.677L156.371 236.926C155.176 235.943 154.035 234.894 152.956 233.784C151.202 231.99 149.566 230.086 148.056 228.082C146.349 225.759 144.351 222.959 142.251 219.852C138.05 213.637 133.133 206.056 127.908 197.331C125.296 192.96 122.598 188.298 119.883 183.381C119.2 182.152 118.534 180.905 117.834 179.659C117.178 178.345 116.394 177.098 115.495 175.937C114.559 174.738 113.305 173.827 111.875 173.307C111.144 173.017 110.348 172.928 109.57 173.051C109.16 173.15 108.783 173.356 108.478 173.649C108.2 173.977 107.996 174.361 107.88 174.775V174.861C108.045 175.384 108.319 175.867 108.683 176.278C109.075 176.699 109.612 176.955 110.185 176.995C111.257 176.993 112.296 176.632 113.139 175.971C114.018 175.341 114.67 174.443 114.996 173.412C115.323 172.381 115.306 171.272 114.949 170.251C114.576 169.174 113.798 168.286 112.78 167.775C111.788 167.259 110.65 167.096 109.553 167.314C108.977 167.402 108.432 167.637 107.972 167.996C107.511 168.354 107.151 168.825 106.924 169.363C106.806 169.669 106.779 170.002 106.846 170.323C106.912 170.644 107.07 170.939 107.3 171.173C107.726 171.586 108.257 171.876 108.836 172.009C109.806 172.231 110.821 172.127 111.725 171.713C112.63 171.299 113.372 170.6 113.839 169.721C114.304 168.815 114.414 167.768 114.146 166.785C113.885 165.828 113.351 164.968 112.61 164.309C111.883 163.654 110.941 163.289 109.963 163.284C109.468 163.289 108.981 163.41 108.542 163.639C108.103 163.867 107.724 164.196 107.436 164.599C107.139 165.046 107.028 165.592 107.129 166.119C107.175 166.378 107.272 166.625 107.416 166.845C107.56 167.065 107.747 167.253 107.965 167.399C108.365 167.674 108.825 167.849 109.307 167.908C109.788 167.967 110.277 167.91 110.731 167.741C111.171 167.55 111.565 167.269 111.888 166.916C112.212 166.563 112.458 166.146 112.61 165.692C112.905 164.818 113.044 163.899 113.019 162.977C113.071 161.176 112.602 159.397 111.671 157.855C111.176 157.08 110.418 156.51 109.536 156.25C109.097 156.153 108.644 156.144 108.201 156.223C107.759 156.302 107.336 156.468 106.958 156.711C106.55 156.938 106.213 157.273 105.984 157.68C105.754 158.087 105.643 158.549 105.66 159.016C105.718 159.478 105.91 159.912 106.214 160.265C106.518 160.617 106.919 160.872 107.368 160.996C107.787 161.138 108.234 161.176 108.671 161.107C109.108 161.039 109.522 160.866 109.878 160.604C110.554 160.048 111.003 159.265 111.141 158.401C111.276 157.57 111.2 156.719 110.919 155.925C110.725 155.145 110.444 154.39 110.083 153.672C109.712 152.962 109.15 152.371 108.461 151.964C107.794 151.548 107.04 151.291 106.258 151.213C105.853 151.155 105.44 151.208 105.063 151.367C104.706 151.564 104.397 151.838 104.158 152.169C103.918 152.495 103.749 152.867 103.663 153.262C103.549 153.68 103.597 154.125 103.799 154.508C104.026 154.845 104.35 155.105 104.729 155.251C105.108 155.398 105.522 155.425 105.917 155.328C106.654 155.2 107.333 154.848 107.863 154.32C108.889 153.296 109.498 151.927 109.57 150.479C109.668 149.09 109.301 147.709 108.529 146.552C108.146 146 107.652 145.534 107.078 145.186C106.507 144.868 105.869 144.692 105.216 144.673C104.562 144.632 103.914 144.825 103.39 145.22C103.136 145.424 102.934 145.685 102.801 145.981C102.667 146.278 102.606 146.602 102.621 146.927C102.711 147.541 103 148.107 103.445 148.54C103.889 148.972 104.464 149.245 105.08 149.318C105.65 149.35 106.217 149.217 106.714 148.936C107.21 148.654 107.615 148.235 107.88 147.73C108.42 146.819 108.665 145.763 108.58 144.708C108.216 142.918 107.589 141.192 106.719 139.585L104.858 135.351C103.748 132.824 102.86 130.86 102.263 129.511L101.58 127.992C101.503 127.817 101.418 127.646 101.324 127.479C101.379 127.66 101.448 127.837 101.528 128.009L102.16 129.546L104.653 135.436L106.412 139.517C107.223 141.134 107.798 142.859 108.119 144.639C108.197 145.625 107.964 146.61 107.453 147.456C107.215 147.9 106.856 148.267 106.418 148.515C105.98 148.762 105.48 148.881 104.977 148.857C104.456 148.787 103.971 148.552 103.593 148.186C103.215 147.821 102.964 147.344 102.877 146.825C102.866 146.558 102.917 146.293 103.027 146.05C103.137 145.807 103.302 145.592 103.509 145.425C103.964 145.111 104.51 144.955 105.063 144.981C105.661 145.005 106.246 145.169 106.77 145.459C107.287 145.782 107.735 146.206 108.085 146.705C108.795 147.779 109.125 149.059 109.024 150.342C108.966 151.673 108.412 152.934 107.47 153.876C107.007 154.339 106.41 154.644 105.763 154.747C105.453 154.84 105.122 154.834 104.816 154.73C104.51 154.626 104.244 154.429 104.055 154.167C103.962 153.878 103.943 153.57 103.999 153.271C104.056 152.973 104.187 152.694 104.38 152.459C104.573 152.191 104.824 151.969 105.114 151.81C105.417 151.689 105.747 151.648 106.07 151.691C106.787 151.749 107.478 151.99 108.075 152.391C108.673 152.791 109.158 153.338 109.485 153.979C109.829 154.659 110.098 155.375 110.288 156.113C110.535 156.832 110.599 157.6 110.475 158.35C110.362 159.083 109.978 159.747 109.4 160.211C109.113 160.426 108.778 160.569 108.424 160.625C108.07 160.682 107.707 160.651 107.368 160.535C107.02 160.443 106.707 160.249 106.47 159.979C106.233 159.708 106.082 159.373 106.036 159.016C106.033 158.649 106.129 158.288 106.316 157.972C106.502 157.656 106.772 157.397 107.095 157.223C107.739 156.816 108.517 156.675 109.263 156.83C110.009 157.075 110.649 157.569 111.073 158.23C111.93 159.687 112.362 161.355 112.319 163.045C112.338 163.893 112.205 164.737 111.927 165.538C111.8 165.912 111.599 166.257 111.334 166.55C111.07 166.844 110.749 167.081 110.39 167.246C110.018 167.378 109.62 167.421 109.228 167.37C108.837 167.32 108.463 167.178 108.136 166.955C107.98 166.849 107.846 166.713 107.743 166.555C107.639 166.397 107.568 166.22 107.533 166.035C107.498 165.849 107.501 165.658 107.54 165.473C107.579 165.289 107.654 165.113 107.761 164.958C107.998 164.632 108.309 164.367 108.668 164.183C109.026 163.999 109.423 163.902 109.827 163.899C110.667 163.906 111.476 164.222 112.097 164.787C112.796 165.319 113.287 166.077 113.489 166.932C113.69 167.786 113.589 168.684 113.202 169.472C112.815 170.26 112.166 170.89 111.367 171.253C110.568 171.616 109.667 171.69 108.819 171.463C108.344 171.364 107.906 171.134 107.556 170.797C107.407 170.641 107.306 170.445 107.264 170.234C107.221 170.023 107.24 169.803 107.317 169.602C107.508 169.154 107.811 168.761 108.197 168.463C108.582 168.164 109.037 167.968 109.519 167.894C110.486 167.686 111.495 167.829 112.365 168.299C113.236 168.768 113.91 169.533 114.266 170.456C114.59 171.378 114.598 172.382 114.289 173.309C113.98 174.236 113.371 175.035 112.558 175.578C111.82 176.166 110.907 176.49 109.963 176.5C109.524 176.433 109.115 176.234 108.792 175.929C108.468 175.624 108.245 175.227 108.153 174.793V174.946C108.221 174.633 108.375 174.345 108.599 174.116C108.822 173.887 109.106 173.725 109.417 173.649C110.098 173.551 110.792 173.634 111.432 173.888C112.778 174.361 113.963 175.208 114.846 176.329C115.712 177.468 116.477 178.679 117.134 179.949C117.817 181.212 118.5 182.459 119.183 183.688C121.915 188.606 124.63 193.25 127.259 197.621C132.501 206.346 137.504 213.893 141.704 220.108C143.839 223.198 145.768 225.981 147.595 228.304C149.135 230.292 150.8 232.179 152.581 233.955C154.121 235.46 155.815 236.799 157.635 237.951Z" fill="#263238"/>
<rect x="23" y="348" width="314" height="13" rx="5" fill="#455A64"/>
</svg>
