<svg width="360" height="361" viewBox="0 0 360 361" fill="none" xmlns="http://www.w3.org/2000/svg">
<path opacity="0.7" d="M110.222 21.8525C110.222 21.8525 46.6047 54.2416 14.8757 104.151C-16.8534 154.06 -14.343 218.268 24.2122 265.929C62.7673 313.589 136.46 307.33 198.164 337.52C259.867 367.711 327.943 361.493 357.12 297.529C386.296 233.565 342.3 209.659 334.744 135.634C327.187 61.6088 260.413 -46.7856 110.222 21.8525Z" fill="#F1F68D"/>
<path d="M185.891 211.568L174.23 254.254L131.629 196.73L141.669 347.565H202.488L220.211 348.419C220.211 348.419 217.581 324.652 216.506 311.214C215.849 300.488 214.04 289.863 211.11 279.524C202.027 249.985 185.891 211.568 185.891 211.568Z" fill="#FAFAFA"/>
<path d="M172.162 278.326C172.008 278.514 178.889 284.046 187.528 290.688C196.168 297.33 203.254 302.538 203.408 302.35C203.561 302.162 196.697 296.613 188.041 289.988C179.384 283.363 172.315 278.121 172.162 278.326Z" fill="#263238"/>
<path d="M66.2917 190.768L99.4159 174.838L112.41 159.402L130.782 178.491L179.512 347.135H95.9498L85.2442 318.194L66.2917 206.459V190.768Z" fill="#D7DF23"/>
<path d="M215.345 349.532L217.582 313.676L116.656 296.601C116.656 296.601 99.4104 213.313 88.7902 199.67C78.9724 187.069 66.2008 191.44 66.2008 191.44C66.2008 191.44 54.6756 199.329 57.4246 229.533C58.8759 245.361 64.6642 300.204 66.7472 320.027C67.259 324.774 68.8348 329.343 71.3573 333.397C74.1987 337.96 78.1554 341.724 82.8543 344.335C87.5533 346.946 92.8397 348.317 98.2152 348.32L215.345 349.532Z" fill="#D7DF23"/>
<path d="M100.165 317.479C100.319 317.479 100.455 315.891 101.189 313.449C102.131 310.261 103.723 307.303 105.866 304.761C108.008 302.219 110.654 300.148 113.636 298.68C115.924 297.536 117.495 297.143 117.444 296.973C116.03 297.083 114.65 297.466 113.38 298.1C110.212 299.452 107.405 301.528 105.184 304.161C102.963 306.794 101.39 309.911 100.592 313.262C100.182 314.627 100.037 316.059 100.165 317.479Z" fill="#263238"/>
<g opacity="0.2">
<path d="M102.009 177.262C102.962 187.803 104.982 198.22 108.036 208.354L115.617 206.134C114.177 208.452 113.234 211.043 112.846 213.744C112.458 216.445 112.634 219.197 113.363 221.826C114.844 227.07 117.051 232.082 119.92 236.715C132.441 259.264 144.996 281.825 157.586 304.397L119.613 218.172L120.603 202.224L113.295 200.671L102.009 177.262Z" fill="black"/>
</g>
<g opacity="0.2">
<path d="M116.976 295.693C112.341 295.427 107.756 296.768 103.995 299.49C100.234 302.211 97.5279 306.148 96.3327 310.633C95.9812 311.686 95.9812 312.825 96.3327 313.878C96.5227 314.395 96.9008 314.821 97.3915 315.071C97.8822 315.321 98.4492 315.376 98.9792 315.227C99.6948 314.776 100.218 314.077 100.448 313.263C102.129 309.502 104.549 306.117 107.564 303.31C110.58 300.503 114.128 298.331 118 296.923" fill="black"/>
</g>
<path d="M157.312 303.585C157.172 303.113 157.001 302.651 156.8 302.202L155.093 298.292L148.963 284.035L128.371 237.097C125.435 230.438 122.6 224.018 119.937 218.008V218.196C120.261 212.527 120.586 207.2 120.876 202.266V201.924H120.568L113.244 200.405L113.483 200.592L104.382 182.169L101.838 177.132L101.138 175.835C101.064 175.68 100.979 175.532 100.882 175.391C100.909 175.559 100.967 175.721 101.053 175.869L101.65 177.218C102.231 178.464 103.016 180.189 104.023 182.34L112.851 200.9V201.053H113.022L120.329 202.641L120.022 202.249C119.715 207.183 119.373 212.493 118.998 218.179V218.281V218.384C121.661 224.411 124.479 230.831 127.415 237.49L148.229 284.325C150.91 290.233 153.078 295.048 154.632 298.48L156.339 302.304C156.631 302.755 156.956 303.183 157.312 303.585Z" fill="#263238"/>
<path d="M215.431 348.398C215.473 348.201 215.502 348.001 215.516 347.8C215.516 347.356 215.516 346.776 215.653 346.093C215.772 344.488 215.943 342.234 216.148 339.263C216.541 333.372 217.104 324.921 217.855 314.522V314.232H217.582L144.555 300.812L117.629 295.928L117.971 296.253C112.046 273.766 106.923 254.25 103.235 240.283C101.391 233.453 99.8205 227.87 98.8814 224.011C98.3521 222.15 97.9594 220.699 97.6691 219.657L97.3447 218.53L97.2081 218.172C97.1855 218.302 97.1855 218.435 97.2081 218.565L97.4642 219.691C97.7203 220.75 98.0789 222.218 98.5399 224.08L102.655 240.42C106.258 254.404 111.294 273.954 117.083 296.458V296.731H117.356L144.35 301.717L217.394 314.864L217.121 314.522C216.558 324.938 216.097 333.39 215.772 339.297C215.636 342.183 215.533 344.42 215.465 346.042C215.465 346.776 215.465 347.356 215.465 347.749C215.432 347.964 215.42 348.181 215.431 348.398Z" fill="#263238"/>
<path d="M71.3772 187.987C71.3772 188.141 73.0846 188.397 75.6458 189.353C79.002 190.611 82.0766 192.52 84.6932 194.97C87.3098 197.419 89.4168 200.362 90.8932 203.628C92.0201 206.137 92.3786 207.845 92.6006 207.794C92.8226 207.742 92.6006 207.367 92.4811 206.581C92.2697 205.49 91.9552 204.421 91.542 203.389C90.1756 199.95 88.0668 196.855 85.3661 194.326C82.6655 191.796 79.4396 189.894 75.9189 188.756C74.8614 188.416 73.7758 188.17 72.6748 188.022C71.8211 187.936 71.3942 187.919 71.3772 187.987Z" fill="#263238"/>
<path d="M262.199 150.031C259.211 144.516 260.492 122.251 255.933 123.037C250.042 124.044 255.489 147.453 255.933 149.587C256.377 151.722 253.218 152.234 252.996 150.304C252.655 147.521 249.24 120.288 243.452 121.824C240.242 122.661 241.744 128.517 241.744 128.517C241.744 128.517 246.73 154.914 243.964 155.546C241.198 156.178 239.098 140.965 237.868 135.433C236.639 129.901 233.224 127.835 231.909 130.635C229.997 134.733 233.617 148.033 234.778 153.361C235.939 158.688 238.637 174.14 231.141 168.096C223.645 162.052 215.774 160.173 213.196 161.147C210.618 162.12 211.266 165.927 214.135 166.679C217.172 167.815 220.044 169.354 222.672 171.255C224.758 172.809 226.66 174.596 228.341 176.582C230.578 179.042 232.39 181.858 233.702 184.914C234.767 187.328 236.33 189.489 238.29 191.255C240.25 193.02 242.562 194.351 245.074 195.159L249.445 215.955L277.754 209.894L271.453 187.885C269.148 173.423 270.412 153.992 270.395 145.199C270.395 131.096 268.534 130.993 266.98 131.369C263.207 132.103 265.119 155.41 262.199 150.031Z" fill="#FFD1BD"/>
<path d="M263 168.951C261.708 169.44 260.447 170.011 259.227 170.658C256.351 172.432 254.114 175.075 252.841 178.205C252.472 179.169 252.187 180.163 251.987 181.176L251.902 181.654L251.492 181.432C249.224 180.099 246.748 179.158 244.167 178.649C242.238 178.273 241.042 178.239 241.042 178.137C242.099 177.956 243.179 177.956 244.235 178.137C246.91 178.521 249.488 179.408 251.833 180.749L251.338 181.005C251.516 179.93 251.808 178.877 252.209 177.863C252.951 176.077 254.003 174.435 255.317 173.014C256.394 171.877 257.637 170.91 259.005 170.146C259.91 169.648 260.874 169.264 261.873 169.002C262.243 168.922 262.624 168.905 263 168.951Z" fill="#CC8F75"/>
<path d="M266.758 188.754C262.673 191.537 257.853 193.041 252.911 193.074C252.911 192.869 256.138 192.494 259.962 191.281C263.787 190.069 266.672 188.566 266.758 188.754Z" fill="#CC8F75"/>
<path d="M164.278 168.269L185.895 211.57L174.233 254.238L143.174 221.422L112.56 164.547L164.278 168.269Z" fill="#FFD1BD"/>
<path d="M184.63 172.328C184.63 172.328 215.364 183.256 215.364 185.288C220.794 189.539 238.875 233.267 244.629 241.531L261.089 265.862L247.293 212.009L277.634 203.096C277.634 203.096 303.553 265.623 306.695 279.521C308.594 287.773 308.418 296.368 306.182 304.535L306.012 304.399C304.066 310.636 300.056 316.025 294.64 319.68C281.783 327.927 269.763 329.481 257.469 320.397C250.503 315.275 242.546 309.043 235.273 303.238L233.36 348.45H216.61C216.61 345.906 217.123 314.933 217.123 314.933C214.924 307.605 213.212 300.138 212 292.583C210.481 281.929 185.518 211.958 185.518 211.958L166.173 174.633L165.712 160.82L184.63 172.328Z" fill="#D7DF23"/>
<path d="M233.718 348.052C233.8 347.589 233.845 347.121 233.855 346.652C233.923 345.65 234.008 344.301 234.111 342.605C234.298 338.985 234.555 333.897 234.879 327.614C235.46 314.825 236.245 297.221 237.133 277.484V277.381C236.774 275.52 236.382 273.522 235.989 271.507C231.942 250.779 228.254 231.997 225.573 218.321L222.312 202.237C221.937 200.393 221.612 198.941 221.39 197.866L221.134 196.739C221.106 196.61 221.066 196.484 221.015 196.363C220.988 196.493 220.988 196.626 221.015 196.756L221.202 197.9L221.971 202.305L224.942 218.457C227.554 232.117 231.14 250.899 235.186 271.695C235.562 273.693 235.955 275.691 236.313 277.552V277.449C235.528 297.187 234.828 314.808 234.333 327.58C234.128 333.88 233.957 338.968 233.837 342.588C233.837 344.295 233.837 345.644 233.735 346.652C233.692 347.117 233.686 347.585 233.718 348.052Z" fill="#263238"/>
<path d="M216.527 307.932C216.522 307.456 216.47 306.981 216.374 306.515C216.22 305.525 216.032 304.176 215.776 302.485C215.178 298.9 214.359 293.948 213.352 287.665C211.217 275.098 208.229 257.887 205.053 238.849C202.885 226.402 200.853 214.723 199.111 204.701V204.598C194.843 194.934 191.274 186.858 188.747 181.104C187.501 178.338 186.494 176.135 185.776 174.53L184.974 172.823C184.89 172.616 184.781 172.421 184.65 172.242C184.694 172.454 184.763 172.661 184.854 172.857C185.042 173.335 185.264 173.915 185.554 174.564C186.237 176.169 187.159 178.406 188.321 181.206C190.796 186.994 194.262 195.122 198.394 204.837C200.102 214.791 202.082 226.487 204.217 238.986C207.632 258.007 210.568 275.201 212.754 287.767C213.881 293.931 214.786 298.951 215.452 302.52L216.22 306.532C216.29 307.005 216.393 307.473 216.527 307.932Z" fill="#263238"/>
<path d="M275.449 302.917C275.569 302.832 274.254 300.953 272.41 297.795C270.007 293.582 267.941 289.186 266.229 284.647C264.526 280.19 263.112 275.627 261.995 270.988C261.141 267.385 260.748 265.131 260.612 265.149C260.526 265.686 260.526 266.233 260.612 266.771C260.714 267.812 260.936 269.298 261.295 271.125C262.23 275.892 263.572 280.57 265.307 285.108C267.036 289.654 269.197 294.022 271.761 298.153C272.769 299.741 273.623 300.971 274.271 301.79C274.92 302.61 275.449 302.968 275.449 302.917Z" fill="#263238"/>
<g opacity="0.2">
<path d="M273.108 300.42C273.385 300.48 273.646 300.602 273.869 300.776C274.092 300.951 274.273 301.174 274.398 301.429C274.523 301.683 274.588 301.963 274.59 302.247C274.591 302.53 274.528 302.811 274.406 303.066C274.113 303.564 273.674 303.959 273.148 304.197C272.623 304.436 272.036 304.506 271.469 304.398C270.335 304.164 269.295 303.6 268.481 302.776C266.007 300.236 264.241 297.093 263.359 293.658C260.746 285.429 260.627 276.584 260.524 268.047C262.909 279.317 267.138 290.117 273.04 300.01" fill="black"/>
</g>
<g opacity="0.2">
<path d="M235.787 304.433C240.753 296.111 242.925 286.418 241.985 276.772C241.063 263.625 234.677 251.605 229.913 239.328C232.645 252.236 234.216 265.059 236.743 277.472C236.743 277.472 235.429 295.93 235.394 304.108" fill="black"/>
</g>
<g opacity="0.2">
<path d="M214.578 296.199C213.246 276.53 211.897 256.826 208.431 237.429C204.917 217.576 198.23 198.418 188.625 180.691C191.101 188.477 198.733 204.835 198.733 204.835C198.733 204.835 209.746 262.887 214.527 292.187" fill="black"/>
</g>
<path d="M217.056 318.8L214.307 349.294H228.7L241.438 349.089C246.291 349.616 251.179 349.741 256.053 349.465C256.289 349.472 256.522 349.426 256.736 349.329C257.493 349.221 258.236 349.037 258.956 348.782C260.254 348.304 261.585 347.467 261.381 346.033C260.749 341.662 258.154 341.304 258.154 341.304H256.856L256.753 340.928C258.717 340.928 260.39 340.928 261.261 340.774C261.671 340.774 261.91 340.689 261.944 340.621C261.978 340.552 267.066 340.023 266.657 337.325C266.093 332.818 263.498 332.459 263.498 332.459L259.298 332.186C261.329 332.186 263.071 332.186 263.959 332.032C264.369 332.032 264.608 331.947 264.642 331.879C264.676 331.81 269.764 331.281 269.354 328.583C268.723 324.212 266.127 323.854 266.127 323.854L262.712 323.615C264.42 323.615 265.735 323.615 266.503 323.478C266.913 323.478 267.152 323.393 267.186 323.324C267.22 323.256 272.308 322.727 271.898 320.029C271.198 315.641 268.62 315.385 268.62 315.385C268.62 315.385 260.595 314.804 255.08 314.582C255.08 314.582 248.814 308.948 246.355 309.204C242.667 309.596 221.256 317.502 221.256 317.502L217.056 318.8Z" fill="#FFD1BD"/>
<path d="M244.064 340.358C246.405 340.884 248.802 341.114 251.201 341.041C253.557 341.259 255.931 341.184 258.27 340.819C255.929 340.288 253.531 340.053 251.132 340.119C248.776 339.891 246.4 339.971 244.064 340.358Z" fill="#CC8F75"/>
<path d="M244.031 331.703C247.379 332.291 250.774 332.571 254.173 332.54C257.584 332.812 261.013 332.777 264.418 332.437C261.07 331.851 257.675 331.577 254.276 331.618C250.865 331.336 247.436 331.364 244.031 331.703Z" fill="#CC8F75"/>
<g opacity="0.78">
<path d="M244.718 322.927C248.101 323.507 251.53 323.781 254.962 323.747C258.373 324.028 261.803 323.994 265.207 323.644C261.857 323.071 258.463 322.797 255.065 322.825C251.62 322.538 248.156 322.573 244.718 322.927Z" fill="#CC8F75"/>
</g>
<path d="M257.352 314.665C256.289 314.871 255.206 314.957 254.125 314.921L246.322 315.177L238.519 315.467C237.44 315.577 236.353 315.577 235.274 315.467C236.319 315.163 237.397 314.991 238.484 314.955C240.482 314.767 243.248 314.562 246.304 314.46C249.361 314.357 252.11 314.357 254.125 314.46C255.205 314.4 256.288 314.469 257.352 314.665Z" fill="#CC8F75"/>
<path d="M98.4202 66.2845C94.8004 57.4912 83.3606 53.4787 74.4136 56.757C65.4667 60.0352 59.5248 69.1871 58.4491 78.6463C57.7095 83.3138 58.6796 88.0914 61.181 92.1009C62.6786 94.0595 64.5588 95.6931 66.7074 96.9024C68.856 98.1117 71.2281 98.8715 73.6794 99.1355C78.0581 99.7468 82.5206 99.1826 86.6093 97.5007C90.6981 95.8188 94.266 93.0798 96.9472 89.5645C99.6285 86.0492 101.327 81.884 101.867 77.4961C102.408 73.1081 101.772 68.6553 100.025 64.5941" fill="#263238"/>
<path d="M62.0205 67.4409C62.0205 67.4409 62.1913 67.9019 62.6694 68.619C63.3502 69.6164 64.1156 70.5532 64.9573 71.4192C67.7556 74.3188 71.2019 76.5131 75.013 77.8221C78.8241 79.1311 82.8914 79.5173 86.8808 78.949C88.0787 78.7775 89.2607 78.5091 90.4152 78.1465C90.8541 78.0472 91.2708 77.8678 91.6445 77.6172C91.6445 77.4635 89.8005 78.044 86.8125 78.3172C82.9262 78.6946 79.0042 78.2346 75.3107 76.9681C71.6172 75.7016 68.2382 73.6581 65.4012 70.9752C63.2669 68.9092 62.1913 67.3555 62.0205 67.4409Z" fill="#455A64"/>
<path d="M58.2793 77.4813C58.2793 77.4813 58.5866 77.857 59.2525 78.4034C60.1984 79.1799 61.1905 79.8984 62.2235 80.5547C65.6269 82.7631 69.3967 84.3474 73.3559 85.2331C75.5523 85.6739 77.7941 85.8459 80.032 85.7453C81.8527 85.6545 83.6572 85.3567 85.4104 84.8575C86.5881 84.5441 87.732 84.1151 88.8253 83.5769C89.5937 83.2013 90.0205 82.9622 89.9864 82.911C89.9522 82.8598 88.1765 83.5598 85.2226 84.2599C83.4957 84.6559 81.7346 84.8847 79.9637 84.9428C77.792 84.9836 75.6223 84.789 73.4925 84.3623C69.6302 83.4861 65.9268 82.0174 62.5137 80.0083C59.9014 78.4887 58.3647 77.3618 58.2793 77.4813Z" fill="#455A64"/>
<path d="M190.759 92.5589C211.897 46.0655 161.613 22.7248 134.191 30.4595C108.409 37.7503 97.4133 50.5731 93.213 67.8182C89.0127 85.0633 89.1664 103.674 95.9278 120.185C99.3427 128.278 105.267 136.525 113.975 137.533" fill="#263238"/>
<path d="M165.507 207.455C165.883 185.258 166.139 154.73 166.139 154.866C166.139 155.003 185.228 151.69 189.189 126.779C191.153 114.4 190.538 94.0815 189.497 77.4852C188.54 62.5281 178.654 44.2073 163.748 45.7781L117.255 57.5594C115.071 57.7901 113.054 58.8324 111.603 60.4799C110.151 62.1274 109.371 64.26 109.418 66.4552L112.457 162.618" fill="#FFD1BD"/>
<path d="M178.125 95.1193C178.139 95.9461 177.832 96.7463 177.268 97.3514C176.705 97.9565 175.928 98.3193 175.102 98.3634C174.699 98.4008 174.292 98.3571 173.906 98.235C173.52 98.1129 173.162 97.9148 172.853 97.6523C172.544 97.3898 172.291 97.0682 172.109 96.7066C171.926 96.3449 171.818 95.9503 171.79 95.5461C171.771 94.7181 172.077 93.9154 172.641 93.3094C173.206 92.7034 173.985 92.3419 174.812 92.302C175.216 92.2646 175.622 92.3083 176.009 92.4304C176.395 92.5525 176.753 92.7507 177.062 93.0132C177.37 93.2756 177.623 93.5972 177.806 93.9589C177.988 94.3206 178.097 94.7151 178.125 95.1193Z" fill="#263238"/>
<path d="M143.636 95.1193C143.655 95.9473 143.349 96.75 142.785 97.356C142.22 97.9621 141.441 98.3235 140.614 98.3634C140.21 98.4008 139.804 98.3571 139.417 98.235C139.031 98.1129 138.673 97.9148 138.364 97.6523C138.056 97.3898 137.803 97.0682 137.62 96.7066C137.438 96.3449 137.329 95.9503 137.301 95.5461C137.287 94.7193 137.594 93.9191 138.157 93.314C138.721 92.7089 139.498 92.3461 140.323 92.302C140.727 92.2646 141.134 92.3083 141.52 92.4304C141.906 92.5525 142.264 92.7507 142.573 93.0132C142.882 93.2756 143.135 93.5972 143.317 93.9589C143.5 94.3206 143.608 94.7151 143.636 95.1193Z" fill="#263238"/>
<path d="M164.245 112.803C166.06 112.245 167.934 111.907 169.829 111.796C170.717 111.711 171.536 111.54 171.69 110.942C171.767 110.033 171.565 109.121 171.109 108.33L168.514 101.654C164.911 92.1264 162.299 84.3064 162.675 84.1698C163.05 84.0332 166.294 91.6313 169.897 101.142C170.768 103.481 171.605 105.718 172.39 107.869C172.943 108.917 173.107 110.127 172.851 111.284C172.724 111.596 172.527 111.875 172.275 112.1C172.024 112.325 171.724 112.49 171.4 112.582C170.914 112.708 170.416 112.777 169.914 112.786C168.034 113.041 166.128 113.046 164.245 112.803Z" fill="#263238"/>
<path d="M166.172 154.964C154.44 155.139 142.89 152.053 132.809 146.051C132.809 146.051 141.26 163.415 166.172 161.059V154.964Z" fill="#CC8F75"/>
<path d="M114.185 97.8389C113.81 97.6682 100.85 91.9312 100.696 106.837C100.543 121.743 115.551 118.789 115.585 118.414C115.619 118.038 114.185 97.8389 114.185 97.8389Z" fill="#FFD1BD"/>
<path d="M111.077 112.702C111.077 112.702 110.821 112.872 110.377 113.077C109.753 113.332 109.054 113.332 108.43 113.077C106.859 112.48 105.562 109.97 105.51 107.289C105.489 106.007 105.751 104.736 106.279 103.567C106.424 103.103 106.681 102.682 107.026 102.34C107.371 101.998 107.795 101.745 108.259 101.603C108.557 101.527 108.871 101.556 109.149 101.687C109.426 101.818 109.649 102.042 109.779 102.32C109.984 102.747 109.882 103.038 109.967 103.072C110.052 103.106 110.291 102.816 110.172 102.201C110.088 101.832 109.883 101.502 109.591 101.262C109.182 100.95 108.668 100.809 108.157 100.869C107.544 100.986 106.971 101.257 106.493 101.658C106.015 102.058 105.647 102.574 105.425 103.157C104.767 104.439 104.444 105.866 104.486 107.306C104.486 110.311 106.057 113.129 108.208 113.777C108.606 113.901 109.027 113.932 109.439 113.866C109.85 113.801 110.241 113.642 110.582 113.402C111.043 113.06 111.128 112.736 111.077 112.702Z" fill="#CC8F75"/>
<path d="M163.237 122.442C162.804 123.741 162.176 124.967 161.376 126.079C160.98 126.634 160.47 127.099 159.882 127.443C159.293 127.787 158.639 128.003 157.961 128.076C157.215 128.081 156.48 127.895 155.825 127.537C155.171 127.178 154.619 126.659 154.221 126.027C153.458 124.778 153.1 123.323 153.197 121.861C153.197 120.547 153.863 118.976 155.16 118.822C155.712 118.804 156.258 118.927 156.748 119.181L163.578 121.947" fill="#CC8F75"/>
<path d="M160.504 128.054C159.263 128.149 158.015 127.998 156.833 127.61C155.635 127.139 154.652 126.246 154.067 125.1C153.753 124.393 153.59 123.628 153.59 122.855C153.59 122.081 153.753 121.317 154.067 120.61C154.225 120.246 154.426 119.902 154.664 119.585C154.937 119.295 154.886 119.312 155.176 119.363C155.467 119.414 155.911 119.653 156.286 119.79L157.413 120.251C158.882 120.849 160.213 121.361 161.323 121.788C162.499 122.363 163.763 122.739 165.062 122.898C164.032 122.084 162.88 121.439 161.648 120.985C160.572 120.456 159.274 119.858 157.84 119.278L156.73 118.783C156.319 118.588 155.897 118.417 155.467 118.27C155.14 118.16 154.786 118.16 154.459 118.27C154.159 118.405 153.895 118.61 153.691 118.868C153.389 119.278 153.131 119.718 152.923 120.183C152.55 121.055 152.377 122 152.415 122.948C152.454 123.896 152.703 124.824 153.145 125.664C153.869 127.015 155.096 128.026 156.559 128.481C157.521 128.787 158.547 128.828 159.53 128.6C160.196 128.361 160.521 128.122 160.504 128.054Z" fill="#263238"/>
<path d="M97.4501 87.6214C98.9868 87.519 111.297 89.1069 110.324 112.004C109.419 133.398 94.428 128.685 89.6301 120.643C85.1054 113.011 82.5101 88.68 97.4501 87.6214Z" fill="#455A64"/>
<path d="M89.8325 90.3419C89.8499 90.1431 89.8499 89.9431 89.8325 89.7443C89.8325 89.2833 89.8325 88.7199 89.8325 88.0369C89.8325 86.466 89.9349 84.2634 90.0203 81.5145C90.1228 75.897 90.2764 68.094 90.4643 59.0617L90.1911 59.3349H96.6793L96.3891 59.0446C96.3891 60.7521 96.2866 62.5449 96.2525 64.3718C96.0305 72.909 95.8256 80.951 95.6719 87.6612V87.8491H95.8768C98.4756 88.4537 100.786 89.9375 102.416 92.0493C103.643 93.7032 104.531 95.5833 105.029 97.5814C105.356 98.8645 105.579 100.172 105.695 101.491C105.695 101.952 105.695 102.294 105.695 102.533C105.695 102.772 105.695 102.892 105.695 102.892C105.716 102.773 105.716 102.652 105.695 102.533C105.695 102.294 105.695 101.952 105.695 101.474C105.63 100.14 105.447 98.8148 105.148 97.5131C104.687 95.4614 103.809 93.5263 102.57 91.8274C100.886 89.5872 98.4689 88.0098 95.7402 87.371L95.928 87.61C96.1159 80.9169 96.3549 72.9261 96.5939 64.3377C96.5939 62.5107 96.6964 60.7008 96.7305 58.9934V58.7031H89.8154V58.9763C89.713 67.9916 89.6276 75.8116 89.5593 81.4291C89.5593 84.1781 89.5593 86.3807 89.5593 87.9515V89.6589C89.6301 89.8942 89.7215 90.1227 89.8325 90.3419Z" fill="#455A64"/>
<path d="M97.4476 59.0123C102.067 49.3299 109.724 41.4217 119.252 36.4912C125.119 33.5617 131.284 31.2719 137.641 29.6615C137.641 29.6615 128.677 27.5443 114.18 33.9813C107.607 36.9181 100.965 40.811 96.5768 46.4456C93.7937 50.0824 90.3105 57.1682 90.3276 58.9952L97.4476 59.0123Z" fill="#455A64"/>
<path d="M99.0871 127.032C99.2412 127.021 99.3919 126.98 99.531 126.913C99.9286 126.747 100.311 126.547 100.675 126.315C102.004 125.446 103.109 124.276 103.902 122.9C105.026 120.828 105.701 118.541 105.883 116.19C106.138 113.35 106.138 110.493 105.883 107.653C105.641 104.808 105.167 101.987 104.465 99.2183C103.974 96.9236 103.145 94.7141 102.007 92.6618C101.209 91.2843 100.097 90.1144 98.7627 89.2469C98.4033 89.0128 98.0198 88.8182 97.6187 88.6664C97.4795 88.599 97.3289 88.5584 97.1747 88.5469C97.1747 88.5469 97.7382 88.803 98.6431 89.4347C99.8844 90.3424 100.915 91.5072 101.665 92.8496C102.721 94.8914 103.491 97.0689 103.953 99.3208C104.619 102.071 105.076 104.868 105.319 107.687C105.549 110.5 105.549 113.326 105.319 116.139C105.169 118.431 104.553 120.667 103.509 122.713C102.773 124.059 101.746 125.226 100.504 126.128C99.5822 126.776 99.07 126.981 99.0871 127.032Z" fill="#263238"/>
<path d="M148.473 123.58L160.269 125.894C161.842 126.203 162.867 127.728 162.558 129.301L162.384 130.189C162.076 131.763 160.55 132.788 158.977 132.479L147.182 130.165C145.608 129.856 144.583 128.331 144.892 126.758L145.066 125.87C145.375 124.297 146.9 123.271 148.473 123.58Z" fill="#455A64"/>
<path d="M146.539 125.306L94.2062 108.881C93.8935 108.777 93.5633 108.736 93.2347 108.761C92.9062 108.786 92.5857 108.875 92.292 109.024C91.9983 109.174 91.737 109.38 91.5234 109.63C91.3098 109.881 91.148 110.172 91.0474 110.486C90.9458 110.804 90.9097 111.139 90.9411 111.472C90.9726 111.805 91.0711 112.127 91.2306 112.421C91.3901 112.714 91.6074 112.973 91.8694 113.18C92.1313 113.387 92.4325 113.54 92.7548 113.627L146.283 128.089L146.539 125.306Z" fill="#455A64"/>
<path d="M107.864 118.084C107.308 117.851 106.737 117.651 106.157 117.487L101.376 116.018C99.361 115.404 96.9023 114.755 94.2899 113.901C93.6535 113.67 93.0721 113.31 92.5825 112.843C92.1057 112.355 91.8417 111.698 91.8483 111.016C91.8484 110.684 91.9522 110.361 92.1451 110.092C92.338 109.822 92.6103 109.62 92.924 109.513C93.6395 109.319 94.394 109.319 95.1095 109.513L110.801 114.635L115.582 116.121C116.139 116.314 116.71 116.468 117.289 116.582C116.738 116.312 116.167 116.084 115.582 115.899L110.852 114.191C106.857 112.843 101.359 110.947 95.1778 109.069C94.3596 108.821 93.4861 108.821 92.6679 109.069C92.246 109.212 91.8793 109.482 91.619 109.844C91.3588 110.205 91.2181 110.639 91.2165 111.084C91.211 111.496 91.2882 111.904 91.4437 112.286C91.5991 112.667 91.8296 113.013 92.1215 113.304C92.6663 113.83 93.3187 114.232 94.0338 114.482C96.7316 115.335 99.1561 115.916 101.188 116.496L106.02 117.777C106.623 117.939 107.241 118.042 107.864 118.084Z" fill="#263238"/>
<path d="M135.321 87.8643C135.731 88.496 139.316 86.5496 143.756 87.335C148.195 88.1204 150.944 91.1255 151.525 90.6645C151.815 90.4767 151.525 89.3668 150.329 88.0179C148.714 86.2719 146.564 85.1126 144.217 84.7226C141.886 84.3028 139.482 84.6755 137.387 85.7812C135.765 86.5837 135.116 87.5911 135.321 87.8643Z" fill="#CC8F75"/>
<path d="M135.83 88.4256C136.656 88.2718 137.471 88.0665 138.271 87.8109C140.217 87.38 142.233 87.38 144.179 87.8109C146.112 88.2654 147.924 89.1334 149.489 90.355C150.702 91.3112 151.333 92.0624 151.436 91.96C151.538 91.8575 151.06 91.0038 149.899 89.8769C148.353 88.4203 146.443 87.4061 144.371 86.9405C142.298 86.4749 140.138 86.575 138.118 87.2304C136.581 87.7085 135.779 88.289 135.83 88.4256Z" fill="#263238"/>
<path d="M133.527 78.4128C133.902 79.608 137.71 79.5227 142.235 79.7446C146.759 79.9666 150.584 80.2227 151.011 79.0617C151.216 78.4811 150.43 77.6103 148.877 76.8249C144.753 74.9632 140.064 74.7916 135.815 76.3468C134.21 77.0127 133.373 77.8323 133.527 78.4128Z" fill="#263238"/>
<path d="M171.075 90.4921C171.416 90.68 172.082 90.0482 173.175 89.2969C174.523 88.3494 176.071 87.7243 177.7 87.47C181.558 86.8382 184.666 88.614 185.11 87.9822C185.315 87.7261 184.785 86.8382 183.402 85.9845C181.555 84.901 179.389 84.4908 177.273 84.8235C175.118 85.1244 173.165 86.2509 171.826 87.9651C170.87 89.2969 170.784 90.3385 171.075 90.4921Z" fill="#CC8F75"/>
<path d="M170.645 92.3356C170.765 92.3356 171.345 91.5672 172.557 90.4915C174.108 89.0886 175.999 88.1169 178.042 87.6734C180.086 87.23 182.21 87.3304 184.202 87.9646C185.739 88.4426 186.627 88.9719 186.695 88.8524C186.763 88.7329 185.995 88.0329 184.407 87.367C182.324 86.5377 180.042 86.3475 177.851 86.8206C175.657 87.2934 173.657 88.4183 172.114 90.0476C171.422 90.6601 170.914 91.452 170.645 92.3356Z" fill="#263238"/>
<path d="M169.108 79.9091C169.33 81.1213 172.967 81.4799 177.27 81.5311C181.573 81.5824 185.226 81.258 185.465 80.0286C185.705 78.7992 182.051 77.1089 177.304 77.0747C172.557 77.0406 168.869 78.7139 169.108 79.9091Z" fill="#263238"/>
<path d="M128.898 44.5786C131.8 48.502 134.101 52.8351 135.728 57.4355C136.527 59.7417 136.811 62.1948 136.56 64.6225C136.309 67.0501 135.53 69.3934 134.277 71.4877C131.647 75.3295 127.157 77.3613 123.059 79.5981C118.961 81.8348 114.778 84.9082 113.754 89.4499C113.446 90.8671 114.044 95.8528 112.985 96.8431C111.517 98.192 108.939 97.3554 107.863 95.6992C106.787 94.0429 106.019 88.5621 105.985 86.5644L105.729 67.9533C105.729 62.6944 105.729 57.2477 107.999 52.5864C111.192 45.9616 117.783 43.8444 127.413 44.3224" fill="#263238"/>
<path d="M190.079 81.9367C189.347 75.6025 186.903 69.5875 183.01 64.5379C179.074 59.4943 173.401 56.0976 167.096 55.0104C160.813 54.0543 154.461 55.7958 148.11 56.1544C141.758 56.513 134.553 54.9592 131.24 49.5466C130.199 47.8392 129.721 45.4829 131.035 44.0145C131.569 43.4862 132.201 43.0685 132.897 42.7852C141.321 38.6951 150.761 37.1693 160.045 38.3971C169.362 39.6859 177.853 44.4343 183.829 51.698C186.761 55.3475 188.825 59.6152 189.867 64.1791C190.908 68.7431 190.898 73.4839 189.84 78.0437" fill="#263238"/>
<path d="M193.851 72.5878C193.983 72.3343 194.081 72.0645 194.142 71.7853C194.373 70.9913 194.545 70.1808 194.654 69.3608C195.022 66.318 194.731 63.2315 193.8 60.3114C192.417 55.9461 189.816 52.0662 186.304 49.1276C182.004 45.5369 176.812 43.1769 171.279 42.2979C165.786 41.454 160.181 41.7035 154.785 43.0321C152.468 43.5849 150.187 44.2806 147.955 45.1152C145.821 45.9006 143.926 46.8226 142.099 47.2495C139.221 48.033 136.226 48.299 133.254 48.0349C132.184 47.8113 131.186 47.3242 130.352 46.6177C130.51 46.8635 130.706 47.0825 130.932 47.2665C131.579 47.809 132.346 48.1895 133.169 48.3764C136.208 48.7954 139.3 48.6155 142.27 47.8471C144.148 47.3861 146.094 46.5494 148.194 45.8152C150.429 45.0184 152.71 44.3569 155.024 43.8346C160.321 42.5739 165.811 42.3478 171.194 43.1687C176.56 44.006 181.609 46.2506 185.826 49.674C189.251 52.4953 191.823 56.2139 193.254 60.4138C194.225 63.2431 194.597 66.2434 194.346 69.2242C194.107 71.4268 193.766 72.5707 193.851 72.5878Z" fill="#455A64"/>
<path d="M166.293 33.4145C165.789 33.2304 165.259 33.1266 164.722 33.1071C163.275 32.9591 161.816 32.9591 160.368 33.1071C155.536 33.5669 150.937 35.404 147.118 38.4002C144.916 40.1076 143.072 42.0712 141.108 43.3859C139.364 44.5352 137.408 45.3247 135.354 45.708C133.98 46.0374 132.56 46.1355 131.154 45.9983C130.164 45.8788 129.668 45.6056 129.617 45.6739C130.031 46.035 130.541 46.2666 131.086 46.3398C132.535 46.6166 134.024 46.6166 135.474 46.3398C137.642 46.0281 139.72 45.2599 141.569 44.086C143.635 42.7371 145.531 40.8247 147.665 39.1173C151.372 36.2276 155.779 34.3719 160.436 33.7389C164.022 33.2437 166.276 33.6535 166.293 33.4145Z" fill="#455A64"/>
<path d="M90.8905 79.1377C90.8905 79.1377 91.232 78.5572 91.9491 77.6011C93.0073 76.2814 94.3654 75.2335 95.9104 74.5447C98.1993 73.5338 100.682 73.0384 103.184 73.0934C106.281 73.2657 109.359 73.6883 112.387 74.3569C115.485 75.0407 118.664 75.2821 121.829 75.0741C124.41 74.8514 126.943 74.2412 129.342 73.2642C130.956 72.6102 132.496 71.7859 133.935 70.8055C134.504 70.4595 135.012 70.0209 135.438 69.5078C133.42 70.6918 131.32 71.7302 129.154 72.6153C126.785 73.4748 124.309 74.0034 121.795 74.1862C118.707 74.3467 115.611 74.0882 112.592 73.4178C109.516 72.7327 106.384 72.3269 103.235 72.2056C100.616 72.1803 98.0261 72.7648 95.6713 73.913C94.0745 74.6915 92.7045 75.8674 91.693 77.3279C91.4403 77.7293 91.2232 78.1521 91.0442 78.5914C90.9076 78.967 90.8564 79.1377 90.8905 79.1377Z" fill="#455A64"/>
<path d="M93.5896 67.1909C93.5896 67.1909 93.914 66.6103 94.6482 65.6883C95.7237 64.4418 97.0902 63.48 98.6265 62.8881C100.928 62.0398 103.404 61.7757 105.832 62.1198C108.581 62.393 111.569 63.2296 114.796 63.8272C117.852 64.5285 121.033 64.4816 124.067 63.6906C126.529 62.9318 128.752 61.5496 130.521 59.6781C131.717 58.4481 132.683 57.014 133.373 55.4437C133.522 55.0198 133.642 54.5863 133.731 54.146C133.761 53.9881 133.761 53.8259 133.731 53.668C132.784 55.7334 131.49 57.6217 129.907 59.2513C128.158 60.9625 126.019 62.2224 123.675 62.9223C120.751 63.6254 117.702 63.6254 114.779 62.9223C111.62 62.3247 108.598 61.5051 105.729 61.2148C103.18 60.8992 100.593 61.2462 98.2167 62.2222C96.6133 62.8928 95.2252 63.9915 94.2043 65.398C93.8481 65.9326 93.6364 66.5502 93.5896 67.1909Z" fill="#455A64"/>
<path d="M157.633 237.952L157.308 237.678L156.369 236.927C155.174 235.944 154.034 234.895 152.954 233.785C151.2 231.991 149.564 230.087 148.054 228.083C146.347 225.76 144.349 222.96 142.249 219.853C138.049 213.638 133.131 206.057 127.906 197.332C125.294 192.961 122.596 188.299 119.881 183.382C119.198 182.153 118.533 180.906 117.833 179.66C117.176 178.346 116.392 177.099 115.493 175.937C114.557 174.739 113.303 173.828 111.874 173.308C111.142 173.017 110.346 172.929 109.569 173.052C109.158 173.151 108.781 173.357 108.476 173.65C108.198 173.978 107.994 174.362 107.878 174.776V174.862C108.043 175.385 108.317 175.868 108.681 176.279C109.073 176.7 109.61 176.956 110.183 176.996C111.255 176.994 112.294 176.633 113.137 175.972C114.017 175.342 114.668 174.444 114.995 173.413C115.321 172.382 115.304 171.273 114.947 170.252C114.574 169.175 113.796 168.287 112.778 167.776C111.787 167.26 110.648 167.097 109.551 167.315C108.975 167.403 108.43 167.638 107.97 167.997C107.509 168.355 107.149 168.826 106.922 169.364C106.804 169.67 106.777 170.003 106.844 170.324C106.91 170.645 107.068 170.94 107.298 171.174C107.724 171.587 108.255 171.877 108.834 172.01C109.804 172.232 110.819 172.128 111.723 171.714C112.628 171.3 113.371 170.601 113.837 169.722C114.303 168.816 114.412 167.769 114.144 166.786C113.883 165.829 113.349 164.969 112.608 164.31C111.882 163.655 110.939 163.29 109.961 163.285C109.466 163.29 108.979 163.411 108.54 163.64C108.101 163.868 107.722 164.197 107.434 164.6C107.137 165.047 107.026 165.592 107.127 166.12C107.173 166.379 107.27 166.626 107.414 166.846C107.558 167.066 107.745 167.254 107.964 167.4C108.363 167.675 108.823 167.85 109.305 167.909C109.786 167.968 110.275 167.911 110.73 167.742C111.169 167.551 111.563 167.27 111.887 166.917C112.21 166.564 112.456 166.147 112.608 165.693C112.903 164.819 113.042 163.9 113.018 162.978C113.069 161.177 112.6 159.398 111.669 157.856C111.174 157.081 110.416 156.511 109.534 156.251C109.095 156.154 108.642 156.145 108.199 156.224C107.757 156.303 107.334 156.469 106.956 156.712C106.548 156.939 106.211 157.274 105.982 157.681C105.753 158.088 105.641 158.55 105.658 159.017C105.716 159.479 105.908 159.913 106.212 160.266C106.516 160.618 106.918 160.873 107.366 160.997C107.785 161.139 108.232 161.177 108.669 161.108C109.106 161.04 109.52 160.867 109.876 160.605C110.552 160.049 111.001 159.266 111.139 158.402C111.274 157.571 111.198 156.72 110.917 155.926C110.723 155.146 110.442 154.391 110.081 153.673C109.71 152.963 109.148 152.372 108.459 151.965C107.792 151.549 107.038 151.292 106.256 151.214C105.851 151.156 105.438 151.209 105.061 151.367C104.704 151.565 104.395 151.839 104.156 152.17C103.916 152.496 103.747 152.868 103.661 153.263C103.547 153.681 103.595 154.126 103.797 154.509C104.024 154.846 104.348 155.106 104.727 155.252C105.106 155.399 105.52 155.426 105.915 155.329C106.652 155.201 107.331 154.849 107.861 154.321C108.887 153.297 109.496 151.928 109.569 150.48C109.666 149.091 109.299 147.71 108.527 146.553C108.144 146.001 107.65 145.535 107.076 145.187C106.505 144.869 105.867 144.693 105.215 144.674C104.56 144.633 103.912 144.826 103.388 145.221C103.134 145.425 102.932 145.686 102.799 145.982C102.665 146.279 102.604 146.603 102.619 146.928C102.709 147.542 102.999 148.108 103.443 148.541C103.888 148.973 104.462 149.246 105.078 149.319C105.648 149.351 106.215 149.218 106.712 148.937C107.208 148.655 107.613 148.236 107.878 147.731C108.418 146.82 108.663 145.764 108.578 144.708C108.214 142.919 107.587 141.193 106.717 139.586L104.856 135.352C103.746 132.825 102.858 130.861 102.261 129.512L101.578 127.993C101.501 127.818 101.416 127.647 101.322 127.48C101.377 127.661 101.446 127.838 101.526 128.01L102.158 129.546L104.651 135.437L106.41 139.518C107.221 141.135 107.796 142.86 108.117 144.64C108.195 145.626 107.962 146.611 107.451 147.457C107.213 147.901 106.854 148.268 106.416 148.516C105.978 148.763 105.478 148.882 104.976 148.858C104.454 148.788 103.969 148.553 103.591 148.187C103.213 147.822 102.962 147.344 102.875 146.826C102.864 146.559 102.915 146.294 103.025 146.051C103.135 145.807 103.3 145.593 103.507 145.426C103.962 145.112 104.508 144.956 105.061 144.982C105.659 145.006 106.244 145.17 106.768 145.46C107.286 145.783 107.733 146.207 108.083 146.706C108.793 147.78 109.123 149.06 109.022 150.343C108.964 151.674 108.41 152.935 107.468 153.877C107.005 154.34 106.408 154.645 105.761 154.748C105.451 154.841 105.12 154.835 104.814 154.731C104.508 154.627 104.242 154.43 104.053 154.168C103.96 153.879 103.941 153.571 103.997 153.272C104.054 152.974 104.185 152.695 104.378 152.46C104.571 152.192 104.822 151.97 105.112 151.811C105.415 151.69 105.745 151.649 106.068 151.692C106.785 151.75 107.476 151.991 108.073 152.392C108.671 152.792 109.156 153.339 109.483 153.98C109.827 154.66 110.096 155.376 110.286 156.114C110.533 156.833 110.598 157.601 110.473 158.351C110.36 159.084 109.976 159.748 109.398 160.212C109.111 160.427 108.776 160.57 108.422 160.626C108.068 160.683 107.705 160.652 107.366 160.536C107.018 160.444 106.705 160.25 106.468 159.98C106.231 159.709 106.08 159.374 106.034 159.017C106.031 158.65 106.127 158.289 106.314 157.973C106.5 157.657 106.77 157.398 107.093 157.224C107.737 156.817 108.515 156.676 109.261 156.831C110.008 157.076 110.647 157.57 111.071 158.231C111.928 159.688 112.36 161.356 112.317 163.046C112.336 163.894 112.203 164.738 111.925 165.539C111.798 165.913 111.597 166.258 111.333 166.551C111.068 166.845 110.747 167.082 110.388 167.247C110.016 167.379 109.618 167.422 109.226 167.371C108.835 167.321 108.461 167.179 108.134 166.956C107.978 166.85 107.844 166.714 107.741 166.556C107.638 166.398 107.566 166.221 107.531 166.036C107.497 165.85 107.499 165.659 107.538 165.474C107.577 165.29 107.652 165.114 107.759 164.959C107.996 164.633 108.307 164.368 108.666 164.184C109.025 164 109.421 163.903 109.825 163.9C110.665 163.906 111.474 164.223 112.096 164.788C112.794 165.32 113.286 166.078 113.487 166.933C113.688 167.787 113.587 168.685 113.2 169.473C112.813 170.261 112.165 170.891 111.365 171.254C110.566 171.617 109.665 171.691 108.817 171.464C108.342 171.365 107.904 171.135 107.554 170.798C107.405 170.642 107.304 170.446 107.262 170.235C107.219 170.024 107.238 169.804 107.315 169.603C107.506 169.155 107.809 168.762 108.195 168.464C108.58 168.165 109.035 167.969 109.517 167.895C110.484 167.687 111.493 167.83 112.364 168.3C113.234 168.769 113.908 169.534 114.264 170.457C114.588 171.379 114.596 172.383 114.287 173.31C113.978 174.237 113.369 175.036 112.557 175.579C111.818 176.167 110.905 176.491 109.961 176.501C109.522 176.434 109.113 176.235 108.79 175.93C108.466 175.625 108.244 175.228 108.151 174.794V174.947C108.219 174.634 108.373 174.346 108.597 174.117C108.82 173.888 109.104 173.726 109.415 173.65C110.096 173.552 110.79 173.635 111.43 173.889C112.776 174.362 113.961 175.209 114.844 176.33C115.71 177.469 116.475 178.68 117.132 179.95C117.815 181.213 118.498 182.46 119.181 183.689C121.913 188.607 124.628 193.251 127.258 197.622C132.499 206.347 137.502 213.894 141.702 220.109C143.837 223.199 145.766 225.982 147.593 228.305C149.133 230.293 150.798 232.18 152.579 233.956C154.119 235.461 155.813 236.8 157.633 237.952Z" fill="#263238"/>
<rect x="23" y="348" width="314" height="13" rx="5" fill="#455A64"/>
</svg>
