<svg width="50" height="50" viewBox="0 0 50 50" fill="none" xmlns="http://www.w3.org/2000/svg">
<path fill-rule="evenodd" clip-rule="evenodd" d="M15.3598 0.0684345C14.9972 0.138649 14.6484 0.64363 14.6484 1.09851C14.6484 1.4822 14.705 1.55564 16.04 2.90437L17.4316 4.31033L17.1875 4.50476C15.9944 5.45486 15.5538 5.86785 15.0164 6.53963C13.454 8.49236 12.5883 10.7923 12.5602 13.0652L12.5488 13.9791L12.8678 14.2649L13.1867 14.5508H25H36.8133L37.1322 14.2648L37.4512 13.9789L37.4349 13.0197C37.3799 9.78748 35.6531 6.58015 32.8598 4.52156L32.5684 4.30691L33.9063 2.95906C34.6422 2.21785 35.2917 1.48416 35.3497 1.32869C35.6437 0.540212 34.7105 -0.275608 33.9535 0.108083C33.8362 0.167556 33.052 0.899196 32.211 1.73386L30.6817 3.25144L29.4767 2.85359C27.7417 2.28084 26.5032 2.11218 24.5131 2.17771C22.7262 2.2366 21.9531 2.37185 20.3817 2.90086L19.328 3.25564L17.7938 1.7323C16.4564 0.404274 15.9026 -0.0383038 15.6431 0.0132587C15.6062 0.020583 15.4788 0.0453877 15.3598 0.0684345ZM19.3612 8.44597C18.6371 8.76072 18.567 9.78054 19.2383 10.2342C19.6871 10.5375 20.1594 10.474 20.5322 10.0604C21.0237 9.51521 20.8402 8.72263 20.1563 8.43689C19.7639 8.27293 19.7593 8.27293 19.3612 8.44597ZM29.8221 8.44109C29.1575 8.73035 28.9839 9.52371 29.4678 10.0604C29.8406 10.474 30.3129 10.5375 30.7617 10.2342C31.4447 9.77263 31.3626 8.7532 30.6174 8.44187C30.2133 8.27302 30.2083 8.27302 29.8221 8.44109ZM6.15576 16.9084C5.4209 17.1986 4.68437 17.9488 4.40732 18.6893L4.19482 19.2574L4.22139 27.2312L4.24805 35.2051L4.52256 35.764C4.82607 36.3822 5.35205 36.8862 6.04141 37.2196C6.74307 37.559 7.87461 37.5405 8.61357 37.1777C9.28145 36.8497 9.97051 36.1181 10.2192 35.473C10.3857 35.0412 10.3999 34.4987 10.4281 27.4902C10.4595 19.7136 10.4348 19.0956 10.0632 18.3693C9.37217 17.0187 7.57627 16.3472 6.15576 16.9084ZM12.8678 16.9842L12.5488 17.2691L12.5213 25.9441C12.5021 31.9827 12.5269 34.8179 12.6025 35.2733C12.9017 37.0728 14.2595 38.6498 16.0468 39.2736L16.6992 39.5012V43.4774C16.6992 47.3031 16.7071 47.4748 16.9085 48.013C17.16 48.6851 17.8023 49.3653 18.5059 49.7046C19.2432 50.06 20.3564 50.0484 21.1136 49.6772C21.7842 49.3484 22.4731 48.6154 22.7152 47.973C22.8701 47.5623 22.894 47.0582 22.9264 43.5303L22.9629 39.5508H25H27.0371L27.0736 43.5303C27.106 47.0582 27.1299 47.5623 27.2848 47.973C27.5269 48.6154 28.2158 49.3484 28.8864 49.6772C29.6436 50.0484 30.7568 50.06 31.4941 49.7046C32.1977 49.3653 32.84 48.6851 33.0915 48.013C33.2929 47.4747 33.3008 47.3032 33.3008 43.4719V39.4901L33.889 39.3138C35.5971 38.8022 37.0982 37.0734 37.3975 35.2733C37.4731 34.8179 37.4979 31.9827 37.4787 25.9441L37.4512 17.2691L37.1322 16.9842L36.8133 16.6992H25H13.1867L12.8678 16.9842ZM41.8945 16.7905C41.1112 17.0297 40.2806 17.6997 39.9372 18.3693C39.5652 19.0948 39.5405 19.7119 39.5719 27.4902C39.6001 34.4987 39.6143 35.0412 39.7808 35.473C40.0295 36.1181 40.7186 36.8497 41.3864 37.1777C41.863 37.4117 42.0562 37.4499 42.7246 37.4425C43.9904 37.4285 44.9463 36.8457 45.4774 35.764L45.752 35.2051L45.7786 27.2312L45.8052 19.2574L45.5927 18.6893C45.3065 17.9246 44.5778 17.1943 43.8165 16.9095C43.2451 16.6958 42.3804 16.6422 41.8945 16.7905Z" fill="white"/>
</svg>
