<svg version="1.1" id="Layer_1" xmlns="http://www.w3.org/2000/svg" xmlns:xlink="http://www.w3.org/1999/xlink" x="0px" y="0px"
	 width="100%" viewBox="0 0 284 104" enable-background="new 0 0 284 104" xml:space="preserve">
<path fill="#FDFDFD" opacity="1.000000" stroke="none" 
	d="
M179.000000,105.000000 
	C119.333351,105.000000 60.166702,105.000000 1.000040,105.000000 
	C1.000026,70.333359 1.000026,35.666721 1.000013,1.000063 
	C95.666603,1.000042 190.333206,1.000042 284.999878,1.000021 
	C284.999908,35.666599 284.999908,70.333199 284.999939,104.999901 
	C249.833328,105.000000 214.666672,105.000000 179.000000,105.000000 
M32.733944,52.465748 
	C41.095314,39.935841 49.456684,27.405931 58.444668,13.937016 
	C44.029087,13.937016 30.782539,14.087003 17.542938,13.849607 
	C13.332133,13.774103 12.106442,15.157515 12.196067,19.276007 
	C12.710161,42.900326 13.085373,66.528809 13.285896,90.157753 
	C13.321765,94.384483 14.927153,95.656723 18.906141,95.606255 
	C30.719961,95.456413 42.536922,95.566429 54.352497,95.527184 
	C55.787853,95.522415 57.222240,95.226334 59.391823,94.982780 
	C58.014343,92.889648 57.081436,91.364609 56.044609,89.913841 
	C48.886692,79.898262 41.617378,69.960213 34.615772,59.836864 
	C33.329624,57.977268 33.101601,55.385845 32.733944,52.465748 
M73.607697,93.041672 
	C79.871841,98.075615 86.850685,94.643967 94.878082,95.775139 
	C92.959473,92.806305 91.970131,91.146156 90.856850,89.573738 
	C83.649796,79.394249 76.517075,69.159370 69.129288,59.112286 
	C66.886986,56.062836 66.907906,53.720566 69.008438,50.635544 
	C76.309494,39.912598 83.385040,29.035894 90.516396,18.197958 
	C91.195877,17.165306 91.666145,15.994987 92.533813,14.303051 
	C90.296783,14.149903 88.680290,14.181653 87.116875,13.909024 
	C77.193092,12.178522 70.689537,15.947139 65.864403,24.953886 
	C61.174828,33.707581 55.123211,41.762108 49.325302,49.877613 
	C46.739826,53.496582 46.968712,56.213879 49.526131,59.671219 
	C57.536907,70.500870 65.284584,81.525139 73.607697,93.041672 
M248.879120,40.910599 
	C251.327072,40.556450 253.787735,39.834225 256.220581,39.918087 
	C263.149017,40.156918 266.220703,43.794075 265.425171,50.128532 
	C258.801117,50.707138 252.130478,50.808895 245.661438,52.002991 
	C240.225403,53.006409 237.176025,57.358330 236.996780,62.235435 
	C236.790436,67.849991 239.568527,72.482689 244.724548,74.472572 
	C251.565460,77.112732 258.114716,76.369659 264.200073,72.158173 
	C264.710236,71.805099 265.264740,71.516106 265.931732,71.117905 
	C266.309265,72.781303 266.628754,74.188904 266.937347,75.548538 
	C269.305573,75.548538 271.399200,75.548538 273.051727,75.548538 
	C273.051727,64.980995 273.490021,54.691113 272.877869,44.464115 
	C272.541504,38.844368 268.237244,35.471157 262.779266,34.018478 
	C254.125916,31.715334 246.458527,34.020840 238.971802,39.049347 
	C240.199509,40.884472 241.256760,42.464802 242.289612,44.008671 
	C244.536819,42.906181 246.328293,42.027283 248.879120,40.910599 
M92.475624,72.133224 
	C102.583801,78.061058 115.268257,76.615280 121.632423,68.809914 
	C129.147049,59.593536 127.677002,45.246712 118.472168,37.967808 
	C109.491135,30.865896 94.914436,31.984791 88.158974,40.294621 
	C80.289879,49.974335 81.928894,63.876160 92.475624,72.133224 
M222.286118,34.036171 
	C218.822128,33.842388 215.301285,33.161133 211.906052,33.557007 
	C204.986603,34.363777 201.008499,38.150654 200.550430,43.500717 
	C200.033569,49.537388 202.910812,53.451164 209.767990,56.014908 
	C213.347244,57.353111 217.096313,58.366646 220.439362,60.145626 
	C221.850754,60.896694 223.249863,63.310287 223.125458,64.844170 
	C223.002518,66.360313 221.207275,68.429520 219.684265,68.980209 
	C217.461624,69.783890 214.704254,69.991745 212.395111,69.473007 
	C208.620056,68.624962 205.022415,66.987175 201.111893,65.597977 
	C200.429001,66.905052 199.686081,68.327049 198.982880,69.672997 
	C203.926102,74.280067 211.113007,76.566223 218.026703,75.873863 
	C225.260117,75.149490 229.865112,71.559418 230.726913,65.972725 
	C231.687668,59.744576 228.301697,54.737011 221.146454,52.061596 
	C218.504822,51.073864 215.714493,50.487076 213.061218,49.526257 
	C210.192993,48.487598 207.071579,47.238735 207.890518,43.353096 
	C208.696762,39.527668 212.152710,39.302582 215.100082,39.653423 
	C218.974625,40.114635 222.764435,41.287819 227.055023,42.260067 
	C227.668030,40.834614 228.413544,39.101059 229.321457,36.989845 
	C226.959579,35.942837 225.018997,35.082596 222.286118,34.036171 
M181.473160,58.933929 
	C183.179962,60.737183 185.313080,62.326256 186.380417,64.450775 
	C186.798126,65.282166 185.151489,68.077873 183.865677,68.630203 
	C181.697433,69.561584 178.940704,70.047264 176.658966,69.588638 
	C172.515549,68.755829 168.539108,67.092262 164.186508,65.675682 
	C163.614288,66.868690 162.858414,68.444595 162.067200,70.094177 
	C167.873184,74.656532 174.182358,76.342888 181.024826,75.858421 
	C188.552139,75.325462 193.341354,71.474548 194.082275,65.812119 
	C194.914993,59.448162 191.689285,54.825603 184.338913,52.070614 
	C181.392502,50.966274 178.120331,50.504910 175.451843,48.962803 
	C173.598373,47.891689 172.522278,45.475391 171.098877,43.660080 
	C173.125961,42.302231 175.162949,39.804672 177.178101,39.822163 
	C181.464096,39.859352 185.738739,41.203888 190.364975,42.078125 
	C190.957092,40.775959 191.690262,39.163616 192.388931,37.627125 
	C186.956802,33.251850 178.130569,31.933779 171.431549,34.379776 
	C167.028015,35.987625 164.007095,38.832073 163.726791,43.782257 
	C163.432480,48.979290 165.628571,52.853935 170.464005,54.898434 
	C173.818573,56.316799 177.322617,57.381645 181.473160,58.933929 
M155.184265,33.759869 
	C151.417542,35.794041 147.650803,37.828213 144.081848,39.755585 
	C143.962463,38.173965 143.793274,35.932613 143.629318,33.760464 
	C140.982773,33.760464 138.770782,33.760464 136.978973,33.760464 
	C136.978973,47.888645 136.978973,61.593281 136.978973,75.457222 
	C139.855682,75.457222 142.048630,75.457222 144.021194,75.457222 
	C144.310043,74.930443 144.457611,74.787407 144.456100,74.645973 
	C144.386856,68.173485 144.225403,61.700909 144.243774,55.228825 
	C144.267136,46.992962 148.108826,42.321945 155.817520,40.880367 
	C156.750443,40.705906 157.671432,40.467716 159.140869,40.136799 
	C157.441803,37.946125 161.938324,33.645966 155.184265,33.759869 
z"/>
<path fill="#1466E7" opacity="1.000000" stroke="none" 
	d="
M32.559555,52.798985 
	C33.101601,55.385845 33.329624,57.977268 34.615772,59.836864 
	C41.617378,69.960213 48.886692,79.898262 56.044609,89.913841 
	C57.081436,91.364609 58.014343,92.889648 59.391823,94.982780 
	C57.222240,95.226334 55.787853,95.522415 54.352497,95.527184 
	C42.536922,95.566429 30.719961,95.456413 18.906141,95.606255 
	C14.927153,95.656723 13.321765,94.384483 13.285896,90.157753 
	C13.085373,66.528809 12.710161,42.900326 12.196067,19.276007 
	C12.106442,15.157515 13.332133,13.774103 17.542938,13.849607 
	C30.782539,14.087003 44.029087,13.937016 58.444668,13.937016 
	C49.456684,27.405931 41.095314,39.935841 32.559555,52.798985 
z"/>
<path fill="#FCF319" opacity="1.000000" stroke="none" 
	d="
M73.370941,92.757835 
	C65.284584,81.525139 57.536907,70.500870 49.526131,59.671219 
	C46.968712,56.213879 46.739826,53.496582 49.325302,49.877613 
	C55.123211,41.762108 61.174828,33.707581 65.864403,24.953886 
	C70.689537,15.947139 77.193092,12.178522 87.116875,13.909024 
	C88.680290,14.181653 90.296783,14.149903 92.533813,14.303051 
	C91.666145,15.994987 91.195877,17.165306 90.516396,18.197958 
	C83.385040,29.035894 76.309494,39.912598 69.008438,50.635544 
	C66.907906,53.720566 66.886986,56.062836 69.129288,59.112286 
	C76.517075,69.159370 83.649796,79.394249 90.856850,89.573738 
	C91.970131,91.146156 92.959473,92.806305 94.878082,95.775139 
	C86.850685,94.643967 79.871841,98.075615 73.370941,92.757835 
z"/>
<path fill="#404040" opacity="1.000000" stroke="none" 
	d="
M248.499435,41.029495 
	C246.328293,42.027283 244.536819,42.906181 242.289612,44.008671 
	C241.256760,42.464802 240.199509,40.884472 238.971802,39.049347 
	C246.458527,34.020840 254.125916,31.715334 262.779266,34.018478 
	C268.237244,35.471157 272.541504,38.844368 272.877869,44.464115 
	C273.490021,54.691113 273.051727,64.980995 273.051727,75.548538 
	C271.399200,75.548538 269.305573,75.548538 266.937347,75.548538 
	C266.628754,74.188904 266.309265,72.781303 265.931732,71.117905 
	C265.264740,71.516106 264.710236,71.805099 264.200073,72.158173 
	C258.114716,76.369659 251.565460,77.112732 244.724548,74.472572 
	C239.568527,72.482689 236.790436,67.849991 236.996780,62.235435 
	C237.176025,57.358330 240.225403,53.006409 245.661438,52.002991 
	C252.130478,50.808895 258.801117,50.707138 265.425171,50.128532 
	C266.220703,43.794075 263.149017,40.156918 256.220581,39.918087 
	C253.787735,39.834225 251.327072,40.556450 248.499435,41.029495 
M258.498352,56.697990 
	C255.198029,56.929127 251.806412,56.760395 248.619431,57.487995 
	C244.178802,58.501816 242.924957,63.410297 245.899872,66.840233 
	C248.699661,70.068275 255.407974,70.717079 260.289093,68.231918 
	C265.136292,65.764030 266.682465,62.344791 265.323944,56.697987 
	C263.415436,56.697987 261.442322,56.697987 258.498352,56.697990 
z"/>
<path fill="#3D3D3D" opacity="1.000000" stroke="none" 
	d="
M92.170280,71.930489 
	C81.928894,63.876160 80.289879,49.974335 88.158974,40.294621 
	C94.914436,31.984791 109.491135,30.865896 118.472168,37.967808 
	C127.677002,45.246712 129.147049,59.593536 121.632423,68.809914 
	C115.268257,76.615280 102.583801,78.061058 92.170280,71.930489 
M113.958237,43.473900 
	C107.612236,38.963673 100.653770,38.816029 95.588669,43.084129 
	C90.727112,47.180717 89.223213,55.618202 92.236908,61.888969 
	C94.888016,67.405281 100.388947,70.180367 107.197815,69.436409 
	C112.856895,68.818077 117.011444,64.902565 118.273880,58.858196 
	C119.431572,53.315342 118.346077,48.298965 113.958237,43.473900 
z"/>
<path fill="#3F3F3F" opacity="1.000000" stroke="none" 
	d="
M222.682281,34.129261 
	C225.018997,35.082596 226.959579,35.942837 229.321457,36.989845 
	C228.413544,39.101059 227.668030,40.834614 227.055023,42.260067 
	C222.764435,41.287819 218.974625,40.114635 215.100082,39.653423 
	C212.152710,39.302582 208.696762,39.527668 207.890518,43.353096 
	C207.071579,47.238735 210.192993,48.487598 213.061218,49.526257 
	C215.714493,50.487076 218.504822,51.073864 221.146454,52.061596 
	C228.301697,54.737011 231.687668,59.744576 230.726913,65.972725 
	C229.865112,71.559418 225.260117,75.149490 218.026703,75.873863 
	C211.113007,76.566223 203.926102,74.280067 198.982880,69.672997 
	C199.686081,68.327049 200.429001,66.905052 201.111893,65.597977 
	C205.022415,66.987175 208.620056,68.624962 212.395111,69.473007 
	C214.704254,69.991745 217.461624,69.783890 219.684265,68.980209 
	C221.207275,68.429520 223.002518,66.360313 223.125458,64.844170 
	C223.249863,63.310287 221.850754,60.896694 220.439362,60.145626 
	C217.096313,58.366646 213.347244,57.353111 209.767990,56.014908 
	C202.910812,53.451164 200.033569,49.537388 200.550430,43.500717 
	C201.008499,38.150654 204.986603,34.363777 211.906052,33.557007 
	C215.301285,33.161133 218.822128,33.842388 222.682281,34.129261 
z"/>
<path fill="#3E3E3E" opacity="1.000000" stroke="none" 
	d="
M181.116516,58.769188 
	C177.322617,57.381645 173.818573,56.316799 170.464005,54.898434 
	C165.628571,52.853935 163.432480,48.979290 163.726791,43.782257 
	C164.007095,38.832073 167.028015,35.987625 171.431549,34.379776 
	C178.130569,31.933779 186.956802,33.251850 192.388931,37.627125 
	C191.690262,39.163616 190.957092,40.775959 190.364975,42.078125 
	C185.738739,41.203888 181.464096,39.859352 177.178101,39.822163 
	C175.162949,39.804672 173.125961,42.302231 171.098877,43.660080 
	C172.522278,45.475391 173.598373,47.891689 175.451843,48.962803 
	C178.120331,50.504910 181.392502,50.966274 184.338913,52.070614 
	C191.689285,54.825603 194.914993,59.448162 194.082275,65.812119 
	C193.341354,71.474548 188.552139,75.325462 181.024826,75.858421 
	C174.182358,76.342888 167.873184,74.656532 162.067200,70.094177 
	C162.858414,68.444595 163.614288,66.868690 164.186508,65.675682 
	C168.539108,67.092262 172.515549,68.755829 176.658966,69.588638 
	C178.940704,70.047264 181.697433,69.561584 183.865677,68.630203 
	C185.151489,68.077873 186.798126,65.282166 186.380417,64.450775 
	C185.313080,62.326256 183.179962,60.737183 181.116516,58.769188 
z"/>
<path fill="#3F3F3F" opacity="1.000000" stroke="none" 
	d="
M155.565521,33.681717 
	C161.938324,33.645966 157.441803,37.946125 159.140869,40.136799 
	C157.671432,40.467716 156.750443,40.705906 155.817520,40.880367 
	C148.108826,42.321945 144.267136,46.992962 144.243774,55.228825 
	C144.225403,61.700909 144.386856,68.173485 144.456100,74.645973 
	C144.457611,74.787407 144.310043,74.930443 144.021194,75.457222 
	C142.048630,75.457222 139.855682,75.457222 136.978973,75.457222 
	C136.978973,61.593281 136.978973,47.888645 136.978973,33.760464 
	C138.770782,33.760464 140.982773,33.760464 143.629318,33.760464 
	C143.793274,35.932613 143.962463,38.173965 144.081848,39.755585 
	C147.650803,37.828213 151.417542,35.794041 155.565521,33.681717 
z"/>
<path fill="#F7F7F7" opacity="1.000000" stroke="none" 
	d="
M258.983765,56.697990 
	C261.442322,56.697987 263.415436,56.697987 265.323944,56.697987 
	C266.682465,62.344791 265.136292,65.764030 260.289093,68.231918 
	C255.407974,70.717079 248.699661,70.068275 245.899872,66.840233 
	C242.924957,63.410297 244.178802,58.501816 248.619431,57.487995 
	C251.806412,56.760395 255.198029,56.929127 258.983765,56.697990 
z"/>
<path fill="#FAFAFA" opacity="1.000000" stroke="none" 
	d="
M114.225227,43.742096 
	C118.346077,48.298965 119.431572,53.315342 118.273880,58.858196 
	C117.011444,64.902565 112.856895,68.818077 107.197815,69.436409 
	C100.388947,70.180367 94.888016,67.405281 92.236908,61.888969 
	C89.223213,55.618202 90.727112,47.180717 95.588669,43.084129 
	C100.653770,38.816029 107.612236,38.963673 114.225227,43.742096 
z"/>
</svg>